<svg width="75" height="14" viewBox="0 0 75 14" fill="none" xmlns="http://www.w3.org/2000/svg">
<path d="M74.8414 5.66107L74.4481 8.67317C74.4031 9.06654 74.3132 9.34752 73.8524 9.34752C73.4028 9.34752 73.3241 9.04406 73.2792 8.67317L72.8858 5.66107V3.50315C72.8858 2.8288 73.2455 2.59277 73.8861 2.59277C74.5043 2.59277 74.8414 2.86251 74.8414 3.50315V5.66107ZM73.8636 10.0781C74.4593 10.0781 74.9426 10.5613 74.9426 11.157C74.9426 11.7639 74.4593 12.2472 73.8636 12.2472C73.268 12.2472 72.7847 11.7639 72.7847 11.157C72.7847 10.5613 73.268 10.0781 73.8636 10.0781Z" fill="#CF2CA0"/>
<path d="M61.2761 6.2452H65.9629C66.0977 6.2452 66.2101 6.2452 66.345 6.25644C65.873 5.672 64.5467 3.81754 64.5467 3.12071C64.5467 2.64866 65.0862 2.37892 65.5021 2.37892C65.9741 2.37892 66.0978 2.61495 66.3001 2.98584C66.8058 3.88497 67.4914 4.86278 68.2332 5.57085C68.8289 6.14405 69.1773 6.36883 69.1773 6.8184C69.1773 7.30168 68.7165 7.8524 68.2107 7.8524C67.9297 7.8524 67.7162 7.70629 67.5139 7.53771V7.63886C67.5139 8.13338 67.4577 9.09995 67.424 9.61695C67.3678 10.325 67.2779 11.1792 67.0868 11.8648C66.7609 13.0561 66.0753 13.0561 64.9401 13.0561C64.7378 13.0561 64.5355 13.0561 64.3332 13.0561C63.6701 13.0561 63.0969 12.9662 63.0969 12.1682C63.0969 11.5613 63.4453 11.3253 64.0073 11.3253C64.2882 11.3253 64.5692 11.359 64.8614 11.359C65.3897 11.359 65.4571 11.0331 65.5358 10.6397C65.6257 10.1227 65.7831 8.76278 65.7831 8.24577C65.7831 7.98727 65.6707 7.86364 65.4009 7.86364H63.7488C63.6476 9.22358 63.1194 10.5161 62.164 11.5051C61.6695 12.0109 60.3208 13.0449 59.6127 13.0449C59.0733 13.0449 58.7024 12.5841 58.7024 12.0671C58.7024 11.64 58.9272 11.4714 59.2868 11.3028C60.2197 10.8645 60.894 10.5161 61.4672 9.60571C61.8156 9.06623 61.973 8.50427 62.0179 7.86364H60.9277C60.613 7.86364 60.2759 7.78497 60.1635 7.45903C59.9499 7.6501 59.7589 7.81869 59.4554 7.81869C58.8934 7.81869 58.4102 7.30168 58.4102 6.73972C58.4102 6.42503 58.545 6.29016 59.0508 5.80687C59.7813 5.12128 60.1297 4.78411 60.6468 4.03108C60.8603 3.71639 61.1413 3.19938 61.3436 2.83973C61.5234 2.53627 61.6695 2.35645 62.0516 2.35645C62.49 2.35645 63.0632 2.62619 63.0632 3.13195C63.0632 3.86249 61.7594 5.64952 61.2761 6.2452Z" fill="#CF2CA0"/>
<path d="M52.0576 4.7936H50.5237C50.0345 4.7936 49.7568 4.39693 49.7568 3.93414C49.7568 3.3259 50.1271 3.19368 50.7617 3.08789C51.7931 2.916 52.1766 2.32099 52.5203 1.40863C52.6526 1.05162 53.036 0.932617 53.3798 0.932617C53.7897 0.932617 54.2922 1.1574 54.2922 1.63341V11.2462C54.2922 12.0396 53.8823 12.2908 53.1418 12.2908C52.4278 12.2908 52.0576 11.9867 52.0576 11.2462V4.7936Z" fill="#CF2CA0"/>
<path d="M40.1692 6.88593C40.63 6.60495 41.1133 6.4476 41.664 6.4476C42.7767 6.4476 43.5072 7.00956 43.5072 8.17844C43.5072 8.51561 43.4735 8.86403 43.4061 9.18996C43.3499 9.52714 43.2937 9.86431 43.2937 10.2127C43.2937 10.7297 43.6983 10.9545 44.1704 10.9545C45.2268 10.9545 45.5078 9.80812 45.5078 8.9427C45.5078 8.59428 45.4741 8.25711 45.4067 7.91993C45.373 7.78506 45.3392 7.63895 45.3392 7.49285C45.3392 7.05452 45.7438 6.69486 46.1822 6.69486C46.407 6.69486 46.6205 6.77354 46.7779 6.94213C47.115 7.30178 47.1712 8.26835 47.1712 8.74039C47.1712 10.7747 46.3957 12.5842 44.0804 12.5842C42.8104 12.5842 41.6191 11.8536 41.6191 10.4712C41.6191 10.0104 41.709 9.56085 41.7877 9.10005C41.8101 8.95394 41.8214 8.79659 41.8214 8.63924C41.8214 8.30207 41.6415 8.13348 41.3044 8.13348C40.8098 8.13348 40.3603 8.43694 40.0568 8.81907C39.6859 9.26864 39.4949 9.83059 39.3712 10.3813L39.0003 11.9885C38.9217 12.3706 38.5508 12.6516 38.1574 12.6516C37.6629 12.6516 37.3032 12.2358 37.3032 11.775C37.3032 11.7075 37.3032 11.6513 37.3257 11.5614L39.1689 3.52542C39.2364 3.2332 39.4836 2.8623 40.0681 2.8623C40.6862 2.8623 40.956 3.51418 40.8548 3.95251L40.1692 6.88593Z" fill="#CF2CA0"/>
<path d="M28.9861 3.86279H32.9198C33.3469 3.86279 33.7066 4.23368 33.7066 4.66077C33.7066 5.08786 33.4143 5.45875 32.9198 5.45875H28.5815L27.0979 11.7864C26.9855 12.2472 26.6821 12.4945 26.2662 12.4945C25.738 12.4945 25.3896 12.1573 25.3896 11.674C25.3896 11.6066 25.4008 11.5054 25.4458 11.3031L26.817 5.49247H25.6481C25.2098 5.49247 24.8501 5.11034 24.8501 4.67201C24.8501 4.24492 25.2098 3.86279 25.6481 3.86279H27.1991L27.3227 3.32331C27.4239 2.9187 27.761 2.604 28.1881 2.604C28.7276 2.604 29.1547 3.10977 29.0311 3.64925L28.9861 3.86279ZM33.7852 7.96509H30.1775C29.7504 7.96509 29.3907 7.60544 29.3907 7.16711C29.3907 6.74002 29.7504 6.36913 30.1775 6.36913H33.774C34.2123 6.36913 34.572 6.72878 34.572 7.16711C34.572 7.39189 34.4821 7.60544 34.3247 7.76279C34.1899 7.89766 33.9763 7.96509 33.7852 7.96509ZM31.8858 12.5844C31.2002 12.5844 30.5259 12.472 29.9302 12.1348C29.2559 11.7415 28.8175 11.0559 28.8175 10.2691C28.8175 9.61725 29.1884 8.6844 29.9639 8.6844C30.3798 8.6844 30.7619 9.01033 30.7619 9.43742C30.7619 9.62849 30.6832 9.78584 30.5933 9.94319C30.5371 10.0331 30.5034 10.1455 30.5034 10.2466C30.5034 10.4827 30.6832 10.6625 30.8631 10.7749C31.1553 10.9435 31.5149 10.9772 31.8409 10.9772C32.3916 10.9772 32.9311 10.8873 33.4368 10.7074C33.6167 10.64 33.819 10.5726 34.01 10.5726C34.4259 10.5726 34.7518 10.966 34.7518 11.3593C34.7518 12.472 32.6613 12.5844 31.8858 12.5844Z" fill="#CF2CA0"/>
<path d="M15.8924 6.88593C16.3532 6.60495 16.8364 6.4476 17.3872 6.4476C18.4998 6.4476 19.2304 7.00956 19.2304 8.17844C19.2304 8.51561 19.1967 8.86403 19.1292 9.18996C19.073 9.52714 19.0168 9.86431 19.0168 10.2127C19.0168 10.7297 19.4215 10.9545 19.8935 10.9545C20.95 10.9545 21.231 9.80812 21.231 8.9427C21.231 8.59428 21.1972 8.25711 21.1298 7.91993C21.0961 7.78506 21.0624 7.63895 21.0624 7.49285C21.0624 7.05452 21.467 6.69486 21.9053 6.69486C22.1301 6.69486 22.3436 6.77354 22.501 6.94213C22.8382 7.30178 22.8944 8.26835 22.8944 8.74039C22.8944 10.7747 22.1189 12.5842 19.8036 12.5842C18.5336 12.5842 17.3422 11.8536 17.3422 10.4712C17.3422 10.0104 17.4321 9.56085 17.5108 9.10005C17.5333 8.95394 17.5445 8.79659 17.5445 8.63924C17.5445 8.30207 17.3647 8.13348 17.0275 8.13348C16.533 8.13348 16.0834 8.43694 15.78 8.81907C15.4091 9.26864 15.218 9.83059 15.0944 10.3813L14.7235 11.9885C14.6448 12.3706 14.2739 12.6516 13.8805 12.6516C13.386 12.6516 13.0264 12.2358 13.0264 11.775C13.0264 11.7075 13.0264 11.6513 13.0488 11.5614L14.8921 3.52542C14.9595 3.2332 15.2068 2.8623 15.7912 2.8623C16.4094 2.8623 16.6791 3.51418 16.5779 3.95251L15.8924 6.88593Z" fill="#CF2CA0"/>
<path d="M3.03474 4.55948L3.36068 3.39061C3.46183 3.04219 3.79901 2.78369 4.1699 2.78369C4.47336 2.78369 4.75434 2.94104 4.90045 3.19954C5.03532 3.43556 5.04656 3.68283 4.96788 3.94133L4.81053 4.48081H4.99036C5.90073 4.48081 6.82235 4.61568 7.59785 5.15516C8.65433 5.8857 9.08142 7.14449 9.08142 8.39204C9.08142 10.5837 7.82263 12.5843 5.43993 12.5843C4.78805 12.5843 3.67538 12.3482 3.67538 11.5053C3.67538 11.0332 4.06875 10.6736 4.52955 10.6736C4.66442 10.6736 4.78806 10.7186 4.91169 10.7635C5.12523 10.8422 5.33877 10.8871 5.56356 10.8871C6.88978 10.8871 7.3843 9.48224 7.3843 8.36956C7.3843 6.79608 6.51889 6.14421 5.01284 6.14421C4.77682 6.14421 4.55203 6.15544 4.32725 6.15544L2.65261 11.9886C2.55146 12.3482 2.22552 12.618 1.84339 12.618C1.25895 12.618 0.888061 12.0448 1.04541 11.5053L2.55146 6.24536L1.45002 6.29031C1.22524 6.30155 1.00045 6.26784 0.831865 6.18916C0.573364 6.06553 0.416016 5.76207 0.416016 5.46985C0.416016 4.93037 0.843104 4.64939 1.33763 4.62692L3.03474 4.55948ZM9.51975 6.36899L8.48574 4.10991C8.23848 3.55919 8.62061 2.91856 9.23877 2.91856C9.55347 2.91856 9.85692 3.10963 9.98055 3.40185L11.0258 5.69464C11.0708 5.79579 11.0932 5.90818 11.0932 6.00933C11.0932 6.44766 10.7223 6.85227 10.2615 6.85227C9.92436 6.85227 9.63214 6.61625 9.51975 6.36899Z" fill="#CF2CA0"/>
</svg>
