<svg width="24" height="18" viewBox="0 0 24 18" fill="none" xmlns="http://www.w3.org/2000/svg">
<path d="M21.1765 0.529412C20.0012 0.158824 18.7094 0 17.4706 0C15.4059 0 13.1824 0.423529 11.6471 1.58824C10.1118 0.423529 7.88824 0 5.82353 0C3.75882 0 1.53529 0.423529 0 1.58824V17.1C0 17.3647 0.264706 17.6294 0.529412 17.6294C0.635294 17.6294 0.688235 17.5765 0.794118 17.5765C2.22353 16.8882 4.28824 16.4118 5.82353 16.4118C7.88824 16.4118 10.1118 16.8353 11.6471 18C13.0765 17.1 15.6706 16.4118 17.4706 16.4118C19.2176 16.4118 21.0176 16.7294 22.5 17.5235C22.6059 17.5765 22.6588 17.5765 22.7647 17.5765C23.0294 17.5765 23.2941 17.3118 23.2941 17.0471V1.58824C22.6588 1.11176 21.9706 0.794118 21.1765 0.529412ZM2.11765 14.8235V2.64706C3.28235 2.27647 4.55294 2.11765 5.82353 2.11765C7.24235 2.11765 9.13765 2.55176 10.5882 3.16588V15.3424C9.13765 14.7282 7.24235 14.2941 5.82353 14.2941C4.55294 14.2941 3.28235 14.4529 2.11765 14.8235ZM21.1765 14.8235C20.0118 14.4529 18.7412 14.2941 17.4706 14.2941C16.0518 14.2941 14.1565 14.7282 12.7059 15.3424V3.16588C14.1565 2.54118 16.0518 2.11765 17.4706 2.11765C18.7412 2.11765 20.0118 2.27647 21.1765 2.64706V14.8235Z" fill="white"/>
<path opacity="0.3" d="M10.5878 3.16591C9.13719 2.55179 7.24189 2.11768 5.82307 2.11768C4.55248 2.11768 3.28189 2.2765 2.11719 2.64709V14.8236C3.28189 14.453 4.55248 14.2941 5.82307 14.2941C7.24189 14.2941 9.13719 14.7283 10.5878 15.3424V3.16591Z" fill="white"/>
<path d="M17.4705 6.35288C18.4023 6.35288 19.3023 6.44818 20.1176 6.62818V5.01877C19.2811 4.85994 18.3811 4.76465 17.4705 4.76465C16.1152 4.76465 14.8658 4.93406 13.7646 5.2623V6.92465C14.8129 6.55406 16.0729 6.35288 17.4705 6.35288Z" fill="white"/>
<path d="M17.4705 9.16929C18.4023 9.16929 19.3023 9.26458 20.1176 9.44458V7.83517C19.2811 7.67635 18.3811 7.58105 17.4705 7.58105C16.1152 7.58105 14.8658 7.75047 13.7646 8.0787V9.74105C14.8129 9.38105 16.0729 9.16929 17.4705 9.16929Z" fill="white"/>
<path d="M17.4705 11.9964C18.4023 11.9964 19.3023 12.0917 20.1176 12.2717V10.6623C19.2811 10.5035 18.3811 10.4082 17.4705 10.4082C16.1152 10.4082 14.8658 10.5776 13.7646 10.9059V12.5682C14.8129 12.1976 16.0729 11.9964 17.4705 11.9964Z" fill="white"/>
</svg>
