<svg width="153" height="47" viewBox="0 0 153 47" fill="none" xmlns="http://www.w3.org/2000/svg">
<g filter="url(#filter0_d_94_213)">
<mask id="path-1-inside-1_94_213" fill="white">
<path fill-rule="evenodd" clip-rule="evenodd" d="M11 0C7.13401 0 4 3.13401 4 7V23C4 26.866 7.13401 30 11 30H71.9149L76.6954 38.28L81.4758 30H142C145.866 30 149 26.866 149 23V7C149 3.13401 145.866 0 142 0H11Z"/>
</mask>
<path fill-rule="evenodd" clip-rule="evenodd" d="M11 0C7.13401 0 4 3.13401 4 7V23C4 26.866 7.13401 30 11 30H71.9149L76.6954 38.28L81.4758 30H142C145.866 30 149 26.866 149 23V7C149 3.13401 145.866 0 142 0H11Z" fill="white"/>
<path d="M71.9149 30L73.647 29L73.0696 28H71.9149V30ZM76.6954 38.28L74.9633 39.28L76.6954 42.28L78.4274 39.28L76.6954 38.28ZM81.4758 30V28H80.3211L79.7438 29L81.4758 30ZM6 7C6 4.23858 8.23858 2 11 2V-2C6.02944 -2 2 2.02944 2 7H6ZM6 23V7H2V23H6ZM11 28C8.23858 28 6 25.7614 6 23H2C2 27.9706 6.02944 32 11 32V28ZM71.9149 28H11V32H71.9149V28ZM78.4274 37.28L73.647 29L70.1829 31L74.9633 39.28L78.4274 37.28ZM79.7438 29L74.9633 37.28L78.4274 39.28L83.2079 31L79.7438 29ZM142 28H81.4758V32H142V28ZM147 23C147 25.7614 144.761 28 142 28V32C146.971 32 151 27.9706 151 23H147ZM147 7V23H151V7H147ZM142 2C144.761 2 147 4.23858 147 7H151C151 2.02944 146.971 -2 142 -2V2ZM11 2H142V-2H11V2Z" fill="#CF2CA0" mask="url(#path-1-inside-1_94_213)"/>
</g>
<path d="M40.0346 12.5597L40.3605 11.3908C40.4617 11.0424 40.7988 10.7839 41.1697 10.7839C41.4732 10.7839 41.7542 10.9412 41.9003 11.1997C42.0352 11.4357 42.0464 11.683 41.9677 11.9415L41.8104 12.481H41.9902C42.9006 12.481 43.8222 12.6159 44.5977 13.1553C45.6542 13.8859 46.0813 15.1447 46.0813 16.3922C46.0813 18.5839 44.8225 20.5844 42.4398 20.5844C41.7879 20.5844 40.6752 20.3484 40.6752 19.5055C40.6752 19.0334 41.0686 18.6738 41.5294 18.6738C41.6643 18.6738 41.7879 18.7187 41.9115 18.7637C42.1251 18.8424 42.3386 18.8873 42.5634 18.8873C43.8896 18.8873 44.3841 17.4824 44.3841 16.3697C44.3841 14.7963 43.5187 14.1444 42.0127 14.1444C41.7766 14.1444 41.5519 14.1556 41.3271 14.1556L39.6524 19.9888C39.5513 20.3484 39.2254 20.6182 38.8432 20.6182C38.2588 20.6182 37.8879 20.045 38.0452 19.5055L39.5513 14.2455L38.4499 14.2905C38.2251 14.3017 38.0003 14.268 37.8317 14.1893C37.5732 14.0657 37.4158 13.7623 37.4158 13.47C37.4158 12.9306 37.8429 12.6496 38.3375 12.6271L40.0346 12.5597ZM46.5196 14.3692L45.4856 12.1101C45.2383 11.5594 45.6204 10.9187 46.2386 10.9187C46.5533 10.9187 46.8568 11.1098 46.9804 11.402L48.0256 13.6948C48.0706 13.796 48.0931 13.9084 48.0931 14.0095C48.0931 14.4478 47.7222 14.8525 47.2614 14.8525C46.9242 14.8525 46.632 14.6164 46.5196 14.3692ZM52.8922 14.8862C53.353 14.6052 53.8363 14.4478 54.387 14.4478C55.4997 14.4478 56.2302 15.0098 56.2302 16.1787C56.2302 16.5159 56.1965 16.8643 56.1291 17.1902C56.0729 17.5274 56.0167 17.8646 56.0167 18.213C56.0167 18.73 56.4213 18.9548 56.8933 18.9548C57.9498 18.9548 58.2308 17.8084 58.2308 16.9429C58.2308 16.5945 58.1971 16.2574 58.1297 15.9202C58.0959 15.7853 58.0622 15.6392 58.0622 15.4931C58.0622 15.0548 58.4668 14.6951 58.9052 14.6951C59.1299 14.6951 59.3435 14.7738 59.5008 14.9424C59.838 15.302 59.8942 16.2686 59.8942 16.7406C59.8942 18.7749 59.1187 20.5844 56.8034 20.5844C55.5334 20.5844 54.342 19.8539 54.342 18.4715C54.342 18.0107 54.432 17.5611 54.5106 17.1003C54.5331 16.9542 54.5444 16.7968 54.5444 16.6395C54.5444 16.3023 54.3645 16.1337 54.0274 16.1337C53.5328 16.1337 53.0833 16.4372 52.7798 16.8193C52.4089 17.2689 52.2178 17.8308 52.0942 18.3816L51.7233 19.9888C51.6446 20.3709 51.2738 20.6519 50.8804 20.6519C50.3859 20.6519 50.0262 20.236 50.0262 19.7752C50.0262 19.7078 50.0262 19.6516 50.0487 19.5617L51.8919 11.5257C51.9593 11.2334 52.2066 10.8625 52.791 10.8625C53.4092 10.8625 53.6789 11.5144 53.5778 11.9527L52.8922 14.8862ZM65.9858 11.8628H69.9195C70.3466 11.8628 70.7063 12.2337 70.7063 12.6608C70.7063 13.0879 70.4141 13.4588 69.9195 13.4588H65.5812L64.0977 19.7865C63.9853 20.2473 63.6818 20.4945 63.266 20.4945C62.7377 20.4945 62.3893 20.1573 62.3893 19.6741C62.3893 19.6066 62.4005 19.5055 62.4455 19.3032L63.8167 13.4925H62.6478C62.2095 13.4925 61.8498 13.1104 61.8498 12.6721C61.8498 12.245 62.2095 11.8628 62.6478 11.8628H64.1988L64.3224 11.3234C64.4236 10.9187 64.7608 10.604 65.1879 10.604C65.7273 10.604 66.1544 11.1098 66.0308 11.6493L65.9858 11.8628ZM70.785 15.9651H67.1772C66.7501 15.9651 66.3904 15.6055 66.3904 15.1672C66.3904 14.7401 66.7501 14.3692 67.1772 14.3692H70.7737C71.2121 14.3692 71.5717 14.7288 71.5717 15.1672C71.5717 15.3919 71.4818 15.6055 71.3244 15.7628C71.1896 15.8977 70.976 15.9651 70.785 15.9651ZM68.8855 20.5844C68.2 20.5844 67.5256 20.472 66.9299 20.1349C66.2556 19.7415 65.8172 19.0559 65.8172 18.2692C65.8172 17.6173 66.1881 16.6844 66.9636 16.6844C67.3795 16.6844 67.7616 17.0104 67.7616 17.4375C67.7616 17.6285 67.6829 17.7859 67.593 17.9432C67.5368 18.0331 67.5031 18.1455 67.5031 18.2467C67.5031 18.4827 67.6829 18.6625 67.8628 18.7749C68.155 18.9435 68.5146 18.9772 68.8406 18.9772C69.3913 18.9772 69.9308 18.8873 70.4365 18.7075C70.6164 18.6401 70.8187 18.5726 71.0097 18.5726C71.4256 18.5726 71.7515 18.966 71.7515 19.3594C71.7515 20.472 69.661 20.5844 68.8855 20.5844ZM77.1688 14.8862C77.6296 14.6052 78.1129 14.4478 78.6636 14.4478C79.7763 14.4478 80.5068 15.0098 80.5068 16.1787C80.5068 16.5159 80.4731 16.8643 80.4057 17.1902C80.3495 17.5274 80.2933 17.8646 80.2933 18.213C80.2933 18.73 80.6979 18.9548 81.17 18.9548C82.2264 18.9548 82.5074 17.8084 82.5074 16.9429C82.5074 16.5945 82.4737 16.2574 82.4063 15.9202C82.3726 15.7853 82.3388 15.6392 82.3388 15.4931C82.3388 15.0548 82.7434 14.6951 83.1818 14.6951C83.4066 14.6951 83.6201 14.7738 83.7774 14.9424C84.1146 15.302 84.1708 16.2686 84.1708 16.7406C84.1708 18.7749 83.3953 20.5844 81.08 20.5844C79.81 20.5844 78.6187 19.8539 78.6187 18.4715C78.6187 18.0107 78.7086 17.5611 78.7873 17.1003C78.8097 16.9542 78.821 16.7968 78.821 16.6395C78.821 16.3023 78.6411 16.1337 78.304 16.1337C77.8094 16.1337 77.3599 16.4372 77.0564 16.8193C76.6855 17.2689 76.4945 17.8308 76.3708 18.3816L75.9999 19.9888C75.9213 20.3709 75.5504 20.6519 75.157 20.6519C74.6625 20.6519 74.3028 20.236 74.3028 19.7752C74.3028 19.7078 74.3028 19.6516 74.3253 19.5617L76.1685 11.5257C76.236 11.2334 76.4832 10.8625 77.0677 10.8625C77.6858 10.8625 77.9556 11.5144 77.8544 11.9527L77.1688 14.8862ZM89.0572 12.7937H87.5234C87.0342 12.7937 86.7565 12.397 86.7565 11.9342C86.7565 11.326 87.1267 11.1938 87.7614 11.088C88.7928 10.9161 89.1762 10.3211 89.52 9.40873C89.6522 9.05172 90.0357 8.93272 90.3795 8.93272C90.7894 8.93272 91.2918 9.1575 91.2918 9.63351V19.2463C91.2918 20.0397 90.8819 20.2909 90.1415 20.2909C89.4274 20.2909 89.0572 19.9868 89.0572 19.2463V12.7937ZM98.2758 14.2455H102.963C103.097 14.2455 103.21 14.2455 103.345 14.2568C102.873 13.6723 101.546 11.8179 101.546 11.1211C101.546 10.649 102.086 10.3793 102.502 10.3793C102.974 10.3793 103.097 10.6153 103.3 10.9862C103.805 11.8853 104.491 12.8631 105.233 13.5712C105.829 14.1444 106.177 14.3692 106.177 14.8187C106.177 15.302 105.716 15.8527 105.21 15.8527C104.929 15.8527 104.716 15.7066 104.514 15.538V15.6392C104.514 16.1337 104.457 17.1003 104.424 17.6173C104.367 18.3254 104.278 19.1795 104.086 19.8651C103.761 21.0565 103.075 21.0565 101.94 21.0565C101.737 21.0565 101.535 21.0565 101.333 21.0565C100.67 21.0565 100.097 20.9666 100.097 20.1686C100.097 19.5617 100.445 19.3256 101.007 19.3256C101.288 19.3256 101.569 19.3594 101.861 19.3594C102.389 19.3594 102.457 19.0334 102.535 18.6401C102.625 18.1231 102.783 16.7631 102.783 16.2461C102.783 15.9876 102.67 15.864 102.401 15.864H100.748C100.647 17.2239 100.119 18.5164 99.1637 19.5055C98.6692 20.0112 97.3205 21.0452 96.6124 21.0452C96.0729 21.0452 95.702 20.5844 95.702 20.0674C95.702 19.6403 95.9268 19.4718 96.2865 19.3032C97.2193 18.8648 97.8937 18.5164 98.4669 17.6061C98.8153 17.0666 98.9726 16.5046 99.0176 15.864H97.9274C97.6127 15.864 97.2755 15.7853 97.1631 15.4594C96.9496 15.6504 96.7585 15.819 96.4551 15.819C95.8931 15.819 95.4098 15.302 95.4098 14.7401C95.4098 14.4254 95.5447 14.2905 96.0505 13.8072C96.781 13.1216 97.1294 12.7844 97.6464 12.0314C97.86 11.7167 98.141 11.1997 98.3433 10.8401C98.5231 10.5366 98.6692 10.3568 99.0513 10.3568C99.4897 10.3568 100.063 10.6265 100.063 11.1323C100.063 11.8628 98.7591 13.6499 98.2758 14.2455ZM111.842 13.6611L111.448 16.6732C111.403 17.0666 111.313 17.3476 110.852 17.3476C110.403 17.3476 110.324 17.0441 110.279 16.6732L109.886 13.6611V11.5032C109.886 10.8288 110.246 10.5928 110.886 10.5928C111.504 10.5928 111.842 10.8625 111.842 11.5032V13.6611ZM110.864 18.0781C111.459 18.0781 111.943 18.5614 111.943 19.1571C111.943 19.764 111.459 20.2473 110.864 20.2473C110.268 20.2473 109.785 19.764 109.785 19.1571C109.785 18.5614 110.268 18.0781 110.864 18.0781Z" fill="#CF2CA0"/>
<defs>
<filter id="filter0_d_94_213" x="0" y="0" width="153" height="46.2798" filterUnits="userSpaceOnUse" color-interpolation-filters="sRGB">
<feFlood flood-opacity="0" result="BackgroundImageFix"/>
<feColorMatrix in="SourceAlpha" type="matrix" values="0 0 0 0 0 0 0 0 0 0 0 0 0 0 0 0 0 0 127 0" result="hardAlpha"/>
<feOffset dy="4"/>
<feGaussianBlur stdDeviation="2"/>
<feComposite in2="hardAlpha" operator="out"/>
<feColorMatrix type="matrix" values="0 0 0 0 0 0 0 0 0 0 0 0 0 0 0 0 0 0 0.25 0"/>
<feBlend mode="normal" in2="BackgroundImageFix" result="effect1_dropShadow_94_213"/>
<feBlend mode="normal" in="SourceGraphic" in2="effect1_dropShadow_94_213" result="shape"/>
</filter>
</defs>
</svg>
