<svg width="47" height="37" viewBox="0 0 47 37" fill="none" xmlns="http://www.w3.org/2000/svg">
<path d="M42.0814 1.84647C39.7459 1.11004 37.179 0.794434 34.7172 0.794434C30.6143 0.794434 26.1957 1.63606 23.1448 3.95054C20.0939 1.63606 15.6753 0.794434 11.5724 0.794434C7.46946 0.794434 3.0509 1.63606 0 3.95054V34.7752C0 35.3012 0.526018 35.8272 1.05204 35.8272C1.26244 35.8272 1.36765 35.722 1.57805 35.722C4.41855 34.3544 8.52149 33.4076 11.5724 33.4076C15.6753 33.4076 20.0939 34.2492 23.1448 36.5637C25.9853 34.7752 31.1403 33.4076 34.7172 33.4076C38.1889 33.4076 41.7658 34.0388 44.7115 35.6168C44.9219 35.722 45.0271 35.722 45.2376 35.722C45.7636 35.722 46.2896 35.196 46.2896 34.67V3.95054C45.0271 3.00371 43.6595 2.37249 42.0814 1.84647ZM4.20814 30.2514V6.05461C6.52262 5.31819 9.04751 5.00258 11.5724 5.00258C14.3919 5.00258 18.1581 5.86525 21.0407 7.08561V31.2824C18.1581 30.0621 14.3919 29.1994 11.5724 29.1994C9.04751 29.1994 6.52262 29.515 4.20814 30.2514ZM42.0814 30.2514C39.767 29.515 37.2421 29.1994 34.7172 29.1994C31.8977 29.1994 28.1314 30.0621 25.2489 31.2824V7.08561C28.1314 5.84421 31.8977 5.00258 34.7172 5.00258C37.2421 5.00258 39.767 5.31819 42.0814 6.05461V30.2514Z" fill="white"/>
<path opacity="0.3" d="M21.0396 7.08547C18.157 5.86511 14.3907 5.00244 11.5713 5.00244C9.0464 5.00244 6.52151 5.31805 4.20703 6.05448V30.2513C6.52151 29.5149 9.0464 29.1993 11.5713 29.1993C14.3907 29.1993 18.157 30.0619 21.0396 31.2823V7.08547Z" fill="white"/>
<path d="M34.7197 13.4188C36.5713 13.4188 38.3598 13.6082 39.9799 13.9659V10.7677C38.3177 10.4521 36.5292 10.2627 34.7197 10.2627C32.0265 10.2627 29.5437 10.5993 27.3555 11.2516V14.555C29.4385 13.8186 31.9423 13.4188 34.7197 13.4188Z" fill="white"/>
<path d="M34.7197 19.0155C36.5713 19.0155 38.3598 19.2049 39.9799 19.5625V16.3644C38.3177 16.0487 36.5292 15.8594 34.7197 15.8594C32.0265 15.8594 29.5437 16.196 27.3555 16.8483V20.1517C29.4385 19.4363 31.9423 19.0155 34.7197 19.0155Z" fill="white"/>
<path d="M34.7197 24.6336C36.5713 24.6336 38.3598 24.823 39.9799 25.1807V21.9825C38.3177 21.6669 36.5292 21.4775 34.7197 21.4775C32.0265 21.4775 29.5437 21.8142 27.3555 22.4665V25.7698C29.4385 25.0334 31.9423 24.6336 34.7197 24.6336Z" fill="white"/>
</svg>
