<svg width="223" height="45" viewBox="0 0 223 45" fill="none" xmlns="http://www.w3.org/2000/svg">
<path d="M34.2558 9.68102C34.5078 9.42902 34.7958 9.39302 35.1378 9.39302H40.4298V8.31302H34.9218C33.9858 8.31302 33.7158 7.84502 33.7158 6.98102C33.7158 6.15302 34.1118 5.75702 34.9218 5.75702H37.9098V4.58702H35.4618C34.6158 4.58702 34.2558 4.17302 34.2558 3.32702C34.2558 2.53502 34.6878 2.17502 35.4618 2.17502H37.9098V1.68902C37.9098 0.699023 38.5218 0.537023 39.3678 0.537023C40.1598 0.537023 40.6278 0.825022 40.6278 1.68902V2.17502H43.2918C44.1378 2.17502 44.5338 2.55302 44.5338 3.41702C44.5338 4.24502 44.0658 4.58702 43.2918 4.58702H40.6278V5.75702H43.7598C44.7138 5.75702 45.0018 6.18902 45.0018 7.10702C45.0018 7.88102 44.6418 8.31302 43.8498 8.31302H43.1478V9.39302H43.7418C44.6238 9.39302 44.8758 9.96902 44.8758 10.743C44.8758 11.481 44.5158 11.967 43.7418 11.967H43.1478V15.405C43.1478 16.143 43.1118 16.899 42.4458 17.295C41.9598 17.583 41.0598 17.637 40.4658 17.637H39.7278C38.4498 17.637 37.6578 17.511 37.6578 16.107V15.855C37.4778 15.927 37.2978 15.963 37.0818 15.963C36.5058 15.963 36.2538 15.765 35.9838 15.279C35.8038 14.955 35.5698 14.523 35.2278 13.965C35.0478 13.677 34.8858 13.407 34.8858 13.065C34.8858 12.507 35.3718 12.147 35.8578 11.967H35.1378C34.2198 11.967 33.9318 11.517 33.9318 10.653C33.9318 10.473 33.9498 10.347 33.9858 10.185C33.6798 10.455 32.8338 10.815 32.4378 10.995V15.423C32.4378 17.367 31.8798 17.655 30.3318 17.655H29.8278C28.8378 17.655 27.9018 17.583 27.9018 16.251C27.9018 15.387 28.3518 14.955 29.1978 14.955H29.3598C29.7738 14.955 29.8818 14.883 29.8818 14.469V11.985C29.5758 12.093 29.1978 12.219 28.8738 12.219C28.0638 12.219 27.7578 11.391 27.7578 10.707C27.7578 9.96902 28.0998 9.71702 28.8198 9.50102C29.1438 9.41102 29.4858 9.30302 29.8818 9.19502V6.20702H29.1078C28.1898 6.20702 27.8298 5.75702 27.8298 4.85702C27.8298 4.01102 28.2618 3.59702 29.1078 3.59702H29.8818V1.92302C29.8818 1.07702 30.2778 0.591022 31.1598 0.591022C32.0418 0.591022 32.4378 1.07702 32.4378 1.92302V3.59702H32.8518C33.7698 3.59702 34.1118 4.06502 34.1118 4.94702C34.1118 5.81102 33.6798 6.20702 32.8518 6.20702H32.4378V8.31302C32.6718 8.22302 32.9238 8.15102 33.1758 8.15102C33.8598 8.15102 34.2918 8.69102 34.2918 9.33902C34.2918 9.42902 34.2738 9.57302 34.2558 9.68102ZM36.9558 11.967C37.2078 12.075 37.6758 12.633 38.0538 13.245C38.4138 13.839 38.6478 14.325 38.6478 14.649C38.6478 14.757 38.6298 14.829 38.5938 14.919C38.9718 14.919 39.3318 14.955 39.7098 14.955C40.2678 14.955 40.4298 14.829 40.4298 14.181V11.967H36.9558ZM49.5198 11.841C49.1238 12.075 48.5478 12.399 48.0978 12.399C47.3238 12.399 47.0178 11.499 47.0178 10.869C47.0178 10.167 47.3598 9.93302 47.9718 9.71702C48.6558 9.46502 49.1418 9.26702 49.8078 8.96102C49.8258 8.87102 49.8258 8.81702 49.8258 8.72702V7.44902C49.5738 7.57502 49.3578 7.64702 49.0698 7.64702C48.4218 7.64702 48.2958 7.28702 48.0438 6.54902C47.8998 6.17102 47.7378 5.77502 47.5578 5.39702C47.2878 4.89302 47.1978 4.65902 47.1978 4.38902C47.1978 3.75902 47.8818 3.27302 48.4758 3.27302C49.0158 3.27302 49.2138 3.43502 49.8258 4.73102V4.02902C49.8258 2.48102 50.4378 1.85102 52.0038 1.85102H55.2798V1.50902C55.2798 0.573022 55.9458 0.501022 56.7558 0.501022C57.4938 0.501022 58.1238 0.645023 58.1238 1.50902V1.85102H63.1098C64.0278 1.85102 64.3518 2.19302 64.3518 3.11102C64.3518 3.93902 63.8658 4.19102 63.1098 4.19102H52.8138C52.4898 4.19102 52.3278 4.37102 52.3278 4.69502V9.32102C52.3278 11.175 51.9498 13.695 51.2838 15.423C51.0678 16.017 50.6178 16.935 50.1498 17.349C49.9518 17.529 49.6818 17.619 49.4118 17.619C48.6378 17.619 47.8278 17.061 47.8278 16.233C47.8278 15.873 47.9178 15.711 48.1518 15.333C48.8538 14.199 49.2138 13.137 49.5198 11.841ZM61.2378 14.379C61.0218 14.739 60.6258 14.973 60.2118 14.973C59.7798 14.973 59.5098 14.685 59.2758 14.361C58.9338 13.893 58.6818 13.425 58.4298 12.885C58.0878 13.641 57.1878 15.225 56.2518 15.225C55.8738 15.225 55.6038 15.045 55.3518 14.775V16.449C55.3518 17.403 54.9738 17.745 54.0378 17.745C53.1918 17.745 52.8858 17.223 52.8858 16.449V10.491C52.8858 8.96102 53.4978 8.34902 55.0278 8.34902H57.0798C57.0978 8.07902 57.0978 7.82702 57.0978 7.55702V7.35902H53.6598C52.8318 7.35902 52.3818 7.05302 52.3818 6.17102C52.3818 5.37902 52.9578 5.10902 53.6598 5.10902H63.0378C63.8838 5.10902 64.3338 5.43302 64.3338 6.31502C64.3338 7.10702 63.7398 7.35902 63.0378 7.35902H59.4558V7.55702C59.4558 7.82702 59.4378 8.07902 59.4198 8.34902H61.5798C63.1098 8.34902 63.7218 8.96102 63.7218 10.491V15.441C63.7218 16.413 63.6678 17.277 62.7858 17.547C62.3898 17.673 61.6338 17.673 61.0758 17.673H60.5358C59.7438 17.673 58.9878 17.637 58.9878 16.593C58.9878 15.855 59.3298 15.495 60.0678 15.495C60.2838 15.495 60.4998 15.513 60.7338 15.513C61.0938 15.513 61.2378 15.441 61.2378 14.955V14.379ZM59.5278 10.401C59.8158 11.517 60.3918 12.381 61.1298 13.299C61.1838 13.371 61.2018 13.407 61.2378 13.479V10.869C61.2378 10.563 61.0758 10.401 60.7698 10.401H59.5278ZM55.3518 13.389C56.2878 12.255 56.5938 11.877 56.8998 10.401H55.8198C55.5138 10.401 55.3518 10.563 55.3518 10.869V13.389ZM79.1298 2.84102V1.41902C79.1298 0.861023 79.5978 0.393023 80.1558 0.393023C80.7138 0.393023 81.1818 0.861023 81.1818 1.41902V2.91302C81.1818 3.47102 80.7138 3.93902 80.1558 3.93902C79.5078 3.93902 79.1298 3.41702 79.1298 2.84102ZM81.9918 2.82302V1.41902C81.9918 0.861023 82.4598 0.393023 83.0178 0.393023C83.5758 0.393023 84.0438 0.861023 84.0438 1.41902V2.91302C84.0438 3.47102 83.5758 3.93902 83.0178 3.93902C82.3698 3.93902 81.9918 3.39902 81.9918 2.82302ZM73.0998 6.63902L70.4178 15.981C70.2558 16.557 69.7338 16.989 69.1218 16.989C68.1858 16.989 67.5918 16.071 67.8258 15.207L70.2558 6.78302L68.4198 6.87302C68.0958 6.89102 67.7898 6.85502 67.5018 6.69302C67.1058 6.45902 66.8358 6.00902 66.8358 5.54102C66.8358 4.71302 67.5018 4.24502 68.2578 4.20902L71.0298 4.08302L71.5518 2.22902C71.7138 1.65302 72.2538 1.23902 72.8478 1.23902C73.8558 1.23902 74.3958 2.17502 74.1258 3.09302L73.8738 3.95702H74.2518C78.2298 3.95702 80.5698 6.20702 80.5698 10.221C80.5698 13.695 78.6258 16.935 74.8278 16.935C73.7838 16.935 72.0198 16.539 72.0198 15.207C72.0198 14.469 72.6318 13.875 73.3698 13.875C73.6578 13.875 73.9098 13.983 74.1798 14.091C74.4138 14.181 74.6838 14.217 74.9538 14.217C77.1318 14.217 77.8518 11.931 77.8518 10.113C77.8518 7.64702 76.5198 6.62102 74.1438 6.62102C73.7838 6.62102 73.4418 6.63902 73.0998 6.63902ZM80.1918 4.71302C80.7498 4.69502 81.2538 4.42502 81.5958 3.99302C81.9558 4.46102 82.5138 4.71302 83.1078 4.71302L84.1518 7.01702C84.2778 7.28702 84.2778 7.35902 84.2778 7.52102C84.2778 8.16902 83.7918 8.87102 82.9278 8.87102C82.4598 8.87102 81.9558 8.58302 81.7398 8.13302L80.1918 4.71302ZM91.7118 6.11702V4.73102H88.1478C87.4638 4.73102 86.8518 4.22702 86.8518 3.52502C86.8518 2.80502 87.4638 2.30102 88.1478 2.30102H91.7118C91.7118 1.54502 92.3238 0.897023 93.0798 0.897023C93.8358 0.897023 94.3758 1.52702 94.3758 2.26502V2.30102H100.478C101.162 2.30102 101.756 2.80502 101.756 3.48902C101.756 4.13702 101.324 4.69502 100.478 4.69502H94.3758V5.75702C95.0958 5.75702 95.8158 5.81102 96.5358 5.90102C96.7878 5.66702 97.1298 5.54102 97.4718 5.54102C98.0118 5.54102 98.4438 5.86502 98.6418 6.35102C101 7.14302 102.548 8.81702 102.548 11.373C102.548 13.443 101.486 15.459 99.5958 16.395C98.8938 16.755 97.8138 16.989 97.0398 16.989C96.2838 16.989 95.6178 16.431 95.6178 15.639C95.6178 15.207 95.8518 14.793 96.1938 14.559C96.4278 14.397 96.7518 14.343 97.0578 14.307C97.6878 14.253 98.2638 14.127 98.7858 13.785C99.6138 13.263 100.01 12.273 100.01 11.337C100.01 9.98702 99.1998 9.15902 98.0118 8.67302L95.5098 13.857C95.0058 14.901 94.2678 16.089 93.1338 16.503C92.6118 16.683 92.0538 16.755 91.5138 16.755C88.7418 16.755 86.9058 14.325 86.9058 11.697C86.9058 8.78102 88.9578 6.72902 91.7118 6.11702ZM94.0878 11.697L95.7078 8.04302C95.4018 8.02502 95.0958 8.00702 94.7898 8.00702C94.5558 8.00702 94.3218 8.02502 94.0878 8.02502V11.697ZM91.7118 8.52902C90.2898 9.08702 89.4258 10.167 89.4258 11.715C89.4258 12.939 90.1278 14.415 91.5138 14.415C92.3058 14.415 92.8638 13.821 93.2238 13.191H93.0618C92.3238 13.191 91.7118 12.561 91.7118 11.823V8.52902ZM117.452 13.803C118.316 13.245 119.036 12.489 119.036 11.409C119.036 9.01502 115.868 8.70902 114.086 8.70902C112.178 8.70902 110.9 9.08702 109.262 10.023L108.146 10.671C107.318 11.139 106.274 10.509 106.274 9.55502C106.274 8.97902 106.67 8.58302 107.174 8.34902L115.094 4.47902L109.064 4.53302C108.38 4.53302 107.768 3.95702 107.768 3.27302C107.768 2.57102 108.362 1.99502 109.046 1.99502H119.324C120.026 1.99502 120.584 2.55302 120.584 3.25502C120.584 3.90302 120.206 4.24502 119.666 4.49702L115.31 6.60302C115.526 6.58502 115.724 6.56702 115.94 6.56702C118.874 6.56702 121.736 8.04302 121.736 11.301C121.736 13.227 120.656 14.937 119 15.891C117.596 16.719 115.886 17.007 114.284 17.007C112.988 17.007 111.638 16.809 110.504 16.161C109.424 15.531 108.614 14.487 108.614 13.209C108.614 12.255 109.118 11.391 109.892 10.833C110.756 10.203 112.052 10.041 113.096 10.041C115.112 10.041 117.488 10.887 117.488 13.281C117.488 13.461 117.47 13.623 117.452 13.803ZM114.896 14.649C114.914 14.487 114.968 14.325 115.022 14.163C115.094 13.965 115.112 13.785 115.112 13.587C115.112 12.507 113.726 12.291 112.898 12.291C112.232 12.291 111.134 12.417 111.134 13.317C111.134 14.523 113.15 14.685 114.014 14.685C114.302 14.685 114.59 14.685 114.896 14.649ZM129.476 4.08302L129.998 2.21102C130.16 1.65302 130.7 1.23902 131.294 1.23902C131.78 1.23902 132.23 1.49102 132.464 1.90502C132.68 2.28302 132.698 2.67902 132.572 3.09302L132.32 3.95702H132.608C134.066 3.95702 135.542 4.17302 136.784 5.03702C138.476 6.20702 139.16 8.22302 139.16 10.221C139.16 13.731 137.144 16.935 133.328 16.935C132.284 16.935 130.502 16.557 130.502 15.207C130.502 14.451 131.132 13.875 131.87 13.875C132.086 13.875 132.284 13.947 132.482 14.019C132.824 14.145 133.166 14.217 133.526 14.217C135.65 14.217 136.442 11.967 136.442 10.185C136.442 7.66502 135.056 6.62102 132.644 6.62102C132.266 6.62102 131.906 6.63902 131.546 6.63902L128.864 15.981C128.702 16.557 128.18 16.989 127.568 16.989C126.632 16.989 126.038 16.071 126.29 15.207L128.702 6.78302L126.938 6.85502C126.578 6.87302 126.218 6.81902 125.948 6.69302C125.534 6.49502 125.282 6.00902 125.282 5.54102C125.282 4.67702 125.966 4.22702 126.758 4.19102L129.476 4.08302ZM139.862 6.98102L138.206 3.36302C137.81 2.48102 138.422 1.45502 139.412 1.45502C139.916 1.45502 140.402 1.76102 140.6 2.22902L142.274 5.90102C142.346 6.06302 142.382 6.24302 142.382 6.40502C142.382 7.10702 141.788 7.75502 141.05 7.75502C140.51 7.75502 140.042 7.37702 139.862 6.98102ZM157.376 4.37102H148.16C147.458 4.37102 146.828 3.86702 146.828 3.12902C146.828 2.39102 147.458 1.85102 148.16 1.85102H157.358C158.078 1.85102 158.708 2.39102 158.708 3.12902C158.708 3.95702 158.096 4.37102 157.376 4.37102ZM149.33 7.68302C150.626 6.87302 152.426 6.65702 153.938 6.65702C157.052 6.65702 160.454 7.89902 160.454 11.535C160.454 13.407 159.5 14.919 157.916 15.873C156.422 16.755 154.64 16.989 152.948 16.989C151.328 16.989 149.618 16.791 148.142 16.089C147.512 15.783 146.792 15.351 146.792 14.577C146.792 13.875 147.44 13.281 148.124 13.281C148.484 13.281 148.79 13.443 149.096 13.605C150.338 14.253 151.796 14.451 153.182 14.451C154.496 14.451 156.008 14.199 156.998 13.245C157.448 12.813 157.736 12.237 157.736 11.589C157.736 9.60902 155.306 9.17702 153.758 9.17702C152.372 9.17702 150.878 9.46502 149.672 10.167C149.114 10.473 148.628 10.887 148.196 11.373C147.908 11.697 147.584 11.931 147.134 11.931C146.306 11.931 145.82 11.301 145.82 10.563C145.82 10.401 145.856 10.239 145.91 10.077L146.9 6.67502C147.062 6.06302 147.566 5.59502 148.232 5.59502C148.916 5.59502 149.528 6.17102 149.528 6.85502C149.528 7.14302 149.402 7.43102 149.33 7.68302ZM178.166 5.30702H167.222C166.538 5.30702 165.836 4.87502 165.836 3.90302C165.836 3.14702 166.466 2.49902 167.222 2.49902H178.166C178.922 2.49902 179.552 3.14702 179.552 3.90302C179.552 4.69502 178.994 5.30702 178.166 5.30702ZM165.242 11.625C165.242 10.455 165.71 9.08702 166.52 8.22302C166.952 7.75502 167.564 7.32302 168.23 7.32302C168.932 7.32302 169.508 7.93502 169.508 8.63702C169.508 9.08702 169.22 9.42902 168.914 9.73502C168.428 10.239 167.96 10.761 167.96 11.499C167.96 13.893 171.02 14.253 172.82 14.253C173.666 14.253 174.512 14.181 175.34 14.037C176.276 13.875 177.122 13.551 177.986 13.191C178.202 13.101 178.436 13.047 178.652 13.047C179.354 13.047 179.84 13.749 179.84 14.397C179.84 15.171 179.21 15.603 178.58 15.909C176.888 16.701 174.8 16.935 172.946 16.935C171.164 16.935 169.328 16.701 167.744 15.819C166.196 14.937 165.242 13.425 165.242 11.625ZM188.218 10.365L185.176 10.689C184.816 10.725 184.51 10.725 184.186 10.545C183.826 10.329 183.592 9.95102 183.592 9.51902C183.592 9.01502 183.916 8.61902 184.366 8.40302L192.88 4.31702L186.976 4.42502C186.292 4.44302 185.68 3.93902 185.68 3.21902C185.68 2.51702 186.292 2.01302 186.958 2.01302H197.218C197.884 2.01302 198.496 2.51702 198.496 3.20102C198.496 3.66902 198.19 4.08302 197.776 4.28102L189.64 8.04302L197.776 7.26902C198.496 7.21502 199.18 7.73702 199.18 8.47502C199.18 8.87102 198.982 9.24902 198.64 9.46502C198.37 9.62702 198.064 9.66302 197.758 9.68102L193.996 9.95102C192.502 10.059 190.018 10.509 190.018 12.453C190.018 14.145 192.106 14.433 193.384 14.433C194.716 14.433 195.598 14.253 196.876 13.785C197.056 13.713 197.254 13.695 197.452 13.695C198.1 13.695 198.676 14.271 198.676 14.919C198.676 16.701 194.662 16.935 193.402 16.935C192.07 16.935 190.702 16.737 189.532 16.053C188.29 15.333 187.426 14.037 187.426 12.561C187.426 11.751 187.714 10.995 188.218 10.365ZM14.334 37.149C14.334 38.535 13.992 40.191 13.164 41.343C12.858 41.775 12.48 42.189 12.066 42.531C10.734 43.611 8.97 43.935 7.404 43.935C5.514 43.935 3.57 43.377 2.22 41.865C1.104 40.605 0.672002 38.949 0.672002 37.293C0.672002 34.881 0.798002 32.451 1.014 30.039C1.086 29.157 1.392 28.401 2.4 28.401C3.282 28.401 3.84 29.031 3.84 29.877C3.84 30.183 3.822 30.489 3.804 30.795C3.66 32.307 3.606 33.819 3.552 35.331C3.552 35.979 3.516 36.609 3.516 37.239C3.516 39.705 5.01 41.217 7.476 41.217C8.754 41.217 10.23 40.785 10.878 39.561C11.238 38.859 11.436 38.013 11.436 37.221C11.436 36.969 11.4 36.735 11.4 36.483C11.4 35.619 11.886 34.827 12.84 34.827C14.136 34.827 14.334 36.123 14.334 37.149ZM33.162 37.437C33.162 39.489 32.172 41.613 30.3 42.603C29.04 43.269 27.546 43.575 26.106 43.575C25.53 43.575 24.954 43.503 24.396 43.431C23.586 43.341 22.776 43.107 22.074 42.711C21.66 42.477 21.354 42.045 21.354 41.559C21.354 40.929 21.876 40.353 22.524 40.353C22.794 40.353 23.046 40.407 23.676 40.641C24.486 40.947 25.368 41.055 26.214 41.055C28.554 41.055 30.552 40.029 30.552 37.419C30.552 35.043 28.626 34.503 26.61 34.503C24.972 34.503 23.334 34.665 21.714 34.899C21.588 34.917 21.462 34.935 21.336 34.935C20.634 34.935 20.076 34.323 20.076 33.639C20.076 33.297 20.184 32.955 20.436 32.739C20.85 32.379 21.732 32.271 23.046 32.145C24.288 32.019 25.332 31.947 26.502 31.947C30.156 31.947 33.162 33.279 33.162 37.437ZM41.82 31.083L42.342 29.211C42.504 28.653 43.044 28.239 43.638 28.239C44.124 28.239 44.574 28.491 44.808 28.905C45.024 29.283 45.042 29.679 44.916 30.093L44.664 30.957H44.952C46.41 30.957 47.886 31.173 49.128 32.037C50.82 33.207 51.504 35.223 51.504 37.221C51.504 40.731 49.488 43.935 45.672 43.935C44.628 43.935 42.846 43.557 42.846 42.207C42.846 41.451 43.476 40.875 44.214 40.875C44.43 40.875 44.628 40.947 44.826 41.019C45.168 41.145 45.51 41.217 45.87 41.217C47.994 41.217 48.786 38.967 48.786 37.185C48.786 34.665 47.4 33.621 44.988 33.621C44.61 33.621 44.25 33.639 43.89 33.639L41.208 42.981C41.046 43.557 40.524 43.989 39.912 43.989C38.976 43.989 38.382 43.071 38.634 42.207L41.046 33.783L39.282 33.855C38.922 33.873 38.562 33.819 38.292 33.693C37.878 33.495 37.626 33.009 37.626 32.541C37.626 31.677 38.31 31.227 39.102 31.191L41.82 31.083ZM52.206 33.981L50.55 30.363C50.154 29.481 50.766 28.455 51.756 28.455C52.26 28.455 52.746 28.761 52.944 29.229L54.618 32.901C54.69 33.063 54.726 33.243 54.726 33.405C54.726 34.107 54.132 34.755 53.394 34.755C52.854 34.755 52.386 34.377 52.206 33.981ZM64.752 41.253C68.64 41.253 69.612 38.409 69.612 35.061C69.612 34.071 69.576 32.559 69.09 32.037C68.892 31.839 68.622 31.749 68.334 31.749C67.92 31.749 67.56 31.911 67.182 32.073C66.984 32.163 66.75 32.217 66.516 32.217C65.796 32.217 65.22 31.605 65.22 30.885C65.22 29.463 67.362 28.995 68.478 28.995C69.432 28.995 70.422 29.229 71.106 29.931C72.276 31.137 72.42 33.423 72.42 35.025C72.42 37.455 71.97 40.173 70.188 41.973C68.676 43.521 66.714 43.953 64.626 43.953C63.276 43.953 59.514 43.539 59.514 41.703C59.514 40.965 60.144 40.353 60.882 40.353C61.152 40.353 61.404 40.461 61.656 40.569C62.646 40.983 63.672 41.253 64.752 41.253ZM61.494 30.615V36.663C61.494 37.437 60.81 38.085 60.036 38.085C59.262 38.085 58.578 37.437 58.578 36.663V30.615C58.578 29.823 59.262 29.175 60.036 29.175C60.432 29.175 60.828 29.355 61.116 29.643C61.368 29.895 61.494 30.273 61.494 30.615ZM80.502 32.505V43.431C80.502 44.331 80.088 44.763 79.17 44.763C78.306 44.763 77.928 44.259 77.928 43.431V36.933C77.766 36.987 77.64 37.023 77.46 37.023C76.596 37.023 76.02 36.195 76.02 35.385C76.02 34.791 76.29 34.413 76.614 33.963C77.64 32.523 78.414 30.615 78.792 28.833C78.954 28.041 79.188 27.645 80.07 27.645C80.772 27.645 81.474 27.915 81.474 28.725C81.474 29.517 80.934 31.407 80.502 32.505ZM85.866 40.299C85.182 41.217 84.57 41.955 83.742 42.747C83.148 43.323 82.608 43.809 82.032 43.809C81.294 43.809 80.7 43.053 80.7 42.333C80.7 41.757 81.096 41.433 81.528 41.127C82.986 40.119 83.724 39.453 84.786 37.995H82.284C81.384 37.995 80.97 37.617 80.97 36.699C80.97 35.853 81.492 35.511 82.284 35.511H85.866V34.395H84.138C82.59 34.395 81.96 33.765 81.96 32.217V30.291C81.96 28.743 82.59 28.113 84.138 28.113H90.222C91.77 28.113 92.4 28.743 92.4 30.291V32.217C92.4 33.765 91.77 34.395 90.222 34.395H88.422V35.511H91.986C92.886 35.511 93.318 35.889 93.318 36.807C93.318 37.653 92.778 37.995 91.986 37.995H89.592C90.618 39.471 91.464 40.281 92.796 41.415C93.102 41.667 93.3 41.919 93.3 42.333C93.3 43.053 92.616 43.827 91.86 43.827C91.14 43.827 90.294 42.747 89.862 42.207C89.358 41.577 88.854 40.857 88.422 40.155V43.413C88.422 44.349 88.008 44.727 87.09 44.727C86.208 44.727 85.866 44.241 85.866 43.413V40.299ZM89.214 30.363H85.128C84.786 30.363 84.624 30.525 84.624 30.867V31.695C84.624 32.037 84.786 32.199 85.128 32.199H89.214C89.556 32.199 89.718 32.037 89.718 31.695V30.867C89.718 30.525 89.556 30.363 89.214 30.363ZM105.036 39.903H104.082C103.344 39.903 102.48 39.867 102.174 39.057C102.066 40.443 101.562 41.235 100.068 41.235C99.546 41.235 98.97 41.109 98.754 40.569V43.431C98.754 44.349 98.358 44.745 97.44 44.745C96.576 44.745 96.27 44.223 96.27 43.431V30.201C96.27 28.311 96.63 27.987 98.52 27.987H99.78C101.274 27.987 101.994 28.149 101.994 29.841C101.994 30.183 101.958 30.579 101.904 30.921C103.578 29.967 103.884 29.751 105.27 28.383C105.864 27.789 106.278 27.555 107.124 27.555C107.988 27.555 108.438 27.717 109.014 28.347C110.328 29.733 110.76 30.003 112.344 31.011C112.758 31.281 112.974 31.623 112.974 32.109C112.974 32.847 112.47 33.621 111.678 33.621C111.3 33.621 110.868 33.333 110.346 32.973C110.22 33.513 109.788 33.639 109.284 33.639H108.312V34.323H109.95C111.822 34.323 112.164 34.683 112.164 36.555V37.689C112.164 39.561 111.804 39.903 109.95 39.903H109.14C109.95 41.181 110.796 41.505 112.092 42.099C112.632 42.333 112.92 42.621 112.92 43.233C112.92 43.953 112.434 44.691 111.642 44.691C110.886 44.691 109.788 44.007 109.194 43.557C108.312 42.891 107.682 42.153 107.106 41.199C106.458 42.315 105.54 43.251 104.46 43.935C103.956 44.241 103.092 44.691 102.516 44.691C101.706 44.691 101.202 43.953 101.202 43.215C101.202 42.513 101.562 42.225 102.156 42.009C103.434 41.523 104.316 41.109 105.036 39.903ZM105.81 31.443H108.492C108.06 30.975 107.718 30.579 107.466 30.291C107.322 30.129 107.232 30.075 107.178 30.075C107.07 30.075 106.998 30.165 106.926 30.255C106.566 30.705 106.224 31.047 105.81 31.443ZM98.754 39.021C98.88 38.733 98.97 38.697 99.276 38.625C99.618 38.553 99.798 38.409 99.798 37.689C99.798 36.699 99.456 35.637 99.042 34.953C98.916 34.737 98.826 34.539 98.826 34.395C98.826 34.233 98.898 33.891 99.096 33.297C99.222 32.901 99.726 31.137 99.726 30.813C99.726 30.651 99.618 30.543 99.402 30.543H99.078C98.862 30.543 98.754 30.651 98.754 30.867V39.021ZM105.828 34.323V33.639H104.784C104.316 33.639 103.992 33.549 103.758 33.099C103.398 33.351 102.948 33.657 102.498 33.657C101.994 33.657 101.598 33.279 101.364 32.865C101.31 33.063 100.95 34.089 100.95 34.215C100.95 34.341 101.022 34.467 101.13 34.611C101.598 35.223 101.886 36.087 102.048 36.933V36.555C102.048 34.683 102.39 34.323 104.262 34.323H105.828ZM108.24 37.725H109.554C109.77 37.725 109.878 37.617 109.878 37.401V36.825C109.878 36.627 109.77 36.501 109.554 36.501H108.312C108.312 36.915 108.276 37.311 108.24 37.725ZM105.756 37.725C105.81 37.311 105.828 36.915 105.828 36.501H104.64C104.424 36.501 104.316 36.609 104.316 36.825V37.401C104.316 37.617 104.424 37.725 104.64 37.725H105.756ZM122.892 32.037L122.154 33.189C122.748 33.045 123.342 32.991 123.936 32.991C125.484 32.991 127.212 33.315 127.644 35.043C128.274 34.899 130.038 34.629 130.254 34.629C130.902 34.629 131.442 35.223 131.442 35.871C131.442 36.735 130.776 37.023 130.056 37.167C129.3 37.311 128.562 37.437 127.806 37.599L127.842 39.129C127.842 39.741 127.392 40.353 126.636 40.353C125.952 40.353 125.394 40.011 125.394 39.111V38.121C124.404 38.391 121.956 38.949 121.956 40.263C121.956 41.469 124.062 41.631 124.926 41.631C126.456 41.631 127.626 41.325 129.066 40.839C129.246 40.785 129.444 40.749 129.642 40.749C130.308 40.749 130.812 41.379 130.812 42.009C130.812 42.981 129.732 43.323 128.976 43.557C127.68 43.953 126.312 44.115 124.962 44.115C122.532 44.115 119.202 43.341 119.202 40.299C119.202 38.697 120.264 37.581 121.614 36.861C122.694 36.267 123.936 35.979 125.124 35.673C124.8 35.223 123.918 35.187 123.414 35.187C122.298 35.187 121.128 35.529 120.3 36.303C119.778 36.807 119.418 37.401 119.04 37.995L118.716 38.517C118.464 38.913 118.068 39.183 117.6 39.183C116.916 39.183 116.322 38.589 116.322 37.905C116.322 37.581 116.466 37.293 116.646 37.023L119.85 32.073H117.168C116.484 32.073 115.926 31.623 115.926 30.849C115.926 30.165 116.412 29.607 117.186 29.607H121.326L121.974 28.617C122.208 28.257 122.658 28.041 123.072 28.041C123.774 28.041 124.404 28.617 124.404 29.319C124.404 29.409 124.386 29.517 124.368 29.607H129.264C129.912 29.607 130.488 30.165 130.488 30.831C130.488 31.497 129.93 32.037 129.264 32.037H122.892ZM144.078 28.833H146.292V28.491C146.292 27.627 146.976 27.537 147.696 27.537C148.362 27.537 148.866 27.753 148.866 28.491V28.833H150.162C150.936 28.833 151.278 29.157 151.278 29.931C151.278 30.669 150.864 30.957 150.162 30.957H148.866V31.803H150.594C151.368 31.803 151.692 32.127 151.692 32.901C151.692 33.639 151.26 33.909 150.594 33.909H141.504V37.041C141.504 38.841 141.36 41.001 140.874 42.729C140.514 43.953 140.388 44.385 139.632 44.385C138.948 44.385 138.228 44.097 138.228 43.323C138.228 43.071 138.354 42.513 138.57 41.811C139.038 40.245 139.236 38.805 139.236 37.167V33.909H139.056C138.678 33.909 138.39 33.495 138.39 32.883C138.39 32.091 138.75 31.803 139.524 31.803H141.468V30.957H140.208C139.434 30.957 139.092 30.633 139.092 29.859C139.092 29.121 139.506 28.833 140.208 28.833H141.468V28.527C141.468 27.645 142.152 27.537 142.872 27.537C143.538 27.537 144.078 27.753 144.078 28.509V28.833ZM138.192 32.523V43.629C138.192 44.511 137.742 44.763 136.896 44.763C136.104 44.763 135.744 44.421 135.744 43.629V36.897C135.672 36.915 135.6 36.915 135.528 36.915C134.718 36.915 134.34 35.961 134.34 35.277C134.34 34.575 134.7 34.107 135.15 33.333C135.996 31.839 136.41 30.129 136.77 28.455C136.914 27.861 137.202 27.609 137.814 27.609C138.48 27.609 139.056 27.933 139.056 28.671C139.056 29.319 138.57 31.353 138.192 32.523ZM146.292 30.957H144.078V31.803H146.292V30.957ZM143.97 41.415V43.629C143.97 44.367 143.664 44.745 142.89 44.745C142.17 44.745 141.882 44.313 141.882 43.629V36.573C141.882 35.061 142.512 34.449 144.024 34.449H148.884C150.396 34.449 151.026 35.061 151.026 36.573V42.819C151.026 44.547 150.504 44.637 148.938 44.637C148.29 44.637 147.552 44.583 147.552 43.521C147.552 42.999 147.768 42.549 148.344 42.549C148.596 42.549 148.632 42.279 148.632 42.099V41.415H147.318V43.485C147.318 44.169 147.03 44.601 146.292 44.601C145.554 44.601 145.266 44.169 145.266 43.485V41.415H143.97ZM145.266 37.113V36.267H144.348C144.114 36.267 143.97 36.357 143.97 36.609V37.113H145.266ZM147.318 37.113H148.632V36.609C148.632 36.375 148.524 36.267 148.29 36.267H147.318V37.113ZM145.266 38.841H143.97V39.741H145.266V38.841ZM147.318 38.841V39.741H148.632V38.841H147.318ZM157.614 29.103H167.136C167.856 29.103 168.45 29.697 168.45 30.417C168.45 31.137 167.856 31.731 167.136 31.731H157.452C156.732 31.731 156.138 31.155 156.138 30.417C156.138 29.589 156.858 29.103 157.614 29.103ZM165.498 36.699C166.416 36.735 166.992 37.239 166.992 38.193C166.992 38.517 166.956 38.841 166.902 39.165C166.83 39.579 166.776 40.011 166.776 40.425C166.776 41.091 167.226 41.379 167.856 41.379C168.27 41.379 168.702 41.307 169.098 41.181C169.548 41.037 169.764 40.983 169.998 40.983C170.682 40.983 171.168 41.613 171.168 42.261C171.168 42.621 171.042 42.963 170.772 43.215C170.196 43.773 168.666 43.935 167.892 43.935C167.01 43.935 166.11 43.827 165.354 43.395C164.598 42.963 164.076 42.171 164.076 41.289C164.076 40.803 164.166 40.317 164.238 39.831C164.256 39.705 164.256 39.561 164.256 39.435C164.256 38.949 163.95 38.751 163.5 38.751C163.05 38.751 162.654 39.021 162.312 39.309L157.56 43.449C157.236 43.737 156.894 43.899 156.444 43.899C155.688 43.899 154.968 43.377 154.968 42.567C154.968 42.153 155.094 41.811 155.472 41.523L162.744 35.745L156.39 36.195C155.958 36.231 155.562 36.141 155.238 35.817C155.004 35.583 154.86 35.241 154.86 34.899C154.86 34.197 155.472 33.639 156.174 33.603L166.92 33.117C167.622 33.081 168.198 33.441 168.198 34.179C168.198 34.575 168 34.881 167.676 35.115L165.498 36.699ZM184.83 33.567V36.609C185.676 36.915 186.486 37.275 187.278 37.707C187.854 38.031 188.88 38.661 189.276 39.183C189.474 39.435 189.6 39.705 189.6 40.047C189.6 40.803 188.952 41.415 188.214 41.415C187.782 41.415 187.44 41.199 187.116 40.965C186.396 40.443 185.64 39.957 184.812 39.615V39.777C184.812 43.017 182.508 43.935 179.664 43.935C177.162 43.935 174.462 42.531 174.462 39.723C174.462 37.959 175.56 36.627 177.18 36.051C177.99 35.763 178.854 35.673 179.7 35.673C180.474 35.673 181.248 35.763 182.004 35.889V29.679C182.004 28.923 182.634 28.257 183.408 28.257C184.182 28.257 184.83 28.905 184.83 29.679V30.867H188.412C189.15 30.867 189.78 31.461 189.78 32.199C189.78 32.937 189.168 33.567 188.43 33.567H184.83ZM182.022 38.499C181.212 38.301 180.384 38.193 179.556 38.193C178.566 38.193 177.288 38.517 177.288 39.741C177.288 41.073 178.692 41.433 179.772 41.433C180.348 41.433 181.086 41.307 181.518 40.893C181.914 40.515 182.022 39.921 182.022 39.399V38.499ZM196.35 29.139H206.358C207.096 29.139 207.672 29.733 207.672 30.453C207.672 31.173 207.186 31.767 206.358 31.767H196.458C195.09 31.767 195 30.849 195 30.453C195 29.607 195.576 29.139 196.35 29.139ZM201.462 43.935C199.824 43.935 197.286 43.683 195.846 42.873C195.396 42.621 195.09 42.207 195.09 41.685C195.09 41.037 195.63 40.389 196.314 40.389C196.638 40.389 196.98 40.515 197.286 40.623C198.618 41.091 200.022 41.325 201.444 41.325C202.578 41.325 203.838 41.181 204.846 40.605C205.656 40.155 206.268 39.363 206.268 38.409C206.268 36.231 203.262 36.015 201.66 36.015C200.724 36.015 199.788 36.105 198.87 36.213C197.844 36.321 196.8 36.591 195.792 36.789C195.594 36.825 195.378 36.861 195.162 36.861C194.46 36.861 193.956 36.195 193.956 35.529C193.956 35.205 194.064 34.863 194.316 34.647C194.73 34.287 195.324 34.179 196.674 33.909C197.79 33.693 198.726 33.603 199.77 33.513C200.4 33.477 201.048 33.441 201.696 33.441C204.936 33.441 208.968 34.233 208.968 38.283C208.968 42.315 204.918 43.935 201.462 43.935ZM222.486 32.847L221.856 37.671C221.784 38.301 221.64 38.751 220.902 38.751C220.182 38.751 220.056 38.265 219.984 37.671L219.354 32.847V29.391C219.354 28.311 219.93 27.933 220.956 27.933C221.946 27.933 222.486 28.365 222.486 29.391V32.847ZM220.92 39.921C221.874 39.921 222.648 40.695 222.648 41.649C222.648 42.621 221.874 43.395 220.92 43.395C219.966 43.395 219.192 42.621 219.192 41.649C219.192 40.695 219.966 39.921 220.92 39.921Z" fill="#353535"/>
</svg>
