<svg width="358" height="88" viewBox="0 0 358 88" fill="none" xmlns="http://www.w3.org/2000/svg">
<g filter="url(#filter0_d_94_233)">
<mask id="path-1-outside-1_94_233" maskUnits="userSpaceOnUse" x="0" y="34" width="227" height="48" fill="black">
<rect fill="white" y="34" width="227" height="48"/>
<path d="M16.1654 43.7993H21.896V40.8712C21.896 38.7798 22.8999 38.2778 24.824 38.2778C26.5809 38.2778 27.3338 39.1144 27.3338 40.8712V43.7993H38.795C40.4263 43.7993 41.3466 44.4685 41.3466 46.2254C41.3466 47.8567 40.3009 48.4841 38.795 48.4841H27.3338V53.671H41.4302C43.1452 53.671 43.94 54.3402 43.94 56.0971C43.94 57.7702 42.9361 58.3559 41.4302 58.3559H7.04658C5.33158 58.3559 4.495 57.6866 4.495 55.9298C4.495 54.2984 5.54073 53.671 7.04658 53.671H21.896V48.4841H13.321C12.6099 49.5717 11.8151 50.5756 10.9367 51.5795C10.3929 52.2069 9.84914 52.5834 8.97073 52.5834C7.54853 52.5834 5.87536 51.4959 5.87536 49.9482C5.87536 48.7769 7.13024 47.6057 8.25963 46.2672C9.72365 44.5104 10.9367 42.5444 11.8988 40.4529C12.4007 39.4072 12.819 38.7379 14.1157 38.7379C15.4543 38.7379 17.1274 39.3654 17.1274 40.9549C17.1274 41.7496 16.6673 42.7535 16.1654 43.7993ZM39.9662 66.1361V72.1177C39.9662 75.6313 38.5859 76.9699 35.114 76.9699H13.4046C9.9328 76.9699 8.55243 75.6313 8.55243 72.1177V66.1361C8.55243 62.6643 9.9328 61.2839 13.4046 61.2839H35.114C38.5859 61.2839 39.9662 62.6643 39.9662 66.1361ZM33.148 65.8433H15.3706C14.4085 65.8433 13.9066 66.3452 13.9066 67.3073V70.9465C13.9066 71.9085 14.4085 72.3687 15.3706 72.3687H33.148C34.1101 72.3687 34.5702 71.9085 34.5702 70.9465V67.3073C34.5702 66.3034 34.1101 65.8851 33.148 65.8433ZM60.3789 61.0329C61.9684 64.8812 63.8926 67.3491 66.6951 70.3609C67.2807 70.9883 67.6154 71.4484 67.6154 72.3268C67.6154 73.7909 66.3187 74.9202 64.9383 74.9202C63.7252 74.9202 62.9723 73.9582 62.303 73.0798C61.0063 71.4066 59.626 69.0641 58.6639 67.14C57.8273 69.2733 56.4469 71.6576 54.9829 73.4144C54.1045 74.4601 52.013 76.5098 50.9255 77.3045C50.5072 77.6391 50.1307 77.8065 49.5451 77.8065C48.1229 77.8065 46.7007 76.2588 46.7007 74.9621C46.7007 73.9163 47.4118 73.2889 48.1229 72.6615C52.4313 68.9805 54.3555 66.0106 55.3594 60.4055H48.7922C46.9099 60.4055 46.2406 59.6107 46.2406 57.7702C46.2406 56.0971 47.2027 55.4278 48.7922 55.4278H55.8195V48.4005H53.6862C53.0169 49.739 52.1804 51.0357 51.3438 52.2488C50.8 52.9599 50.1726 53.4618 49.2941 53.4618C47.9974 53.4618 46.4498 52.3324 46.4498 50.9939C46.4498 50.3246 46.7844 49.7809 47.2863 49.0279C49.7543 45.3888 50.3399 44.0084 51.8457 39.9928C52.264 38.8634 52.6823 38.1941 54.0209 38.1941C55.2339 38.1941 56.8652 38.9052 56.8652 40.3274C56.8652 41.1222 56.2796 42.6699 55.945 43.4646H64.4363C66.3187 43.4646 66.9879 44.2594 66.9879 46.0999C66.9879 47.773 66.0259 48.4005 64.4363 48.4005H60.9227V55.4278H65.3566C67.1971 55.4278 67.9082 56.2226 67.9082 58.0212C67.9082 59.7362 66.9879 60.4055 65.3566 60.4055H60.4626C60.4626 60.6146 60.4207 60.8238 60.3789 61.0329ZM84.6817 45.2633V72.0759C84.6817 75.5895 83.3432 76.928 79.8713 76.928H72.8859C69.414 76.928 68.0755 75.5895 68.0755 72.0759V45.2633C68.0755 41.7496 69.414 40.4111 72.8859 40.4111H79.8713C83.3013 40.4111 84.6817 41.7496 84.6817 45.2633ZM78.1563 45.3888H74.4335C73.4715 45.3888 73.0113 45.8907 73.0113 46.8528V70.4027C73.0113 71.3648 73.4715 71.8249 74.4335 71.8249H78.1563C79.1602 71.8249 79.6204 71.3648 79.6204 70.4027V46.8528C79.6204 45.8489 79.1602 45.4306 78.1563 45.3888ZM111.273 57.2085L111.363 63.4232C112.199 63.9311 112.976 64.439 113.693 65.0366C114.649 65.7835 115.426 66.4409 115.426 67.4567C115.426 68.4128 114.709 69.1896 113.723 69.1896C113.066 69.1896 112.409 68.9207 111.393 67.7256C111.363 72.536 109.6 75.4341 104.461 75.4341C100.427 75.4341 97.111 72.3268 97.111 68.2335C97.111 66.2915 97.9774 64.4091 99.5012 63.1841C100.876 62.0488 102.609 61.6006 104.371 61.6006C105.537 61.6006 106.672 61.7201 107.807 62.0189L107.718 57.2085H98.8439C97.8878 57.2085 97.0811 56.4616 97.0811 55.5055C97.0811 54.5494 97.8878 53.8024 98.8439 53.8024H107.658L107.628 51.8604C107.598 50.8445 108.315 49.9183 109.391 49.9183C110.466 49.9183 111.154 50.8445 111.184 51.8604L111.213 53.8024H113.783C114.739 53.8024 115.546 54.5494 115.546 55.5055C115.546 56.4616 114.739 57.2085 113.813 57.2085H111.273ZM93.2268 63.5726C93.2268 65.1561 93.2866 66.7098 93.4957 68.2634C93.7049 69.6677 94.0634 70.7433 94.7805 71.9683C95.0494 72.4165 95.2884 72.9543 95.2884 73.4921C95.2884 74.5079 94.3622 75.225 93.4061 75.225C92.8683 75.225 92.3902 75.0159 92.0317 74.6274C91.3146 73.8207 90.8366 72.8049 90.5079 71.8189C89.6116 69.1598 89.4024 66.3512 89.4024 63.5427C89.4024 60.525 89.5817 57.5073 89.8805 54.4896C89.9701 53.5634 90.1494 51.9201 90.4482 51.1134C90.7469 50.2768 91.4341 49.9482 92.1512 49.9482C93.1372 49.9482 94.0335 50.7549 94.0335 51.7409C94.0335 52.0695 93.9738 52.3982 93.9439 52.6969C93.5555 55.6848 93.2268 59.9573 93.2268 63.5726ZM107.837 65.664C106.762 65.2756 105.596 65.0665 104.431 65.0665C102.489 65.0665 100.726 66.2317 100.726 68.353C100.726 70.4744 102.28 71.9384 104.401 71.9384C107.18 71.9384 107.867 70.086 107.867 67.636L107.837 65.664ZM132.128 49.0698L126.356 73.749C126.105 74.8784 124.975 75.6313 123.888 75.6313C122.34 75.6313 121.043 74.1673 121.378 72.6196L126.858 49.0698H121.462C120.165 49.0698 119.119 47.9404 119.119 46.6437C119.119 45.3469 120.165 44.1757 121.462 44.1757H127.987L128.656 41.3732C128.949 40.1183 129.869 39.1144 131.208 39.1144C132.546 39.1144 133.759 40.2019 133.759 41.5823C133.759 41.8333 133.759 42.0843 133.676 42.3771L133.257 44.1757H149.487C150.784 44.1757 151.871 45.3469 151.871 46.6437C151.871 47.8985 150.784 49.0698 149.487 49.0698H132.128ZM152.666 58.1049H138.402C137.106 58.1049 136.018 56.9755 136.018 55.6788C136.018 54.3821 137.106 53.2527 138.402 53.2527H152.624C153.963 53.2527 155.05 54.3402 155.05 55.6788C155.05 57.1846 154.047 58.1049 152.666 58.1049ZM144.844 71.1138C147.103 71.1138 149.404 70.821 151.537 69.9844C152.122 69.7334 152.708 69.5243 153.335 69.5243C154.632 69.5243 155.678 70.4863 155.678 71.8249C155.678 74.5438 151.035 76.0496 145.179 76.0496C142.669 76.0496 140.159 75.6313 137.984 74.3765C135.558 72.9124 133.843 70.4445 133.843 67.5583C133.843 65.425 135.056 61.6604 137.65 61.6604C138.988 61.6604 140.243 62.7898 140.243 64.1283C140.243 64.7557 139.95 65.2159 139.448 65.927C139.155 66.3871 138.988 66.9309 138.988 67.5165C138.988 70.319 142.627 71.1138 144.844 71.1138ZM181.696 64.7378C181.696 68.1738 180.082 71.7293 176.975 73.3726C174.824 74.5079 172.344 75.0159 169.924 75.0159C168.968 75.0159 167.982 74.8963 166.996 74.7768C165.651 74.5976 164.307 74.2091 163.141 73.522C162.424 73.1037 161.946 72.3268 161.946 71.4902C161.946 70.325 162.902 69.3091 164.098 69.3091C164.635 69.3091 165.143 69.4585 166.01 69.7573C167.354 70.2354 168.788 70.4445 170.223 70.4445C173.898 70.4445 176.945 68.8012 176.945 64.7677C176.945 61.0927 173.927 60.2262 170.82 60.2262C168.131 60.2262 165.442 60.4951 162.783 60.8537C162.574 60.8835 162.365 60.9134 162.126 60.9134C160.841 60.9134 159.825 59.8079 159.825 58.5232C159.825 57.0591 160.781 56.5213 162.066 56.2524C164.546 55.7744 167.832 55.5354 170.372 55.5354C172.463 55.5354 174.615 55.7146 176.616 56.5213C180.172 57.9555 181.696 61.003 181.696 64.7378ZM199.115 49.0698L193.342 73.749C193.091 74.8784 191.962 75.6313 190.874 75.6313C189.327 75.6313 188.03 74.1673 188.365 72.6196L193.844 49.0698H188.448C187.151 49.0698 186.106 47.9404 186.106 46.6437C186.106 45.3469 187.151 44.1757 188.448 44.1757H194.974L195.643 41.3732C195.936 40.1183 196.856 39.1144 198.194 39.1144C199.533 39.1144 200.746 40.2019 200.746 41.5823C200.746 41.8333 200.746 42.0843 200.662 42.3771L200.244 44.1757H216.474C217.77 44.1757 218.858 45.3469 218.858 46.6437C218.858 47.8985 217.77 49.0698 216.474 49.0698H199.115ZM219.653 58.1049H205.389C204.092 58.1049 203.005 56.9755 203.005 55.6788C203.005 54.3821 204.092 53.2527 205.389 53.2527H219.611C220.95 53.2527 222.037 54.3402 222.037 55.6788C222.037 57.1846 221.033 58.1049 219.653 58.1049ZM211.831 71.1138C214.09 71.1138 216.39 70.821 218.523 69.9844C219.109 69.7334 219.695 69.5243 220.322 69.5243C221.619 69.5243 222.665 70.4863 222.665 71.8249C222.665 74.5438 218.021 76.0496 212.165 76.0496C209.656 76.0496 207.146 75.6313 204.971 74.3765C202.545 72.9124 200.83 70.4445 200.83 67.5583C200.83 65.425 202.043 61.6604 204.636 61.6604C205.975 61.6604 207.23 62.7898 207.23 64.1283C207.23 64.7557 206.937 65.2159 206.435 65.927C206.142 66.3871 205.975 66.9309 205.975 67.5165C205.975 70.319 209.614 71.1138 211.831 71.1138Z"/>
</mask>
<path d="M16.1654 43.7993H21.896V40.8712C21.896 38.7798 22.8999 38.2778 24.824 38.2778C26.5809 38.2778 27.3338 39.1144 27.3338 40.8712V43.7993H38.795C40.4263 43.7993 41.3466 44.4685 41.3466 46.2254C41.3466 47.8567 40.3009 48.4841 38.795 48.4841H27.3338V53.671H41.4302C43.1452 53.671 43.94 54.3402 43.94 56.0971C43.94 57.7702 42.9361 58.3559 41.4302 58.3559H7.04658C5.33158 58.3559 4.495 57.6866 4.495 55.9298C4.495 54.2984 5.54073 53.671 7.04658 53.671H21.896V48.4841H13.321C12.6099 49.5717 11.8151 50.5756 10.9367 51.5795C10.3929 52.2069 9.84914 52.5834 8.97073 52.5834C7.54853 52.5834 5.87536 51.4959 5.87536 49.9482C5.87536 48.7769 7.13024 47.6057 8.25963 46.2672C9.72365 44.5104 10.9367 42.5444 11.8988 40.4529C12.4007 39.4072 12.819 38.7379 14.1157 38.7379C15.4543 38.7379 17.1274 39.3654 17.1274 40.9549C17.1274 41.7496 16.6673 42.7535 16.1654 43.7993ZM39.9662 66.1361V72.1177C39.9662 75.6313 38.5859 76.9699 35.114 76.9699H13.4046C9.9328 76.9699 8.55243 75.6313 8.55243 72.1177V66.1361C8.55243 62.6643 9.9328 61.2839 13.4046 61.2839H35.114C38.5859 61.2839 39.9662 62.6643 39.9662 66.1361ZM33.148 65.8433H15.3706C14.4085 65.8433 13.9066 66.3452 13.9066 67.3073V70.9465C13.9066 71.9085 14.4085 72.3687 15.3706 72.3687H33.148C34.1101 72.3687 34.5702 71.9085 34.5702 70.9465V67.3073C34.5702 66.3034 34.1101 65.8851 33.148 65.8433ZM60.3789 61.0329C61.9684 64.8812 63.8926 67.3491 66.6951 70.3609C67.2807 70.9883 67.6154 71.4484 67.6154 72.3268C67.6154 73.7909 66.3187 74.9202 64.9383 74.9202C63.7252 74.9202 62.9723 73.9582 62.303 73.0798C61.0063 71.4066 59.626 69.0641 58.6639 67.14C57.8273 69.2733 56.4469 71.6576 54.9829 73.4144C54.1045 74.4601 52.013 76.5098 50.9255 77.3045C50.5072 77.6391 50.1307 77.8065 49.5451 77.8065C48.1229 77.8065 46.7007 76.2588 46.7007 74.9621C46.7007 73.9163 47.4118 73.2889 48.1229 72.6615C52.4313 68.9805 54.3555 66.0106 55.3594 60.4055H48.7922C46.9099 60.4055 46.2406 59.6107 46.2406 57.7702C46.2406 56.0971 47.2027 55.4278 48.7922 55.4278H55.8195V48.4005H53.6862C53.0169 49.739 52.1804 51.0357 51.3438 52.2488C50.8 52.9599 50.1726 53.4618 49.2941 53.4618C47.9974 53.4618 46.4498 52.3324 46.4498 50.9939C46.4498 50.3246 46.7844 49.7809 47.2863 49.0279C49.7543 45.3888 50.3399 44.0084 51.8457 39.9928C52.264 38.8634 52.6823 38.1941 54.0209 38.1941C55.2339 38.1941 56.8652 38.9052 56.8652 40.3274C56.8652 41.1222 56.2796 42.6699 55.945 43.4646H64.4363C66.3187 43.4646 66.9879 44.2594 66.9879 46.0999C66.9879 47.773 66.0259 48.4005 64.4363 48.4005H60.9227V55.4278H65.3566C67.1971 55.4278 67.9082 56.2226 67.9082 58.0212C67.9082 59.7362 66.9879 60.4055 65.3566 60.4055H60.4626C60.4626 60.6146 60.4207 60.8238 60.3789 61.0329ZM84.6817 45.2633V72.0759C84.6817 75.5895 83.3432 76.928 79.8713 76.928H72.8859C69.414 76.928 68.0755 75.5895 68.0755 72.0759V45.2633C68.0755 41.7496 69.414 40.4111 72.8859 40.4111H79.8713C83.3013 40.4111 84.6817 41.7496 84.6817 45.2633ZM78.1563 45.3888H74.4335C73.4715 45.3888 73.0113 45.8907 73.0113 46.8528V70.4027C73.0113 71.3648 73.4715 71.8249 74.4335 71.8249H78.1563C79.1602 71.8249 79.6204 71.3648 79.6204 70.4027V46.8528C79.6204 45.8489 79.1602 45.4306 78.1563 45.3888ZM111.273 57.2085L111.363 63.4232C112.199 63.9311 112.976 64.439 113.693 65.0366C114.649 65.7835 115.426 66.4409 115.426 67.4567C115.426 68.4128 114.709 69.1896 113.723 69.1896C113.066 69.1896 112.409 68.9207 111.393 67.7256C111.363 72.536 109.6 75.4341 104.461 75.4341C100.427 75.4341 97.111 72.3268 97.111 68.2335C97.111 66.2915 97.9774 64.4091 99.5012 63.1841C100.876 62.0488 102.609 61.6006 104.371 61.6006C105.537 61.6006 106.672 61.7201 107.807 62.0189L107.718 57.2085H98.8439C97.8878 57.2085 97.0811 56.4616 97.0811 55.5055C97.0811 54.5494 97.8878 53.8024 98.8439 53.8024H107.658L107.628 51.8604C107.598 50.8445 108.315 49.9183 109.391 49.9183C110.466 49.9183 111.154 50.8445 111.184 51.8604L111.213 53.8024H113.783C114.739 53.8024 115.546 54.5494 115.546 55.5055C115.546 56.4616 114.739 57.2085 113.813 57.2085H111.273ZM93.2268 63.5726C93.2268 65.1561 93.2866 66.7098 93.4957 68.2634C93.7049 69.6677 94.0634 70.7433 94.7805 71.9683C95.0494 72.4165 95.2884 72.9543 95.2884 73.4921C95.2884 74.5079 94.3622 75.225 93.4061 75.225C92.8683 75.225 92.3902 75.0159 92.0317 74.6274C91.3146 73.8207 90.8366 72.8049 90.5079 71.8189C89.6116 69.1598 89.4024 66.3512 89.4024 63.5427C89.4024 60.525 89.5817 57.5073 89.8805 54.4896C89.9701 53.5634 90.1494 51.9201 90.4482 51.1134C90.7469 50.2768 91.4341 49.9482 92.1512 49.9482C93.1372 49.9482 94.0335 50.7549 94.0335 51.7409C94.0335 52.0695 93.9738 52.3982 93.9439 52.6969C93.5555 55.6848 93.2268 59.9573 93.2268 63.5726ZM107.837 65.664C106.762 65.2756 105.596 65.0665 104.431 65.0665C102.489 65.0665 100.726 66.2317 100.726 68.353C100.726 70.4744 102.28 71.9384 104.401 71.9384C107.18 71.9384 107.867 70.086 107.867 67.636L107.837 65.664ZM132.128 49.0698L126.356 73.749C126.105 74.8784 124.975 75.6313 123.888 75.6313C122.34 75.6313 121.043 74.1673 121.378 72.6196L126.858 49.0698H121.462C120.165 49.0698 119.119 47.9404 119.119 46.6437C119.119 45.3469 120.165 44.1757 121.462 44.1757H127.987L128.656 41.3732C128.949 40.1183 129.869 39.1144 131.208 39.1144C132.546 39.1144 133.759 40.2019 133.759 41.5823C133.759 41.8333 133.759 42.0843 133.676 42.3771L133.257 44.1757H149.487C150.784 44.1757 151.871 45.3469 151.871 46.6437C151.871 47.8985 150.784 49.0698 149.487 49.0698H132.128ZM152.666 58.1049H138.402C137.106 58.1049 136.018 56.9755 136.018 55.6788C136.018 54.3821 137.106 53.2527 138.402 53.2527H152.624C153.963 53.2527 155.05 54.3402 155.05 55.6788C155.05 57.1846 154.047 58.1049 152.666 58.1049ZM144.844 71.1138C147.103 71.1138 149.404 70.821 151.537 69.9844C152.122 69.7334 152.708 69.5243 153.335 69.5243C154.632 69.5243 155.678 70.4863 155.678 71.8249C155.678 74.5438 151.035 76.0496 145.179 76.0496C142.669 76.0496 140.159 75.6313 137.984 74.3765C135.558 72.9124 133.843 70.4445 133.843 67.5583C133.843 65.425 135.056 61.6604 137.65 61.6604C138.988 61.6604 140.243 62.7898 140.243 64.1283C140.243 64.7557 139.95 65.2159 139.448 65.927C139.155 66.3871 138.988 66.9309 138.988 67.5165C138.988 70.319 142.627 71.1138 144.844 71.1138ZM181.696 64.7378C181.696 68.1738 180.082 71.7293 176.975 73.3726C174.824 74.5079 172.344 75.0159 169.924 75.0159C168.968 75.0159 167.982 74.8963 166.996 74.7768C165.651 74.5976 164.307 74.2091 163.141 73.522C162.424 73.1037 161.946 72.3268 161.946 71.4902C161.946 70.325 162.902 69.3091 164.098 69.3091C164.635 69.3091 165.143 69.4585 166.01 69.7573C167.354 70.2354 168.788 70.4445 170.223 70.4445C173.898 70.4445 176.945 68.8012 176.945 64.7677C176.945 61.0927 173.927 60.2262 170.82 60.2262C168.131 60.2262 165.442 60.4951 162.783 60.8537C162.574 60.8835 162.365 60.9134 162.126 60.9134C160.841 60.9134 159.825 59.8079 159.825 58.5232C159.825 57.0591 160.781 56.5213 162.066 56.2524C164.546 55.7744 167.832 55.5354 170.372 55.5354C172.463 55.5354 174.615 55.7146 176.616 56.5213C180.172 57.9555 181.696 61.003 181.696 64.7378ZM199.115 49.0698L193.342 73.749C193.091 74.8784 191.962 75.6313 190.874 75.6313C189.327 75.6313 188.03 74.1673 188.365 72.6196L193.844 49.0698H188.448C187.151 49.0698 186.106 47.9404 186.106 46.6437C186.106 45.3469 187.151 44.1757 188.448 44.1757H194.974L195.643 41.3732C195.936 40.1183 196.856 39.1144 198.194 39.1144C199.533 39.1144 200.746 40.2019 200.746 41.5823C200.746 41.8333 200.746 42.0843 200.662 42.3771L200.244 44.1757H216.474C217.77 44.1757 218.858 45.3469 218.858 46.6437C218.858 47.8985 217.77 49.0698 216.474 49.0698H199.115ZM219.653 58.1049H205.389C204.092 58.1049 203.005 56.9755 203.005 55.6788C203.005 54.3821 204.092 53.2527 205.389 53.2527H219.611C220.95 53.2527 222.037 54.3402 222.037 55.6788C222.037 57.1846 221.033 58.1049 219.653 58.1049ZM211.831 71.1138C214.09 71.1138 216.39 70.821 218.523 69.9844C219.109 69.7334 219.695 69.5243 220.322 69.5243C221.619 69.5243 222.665 70.4863 222.665 71.8249C222.665 74.5438 218.021 76.0496 212.165 76.0496C209.656 76.0496 207.146 75.6313 204.971 74.3765C202.545 72.9124 200.83 70.4445 200.83 67.5583C200.83 65.425 202.043 61.6604 204.636 61.6604C205.975 61.6604 207.23 62.7898 207.23 64.1283C207.23 64.7557 206.937 65.2159 206.435 65.927C206.142 66.3871 205.975 66.9309 205.975 67.5165C205.975 70.319 209.614 71.1138 211.831 71.1138Z" fill="#005EA4"/>
<path d="M16.1654 43.7993L12.6809 42.1267L10.0229 47.6643H16.1654V43.7993ZM21.896 43.7993V47.6643H25.761V43.7993H21.896ZM27.3338 43.7993H23.4687V47.6643H27.3338V43.7993ZM27.3338 48.4841V44.6191H23.4687V48.4841H27.3338ZM27.3338 53.671H23.4687V57.536H27.3338V53.671ZM21.896 53.671V57.536H25.761V53.671H21.896ZM21.896 48.4841H25.761V44.6191H21.896V48.4841ZM13.321 48.4841V44.6191H11.2302L10.086 46.369L13.321 48.4841ZM10.9367 51.5795L8.02794 49.0343L8.02191 49.0412L8.01591 49.0482L10.9367 51.5795ZM8.25963 46.2672L11.2137 48.7597L11.2213 48.7506L11.2289 48.7416L8.25963 46.2672ZM11.8988 40.4529L8.41432 38.7804L8.40062 38.8089L8.38739 38.8377L11.8988 40.4529ZM33.148 65.8433L33.3159 61.9819L33.232 61.9782H33.148V65.8433ZM16.1654 47.6643H21.896V39.9342H16.1654V47.6643ZM25.761 43.7993V40.8712H18.0309V43.7993H25.761ZM25.761 40.8712C25.761 40.6311 25.7935 40.6896 25.7149 40.9056C25.6171 41.1744 25.4016 41.534 25.0292 41.8271C24.691 42.0934 24.4078 42.1588 24.3803 42.1648C24.3672 42.1677 24.4846 42.1429 24.824 42.1429V34.4127C23.7477 34.4127 21.8396 34.5 20.2477 35.7533C18.4121 37.1983 18.0309 39.2913 18.0309 40.8712H25.761ZM24.824 42.1429C25.1567 42.1429 24.5498 42.2235 23.9372 41.5796C23.3636 40.9765 23.4687 40.4454 23.4687 40.8712H31.1989C31.1989 39.5402 30.9275 37.7124 29.5382 36.2518C28.11 34.7504 26.2482 34.4127 24.824 34.4127V42.1429ZM23.4687 40.8712V43.7993H31.1989V40.8712H23.4687ZM27.3338 47.6643H38.795V39.9342H27.3338V47.6643ZM38.795 47.6643C39.1877 47.6643 38.6974 47.7618 38.1104 47.2385C37.8066 46.9676 37.6286 46.658 37.5416 46.4167C37.4647 46.2035 37.4815 46.1098 37.4815 46.2254H45.2117C45.2117 44.7042 44.801 42.8472 43.2547 41.4685C41.7997 40.1714 40.0336 39.9342 38.795 39.9342V47.6643ZM37.4815 46.2254C37.4815 46.225 37.4814 46.0417 37.5984 45.7645C37.724 45.4665 37.9368 45.1764 38.2167 44.9518C38.7294 44.5405 39.104 44.6191 38.795 44.6191V52.3492C39.9918 52.3492 41.6422 52.1141 43.0543 50.9812C44.6222 49.7232 45.2117 47.9241 45.2117 46.2254H37.4815ZM38.795 44.6191H27.3338V52.3492H38.795V44.6191ZM23.4687 48.4841V53.671H31.1989V48.4841H23.4687ZM27.3338 57.536H41.4302V49.8059H27.3338V57.536ZM41.4302 57.536C41.9162 57.536 41.3359 57.6549 40.686 57.046C39.9791 56.3839 40.0749 55.71 40.0749 56.0971H47.8051C47.8051 54.7273 47.5035 52.8403 45.9705 51.4044C44.4944 50.0217 42.6592 49.8059 41.4302 49.8059V57.536ZM40.0749 56.0971C40.0749 56.138 40.0679 55.9746 40.1777 55.7037C40.2983 55.4062 40.5136 55.0961 40.8179 54.8498C41.3721 54.4012 41.7925 54.4908 41.4302 54.4908V62.2209C42.5738 62.2209 44.2491 62.0177 45.6817 60.858C47.2767 59.5668 47.8051 57.7362 47.8051 56.0971H40.0749ZM41.4302 54.4908H7.04658V62.2209H41.4302V54.4908ZM7.04658 54.4908C6.56473 54.4908 7.10591 54.3737 7.7346 54.9481C8.44099 55.5934 8.36007 56.2658 8.36007 55.9298H0.62992C0.62992 57.3506 0.96729 59.236 2.52073 60.6552C3.99646 62.0034 5.81344 62.2209 7.04658 62.2209V54.4908ZM8.36007 55.9298C8.36007 55.9301 8.36014 56.1134 8.2432 56.3906C8.11753 56.6886 7.90479 56.9787 7.62486 57.2033C7.11217 57.6146 6.73757 57.536 7.04658 57.536V49.8059C5.84973 49.8059 4.19934 50.041 2.78733 51.1739C1.21938 52.4319 0.62992 54.231 0.62992 55.9298H8.36007ZM7.04658 57.536H21.896V49.8059H7.04658V57.536ZM25.761 53.671V48.4841H18.0309V53.671H25.761ZM21.896 44.6191H13.321V52.3492H21.896V44.6191ZM10.086 46.369C9.50138 47.2631 8.82683 48.1213 8.02794 49.0343L13.8455 54.1247C14.8034 53.0299 15.7184 51.8803 16.5559 50.5993L10.086 46.369ZM8.01591 49.0482C7.89489 49.1878 7.97021 49.0656 8.21655 48.9301C8.34701 48.8584 8.49423 48.7997 8.64722 48.762C8.79689 48.7251 8.91122 48.7183 8.97073 48.7183V56.4485C10.008 56.4485 11.0126 56.2145 11.9419 55.7034C12.8156 55.2228 13.4347 54.5987 13.8575 54.1109L8.01591 49.0482ZM8.97073 48.7183C9.09656 48.7183 9.16049 48.74 9.17521 48.7452C9.19214 48.7512 9.22147 48.7631 9.2682 48.7996C9.33895 48.8548 9.74044 49.2253 9.74044 49.9482H2.01029C2.01029 52.2187 3.24836 53.9068 4.51125 54.8928C5.75044 55.8602 7.35282 56.4485 8.97073 56.4485V48.7183ZM9.74044 49.9482C9.74044 50.3545 9.63074 50.6163 9.60318 50.6765C9.58038 50.7262 9.5976 50.674 9.73603 50.4895C9.87177 50.3085 10.0544 50.0907 10.3209 49.7858C10.5566 49.516 10.9029 49.128 11.2137 48.7597L5.30559 43.7747C4.9693 44.1733 4.07919 45.1483 3.55191 45.8514C3.00228 46.5842 2.01029 48.0368 2.01029 49.9482H9.74044ZM11.2289 48.7416C12.9279 46.7027 14.3177 44.443 15.4102 42.0682L8.38739 38.8377C7.55569 40.6457 6.51939 42.318 5.2904 43.7928L11.2289 48.7416ZM15.3832 42.1255C15.4979 41.8866 15.5445 41.8046 15.5596 41.7803C15.5678 41.7671 15.4881 41.9013 15.3024 42.0694C15.0949 42.257 14.8346 42.4157 14.5525 42.5129C14.2922 42.6026 14.1208 42.603 14.1157 42.603V34.8728C12.7156 34.8728 11.2957 35.2699 10.1161 36.3372C9.15271 37.2088 8.64264 38.3047 8.41432 38.7804L15.3832 42.1255ZM14.1157 42.603C14.1588 42.603 14.2079 42.6092 14.2404 42.6171C14.2773 42.626 14.2269 42.6205 14.1176 42.5542C14.0039 42.4851 13.776 42.3175 13.5743 41.9973C13.3562 41.6509 13.2624 41.2719 13.2624 40.9549H20.9925C20.9925 38.5308 19.6091 36.8449 18.1294 35.9465C16.7891 35.1328 15.2935 34.8728 14.1157 34.8728V42.603ZM13.2624 40.9549C13.2624 40.79 13.285 40.7036 13.2805 40.7233C13.2766 40.7401 13.2588 40.8089 13.2092 40.9431C13.1021 41.2328 12.9365 41.5942 12.6809 42.1267L19.6498 45.4718C19.8962 44.9586 20.2116 44.2952 20.4601 43.6228C20.6964 42.9833 20.9925 42.029 20.9925 40.9549H13.2624ZM36.1011 66.1361V72.1177H43.8313V66.1361H36.1011ZM36.1011 72.1177C36.1011 72.767 36.0345 73.1117 35.9906 73.2597C35.9562 73.3757 35.9678 73.2687 36.1183 73.1192C36.268 72.9705 36.3731 72.9608 36.2533 72.9958C36.1023 73.0399 35.7577 73.1048 35.114 73.1048V80.835C37.1989 80.835 39.6956 80.4613 41.5659 78.6036C43.4417 76.7404 43.8313 74.2367 43.8313 72.1177H36.1011ZM35.114 73.1048H13.4046V80.835H35.114V73.1048ZM13.4046 73.1048C12.761 73.1048 12.4164 73.0399 12.2654 72.9958C12.1456 72.9608 12.2507 72.9705 12.4004 73.1192C12.5509 73.2687 12.5624 73.3757 12.5281 73.2597C12.4842 73.1117 12.4175 72.767 12.4175 72.1177H4.68736C4.68736 74.2367 5.077 76.7404 6.95279 78.6036C8.82301 80.4613 11.3198 80.835 13.4046 80.835V73.1048ZM12.4175 72.1177V66.1361H4.68736V72.1177H12.4175ZM12.4175 66.1361C12.4175 65.5013 12.4834 65.1619 12.5271 65.0149C12.5617 64.8985 12.5524 64.9983 12.4096 65.1411C12.2668 65.2839 12.1671 65.2932 12.2834 65.2586C12.4305 65.2149 12.7698 65.149 13.4046 65.149V57.4188C11.2932 57.4188 8.80454 57.8141 6.94358 59.675C5.08261 61.536 4.68736 64.0246 4.68736 66.1361H12.4175ZM13.4046 65.149H35.114V57.4188H13.4046V65.149ZM35.114 65.149C35.7488 65.149 36.0882 65.2149 36.2352 65.2586C36.3516 65.2932 36.2518 65.2839 36.109 65.1411C35.9662 64.9983 35.9569 64.8985 35.9915 65.0149C36.0353 65.1619 36.1011 65.5013 36.1011 66.1361H43.8313C43.8313 64.0246 43.436 61.536 41.5751 59.675C39.7141 57.8141 37.2255 57.4188 35.114 57.4188V65.149ZM33.148 61.9782H15.3706V69.7084H33.148V61.9782ZM15.3706 61.9782C14.2521 61.9782 12.7498 62.2765 11.5448 63.4815C10.3397 64.6866 10.0415 66.1888 10.0415 67.3073H17.7717C17.7717 67.4638 17.7244 68.234 17.0108 68.9475C16.2973 69.6611 15.527 69.7084 15.3706 69.7084V61.9782ZM10.0415 67.3073V70.9465H17.7717V67.3073H10.0415ZM10.0415 70.9465C10.0415 72.0662 10.3422 73.6012 11.6048 74.8101C12.8361 75.989 14.3357 76.2337 15.3706 76.2337V68.5036C15.4434 68.5036 16.211 68.5183 16.9508 69.2266C17.722 69.9649 17.7717 70.7888 17.7717 70.9465H10.0415ZM15.3706 76.2337H33.148V68.5036H15.3706V76.2337ZM33.148 76.2337C34.1815 76.2337 35.7158 75.9885 36.9529 74.7514C38.19 73.5143 38.4353 71.9799 38.4353 70.9465H30.7052C30.7052 70.8751 30.7204 70.0518 31.4869 69.2853C32.2534 68.5188 33.0767 68.5036 33.148 68.5036V76.2337ZM38.4353 70.9465V67.3073H30.7052V70.9465H38.4353ZM38.4353 67.3073C38.4353 66.2812 38.2036 64.7321 36.9529 63.4815C35.7349 62.2635 34.2354 62.0218 33.3159 61.9819L32.9802 69.7047C32.9713 69.7043 32.7958 69.6977 32.5298 69.6071C32.2424 69.5092 31.8524 69.3131 31.4869 68.9475C30.7069 68.1675 30.7052 67.3295 30.7052 67.3073H38.4353ZM60.3789 61.0329L56.5889 60.2749L56.3589 61.4247L56.8066 62.5085L60.3789 61.0329ZM66.6951 70.3609L63.8656 72.9939L63.8695 72.9981L66.6951 70.3609ZM62.303 73.0798L65.3774 70.7374L65.3678 70.7247L65.3581 70.7121L62.303 73.0798ZM58.6639 67.14L62.1209 65.4115L58.2366 57.6429L55.0656 65.7289L58.6639 67.14ZM54.9829 73.4144L57.9424 75.9004L57.9473 75.8946L57.9522 75.8888L54.9829 73.4144ZM50.9255 77.3045L48.645 74.1839L48.5769 74.2337L48.511 74.2864L50.9255 77.3045ZM48.1229 72.6615L45.6123 69.7229L45.5888 69.7429L45.5657 69.7633L48.1229 72.6615ZM55.3594 60.4055L59.1639 61.0869L59.9782 56.5404H55.3594V60.4055ZM55.8195 55.4278V59.2929H59.6846V55.4278H55.8195ZM55.8195 48.4005H59.6846V44.5354H55.8195V48.4005ZM53.6862 48.4005V44.5354H51.2975L50.2292 46.672L53.6862 48.4005ZM51.3438 52.2488L54.414 54.5966L54.4717 54.5212L54.5256 54.4431L51.3438 52.2488ZM47.2863 49.0279L44.0875 46.8586L44.0789 46.8712L44.0704 46.884L47.2863 49.0279ZM51.8457 39.9928L55.4647 41.3499L55.4675 41.3426L55.4702 41.3352L51.8457 39.9928ZM55.945 43.4646L52.3828 41.9648L50.1239 47.3297H55.945V43.4646ZM60.9227 48.4005V44.5354H57.0576V48.4005H60.9227ZM60.9227 55.4278H57.0576V59.2929H60.9227V55.4278ZM60.4626 60.4055V56.5404H56.5975V60.4055H60.4626ZM78.1563 45.3888L78.3172 41.5271L78.2368 41.5237H78.1563V45.3888ZM56.8066 62.5085C58.6424 66.953 60.9032 69.8104 63.8656 72.9939L69.5246 67.7278C66.8819 64.8879 65.2945 62.8094 63.9512 59.5574L56.8066 62.5085ZM63.8695 72.9981C63.9886 73.1256 64.0317 73.1779 64.0439 73.1935C64.0504 73.2017 64.0017 73.1412 63.9418 73.0254C63.8773 72.9008 63.822 72.7552 63.7869 72.6023C63.7532 72.4557 63.7503 72.355 63.7503 72.3268H71.4804C71.4804 71.3402 71.2794 70.3856 70.8079 69.474C70.3901 68.6664 69.8417 68.0675 69.5207 67.7236L63.8695 72.9981ZM63.7503 72.3268C63.7503 71.8727 63.9586 71.533 64.152 71.3519C64.327 71.188 64.5876 71.0552 64.9383 71.0552V78.7853C68.2119 78.7853 71.4804 76.1591 71.4804 72.3268H63.7503ZM64.9383 71.0552C65.1648 71.0552 65.3902 71.1037 65.5843 71.1838C65.7646 71.2583 65.8636 71.3374 65.8802 71.3512C65.8923 71.3611 65.8547 71.3315 65.758 71.2189C65.6576 71.102 65.548 70.9613 65.3774 70.7374L59.2286 75.4222C59.643 75.966 61.5101 78.7853 64.9383 78.7853V71.0552ZM65.3581 70.7121C64.2641 69.3006 63.0119 67.1934 62.1209 65.4115L55.2069 68.8685C56.24 70.9348 57.7485 73.5126 59.248 75.4474L65.3581 70.7121ZM55.0656 65.7289C54.3702 67.5023 53.1951 69.5223 52.0137 70.94L57.9522 75.8888C59.6988 73.7928 61.2845 71.0443 62.2622 68.5511L55.0656 65.7289ZM52.0234 70.9284C51.2862 71.8061 49.4171 73.6197 48.645 74.1839L53.2059 80.4251C54.609 79.3999 56.9228 77.1142 57.9424 75.9004L52.0234 70.9284ZM48.511 74.2864C48.4975 74.2972 48.6481 74.1735 48.9221 74.0691C49.213 73.9583 49.4503 73.9414 49.5451 73.9414V81.6715C51.1482 81.6715 52.3541 81.1113 53.34 80.3226L48.511 74.2864ZM49.5451 73.9414C49.89 73.9414 50.12 74.0332 50.2183 74.0819C50.3172 74.131 50.3556 74.1708 50.3619 74.1774C50.3682 74.1839 50.3976 74.2136 50.4363 74.2951C50.4707 74.3675 50.5658 74.5945 50.5658 74.9621H42.8357C42.8357 76.9156 43.824 78.5412 44.8173 79.5637C45.8255 80.6016 47.4752 81.6715 49.5451 81.6715V73.9414ZM50.5658 74.9621C50.5658 75.153 50.5309 75.3611 50.4588 75.5608C50.39 75.7518 50.3083 75.8771 50.2691 75.9309C50.235 75.9777 50.2317 75.9719 50.3065 75.8985C50.3883 75.8183 50.4888 75.7285 50.6801 75.5596L45.5657 69.7633C45.0873 70.1854 42.8357 71.9166 42.8357 74.9621H50.5658ZM50.6336 75.6001C52.9537 73.6178 54.8502 71.6443 56.2922 69.2476C57.7462 66.831 58.6051 64.2071 59.1639 61.0869L51.5549 59.7241C51.1098 62.209 50.5047 63.8726 49.6685 65.2625C48.8203 66.6722 47.6006 68.0241 45.6123 69.7229L50.6336 75.6001ZM55.3594 56.5404H48.7922V64.2706H55.3594V56.5404ZM48.7922 56.5404C48.2727 56.5404 48.9522 56.4125 49.6281 57.1323C49.9407 57.4651 50.0614 57.7893 50.0999 57.9285C50.1311 58.0413 50.1057 58.0197 50.1057 57.7702H42.3755C42.3755 58.9998 42.5664 60.9046 43.993 62.4238C45.474 64.0011 47.4294 64.2706 48.7922 64.2706V56.5404ZM50.1057 57.7702C50.1057 57.7127 50.115 57.8481 50.0216 58.0901C49.9187 58.3568 49.7269 58.6566 49.4357 58.9062C48.8829 59.38 48.4453 59.2929 48.7922 59.2929V51.5627C47.5495 51.5627 45.8362 51.8102 44.405 53.037C42.8575 54.3634 42.3755 56.1852 42.3755 57.7702H50.1057ZM48.7922 59.2929H55.8195V51.5627H48.7922V59.2929ZM59.6846 55.4278V48.4005H51.9544V55.4278H59.6846ZM55.8195 44.5354H53.6862V52.2656H55.8195V44.5354ZM50.2292 46.672C49.6799 47.7705 48.9622 48.8941 48.162 50.0544L54.5256 54.4431C55.3985 53.1773 56.354 51.7075 57.1432 50.129L50.2292 46.672ZM48.2735 49.9009C48.1528 50.0588 48.1769 49.9844 48.3595 49.8674C48.4612 49.8023 48.6034 49.7295 48.7816 49.6751C48.9621 49.6201 49.1383 49.5968 49.2941 49.5968V57.3269C51.9406 57.3269 53.5683 55.7025 54.414 54.5966L48.2735 49.9009ZM49.2941 49.5968C49.5175 49.5968 49.6511 49.6419 49.6983 49.6602C49.7504 49.6803 49.7912 49.704 49.8347 49.7397C49.8512 49.7531 50.3148 50.1357 50.3148 50.9939H42.5847C42.5847 53.1906 43.8222 54.8072 44.9366 55.7199C46.0609 56.6408 47.6142 57.3269 49.2941 57.3269V49.5968ZM50.3148 50.9939C50.3148 51.1573 50.2933 51.3126 50.2596 51.4477C50.2273 51.5766 50.1914 51.6573 50.1823 51.6768C50.1754 51.6915 50.1875 51.6632 50.2444 51.5699C50.3028 51.4741 50.3808 51.3541 50.5023 51.1719L44.0704 46.884C43.6699 47.4847 42.5847 48.9768 42.5847 50.9939H50.3148ZM50.4852 51.1973C53.1746 47.2316 53.8878 45.5549 55.4647 41.3499L48.2267 38.6357C46.7919 42.4619 46.3339 43.546 44.0875 46.8586L50.4852 51.1973ZM55.4702 41.3352C55.5526 41.1127 55.585 41.0526 55.5792 41.0635C55.5673 41.0856 55.4707 41.2623 55.2526 41.4699C55.0129 41.698 54.7235 41.8712 54.431 41.9717C54.1662 42.0627 54.0005 42.0592 54.0209 42.0592V34.3291C52.6504 34.3291 51.1526 34.7006 49.9238 35.87C48.8957 36.8483 48.4386 38.0637 48.2213 38.6504L55.4702 41.3352ZM54.0209 42.0592C53.9858 42.0592 53.9669 42.0568 53.9619 42.0561C53.9564 42.0554 53.9544 42.0548 53.9531 42.0544C53.9518 42.0541 53.9428 42.0516 53.9253 42.0441C53.9081 42.0367 53.8733 42.0203 53.8248 41.9895C53.7368 41.9336 53.5339 41.7848 53.3428 41.4882C53.1328 41.1626 53.0002 40.7518 53.0002 40.3274H60.7303C60.7303 37.9078 59.276 36.2947 57.971 35.4654C56.7259 34.6741 55.2795 34.3291 54.0209 34.3291V42.0592ZM53.0002 40.3274C53.0002 40.1152 53.0307 40.0449 52.9963 40.1988C52.9699 40.3172 52.9225 40.4907 52.8509 40.7133C52.7077 41.1591 52.522 41.6343 52.3828 41.9648L59.5072 44.9645C59.7027 44.5002 59.9771 43.8042 60.2103 43.0788C60.398 42.4948 60.7303 41.3924 60.7303 40.3274H53.0002ZM55.945 47.3297H64.4363V39.5996H55.945V47.3297ZM64.4363 47.3297C64.9558 47.3297 64.2763 47.4576 63.6004 46.7378C63.2879 46.405 63.1671 46.0808 63.1286 45.9416C63.0974 45.8288 63.1228 45.8504 63.1228 46.0999H70.853C70.853 44.8703 70.6622 42.9655 69.2356 41.4463C67.7545 39.869 65.7992 39.5996 64.4363 39.5996V47.3297ZM63.1228 46.0999C63.1228 46.1586 63.1132 46.0131 63.2132 45.7574C63.324 45.474 63.5289 45.1625 63.8338 44.9084C64.3979 44.4383 64.8326 44.5354 64.4363 44.5354V52.2656C65.6296 52.2656 67.3401 52.0489 68.7826 50.8469C70.368 49.5256 70.853 47.6869 70.853 46.0999H63.1228ZM64.4363 44.5354H60.9227V52.2656H64.4363V44.5354ZM57.0576 48.4005V55.4278H64.7878V48.4005H57.0576ZM60.9227 59.2929H65.3566V51.5627H60.9227V59.2929ZM65.3566 59.2929C65.8289 59.2929 65.1917 59.4093 64.5385 58.731C63.9166 58.0852 64.0431 57.5002 64.0431 58.0212H71.7732C71.7732 56.7436 71.5442 54.8619 70.1067 53.369C68.6378 51.8436 66.7248 51.5627 65.3566 51.5627V59.2929ZM64.0431 58.0212C64.0431 58.1172 64.0286 58.0081 64.1113 57.7833C64.2042 57.5308 64.3885 57.2208 64.6915 56.9542C65.2724 56.4433 65.7483 56.5404 65.3566 56.5404V64.2706C66.5962 64.2706 68.3479 64.033 69.7967 62.7587C71.3473 61.395 71.7732 59.5485 71.7732 58.0212H64.0431ZM65.3566 56.5404H60.4626V64.2706H65.3566V56.5404ZM56.5975 60.4055C56.5975 60.3294 56.6013 60.2681 56.605 60.2254C56.6087 60.1831 56.6127 60.1549 56.6141 60.1459C56.6154 60.1373 56.6151 60.1407 56.6107 60.1638C56.6059 60.1894 56.6001 60.2188 56.5889 60.2749L64.1689 61.7909C64.1968 61.6516 64.3276 61.0631 64.3276 60.4055H56.5975ZM80.8166 45.2633V72.0759H88.5468V45.2633H80.8166ZM80.8166 72.0759C80.8166 72.7336 80.751 73.0852 80.7063 73.2395C80.6707 73.3622 80.681 73.252 80.8362 73.0958C80.9924 72.9386 81.1077 72.9235 80.9977 72.9558C80.8546 72.9978 80.5158 73.063 79.8713 73.063V80.7931C81.9534 80.7931 84.4561 80.4206 86.3207 78.5433C88.1783 76.6731 88.5468 74.1689 88.5468 72.0759H80.8166ZM79.8713 73.063H72.8859V80.7931H79.8713V73.063ZM72.8859 73.063C72.2414 73.063 71.9026 72.9978 71.7595 72.9558C71.6495 72.9235 71.7648 72.9386 71.921 73.0958C72.0762 73.252 72.0865 73.3622 72.0509 73.2395C72.0062 73.0852 71.9406 72.7336 71.9406 72.0759H64.2104C64.2104 74.1689 64.5789 76.6731 66.4365 78.5433C68.3011 80.4206 70.8037 80.7931 72.8859 80.7931V73.063ZM71.9406 72.0759V45.2633H64.2104V72.0759H71.9406ZM71.9406 45.2633C71.9406 44.6056 72.0062 44.2539 72.0509 44.0996C72.0865 43.9769 72.0762 44.0871 71.921 44.2433C71.7648 44.4006 71.6495 44.4157 71.7595 44.3834C71.9026 44.3413 72.2414 44.2762 72.8859 44.2762V36.546C70.8037 36.546 68.3011 36.9185 66.4365 38.7958C64.5789 40.6661 64.2104 43.1702 64.2104 45.2633H71.9406ZM72.8859 44.2762H79.8713V36.546H72.8859V44.2762ZM79.8713 44.2762C80.5013 44.2762 80.8348 44.3405 80.9768 44.3824C81.0872 44.415 80.9793 44.4021 80.8298 44.2526C80.6805 44.1033 80.6705 43.9985 80.7057 44.1176C80.75 44.2679 80.8166 44.6143 80.8166 45.2633H88.5468C88.5468 43.1437 88.1569 40.6477 86.2958 38.7866C84.4334 36.9241 81.946 36.546 79.8713 36.546V44.2762ZM78.1563 41.5237H74.4335V49.2539H78.1563V41.5237ZM74.4335 41.5237C73.3138 41.5237 71.7788 41.8244 70.5699 43.087C69.391 44.3183 69.1463 45.8179 69.1463 46.8528H76.8764C76.8764 46.9256 76.8617 47.6932 76.1534 48.433C75.4151 49.2042 74.5912 49.2539 74.4335 49.2539V41.5237ZM69.1463 46.8528V70.4027H76.8764V46.8528H69.1463ZM69.1463 70.4027C69.1463 71.4361 69.3915 72.9705 70.6286 74.2076C71.8657 75.4447 73.4001 75.69 74.4335 75.69V67.9598C74.5049 67.9598 75.3282 67.975 76.0947 68.7415C76.8612 69.5081 76.8764 70.3313 76.8764 70.4027H69.1463ZM74.4335 75.69H78.1563V67.9598H74.4335V75.69ZM78.1563 75.69C79.1703 75.69 80.7134 75.4644 81.9676 74.2374C83.2396 72.9931 83.4854 71.4359 83.4854 70.4027H75.7553C75.7553 70.3315 75.7711 69.4854 76.562 68.7117C77.3352 67.9553 78.1463 67.9598 78.1563 67.9598V75.69ZM83.4854 70.4027V46.8528H75.7553V70.4027H83.4854ZM83.4854 46.8528C83.4854 45.8273 83.2534 44.2549 81.9676 42.9971C80.7332 41.7895 79.2229 41.5648 78.3172 41.5271L77.9954 49.2505C77.9953 49.2505 77.9597 49.2491 77.8963 49.239C77.8328 49.2288 77.7294 49.2079 77.5981 49.1646C77.3249 49.0745 76.9344 48.8872 76.562 48.5229C75.7573 47.7357 75.7553 46.8744 75.7553 46.8528H83.4854ZM111.273 57.2085V53.3435H107.352L107.408 57.2643L111.273 57.2085ZM111.363 63.4232L107.498 63.4789L107.529 65.6172L109.357 66.727L111.363 63.4232ZM113.693 65.0366L111.219 68.0058L111.266 68.0448L111.314 68.0824L113.693 65.0366ZM111.393 67.7256L114.338 65.2224L107.592 57.2868L107.528 67.7016L111.393 67.7256ZM99.5012 63.1841L101.923 66.1965L101.943 66.1804L101.963 66.164L99.5012 63.1841ZM107.807 62.0189L106.824 65.7567L111.767 67.0576L111.672 61.9469L107.807 62.0189ZM107.718 57.2085L111.582 57.1365L111.511 53.3435H107.718V57.2085ZM107.658 53.8024V57.6675H111.583L111.523 53.743L107.658 53.8024ZM107.628 51.8604L111.493 51.8009L111.492 51.7738L111.491 51.7467L107.628 51.8604ZM111.184 51.8604L115.048 51.8009L115.048 51.7738L115.047 51.7467L111.184 51.8604ZM111.213 53.8024L107.349 53.8619L107.407 57.6675H111.213V53.8024ZM93.4957 68.2634L89.6652 68.7791L89.6688 68.806L89.6728 68.8328L93.4957 68.2634ZM94.7805 71.9683L91.4449 73.9208L91.4554 73.9389L91.4662 73.9569L94.7805 71.9683ZM92.0317 74.6274L89.1429 77.1953L89.167 77.2224L89.1916 77.249L92.0317 74.6274ZM90.5079 71.8189L94.1747 70.5967L94.1705 70.5843L90.5079 71.8189ZM89.8805 54.4896L93.7268 54.8705L93.7276 54.8619L89.8805 54.4896ZM90.4482 51.1134L94.0726 52.4558L94.0805 52.4346L94.0881 52.4134L90.4482 51.1134ZM93.9439 52.6969L97.7767 53.1952L97.7841 53.1385L97.7898 53.0815L93.9439 52.6969ZM107.837 65.664L111.702 65.6055L111.661 62.9356L109.15 62.0287L107.837 65.664ZM107.867 67.636H111.732V67.6067L111.732 67.5774L107.867 67.636ZM107.408 57.2643L107.498 63.4789L115.227 63.3674L115.138 57.1528L107.408 57.2643ZM109.357 66.727C110.136 67.2 110.722 67.5914 111.219 68.0058L116.168 62.0674C115.231 61.2866 114.263 60.6621 113.369 60.1194L109.357 66.727ZM111.314 68.0824C111.547 68.2645 111.698 68.386 111.813 68.4877C111.927 68.5877 111.946 68.6169 111.923 68.5886C111.895 68.5543 111.797 68.4267 111.709 68.2091C111.614 67.9767 111.561 67.7154 111.561 67.4567H119.291C119.291 65.8347 118.63 64.5813 117.914 63.7031C117.285 62.9326 116.511 62.333 116.073 61.9908L111.314 68.0824ZM111.561 67.4567C111.561 66.9578 111.754 66.4225 112.162 65.9988C112.584 65.5619 113.16 65.3246 113.723 65.3246V73.0547C116.975 73.0547 119.291 70.4137 119.291 67.4567H111.561ZM113.723 65.3246C113.831 65.3246 113.997 65.3365 114.191 65.3866C114.385 65.4368 114.535 65.5065 114.632 65.5624C114.719 65.6133 114.736 65.6371 114.679 65.5857C114.62 65.5331 114.508 65.4229 114.338 65.2224L108.448 70.2288C109.102 70.999 109.85 71.7255 110.753 72.2492C111.761 72.834 112.768 73.0547 113.723 73.0547V65.3246ZM107.528 67.7016C107.515 69.7677 107.11 70.6203 106.854 70.9335C106.735 71.0788 106.3 71.5691 104.461 71.5691V79.2992C107.761 79.2992 110.777 78.3404 112.832 75.834C114.749 73.4955 115.241 70.4939 115.258 67.7496L107.528 67.7016ZM104.461 71.5691C102.436 71.5691 100.976 70.0687 100.976 68.2335H93.2459C93.2459 74.5849 98.4184 79.2992 104.461 79.2992V71.5691ZM100.976 68.2335C100.976 67.4185 101.345 66.6608 101.923 66.1965L97.0795 60.1718C94.6095 62.1575 93.2459 65.1644 93.2459 68.2335H100.976ZM101.963 66.164C102.46 65.7532 103.235 65.4657 104.371 65.4657V57.7355C101.982 57.7355 99.2911 58.3444 97.0396 60.2043L101.963 66.164ZM104.371 65.4657C105.267 65.4657 106.065 65.557 106.824 65.7567L108.791 58.2811C107.279 57.8832 105.806 57.7355 104.371 57.7355V65.4657ZM111.672 61.9469L111.582 57.1365L103.853 57.2805L103.943 62.0909L111.672 61.9469ZM107.718 53.3435H98.8439V61.0736H107.718V53.3435ZM98.8439 53.3435C99.8469 53.3435 100.946 54.1556 100.946 55.5055H93.216C93.216 58.7676 95.9287 61.0736 98.8439 61.0736V53.3435ZM100.946 55.5055C100.946 56.8554 99.8469 57.6675 98.8439 57.6675V49.9374C95.9287 49.9374 93.216 52.2434 93.216 55.5055H100.946ZM98.8439 57.6675H107.658V49.9374H98.8439V57.6675ZM111.523 53.743L111.493 51.8009L103.763 51.9198L103.793 53.8619L111.523 53.743ZM111.491 51.7467C111.504 52.1654 111.367 52.6329 111.019 53.0363C110.637 53.4778 110.039 53.7834 109.391 53.7834V46.0532C105.721 46.0532 103.684 49.2191 103.765 51.974L111.491 51.7467ZM109.391 53.7834C108.725 53.7834 108.125 53.4632 107.756 53.0363C107.431 52.6611 107.329 52.2709 107.32 51.974L115.047 51.7467C114.975 49.2948 113.154 46.0532 109.391 46.0532V53.7834ZM107.319 51.9198L107.349 53.8619L115.078 53.743L115.048 51.8009L107.319 51.9198ZM111.213 57.6675H113.783V49.9374H111.213V57.6675ZM113.783 57.6675C112.78 57.6675 111.681 56.8554 111.681 55.5055H119.411C119.411 52.2434 116.698 49.9374 113.783 49.9374V57.6675ZM111.681 55.5055C111.681 54.1972 112.736 53.3435 113.813 53.3435V61.0736C116.742 61.0736 119.411 58.7259 119.411 55.5055H111.681ZM113.813 53.3435H111.273V61.0736H113.813V53.3435ZM89.3618 63.5726C89.3618 65.2467 89.4242 66.989 89.6652 68.7791L97.3263 67.7478C97.1489 66.4305 97.0919 65.0655 97.0919 63.5726H89.3618ZM89.6728 68.8328C89.9486 70.6846 90.4588 72.2363 91.4449 73.9208L98.1161 70.0157C97.6681 69.2503 97.4611 68.6507 97.3186 67.694L89.6728 68.8328ZM91.4662 73.9569C91.5159 74.0397 91.5171 74.0567 91.5014 74.0132C91.4867 73.9726 91.4233 73.7873 91.4233 73.4921H99.1535C99.1535 71.8981 98.4816 70.6245 98.0948 69.9797L91.4662 73.9569ZM91.4233 73.4921C91.4233 72.7491 91.7815 72.1614 92.165 71.8269C92.5156 71.5211 92.9468 71.3599 93.4061 71.3599V79.0901C95.9842 79.0901 99.1535 77.1214 99.1535 73.4921H91.4233ZM93.4061 71.3599C93.6448 71.3599 93.9185 71.4079 94.1949 71.5282C94.4715 71.6487 94.6999 71.8197 94.8718 72.0058L89.1916 77.249C90.2894 78.4382 91.8007 79.0901 93.4061 79.0901V71.3599ZM94.9205 72.0596C94.6828 71.7923 94.4147 71.3169 94.1747 70.5967L86.8412 73.0411C87.2584 74.2928 87.9464 75.8492 89.1429 77.1953L94.9205 72.0596ZM94.1705 70.5843C93.4724 68.5133 93.2675 66.1953 93.2675 63.5427H85.5374C85.5374 66.5071 85.7507 69.8062 86.8453 73.0535L94.1705 70.5843ZM93.2675 63.5427C93.2675 60.6769 93.4378 57.7889 93.7268 54.8705L86.0342 54.1088C85.7256 57.2257 85.5374 60.3731 85.5374 63.5427H93.2675ZM93.7276 54.8619C93.7705 54.4183 93.8303 53.8539 93.9089 53.3256C93.9481 53.0622 93.9878 52.8367 94.0259 52.6583C94.0681 52.4603 94.0899 52.4093 94.0726 52.4558L86.8237 49.771C86.5226 50.5839 86.3584 51.5465 86.2629 52.1878C86.1548 52.9144 86.0801 53.6347 86.0334 54.1173L93.7276 54.8619ZM94.0881 52.4134C93.9586 52.7758 93.6648 53.1987 93.1913 53.4946C92.7606 53.7639 92.368 53.8132 92.1512 53.8132V46.0831C90.1628 46.0831 87.769 47.1234 86.8083 49.8134L94.0881 52.4134ZM92.1512 53.8132C91.598 53.8132 91.1409 53.596 90.8217 53.2973C90.4938 52.9906 90.1685 52.4547 90.1685 51.7409H97.8986C97.8986 48.3815 95.025 46.0831 92.1512 46.0831V53.8132ZM90.1685 51.7409C90.1685 51.6838 90.1732 51.6761 90.1607 51.7837C90.1541 51.8403 90.1478 51.8892 90.1356 51.9855C90.1253 52.0679 90.1107 52.1856 90.098 52.3124L97.7898 53.0815C97.8034 52.9456 97.8013 53.0016 97.8391 52.6765C97.864 52.4629 97.8986 52.1266 97.8986 51.7409H90.1685ZM90.1111 52.1987C89.7041 55.329 89.3618 59.7693 89.3618 63.5726H97.0919C97.0919 60.1453 97.4068 56.0405 97.7767 53.1952L90.1111 52.1987ZM109.15 62.0287C107.66 61.4908 106.051 61.2014 104.431 61.2014V68.9315C105.141 68.9315 105.863 69.0604 106.524 69.2993L109.15 62.0287ZM104.431 61.2014C102.728 61.2014 100.895 61.7076 99.41 62.917C97.8418 64.1939 96.8611 66.1085 96.8611 68.353H104.591C104.591 68.3701 104.585 68.4749 104.517 68.617C104.45 68.7556 104.361 68.8543 104.291 68.9115C104.226 68.964 104.196 68.9678 104.227 68.9577C104.258 68.9476 104.328 68.9315 104.431 68.9315V61.2014ZM96.8611 68.353C96.8611 72.735 100.273 75.8035 104.401 75.8035V68.0733C104.317 68.0733 104.294 68.0592 104.317 68.0681C104.341 68.0773 104.394 68.104 104.453 68.161C104.513 68.2188 104.555 68.2846 104.578 68.3404C104.6 68.3957 104.591 68.4078 104.591 68.353H96.8611ZM104.401 75.8035C106.752 75.8035 108.979 74.9448 110.38 72.8678C111.565 71.1124 111.732 69.0645 111.732 67.636H104.002C104.002 68.0844 103.969 68.3779 103.932 68.5543C103.896 68.7298 103.877 68.6852 103.972 68.5441C104.023 68.4691 104.097 68.3807 104.196 68.2951C104.296 68.209 104.397 68.1472 104.483 68.1068C104.655 68.0271 104.675 68.0733 104.401 68.0733V75.8035ZM111.732 67.5774L111.702 65.6055L103.973 65.7226L104.002 67.6945L111.732 67.5774ZM132.128 49.0698V45.2047H129.063L128.365 48.1895L132.128 49.0698ZM126.356 73.749L122.592 72.8687L122.587 72.8896L122.583 72.9106L126.356 73.749ZM121.378 72.6196L117.613 71.7437L117.607 71.7732L117.6 71.8028L121.378 72.6196ZM126.858 49.0698L130.622 49.9457L131.725 45.2047H126.858V49.0698ZM127.987 44.1757V48.0408H131.038L131.746 45.0735L127.987 44.1757ZM128.656 41.3732L132.416 42.2709L132.418 42.2612L132.42 42.2514L128.656 41.3732ZM133.676 42.3771L129.959 41.3152L129.933 41.4078L129.911 41.5016L133.676 42.3771ZM133.257 44.1757L129.493 43.3002L128.39 48.0408H133.257V44.1757ZM151.537 69.9844L152.948 73.5827L153.004 73.5607L153.059 73.537L151.537 69.9844ZM137.984 74.3765L135.987 77.6857L136.02 77.7053L136.053 77.7243L137.984 74.3765ZM139.448 65.927L136.291 63.698L136.237 63.7737L136.187 63.8519L139.448 65.927ZM128.365 48.1895L122.592 72.8687L130.119 74.6293L135.892 49.95L128.365 48.1895ZM122.583 72.9106C122.689 72.43 122.959 72.1364 123.151 71.9957C123.329 71.8652 123.568 71.7663 123.888 71.7663V79.4964C126.489 79.4964 129.424 77.7601 130.129 74.5875L122.583 72.9106ZM123.888 71.7663C124.343 71.7663 124.677 71.9738 124.871 72.2019C125.078 72.4455 125.273 72.8954 125.156 73.4365L117.6 71.8028C116.701 75.9635 120.091 79.4964 123.888 79.4964V71.7663ZM125.142 73.4956L130.622 49.9457L123.093 48.1938L117.613 71.7437L125.142 73.4956ZM126.858 45.2047H121.462V52.9348H126.858V45.2047ZM121.462 45.2047C121.969 45.2047 122.367 45.4302 122.602 45.6766C122.829 45.9151 122.984 46.2508 122.984 46.6437H115.254C115.254 49.8973 117.857 52.9348 121.462 52.9348V45.2047ZM122.984 46.6437C122.984 47.0267 122.838 47.3373 122.633 47.5572C122.419 47.7871 122.016 48.0408 121.462 48.0408V40.3107C117.775 40.3107 115.254 43.4771 115.254 46.6437H122.984ZM121.462 48.0408H127.987V40.3107H121.462V48.0408ZM131.746 45.0735L132.416 42.2709L124.897 40.4754L124.228 43.278L131.746 45.0735ZM132.42 42.2514C132.418 42.2602 132.409 42.2943 132.379 42.3491C132.349 42.404 132.291 42.4921 132.187 42.5897C132.08 42.6899 131.932 42.7936 131.744 42.8702C131.553 42.9481 131.365 42.9795 131.208 42.9795V35.2493C127.553 35.2493 125.462 38.0537 124.892 40.4949L132.42 42.2514ZM131.208 42.9795C130.836 42.9795 130.538 42.8357 130.332 42.6407C130.112 42.4331 129.894 42.0641 129.894 41.5823H137.624C137.624 37.8622 134.47 35.2493 131.208 35.2493V42.9795ZM129.894 41.5823C129.894 41.848 129.878 41.6016 129.959 41.3152L137.392 43.4389C137.641 42.567 137.624 41.8186 137.624 41.5823H129.894ZM129.911 41.5016L129.493 43.3002L137.022 45.0512L137.44 43.2526L129.911 41.5016ZM133.257 48.0408H149.487V40.3107H133.257V48.0408ZM149.487 48.0408C148.945 48.0408 148.567 47.7984 148.369 47.5914C148.177 47.3899 148.006 47.0721 148.006 46.6437H155.737C155.737 43.3858 153.088 40.3107 149.487 40.3107V48.0408ZM148.006 46.6437C148.006 46.163 148.201 45.8334 148.384 45.6432C148.576 45.4443 148.948 45.2047 149.487 45.2047V52.9348C153.047 52.9348 155.737 49.9027 155.737 46.6437H148.006ZM149.487 45.2047H132.128V52.9348H149.487V45.2047ZM152.666 54.2398H138.402V61.97H152.666V54.2398ZM138.402 54.2398C138.899 54.2398 139.272 54.4548 139.489 54.6778C139.704 54.8974 139.883 55.2398 139.883 55.6788H132.153C132.153 59.0228 134.885 61.97 138.402 61.97V54.2398ZM139.883 55.6788C139.883 56.1178 139.704 56.4601 139.489 56.6798C139.272 56.9027 138.899 57.1178 138.402 57.1178V49.3876C134.885 49.3876 132.153 52.3347 132.153 55.6788H139.883ZM138.402 57.1178H152.624V49.3876H138.402V57.1178ZM152.624 57.1178C151.828 57.1178 151.185 56.4749 151.185 55.6788H158.916C158.916 52.2056 156.098 49.3876 152.624 49.3876V57.1178ZM151.185 55.6788C151.185 55.5453 151.25 55.1117 151.66 54.7066C152.058 54.3133 152.487 54.2398 152.666 54.2398V61.97C154.226 61.97 155.847 61.4364 157.092 60.2065C158.349 58.9648 158.916 57.3181 158.916 55.6788H151.185ZM144.844 74.9789C147.416 74.9789 150.23 74.6485 152.948 73.5827L150.126 66.3861C148.577 66.9935 146.79 67.2487 144.844 67.2487V74.9789ZM153.059 73.537C153.172 73.4886 153.258 73.4538 153.329 73.4276C153.398 73.4016 153.441 73.3881 153.465 73.3815C153.51 73.3687 153.455 73.3893 153.335 73.3893V65.6592C151.875 65.6592 150.677 66.1477 150.014 66.4318L153.059 73.537ZM153.335 73.3893C153.017 73.3893 152.632 73.2653 152.312 72.9567C151.977 72.6346 151.813 72.204 151.813 71.8249H159.543C159.543 68.2155 156.628 65.6592 153.335 65.6592V73.3893ZM151.813 71.8249C151.813 70.5845 152.861 70.7346 151.256 71.342C149.96 71.8327 147.847 72.1846 145.179 72.1846V79.9147C148.367 79.9147 151.503 79.5137 153.992 78.5717C156.173 77.7464 159.543 75.7841 159.543 71.8249H151.813ZM145.179 72.1846C143.06 72.1846 141.296 71.8252 139.916 71.0286L136.053 77.7243C139.022 79.4375 142.279 79.9147 145.179 79.9147V72.1846ZM139.981 71.0672C138.457 70.1475 137.708 68.8146 137.708 67.5583H129.978C129.978 72.0744 132.659 75.6773 135.987 77.6857L139.981 71.0672ZM137.708 67.5583C137.708 67.3636 137.739 67.0282 137.835 66.6254C137.929 66.2265 138.061 65.8651 138.204 65.5911C138.354 65.3015 138.445 65.2437 138.389 65.2892C138.286 65.3724 138.012 65.5254 137.65 65.5254V57.7953C134.197 57.7953 132.226 60.3295 131.344 62.0276C130.412 63.8209 129.978 65.9122 129.978 67.5583H137.708ZM137.65 65.5254C137.246 65.5254 136.973 65.3693 136.809 65.2159C136.638 65.0567 136.378 64.6958 136.378 64.1283H144.108C144.108 60.4137 140.873 57.7953 137.65 57.7953V65.5254ZM136.378 64.1283C136.378 63.975 136.397 63.8092 136.438 63.6447C136.477 63.4854 136.526 63.3729 136.551 63.3195C136.574 63.2734 136.577 63.275 136.53 63.3483C136.481 63.4244 136.411 63.5276 136.291 63.698L142.606 68.1559C143.031 67.554 144.108 66.1459 144.108 64.1283H136.378ZM136.187 63.8519C135.508 64.9199 135.123 66.1814 135.123 67.5165H142.853C142.853 67.6803 142.803 67.8542 142.709 68.002L136.187 63.8519ZM135.123 67.5165C135.123 71.0234 137.551 72.9903 139.462 73.8741C141.321 74.7341 143.389 74.9789 144.844 74.9789V67.2487C144.508 67.2487 144.096 67.2174 143.683 67.1427C143.262 67.0665 142.93 66.9613 142.707 66.8581C142.474 66.7501 142.501 66.7106 142.607 66.8428C142.76 67.0346 142.853 67.3057 142.853 67.5165H135.123ZM176.975 73.3726L178.779 76.7908L178.782 76.7893L176.975 73.3726ZM166.996 74.7768L166.485 78.608L166.508 78.611L166.531 78.6138L166.996 74.7768ZM163.141 73.5219L165.105 70.1927L165.097 70.188L165.089 70.1834L163.141 73.5219ZM166.01 69.7573L167.305 66.1156L167.287 66.1094L167.27 66.1034L166.01 69.7573ZM162.783 60.8537L162.266 57.0232L162.251 57.0253L162.236 57.0274L162.783 60.8537ZM162.066 56.2524L161.334 52.4572L161.304 52.463L161.274 52.4693L162.066 56.2524ZM176.616 56.5213L178.062 52.9369L178.061 52.9364L176.616 56.5213ZM177.831 64.7378C177.831 67.1398 176.692 69.1499 175.168 69.9559L178.782 76.7893C183.472 74.3087 185.561 69.2077 185.561 64.7378H177.831ZM175.171 69.9543C173.669 70.7468 171.83 71.1508 169.924 71.1508V78.8809C172.857 78.8809 175.978 78.269 178.779 76.7908L175.171 69.9543ZM169.924 71.1508C169.242 71.1508 168.492 71.0649 167.461 70.9398L166.531 78.6138C167.471 78.7278 168.693 78.8809 169.924 78.8809V71.1508ZM167.507 70.9457C166.528 70.8151 165.712 70.5508 165.105 70.1927L161.178 76.8512C162.901 77.8675 164.775 78.38 166.485 78.608L167.507 70.9457ZM165.089 70.1834C165.476 70.4094 165.811 70.8588 165.811 71.4902H158.081C158.081 73.7948 159.372 75.7979 161.194 76.8605L165.089 70.1834ZM165.811 71.4902C165.811 72.3553 165.14 73.1742 164.098 73.1742V65.4441C160.665 65.4441 158.081 68.2947 158.081 71.4902H165.811ZM164.098 73.1742C163.983 73.1742 163.926 73.1544 164.004 73.1736C164.052 73.1855 164.132 73.2073 164.26 73.2478C164.389 73.2884 164.545 73.3408 164.75 73.4113L167.27 66.1034C166.458 65.8236 165.371 65.4441 164.098 65.4441V73.1742ZM164.715 73.399C166.539 74.0475 168.42 74.3096 170.223 74.3096V66.5794C169.157 66.5794 168.17 66.4233 167.305 66.1156L164.715 73.399ZM170.223 74.3096C172.558 74.3096 175.162 73.7985 177.279 72.2119C179.565 70.4998 180.81 67.885 180.81 64.7677H173.08C173.08 65.2835 172.985 65.5626 172.921 65.6959C172.862 65.8213 172.781 65.9228 172.644 66.0255C172.32 66.2689 171.562 66.5794 170.223 66.5794V74.3096ZM180.81 64.7677C180.81 61.6372 179.396 59.2002 177.016 57.7921C174.974 56.5843 172.599 56.3611 170.82 56.3611V64.0913C171.43 64.0913 171.944 64.1348 172.357 64.2143C172.776 64.295 172.993 64.3943 173.08 64.4455C173.139 64.4802 173.088 64.4602 173.045 64.3814C173.005 64.3109 173.08 64.3863 173.08 64.7677H180.81ZM170.82 56.3611C167.884 56.3611 165.003 56.6543 162.266 57.0232L163.299 64.6841C165.881 64.336 168.378 64.0913 170.82 64.0913V56.3611ZM162.236 57.0274C162.181 57.0353 162.148 57.0401 162.117 57.0441C162.089 57.0479 162.074 57.0495 162.068 57.0502C162.058 57.0512 162.082 57.0483 162.126 57.0483V64.7785C162.676 64.7785 163.141 64.7069 163.33 64.6799L162.236 57.0274ZM162.126 57.0483C163.165 57.0483 163.69 57.8675 163.69 58.5232H155.96C155.96 61.7483 158.517 64.7785 162.126 64.7785V57.0483ZM163.69 58.5232C163.69 58.5798 163.68 58.7959 163.557 59.0887C163.427 59.3957 163.229 59.6549 163.015 59.8433C162.818 60.0159 162.663 60.0814 162.643 60.0896C162.626 60.0965 162.683 60.0721 162.858 60.0355L161.274 52.4693C160.416 52.6489 159.066 53.0226 157.913 54.0359C156.569 55.2165 155.96 56.8329 155.96 58.5232H163.69ZM162.797 60.0476C164.975 59.6279 168.006 59.4004 170.372 59.4004V51.6703C167.658 51.6703 164.116 51.9209 161.334 52.4572L162.797 60.0476ZM170.372 59.4004C172.289 59.4004 173.854 59.5752 175.172 60.1063L178.061 52.9364C175.375 51.854 172.638 51.6703 170.372 51.6703V59.4004ZM175.171 60.1058C176.197 60.52 176.784 61.0882 177.155 61.7215C177.553 62.4006 177.831 63.3804 177.831 64.7378H185.561C185.561 62.3604 185.076 59.9491 183.824 57.8122C182.544 55.6295 180.591 53.9568 178.062 52.9369L175.171 60.1058ZM199.115 49.0698V45.2047H196.049L195.351 48.1895L199.115 49.0698ZM193.342 73.749L189.579 72.8687L189.574 72.8896L189.569 72.9106L193.342 73.749ZM188.365 72.6196L184.6 71.7437L184.593 71.7732L184.587 71.8028L188.365 72.6196ZM193.844 49.0698L197.609 49.9457L198.712 45.2047H193.844V49.0698ZM194.974 44.1757V48.0408H198.024L198.733 45.0735L194.974 44.1757ZM195.643 41.3732L199.402 42.2709L199.404 42.2612L199.407 42.2514L195.643 41.3732ZM200.662 42.3771L196.946 41.3152L196.92 41.4078L196.898 41.5016L200.662 42.3771ZM200.244 44.1757L196.479 43.3002L195.377 48.0408H200.244V44.1757ZM218.523 69.9844L219.935 73.5827L219.991 73.5607L220.046 73.537L218.523 69.9844ZM204.971 74.3765L202.974 77.6857L203.006 77.7053L203.039 77.7243L204.971 74.3765ZM206.435 65.927L203.277 63.698L203.224 63.7737L203.174 63.8519L206.435 65.927ZM195.351 48.1895L189.579 72.8687L197.106 74.6293L202.878 49.95L195.351 48.1895ZM189.569 72.9106C189.676 72.43 189.946 72.1364 190.138 71.9957C190.316 71.8652 190.555 71.7663 190.874 71.7663V79.4964C193.476 79.4964 196.41 77.7601 197.115 74.5875L189.569 72.9106ZM190.874 71.7663C191.33 71.7663 191.664 71.9738 191.858 72.2019C192.065 72.4455 192.259 72.8954 192.142 73.4365L184.587 71.8028C183.687 75.9635 187.077 79.4964 190.874 79.4964V71.7663ZM192.129 73.4956L197.609 49.9457L190.08 48.1938L184.6 71.7437L192.129 73.4956ZM193.844 45.2047H188.448V52.9348H193.844V45.2047ZM188.448 45.2047C188.956 45.2047 189.354 45.4302 189.589 45.6766C189.816 45.9151 189.971 46.2508 189.971 46.6437H182.241C182.241 49.8973 184.843 52.9348 188.448 52.9348V45.2047ZM189.971 46.6437C189.971 47.0267 189.824 47.3373 189.62 47.5572C189.405 47.7871 189.003 48.0408 188.448 48.0408V40.3107C184.761 40.3107 182.241 43.4771 182.241 46.6437H189.971ZM188.448 48.0408H194.974V40.3107H188.448V48.0408ZM198.733 45.0735L199.402 42.2709L191.883 40.4754L191.214 43.278L198.733 45.0735ZM199.407 42.2514C199.405 42.2602 199.396 42.2943 199.366 42.3491C199.336 42.404 199.277 42.4921 199.173 42.5897C199.067 42.6899 198.919 42.7936 198.731 42.8702C198.539 42.9481 198.352 42.9795 198.194 42.9795V35.2493C194.539 35.2493 192.448 38.0537 191.879 40.4949L199.407 42.2514ZM198.194 42.9795C197.823 42.9795 197.525 42.8357 197.318 42.6407C197.098 42.4331 196.881 42.0641 196.881 41.5823H204.611C204.611 37.8622 201.456 35.2493 198.194 35.2493V42.9795ZM196.881 41.5823C196.881 41.848 196.864 41.6016 196.946 41.3152L204.379 43.4389C204.628 42.567 204.611 41.8186 204.611 41.5823H196.881ZM196.898 41.5016L196.479 43.3002L204.009 45.0512L204.427 43.2526L196.898 41.5016ZM200.244 48.0408H216.474V40.3107H200.244V48.0408ZM216.474 48.0408C215.932 48.0408 215.553 47.7984 215.356 47.5914C215.163 47.3899 214.993 47.0721 214.993 46.6437H222.723C222.723 43.3858 220.075 40.3107 216.474 40.3107V48.0408ZM214.993 46.6437C214.993 46.163 215.188 45.8334 215.371 45.6432C215.563 45.4443 215.934 45.2047 216.474 45.2047V52.9348C220.033 52.9348 222.723 49.9027 222.723 46.6437H214.993ZM216.474 45.2047H199.115V52.9348H216.474V45.2047ZM219.653 54.2398H205.389V61.97H219.653V54.2398ZM205.389 54.2398C205.885 54.2398 206.258 54.4548 206.476 54.6778C206.69 54.8974 206.87 55.2398 206.87 55.6788H199.14C199.14 59.0228 201.871 61.97 205.389 61.97V54.2398ZM206.87 55.6788C206.87 56.1178 206.69 56.4601 206.476 56.6798C206.258 56.9027 205.885 57.1178 205.389 57.1178V49.3876C201.871 49.3876 199.14 52.3347 199.14 55.6788H206.87ZM205.389 57.1178H219.611V49.3876H205.389V57.1178ZM219.611 57.1178C218.815 57.1178 218.172 56.4749 218.172 55.6788H225.902C225.902 52.2056 223.084 49.3876 219.611 49.3876V57.1178ZM218.172 55.6788C218.172 55.5453 218.236 55.1117 218.647 54.7066C219.045 54.3133 219.473 54.2398 219.653 54.2398V61.97C221.213 61.97 222.833 61.4364 224.079 60.2065C225.336 58.9648 225.902 57.3181 225.902 55.6788H218.172ZM211.831 74.9789C214.402 74.9789 217.217 74.6485 219.935 73.5827L217.112 66.3861C215.564 66.9935 213.777 67.2487 211.831 67.2487V74.9789ZM220.046 73.537C220.159 73.4886 220.245 73.4538 220.315 73.4276C220.385 73.4016 220.428 73.3881 220.452 73.3815C220.497 73.3687 220.442 73.3893 220.322 73.3893V65.6592C218.862 65.6592 217.664 66.1477 217.001 66.4318L220.046 73.537ZM220.322 73.3893C220.004 73.3893 219.619 73.2653 219.299 72.9567C218.964 72.6346 218.799 72.204 218.799 71.8249H226.53C226.53 68.2155 223.615 65.6592 220.322 65.6592V73.3893ZM218.799 71.8249C218.799 70.5845 219.848 70.7346 218.243 71.342C216.946 71.8327 214.833 72.1846 212.165 72.1846V79.9147C215.354 79.9147 218.49 79.5137 220.979 78.5717C223.16 77.7464 226.53 75.7841 226.53 71.8249H218.799ZM212.165 72.1846C210.046 72.1846 208.283 71.8252 206.902 71.0286L203.039 77.7243C206.009 79.4375 209.265 79.9147 212.165 79.9147V72.1846ZM206.968 71.0672C205.444 70.1475 204.695 68.8146 204.695 67.5583H196.965C196.965 72.0744 199.646 75.6773 202.974 77.6857L206.968 71.0672ZM204.695 67.5583C204.695 67.3636 204.726 67.0282 204.821 66.6254C204.915 66.2265 205.048 65.8651 205.19 65.5911C205.341 65.3015 205.432 65.2437 205.375 65.2892C205.272 65.3724 204.999 65.5254 204.636 65.5254V57.7953C201.183 57.7953 199.213 60.3295 198.33 62.0276C197.399 63.8209 196.965 65.9122 196.965 67.5583H204.695ZM204.636 65.5254C204.233 65.5254 203.959 65.3693 203.795 65.2159C203.625 65.0567 203.364 64.6958 203.364 64.1283H211.095C211.095 60.4137 207.86 57.7953 204.636 57.7953V65.5254ZM203.364 64.1283C203.364 63.975 203.383 63.8092 203.424 63.6447C203.464 63.4854 203.512 63.3729 203.538 63.3195C203.56 63.2734 203.564 63.275 203.517 63.3483C203.468 63.4244 203.397 63.5276 203.277 63.698L209.592 68.1559C210.017 67.554 211.095 66.1459 211.095 64.1283H203.364ZM203.174 63.8519C202.494 64.9199 202.11 66.1814 202.11 67.5165H209.84C209.84 67.6803 209.79 67.8542 209.696 68.002L203.174 63.8519ZM202.11 67.5165C202.11 71.0234 204.538 72.9903 206.449 73.8741C208.308 74.7341 210.376 74.9789 211.831 74.9789V67.2487C211.494 67.2487 211.082 67.2174 210.67 67.1427C210.249 67.0665 209.917 66.9613 209.694 66.8581C209.461 66.7501 209.487 66.7106 209.593 66.8428C209.747 67.0346 209.84 67.3057 209.84 67.5165H202.11Z" fill="white" mask="url(#path-1-outside-1_94_233)"/>
</g>
<g filter="url(#filter1_d_94_233)">
<mask id="path-3-outside-2_94_233" maskUnits="userSpaceOnUse" x="276" y="43" width="40" height="36" fill="black">
<rect fill="white" x="276" y="43" width="40" height="36"/>
<path d="M295.71 47.8C299.14 47.8 302.675 48.255 305.685 50.11C309.01 52.14 310.585 55.885 310.585 59.7C310.585 68.835 303.55 73.63 295.01 73.63C292.56 73.63 284.335 73 284.335 69.57C284.335 68.45 285.35 67.4 286.505 67.4C287.03 67.4 287.625 67.645 288.115 67.855C290.285 68.765 292.735 69.115 295.08 69.115C300.995 69.115 306 66.315 306 59.805C306 53.47 300.89 52.245 295.64 52.245C291.895 52.245 288.15 52.63 284.44 53.225C284.16 53.26 283.88 53.295 283.6 53.295C282.41 53.295 281.43 52.245 281.43 51.055C281.43 49.48 282.34 48.885 285.56 48.5C288.92 48.115 292.315 47.8 295.71 47.8Z"/>
</mask>
<path d="M295.71 47.8C299.14 47.8 302.675 48.255 305.685 50.11C309.01 52.14 310.585 55.885 310.585 59.7C310.585 68.835 303.55 73.63 295.01 73.63C292.56 73.63 284.335 73 284.335 69.57C284.335 68.45 285.35 67.4 286.505 67.4C287.03 67.4 287.625 67.645 288.115 67.855C290.285 68.765 292.735 69.115 295.08 69.115C300.995 69.115 306 66.315 306 59.805C306 53.47 300.89 52.245 295.64 52.245C291.895 52.245 288.15 52.63 284.44 53.225C284.16 53.26 283.88 53.295 283.6 53.295C282.41 53.295 281.43 52.245 281.43 51.055C281.43 49.48 282.34 48.885 285.56 48.5C288.92 48.115 292.315 47.8 295.71 47.8Z" fill="#F7DF7F"/>
<path d="M305.685 50.11L303.318 53.9508L303.326 53.9558L303.334 53.9607L305.685 50.11ZM288.115 67.855L286.338 72.0018L286.354 72.0088L286.37 72.0156L288.115 67.855ZM284.44 53.225L285 57.7018L285.077 57.6921L285.154 57.6797L284.44 53.225ZM285.56 48.5L285.046 44.0177L285.035 44.019L285.024 44.0203L285.56 48.5ZM295.71 52.3116C298.829 52.3116 301.363 52.7459 303.318 53.9508L308.052 46.2692C303.987 43.7641 299.451 43.2884 295.71 43.2884V52.3116ZM303.334 53.9607C304.987 54.9696 306.073 57.0269 306.073 59.7H315.097C315.097 54.7431 313.033 49.3104 308.036 46.2593L303.334 53.9607ZM306.073 59.7C306.073 62.9955 304.86 65.1771 303.122 66.6159C301.281 68.1409 298.483 69.1184 295.01 69.1184V78.1416C300.077 78.1416 305.067 76.7216 308.878 73.5654C312.793 70.3229 315.097 65.5395 315.097 59.7H306.073ZM295.01 69.1184C294.013 69.1184 291.735 68.9775 289.84 68.5074C288.864 68.2651 288.343 68.0191 288.167 67.9014C288.016 67.8007 288.847 68.326 288.847 69.57H279.823C279.823 72.529 281.682 74.4193 283.15 75.4014C284.593 76.3665 286.281 76.9211 287.667 77.2651C290.498 77.9675 293.557 78.1416 295.01 78.1416V69.1184ZM288.847 69.57C288.847 70.3646 288.507 70.9219 288.194 71.2377C287.875 71.5603 287.306 71.9116 286.505 71.9116V62.8884C282.812 62.8884 279.823 66.0049 279.823 69.57H288.847ZM286.505 71.9116C286.292 71.9116 286.138 71.8875 286.062 71.8729C285.984 71.858 285.946 71.845 285.958 71.8489C285.969 71.8523 286.004 71.8642 286.073 71.8914C286.143 71.919 286.223 71.9527 286.338 72.0018L289.892 63.7082C289.583 63.5757 288.12 62.8884 286.505 62.8884V71.9116ZM286.37 72.0156C289.246 73.2215 292.328 73.6266 295.08 73.6266V64.6034C293.142 64.6034 291.324 64.3085 289.86 63.6944L286.37 72.0156ZM295.08 73.6266C298.668 73.6266 302.47 72.788 305.489 70.4925C308.683 68.0639 310.512 64.3644 310.512 59.805H301.488C301.488 61.7556 300.815 62.7111 300.027 63.31C299.065 64.042 297.407 64.6034 295.08 64.6034V73.6266ZM310.512 59.805C310.512 57.609 310.065 55.5558 309.059 53.753C308.045 51.9341 306.603 50.6272 305.017 49.7262C302.021 48.0249 298.438 47.7334 295.64 47.7334V56.7566C298.092 56.7566 299.689 57.0776 300.561 57.5726C300.908 57.7697 301.072 57.9568 301.18 58.1493C301.296 58.3579 301.488 58.8335 301.488 59.805H310.512ZM295.64 47.7334C291.591 47.7334 287.598 48.1493 283.726 48.7703L285.154 57.6797C288.702 57.1107 292.199 56.7566 295.64 56.7566V47.7334ZM283.88 48.7482C283.808 48.7573 283.755 48.7639 283.705 48.7697C283.657 48.7754 283.624 48.7789 283.599 48.7812C283.548 48.786 283.556 48.7834 283.6 48.7834V57.8066C284.208 57.8066 284.768 57.7307 285 57.7018L283.88 48.7482ZM283.6 48.7834C284.367 48.7834 284.965 49.1228 285.328 49.5011C285.683 49.8722 285.942 50.4102 285.942 51.055H276.918C276.918 54.5498 279.735 57.8066 283.6 57.8066V48.7834ZM285.942 51.055C285.942 51.0705 285.943 51.468 285.692 51.9937C285.41 52.5833 284.989 52.9629 284.679 53.1571C284.44 53.3063 284.355 53.291 284.65 53.2171C284.928 53.1477 285.38 53.0653 286.096 52.9797L285.024 44.0203C283.449 44.2086 281.476 44.5181 279.896 45.5054C278.956 46.0933 278.107 46.941 277.553 48.0972C277.03 49.1895 276.918 50.252 276.918 51.055H285.942ZM286.074 52.9823C289.386 52.6028 292.577 52.3116 295.71 52.3116V43.2884C292.053 43.2884 288.454 43.6272 285.046 44.0177L286.074 52.9823Z" fill="#005EA4" mask="url(#path-3-outside-2_94_233)"/>
</g>
<g filter="url(#filter2_d_94_233)">
<mask id="path-5-outside-3_94_233" maskUnits="userSpaceOnUse" x="228" y="5" width="52" height="74" fill="black">
<rect fill="white" x="228" y="5" width="52" height="74"/>
<path d="M269.379 73H239.754C236.154 73 233.754 70.675 233.754 67.075C233.754 64 235.704 60.55 237.354 58.15C241.104 52.75 249.429 47.2 254.829 43.225C259.929 39.55 263.679 36.475 263.679 29.65C263.679 23.875 260.529 19.675 254.454 19.675C248.604 19.675 245.379 24.025 244.929 29.575C244.854 31.3 244.554 34.45 239.904 34.45C236.754 34.45 234.579 32.725 234.579 29.425C234.579 25.075 236.754 19.975 239.679 16.825C243.579 12.55 248.829 10.825 254.529 10.825C266.379 10.825 274.254 18.625 274.254 30.475C274.254 41.8 267.354 46.075 258.954 51.925C255.729 54.175 251.304 57.25 248.904 60.325C247.779 61.75 247.554 62.35 247.554 63.025C247.554 63.925 248.679 64.075 249.354 64.075H269.379C272.229 64.075 274.254 65.5 274.254 68.575C274.254 71.725 272.304 73 269.379 73Z"/>
</mask>
<path d="M269.379 73H239.754C236.154 73 233.754 70.675 233.754 67.075C233.754 64 235.704 60.55 237.354 58.15C241.104 52.75 249.429 47.2 254.829 43.225C259.929 39.55 263.679 36.475 263.679 29.65C263.679 23.875 260.529 19.675 254.454 19.675C248.604 19.675 245.379 24.025 244.929 29.575C244.854 31.3 244.554 34.45 239.904 34.45C236.754 34.45 234.579 32.725 234.579 29.425C234.579 25.075 236.754 19.975 239.679 16.825C243.579 12.55 248.829 10.825 254.529 10.825C266.379 10.825 274.254 18.625 274.254 30.475C274.254 41.8 267.354 46.075 258.954 51.925C255.729 54.175 251.304 57.25 248.904 60.325C247.779 61.75 247.554 62.35 247.554 63.025C247.554 63.925 248.679 64.075 249.354 64.075H269.379C272.229 64.075 274.254 65.5 274.254 68.575C274.254 71.725 272.304 73 269.379 73Z" fill="#F7DF7F"/>
<path d="M237.354 58.15L232.98 55.1126L232.973 55.1228L232.966 55.1332L237.354 58.15ZM254.829 43.225L251.716 38.9047L251.694 38.9205L251.673 38.9365L254.829 43.225ZM244.929 29.575L239.622 29.1446L239.614 29.244L239.609 29.3437L244.929 29.575ZM239.679 16.825L243.582 20.4485L243.598 20.4313L243.613 20.4139L239.679 16.825ZM258.954 51.925L255.911 47.5552L255.907 47.5577L258.954 51.925ZM248.904 60.325L253.084 63.6247L253.093 63.6131L253.102 63.6014L248.904 60.325ZM269.379 67.6749H239.754V78.3251H269.379V67.6749ZM239.754 67.6749C239.427 67.6749 239.243 67.6224 239.168 67.5944C239.099 67.5685 239.104 67.5575 239.136 67.5883C239.168 67.62 239.167 67.6362 239.15 67.5918C239.13 67.5415 239.08 67.3824 239.08 67.075H228.429C228.429 70.0912 229.461 73.0143 231.673 75.1867C233.874 77.3484 236.792 78.3251 239.754 78.3251V67.6749ZM239.08 67.075C239.08 66.5884 239.256 65.7399 239.795 64.5385C240.311 63.3872 241.022 62.2149 241.743 61.1668L232.966 55.1332C232.037 56.4851 230.948 58.2378 230.077 60.1802C229.228 62.0726 228.429 64.4866 228.429 67.075H239.08ZM241.728 61.1874C243.135 59.1614 245.635 56.8227 248.783 54.3243C251.912 51.8416 255.118 49.625 257.986 47.5135L251.673 38.9365C249.141 40.8 245.484 43.3459 242.163 45.9819C238.861 48.6023 235.324 51.7386 232.98 55.1126L241.728 61.1874ZM257.943 47.5453C260.443 45.7436 263.291 43.6361 265.413 40.8322C267.71 37.7971 269.005 34.186 269.005 29.65H258.354C258.354 31.939 257.774 33.2779 256.921 34.4053C255.892 35.7639 254.316 37.0314 251.716 38.9047L257.943 47.5453ZM269.005 29.65C269.005 25.8437 267.965 21.9827 265.357 18.9948C262.659 15.9047 258.804 14.3499 254.454 14.3499V25.0001C256.18 25.0001 256.937 25.5453 257.334 25.999C257.819 26.5548 258.354 27.6813 258.354 29.65H269.005ZM254.454 14.3499C250.082 14.3499 246.346 16.0334 243.698 18.993C241.15 21.8416 239.916 25.5128 239.622 29.1446L250.237 30.0054C250.393 28.0872 250.997 26.8084 251.635 26.0945C252.175 25.4916 252.977 25.0001 254.454 25.0001V14.3499ZM239.609 29.3437C239.602 29.5212 239.594 29.6507 239.583 29.7636C239.572 29.8748 239.56 29.945 239.552 29.9852C239.532 30.0791 239.545 29.942 239.695 29.7151C239.775 29.5956 239.881 29.4686 240.014 29.3523C240.148 29.2352 240.275 29.1589 240.369 29.1146C240.554 29.0272 240.477 29.1249 239.904 29.1249V39.7751C243.577 39.7751 246.698 38.4241 248.57 35.6036C250.131 33.2507 250.212 30.6626 250.25 29.8063L239.609 29.3437ZM239.904 29.1249C239.596 29.1249 239.442 29.0819 239.411 29.0716C239.388 29.064 239.486 29.0935 239.623 29.2169C239.689 29.2761 239.75 29.3451 239.802 29.4196C239.854 29.4938 239.886 29.5593 239.905 29.6055C239.943 29.7005 239.905 29.6653 239.905 29.425H229.254C229.254 32.3051 230.247 35.1066 232.498 37.1331C234.668 39.0854 237.401 39.7751 239.904 39.7751V29.1249ZM239.905 29.425C239.905 26.5371 241.488 22.7035 243.582 20.4485L235.777 13.2015C232.021 17.2465 229.254 23.6129 229.254 29.425H239.905ZM243.613 20.4139C246.264 17.5086 249.928 16.1501 254.529 16.1501V5.49986C247.731 5.49986 240.895 7.59137 235.745 13.2361L243.613 20.4139ZM254.529 16.1501C259.263 16.1501 262.772 17.6857 265.08 19.9819C267.386 22.275 268.929 25.7577 268.929 30.475H279.58C279.58 23.3423 277.185 17 272.591 12.4306C268 7.86429 261.646 5.49986 254.529 5.49986V16.1501ZM268.929 30.475C268.929 34.8508 267.67 37.5183 265.723 39.774C263.493 42.3575 260.363 44.4546 255.911 47.5552L261.998 56.2948C265.946 53.5454 270.465 50.58 273.786 46.7322C277.389 42.5567 279.58 37.4242 279.58 30.475H268.929ZM255.907 47.5577C252.918 49.6432 247.709 53.2018 244.707 57.0486L253.102 63.6014C254.9 61.2982 258.541 58.7068 262.001 56.2923L255.907 47.5577ZM244.725 57.0253C243.457 58.6309 242.229 60.4525 242.229 63.025H252.88C252.88 63.1685 252.866 63.4017 252.805 63.6777C252.744 63.9478 252.663 64.1452 252.613 64.2499C252.57 64.34 252.561 64.3394 252.641 64.2204C252.72 64.1022 252.857 63.9126 253.084 63.6247L244.725 57.0253ZM242.229 63.025C242.229 64.4616 242.714 65.8438 243.633 66.9576C244.476 67.9797 245.473 68.5242 246.18 68.8141C247.505 69.3576 248.779 69.4001 249.354 69.4001V58.7499C249.37 58.7499 249.428 58.75 249.529 58.764C249.611 58.7757 249.87 58.8163 250.222 58.9608C250.564 59.1008 251.237 59.4391 251.848 60.1799C252.535 61.0125 252.88 62.0384 252.88 63.025H242.229ZM249.354 69.4001H269.379V58.7499H249.354V69.4001ZM269.379 69.4001C269.658 69.4001 269.78 69.4361 269.778 69.4356C269.768 69.4324 269.614 69.382 269.416 69.2119C269.206 69.031 269.055 68.8084 268.973 68.6119C268.899 68.4328 268.929 68.3893 268.929 68.575H279.58C279.58 65.7942 278.612 63.0697 276.355 61.1318C274.228 59.3051 271.618 58.7499 269.379 58.7499V69.4001ZM268.929 68.575C268.929 68.821 268.891 68.7874 268.97 68.591C269.062 68.3665 269.24 68.0992 269.5 67.8815C269.742 67.6796 269.926 67.6274 269.92 67.629C269.903 67.634 269.739 67.6749 269.379 67.6749V78.3251C271.5 78.3251 274.145 77.8787 276.327 76.056C278.685 74.0868 279.58 71.3017 279.58 68.575H268.929Z" fill="#005EA4" mask="url(#path-5-outside-3_94_233)"/>
</g>
<mask id="path-7-outside-4_94_233" maskUnits="userSpaceOnUse" x="313.681" y="54.5298" width="41" height="23" fill="black">
<rect fill="white" x="313.681" y="54.5298" width="41" height="23"/>
<path d="M323.975 58.3818C323.849 58.8678 323.669 59.6778 323.579 60.0738C323.327 61.2978 322.895 63.5118 322.409 65.3298C321.761 67.8498 320.555 71.5398 319.565 73.6638L317.045 72.8178C318.125 71.0178 319.493 67.2378 320.159 64.7178C320.627 63.0258 321.041 61.0638 321.167 59.9838C321.257 59.3178 321.275 58.5798 321.221 58.1658L323.975 58.3818ZM319.385 61.0638C321.581 61.0638 324.119 60.7398 326.459 60.1818V62.4318C324.227 62.9538 321.401 63.2418 319.367 63.2418C318.485 63.2418 317.819 63.2058 317.189 63.1698L317.117 60.9378C318.053 61.0458 318.647 61.0638 319.385 61.0638ZM325.037 63.8358C326.045 63.7278 327.323 63.6378 328.511 63.6378C329.537 63.6378 330.617 63.6918 331.661 63.7998L331.625 65.9598C330.707 65.8518 329.609 65.7438 328.529 65.7438C327.269 65.7438 326.171 65.7978 325.037 65.9418V63.8358ZM326.009 68.3538C325.883 68.8578 325.775 69.4518 325.775 69.8478C325.775 70.6398 326.297 71.2338 328.241 71.2338C329.429 71.2338 330.689 71.0898 331.967 70.8558L331.877 73.1598C330.869 73.2858 329.663 73.4298 328.223 73.4298C325.181 73.4298 323.561 72.3678 323.561 70.5498C323.561 69.7218 323.705 68.8578 323.867 68.1378L326.009 68.3538ZM329.735 58.9038C330.203 59.5518 330.833 60.7038 331.175 61.3698L329.735 61.9818C329.357 61.2438 328.799 60.1818 328.313 59.4798L329.735 58.9038ZM331.877 58.0758C332.345 58.7598 333.011 59.8938 333.335 60.5418L331.895 61.1538C331.535 60.3978 330.941 59.3538 330.455 58.6698L331.877 58.0758ZM348.365 58.2198C348.293 58.6158 348.275 59.0478 348.275 59.4618C348.239 60.2898 348.275 63.6918 348.275 64.7538C348.275 68.9838 347.951 71.6118 344.369 73.8798L342.281 72.2598C342.983 71.9538 343.883 71.3778 344.387 70.8198C345.755 69.3798 346.061 67.7598 346.061 64.7358C346.061 63.3858 346.025 60.4698 345.935 59.4618C345.899 59.0298 345.809 58.5078 345.737 58.2198H348.365ZM341.255 61.7478C342.137 61.8738 343.019 61.9278 343.991 61.9278C346.313 61.9278 349.193 61.7658 350.957 61.4418V63.7818C349.247 63.9798 346.475 64.1238 344.045 64.1238C343.253 64.1238 342.155 64.0698 341.255 64.0158V61.7478ZM339.401 58.5258C339.257 58.9758 339.077 59.6238 338.987 60.0018C338.537 61.9998 337.889 65.7798 338.375 68.0118C338.609 67.4538 338.951 66.5718 339.239 65.9238L340.373 66.6438C339.833 68.1918 339.365 69.9918 339.149 71.0178C339.077 71.3058 339.023 71.7018 339.041 71.8998C339.041 72.0978 339.059 72.4038 339.077 72.6558L337.061 72.8538C336.665 71.7558 336.035 69.2538 336.035 67.0218C336.035 64.0698 336.395 61.2978 336.629 59.8218C336.701 59.3358 336.719 58.7238 336.737 58.2738L339.401 58.5258Z"/>
</mask>
<path d="M323.975 58.3818C323.849 58.8678 323.669 59.6778 323.579 60.0738C323.327 61.2978 322.895 63.5118 322.409 65.3298C321.761 67.8498 320.555 71.5398 319.565 73.6638L317.045 72.8178C318.125 71.0178 319.493 67.2378 320.159 64.7178C320.627 63.0258 321.041 61.0638 321.167 59.9838C321.257 59.3178 321.275 58.5798 321.221 58.1658L323.975 58.3818ZM319.385 61.0638C321.581 61.0638 324.119 60.7398 326.459 60.1818V62.4318C324.227 62.9538 321.401 63.2418 319.367 63.2418C318.485 63.2418 317.819 63.2058 317.189 63.1698L317.117 60.9378C318.053 61.0458 318.647 61.0638 319.385 61.0638ZM325.037 63.8358C326.045 63.7278 327.323 63.6378 328.511 63.6378C329.537 63.6378 330.617 63.6918 331.661 63.7998L331.625 65.9598C330.707 65.8518 329.609 65.7438 328.529 65.7438C327.269 65.7438 326.171 65.7978 325.037 65.9418V63.8358ZM326.009 68.3538C325.883 68.8578 325.775 69.4518 325.775 69.8478C325.775 70.6398 326.297 71.2338 328.241 71.2338C329.429 71.2338 330.689 71.0898 331.967 70.8558L331.877 73.1598C330.869 73.2858 329.663 73.4298 328.223 73.4298C325.181 73.4298 323.561 72.3678 323.561 70.5498C323.561 69.7218 323.705 68.8578 323.867 68.1378L326.009 68.3538ZM329.735 58.9038C330.203 59.5518 330.833 60.7038 331.175 61.3698L329.735 61.9818C329.357 61.2438 328.799 60.1818 328.313 59.4798L329.735 58.9038ZM331.877 58.0758C332.345 58.7598 333.011 59.8938 333.335 60.5418L331.895 61.1538C331.535 60.3978 330.941 59.3538 330.455 58.6698L331.877 58.0758ZM348.365 58.2198C348.293 58.6158 348.275 59.0478 348.275 59.4618C348.239 60.2898 348.275 63.6918 348.275 64.7538C348.275 68.9838 347.951 71.6118 344.369 73.8798L342.281 72.2598C342.983 71.9538 343.883 71.3778 344.387 70.8198C345.755 69.3798 346.061 67.7598 346.061 64.7358C346.061 63.3858 346.025 60.4698 345.935 59.4618C345.899 59.0298 345.809 58.5078 345.737 58.2198H348.365ZM341.255 61.7478C342.137 61.8738 343.019 61.9278 343.991 61.9278C346.313 61.9278 349.193 61.7658 350.957 61.4418V63.7818C349.247 63.9798 346.475 64.1238 344.045 64.1238C343.253 64.1238 342.155 64.0698 341.255 64.0158V61.7478ZM339.401 58.5258C339.257 58.9758 339.077 59.6238 338.987 60.0018C338.537 61.9998 337.889 65.7798 338.375 68.0118C338.609 67.4538 338.951 66.5718 339.239 65.9238L340.373 66.6438C339.833 68.1918 339.365 69.9918 339.149 71.0178C339.077 71.3058 339.023 71.7018 339.041 71.8998C339.041 72.0978 339.059 72.4038 339.077 72.6558L337.061 72.8538C336.665 71.7558 336.035 69.2538 336.035 67.0218C336.035 64.0698 336.395 61.2978 336.629 59.8218C336.701 59.3358 336.719 58.7238 336.737 58.2738L339.401 58.5258Z" fill="#F7DF7F"/>
<path d="M323.975 58.3818L326.879 59.1347C327.101 58.2758 326.932 57.3625 326.417 56.6401C325.902 55.9177 325.094 55.4603 324.209 55.391L323.975 58.3818ZM323.579 60.0738L320.653 59.4089C320.649 59.4288 320.644 59.4488 320.64 59.4688L323.579 60.0738ZM322.409 65.3298L319.51 64.555C319.508 64.5642 319.506 64.5734 319.503 64.5827L322.409 65.3298ZM319.565 73.6638L318.61 76.5078C320.057 76.9937 321.639 76.315 322.284 74.9312L319.565 73.6638ZM317.045 72.8178L314.472 71.2743C314.005 72.0536 313.915 73.0029 314.23 73.8556C314.544 74.7083 315.228 75.3726 316.09 75.6618L317.045 72.8178ZM320.159 64.7178L317.267 63.918C317.264 63.9291 317.261 63.9402 317.258 63.9512L320.159 64.7178ZM321.167 59.9838L318.194 59.582C318.191 59.6 318.189 59.6181 318.187 59.6361L321.167 59.9838ZM321.221 58.1658L321.455 55.175C320.554 55.1043 319.668 55.444 319.046 56.0997C318.423 56.7554 318.129 57.6571 318.246 58.5538L321.221 58.1658ZM326.459 60.1818H329.459C329.459 59.2637 329.038 58.3962 328.318 57.8273C327.597 57.2583 326.656 57.0507 325.763 57.2636L326.459 60.1818ZM326.459 62.4318L327.142 65.353C328.499 65.0356 329.459 63.8255 329.459 62.4318H326.459ZM317.189 63.1698L314.19 63.2665C314.24 64.8188 315.467 66.0763 317.018 66.1649L317.189 63.1698ZM317.117 60.9378L317.461 57.9576C316.594 57.8576 315.727 58.1398 315.085 58.7307C314.443 59.3215 314.09 60.1625 314.118 61.0345L317.117 60.9378ZM325.037 63.8358L324.717 60.8529C323.193 61.0162 322.037 62.3026 322.037 63.8358H325.037ZM331.661 63.7998L334.66 63.8498C334.686 62.2935 333.518 60.9759 331.969 60.8157L331.661 63.7998ZM331.625 65.9598L331.274 68.9392C332.116 69.0383 332.961 68.7763 333.599 68.2181C334.238 67.6599 334.61 66.8577 334.624 66.0098L331.625 65.9598ZM325.037 65.9418H322.037C322.037 66.8033 322.407 67.6232 323.053 68.1928C323.7 68.7623 324.56 69.0264 325.415 68.9179L325.037 65.9418ZM326.009 68.3538L328.919 69.0814C329.13 68.2364 328.964 67.3413 328.463 66.6287C327.962 65.916 327.176 65.4563 326.31 65.3689L326.009 68.3538ZM331.967 70.8558L334.964 70.9729C335 70.0628 334.62 69.1859 333.932 68.5893C333.244 67.9926 332.322 67.7408 331.426 67.9048L331.967 70.8558ZM331.877 73.1598L332.249 76.1366C333.706 75.9545 334.817 74.7443 334.874 73.2769L331.877 73.1598ZM323.867 68.1378L324.168 65.1529C322.658 65.0007 321.273 65.9992 320.94 67.4792L323.867 68.1378ZM329.735 58.9038L332.167 57.1473C331.358 56.0274 329.889 55.6046 328.608 56.1232L329.735 58.9038ZM331.175 61.3698L332.348 64.1308C333.115 63.8048 333.712 63.1744 333.996 62.3908C334.279 61.6071 334.224 60.7408 333.843 59.9994L331.175 61.3698ZM329.735 61.9818L327.065 63.3494C327.782 64.7501 329.46 65.3583 330.908 64.7428L329.735 61.9818ZM328.313 59.4798L327.186 56.6992C326.342 57.0413 325.699 57.7484 325.438 58.6214C325.177 59.4943 325.328 60.4384 325.846 61.1874L328.313 59.4798ZM331.877 58.0758L334.353 56.3817C333.549 55.208 332.033 54.7594 330.72 55.3076L331.877 58.0758ZM333.335 60.5418L334.508 63.3028C335.27 62.979 335.864 62.3548 336.15 61.5779C336.436 60.801 336.388 59.9406 336.018 59.2001L333.335 60.5418ZM331.895 61.1538L329.186 62.4436C329.877 63.8947 331.589 64.5434 333.068 63.9148L331.895 61.1538ZM330.455 58.6698L329.298 55.9016C328.457 56.253 327.821 56.968 327.57 57.8445C327.32 58.7211 327.481 59.6642 328.009 60.4074L330.455 58.6698ZM321.071 57.6289C320.93 58.1724 320.735 59.051 320.653 59.4089L326.504 60.7386C326.603 60.3046 326.768 59.5632 326.879 59.1347L321.071 57.6289ZM320.64 59.4688C320.377 60.747 319.968 62.845 319.51 64.555L325.307 66.1046C325.822 64.1786 326.276 61.8486 326.517 60.6787L320.64 59.4688ZM319.503 64.5827C318.88 67.0055 317.729 70.5019 316.846 72.3964L322.284 74.9312C323.381 72.5777 324.641 68.694 325.314 66.0769L319.503 64.5827ZM320.519 70.8198L317.999 69.9738L316.09 75.6618L318.61 76.5078L320.519 70.8198ZM319.617 74.3613C320.912 72.2034 322.366 68.106 323.059 65.4843L317.258 63.9512C316.619 66.3695 315.337 69.8322 314.472 71.2743L319.617 74.3613ZM323.05 65.5175C323.54 63.7468 323.996 61.6221 324.146 60.3314L318.187 59.6361C318.085 60.5054 317.713 62.3047 317.267 63.918L323.05 65.5175ZM324.14 60.3855C324.25 59.5709 324.296 58.5473 324.195 57.7778L318.246 58.5538C318.244 58.5403 318.256 58.6532 318.249 58.8958C318.243 59.116 318.224 59.3608 318.194 59.582L324.14 60.3855ZM320.986 61.1566L323.74 61.3726L324.209 55.391L321.455 55.175L320.986 61.1566ZM319.385 64.0638C321.845 64.0638 324.618 63.7048 327.155 63.1L325.763 57.2636C323.619 57.7747 321.316 58.0638 319.385 58.0638V64.0638ZM323.459 60.1818V62.4318H329.459V60.1818H323.459ZM325.775 59.5106C323.785 59.9761 321.19 60.2418 319.367 60.2418V66.2418C321.612 66.2418 324.668 65.9315 327.142 65.353L325.775 59.5106ZM319.367 60.2418C318.573 60.2418 317.977 60.2099 317.36 60.1747L317.018 66.1649C317.661 66.2017 318.396 66.2418 319.367 66.2418V60.2418ZM320.187 63.0731L320.115 60.8411L314.118 61.0345L314.19 63.2665L320.187 63.0731ZM316.773 63.918C317.85 64.0423 318.562 64.0638 319.385 64.0638V58.0638C318.731 58.0638 318.256 58.0493 317.461 57.9576L316.773 63.918ZM325.356 66.8187C326.289 66.7188 327.456 66.6378 328.511 66.6378V60.6378C327.189 60.6378 325.801 60.7367 324.717 60.8529L325.356 66.8187ZM328.511 66.6378C329.436 66.6378 330.413 66.6867 331.352 66.7839L331.969 60.8157C330.821 60.6969 329.638 60.6378 328.511 60.6378V66.6378ZM328.661 63.7498L328.625 65.9098L334.624 66.0098L334.66 63.8498L328.661 63.7498ZM331.975 62.9803C331.026 62.8687 329.788 62.7438 328.529 62.7438V68.7438C329.429 68.7438 330.387 68.8349 331.274 68.9392L331.975 62.9803ZM328.529 62.7438C327.178 62.7438 325.949 62.8018 324.659 62.9657L325.415 68.9179C326.392 68.7937 327.36 68.7438 328.529 68.7438V62.7438ZM328.037 65.9418V63.8358H322.037V65.9418H328.037ZM323.098 67.6262C322.958 68.1871 322.775 69.0719 322.775 69.8478H328.775C328.775 69.8775 328.773 69.8713 328.778 69.8209C328.783 69.7742 328.791 69.709 328.805 69.6262C328.832 69.4585 328.873 69.2656 328.919 69.0814L323.098 67.6262ZM322.775 69.8478C322.775 71.0146 323.231 72.4169 324.622 73.3386C325.739 74.0791 327.081 74.2338 328.241 74.2338V68.2338C327.896 68.2338 327.717 68.2064 327.655 68.1933C327.591 68.1797 327.724 68.1967 327.936 68.337C328.176 68.4961 328.428 68.7564 328.597 69.1119C328.754 69.4433 328.775 69.7215 328.775 69.8478H322.775ZM328.241 74.2338C329.661 74.2338 331.109 74.0627 332.507 73.8067L331.426 67.9048C330.268 68.1169 329.196 68.2338 328.241 68.2338V74.2338ZM328.969 70.7387L328.879 73.0427L334.874 73.2769L334.964 70.9729L328.969 70.7387ZM331.505 70.183C330.513 70.3069 329.464 70.4298 328.223 70.4298V76.4298C329.862 76.4298 331.225 76.2646 332.249 76.1366L331.505 70.183ZM328.223 70.4298C327.63 70.4298 327.181 70.3774 326.858 70.306C326.531 70.2339 326.383 70.1538 326.345 70.1304C326.321 70.115 326.4 70.1612 326.477 70.2982C326.513 70.3612 326.536 70.4228 326.548 70.4749C326.561 70.5256 326.561 70.5534 326.561 70.5498H320.561C320.561 72.52 321.521 74.1866 323.156 75.2127C324.617 76.1291 326.428 76.4298 328.223 76.4298V70.4298ZM326.561 70.5498C326.561 70.0353 326.655 69.4135 326.793 68.7963L320.94 67.4792C320.755 68.3021 320.561 69.4083 320.561 70.5498H326.561ZM323.566 71.1226L325.708 71.3386L326.31 65.3689L324.168 65.1529L323.566 71.1226ZM327.303 60.6603C327.625 61.107 328.166 62.0791 328.506 62.7402L333.843 59.9994C333.499 59.3285 332.78 57.9966 332.167 57.1473L327.303 60.6603ZM330.001 58.6088L328.561 59.2208L330.908 64.7428L332.348 64.1308L330.001 58.6088ZM332.405 60.6142C332.04 59.9021 331.396 58.6634 330.779 57.7722L325.846 61.1874C326.201 61.7001 326.673 62.5855 327.065 63.3494L332.405 60.6142ZM329.439 62.2603L330.861 61.6843L328.608 56.1232L327.186 56.6992L329.439 62.2603ZM329.401 59.7698C329.794 60.3452 330.391 61.3617 330.651 61.8834L336.018 59.2001C335.631 58.4259 334.895 57.1744 334.353 56.3817L329.401 59.7698ZM332.161 57.7808L330.721 58.3928L333.068 63.9148L334.508 63.3028L332.161 57.7808ZM334.603 59.864C334.183 58.9821 333.505 57.7828 332.9 56.9322L328.009 60.4074C328.377 60.9247 328.886 61.8134 329.186 62.4436L334.603 59.864ZM331.611 61.438L333.033 60.844L330.72 55.3076L329.298 55.9016L331.611 61.438ZM348.365 58.2198L351.316 58.7564C351.475 57.8812 351.238 56.9805 350.668 56.2975C350.098 55.6146 349.254 55.2198 348.365 55.2198V58.2198ZM348.275 59.4618L351.272 59.5921C351.274 59.5487 351.275 59.5052 351.275 59.4618H348.275ZM344.369 73.8798L342.53 76.25C343.528 77.0249 344.906 77.0906 345.974 76.4144L344.369 73.8798ZM342.281 72.2598L341.082 69.5097C340.111 69.9329 339.435 70.8367 339.304 71.8876C339.172 72.9385 339.605 73.9808 340.442 74.63L342.281 72.2598ZM344.387 70.8198L342.212 68.7535C342.194 68.7718 342.177 68.7902 342.16 68.8089L344.387 70.8198ZM345.935 59.4618L342.945 59.7109C342.946 59.7168 342.946 59.7227 342.947 59.7286L345.935 59.4618ZM345.737 58.2198V55.2198C344.813 55.2198 343.941 55.6454 343.372 56.3735C342.804 57.1017 342.602 58.0512 342.826 58.9474L345.737 58.2198ZM341.255 61.7478L341.679 58.7779C340.818 58.6549 339.946 58.9116 339.289 59.4814C338.632 60.0512 338.255 60.8781 338.255 61.7478H341.255ZM350.957 61.4418H353.957C353.957 60.5513 353.561 59.7068 352.877 59.1368C352.193 58.5668 351.291 58.3303 350.415 58.4911L350.957 61.4418ZM350.957 63.7818L351.302 66.7619C352.815 66.5867 353.957 65.3051 353.957 63.7818H350.957ZM341.255 64.0158H338.255C338.255 65.6029 339.491 66.9153 341.075 67.0104L341.255 64.0158ZM339.401 58.5258L342.258 59.4401C342.535 58.5751 342.405 57.6312 341.904 56.8732C341.404 56.1152 340.587 55.6246 339.683 55.5391L339.401 58.5258ZM338.987 60.0018L336.068 59.3069C336.065 59.3188 336.063 59.3307 336.06 59.3426L338.987 60.0018ZM338.375 68.0118L335.443 68.6501C335.722 69.9291 336.797 70.8799 338.101 70.9993C339.405 71.1187 340.635 70.3791 341.141 69.172L338.375 68.0118ZM339.239 65.9238L340.847 63.3911C340.11 62.9234 339.206 62.7996 338.371 63.052C337.536 63.3044 336.852 63.908 336.497 64.7054L339.239 65.9238ZM340.373 66.6438L343.205 67.6319C343.664 66.3163 343.157 64.858 341.981 64.1111L340.373 66.6438ZM339.149 71.0178L342.059 71.7454C342.068 71.709 342.077 71.6725 342.084 71.6358L339.149 71.0178ZM339.041 71.8998H342.041C342.041 71.8091 342.037 71.7185 342.028 71.6282L339.041 71.8998ZM339.077 72.6558L339.37 75.6414C340.988 75.4825 342.185 74.0637 342.069 72.442L339.077 72.6558ZM337.061 72.8538L334.239 73.8716C334.704 75.1631 335.988 75.9736 337.354 75.8394L337.061 72.8538ZM336.629 59.8218L339.592 60.2915C339.593 60.2815 339.595 60.2715 339.596 60.2614L336.629 59.8218ZM336.737 58.2738L337.019 55.2871C336.199 55.2095 335.383 55.4727 334.762 56.0149C334.142 56.5571 333.772 57.3306 333.739 58.1539L336.737 58.2738ZM345.413 57.6831C345.293 58.3427 345.275 58.9847 345.275 59.4618H351.275C351.275 59.1109 351.292 58.8889 351.316 58.7564L345.413 57.6831ZM345.277 59.3315C345.238 60.2447 345.275 63.8134 345.275 64.7538H351.275C351.275 63.5702 351.24 60.3348 351.272 59.5921L345.277 59.3315ZM345.275 64.7538C345.275 66.8895 345.173 68.117 344.842 69.0367C344.575 69.7781 344.088 70.5064 342.764 71.3451L345.974 76.4144C348.231 74.9852 349.697 73.2655 350.488 71.0684C351.214 69.0496 351.275 66.848 351.275 64.7538H345.275ZM346.208 71.5095L344.12 69.8895L340.442 74.63L342.53 76.25L346.208 71.5095ZM343.479 75.0099C344.44 74.5912 345.74 73.7975 346.613 72.8306L342.16 68.8089C342.026 68.958 341.525 69.3164 341.082 69.5097L343.479 75.0099ZM346.562 72.886C348.778 70.5532 349.061 67.889 349.061 64.7358H343.061C343.061 67.6306 342.731 68.2064 342.212 68.7535L346.562 72.886ZM349.061 64.7358C349.061 63.4233 349.027 60.363 348.923 59.195L342.947 59.7286C343.022 60.5766 343.061 63.3483 343.061 64.7358H349.061ZM348.924 59.2127C348.876 58.6283 348.76 57.9458 348.647 57.4922L342.826 58.9474C342.836 58.9854 342.861 59.1011 342.888 59.2702C342.915 59.4335 342.935 59.5917 342.945 59.7109L348.924 59.2127ZM345.737 61.2198H348.365V55.2198H345.737V61.2198ZM340.83 64.7176C341.877 64.8672 342.903 64.9278 343.991 64.9278V58.9278C343.134 58.9278 342.396 58.8804 341.679 58.7779L340.83 64.7176ZM343.991 64.9278C346.38 64.9278 349.47 64.765 351.499 64.3924L350.415 58.4911C348.915 58.7666 346.246 58.9278 343.991 58.9278V64.9278ZM347.957 61.4418V63.7818H353.957V61.4418H347.957ZM350.612 60.8017C349.044 60.9832 346.391 61.1238 344.045 61.1238V67.1238C346.558 67.1238 349.449 66.9764 351.302 66.7619L350.612 60.8017ZM344.045 61.1238C343.35 61.1238 342.33 61.0749 341.434 61.0212L341.075 67.0104C341.979 67.0646 343.155 67.1238 344.045 67.1238V61.1238ZM344.255 64.0158V61.7478H338.255V64.0158H344.255ZM336.543 57.6115C336.377 58.1301 336.177 58.8513 336.068 59.3069L341.905 60.6967C341.977 60.3963 342.136 59.8215 342.258 59.4401L336.543 57.6115ZM336.06 59.3426C335.817 60.4204 335.52 61.9823 335.347 63.6002C335.182 65.1445 335.094 67.0441 335.443 68.6501L341.306 67.3735C341.17 66.7475 341.163 65.6411 341.313 64.2378C341.455 62.9082 341.706 61.5812 341.913 60.6609L336.06 59.3426ZM341.141 69.172C341.436 68.4687 341.699 67.7739 341.98 67.1422L336.497 64.7054C336.202 65.3697 335.781 66.4389 335.608 66.8516L341.141 69.172ZM337.631 68.4564L338.765 69.1764L341.981 64.1111L340.847 63.3911L337.631 68.4564ZM337.54 65.6557C336.953 67.3397 336.452 69.2648 336.213 70.3998L342.084 71.6358C342.277 70.7187 342.713 69.0439 343.205 67.6319L337.54 65.6557ZM336.238 70.2902C336.14 70.6843 335.989 71.4693 336.053 72.1714L342.028 71.6282C342.036 71.7109 342.037 71.7731 342.037 71.8064C342.037 71.8421 342.036 71.8662 342.036 71.8766C342.035 71.8957 342.034 71.8935 342.037 71.8698C342.04 71.8482 342.044 71.8214 342.049 71.794C342.054 71.7659 342.058 71.7488 342.059 71.7454L336.238 70.2902ZM336.041 71.8998C336.041 72.2169 336.066 72.6197 336.084 72.8695L342.069 72.442C342.051 72.1879 342.041 71.9787 342.041 71.8998H336.041ZM338.783 69.6702L336.767 69.8682L337.354 75.8394L339.37 75.6414L338.783 69.6702ZM339.883 71.836C339.571 70.9704 339.035 68.8193 339.035 67.0218H333.035C333.035 69.6883 333.759 72.5411 334.239 73.8716L339.883 71.836ZM339.035 67.0218C339.035 64.2872 339.371 61.6857 339.592 60.2915L333.666 59.352C333.419 60.9099 333.035 63.8524 333.035 67.0218H339.035ZM339.596 60.2614C339.698 59.5757 339.719 58.7632 339.734 58.3937L333.739 58.1539C333.718 58.6844 333.703 59.0958 333.661 59.3821L339.596 60.2614ZM336.454 61.2605L339.118 61.5125L339.683 55.5391L337.019 55.2871L336.454 61.2605Z" fill="#005EA4" mask="url(#path-7-outside-4_94_233)"/>
<defs>
<filter id="filter0_d_94_233" x="0.630042" y="37.2281" width="225.9" height="47.3425" filterUnits="userSpaceOnUse" color-interpolation-filters="sRGB">
<feFlood flood-opacity="0" result="BackgroundImageFix"/>
<feColorMatrix in="SourceAlpha" type="matrix" values="0 0 0 0 0 0 0 0 0 0 0 0 0 0 0 0 0 0 127 0" result="hardAlpha"/>
<feOffset dy="2.89881"/>
<feGaussianBlur stdDeviation="1.93254"/>
<feComposite in2="hardAlpha" operator="out"/>
<feColorMatrix type="matrix" values="0 0 0 0 0 0 0 0 0 0 0 0 0 0 0 0 0 0 0.25 0"/>
<feBlend mode="normal" in2="BackgroundImageFix" result="effect1_dropShadow_94_233"/>
<feBlend mode="normal" in="SourceGraphic" in2="effect1_dropShadow_94_233" result="shape"/>
</filter>
<filter id="filter1_d_94_233" x="276.919" y="46.6719" width="38.178" height="34.8533" filterUnits="userSpaceOnUse" color-interpolation-filters="sRGB">
<feFlood flood-opacity="0" result="BackgroundImageFix"/>
<feColorMatrix in="SourceAlpha" type="matrix" values="0 0 0 0 0 0 0 0 0 0 0 0 0 0 0 0 0 0 127 0" result="hardAlpha"/>
<feOffset dy="3.38372"/>
<feGaussianBlur stdDeviation="2.25581"/>
<feComposite in2="hardAlpha" operator="out"/>
<feColorMatrix type="matrix" values="0 0 0 0 0 0 0 0 0 0 0 0 0 0 0 0 0 0 0.25 0"/>
<feBlend mode="normal" in2="BackgroundImageFix" result="effect1_dropShadow_94_233"/>
<feBlend mode="normal" in="SourceGraphic" in2="effect1_dropShadow_94_233" result="shape"/>
</filter>
<filter id="filter2_d_94_233" x="229.243" y="9.69729" width="49.5233" height="71.1981" filterUnits="userSpaceOnUse" color-interpolation-filters="sRGB">
<feFlood flood-opacity="0" result="BackgroundImageFix"/>
<feColorMatrix in="SourceAlpha" type="matrix" values="0 0 0 0 0 0 0 0 0 0 0 0 0 0 0 0 0 0 127 0" result="hardAlpha"/>
<feOffset dy="3.38372"/>
<feGaussianBlur stdDeviation="2.25581"/>
<feComposite in2="hardAlpha" operator="out"/>
<feColorMatrix type="matrix" values="0 0 0 0 0 0 0 0 0 0 0 0 0 0 0 0 0 0 0.25 0"/>
<feBlend mode="normal" in2="BackgroundImageFix" result="effect1_dropShadow_94_233"/>
<feBlend mode="normal" in="SourceGraphic" in2="effect1_dropShadow_94_233" result="shape"/>
</filter>
</defs>
</svg>
