<svg width="238" height="59" viewBox="0 0 238 59" fill="none" xmlns="http://www.w3.org/2000/svg">
<g filter="url(#filter0_d_94_227)">
<mask id="path-1-inside-1_94_227" fill="white">
<path fill-rule="evenodd" clip-rule="evenodd" d="M14.0428 2C9.04858 2 5 6.04858 5 11.0428V32.9572C5 37.9514 9.04859 42 14.0428 42H112.252L117.713 50.9265L123.173 42H223.957C228.951 42 233 37.9514 233 32.9572V11.0428C233 6.04858 228.951 2 223.957 2H14.0428Z"/>
</mask>
<path fill-rule="evenodd" clip-rule="evenodd" d="M14.0428 2C9.04858 2 5 6.04858 5 11.0428V32.9572C5 37.9514 9.04859 42 14.0428 42H112.252L117.713 50.9265L123.173 42H223.957C228.951 42 233 37.9514 233 32.9572V11.0428C233 6.04858 228.951 2 223.957 2H14.0428Z" fill="#005EA4"/>
<path d="M112.252 42L114.518 40.6139L113.741 39.3437H112.252V42ZM117.713 50.9265L115.447 52.3126L117.713 56.0169L119.979 52.3126L117.713 50.9265ZM123.173 42V39.3437H121.684L120.907 40.6139L123.173 42ZM7.65629 11.0428C7.65629 7.51561 10.5156 4.65629 14.0428 4.65629V-0.65629C7.58156 -0.65629 2.34371 4.58156 2.34371 11.0428H7.65629ZM7.65629 32.9572V11.0428H2.34371V32.9572H7.65629ZM14.0428 39.3437C10.5156 39.3437 7.65629 36.4844 7.65629 32.9572H2.34371C2.34371 39.4184 7.58157 44.6563 14.0428 44.6563V39.3437ZM112.252 39.3437H14.0428V44.6563H112.252V39.3437ZM119.979 49.5404L114.518 40.6139L109.986 43.3861L115.447 52.3126L119.979 49.5404ZM120.907 40.6139L115.447 49.5404L119.979 52.3126L125.439 43.3861L120.907 40.6139ZM223.957 39.3437H123.173V44.6563H223.957V39.3437ZM230.344 32.9572C230.344 36.4844 227.484 39.3437 223.957 39.3437V44.6563C230.418 44.6563 235.656 39.4184 235.656 32.9572H230.344ZM230.344 11.0428V32.9572H235.656V11.0428H230.344ZM223.957 4.65629C227.484 4.65629 230.344 7.51562 230.344 11.0428H235.656C235.656 4.58155 230.418 -0.65629 223.957 -0.65629V4.65629ZM14.0428 4.65629H223.957V-0.65629H14.0428V4.65629Z" fill="white" mask="url(#path-1-inside-1_94_227)"/>
</g>
<path d="M26.4505 15.77H35.8645V17.714H26.4505V15.77ZM25.8385 22.682H36.5125V24.644H25.8385V22.682ZM25.6765 19.298H36.6565V21.26H25.6765V19.298ZM30.1405 13.79H32.1925V20.306H30.1405V13.79ZM32.4805 20.918H34.5325V28.352C34.5325 29.432 34.3345 29.972 33.6325 30.278C32.9665 30.602 32.0125 30.62 30.6985 30.62C30.6265 30.026 30.3565 29.162 30.1045 28.586C30.9145 28.64 31.8505 28.64 32.1205 28.622C32.4085 28.622 32.4805 28.55 32.4805 28.316V20.918ZM26.8285 25.67L28.5385 24.716C29.2945 25.634 30.1945 26.912 30.5545 27.776L28.7185 28.856C28.4125 27.992 27.5845 26.642 26.8285 25.67ZM19.5565 22.844C21.0325 22.52 23.2105 21.944 25.2985 21.368L25.5685 23.312C23.6785 23.888 21.6445 24.464 20.0425 24.932L19.5565 22.844ZM19.8445 17.138H25.4065V19.118H19.8445V17.138ZM21.8785 13.736H23.8765V28.226C23.8765 29.216 23.6965 29.774 23.1385 30.116C22.5985 30.44 21.8065 30.53 20.6545 30.512C20.6005 29.972 20.3485 29.09 20.0965 28.496C20.7445 28.532 21.3745 28.532 21.5905 28.532C21.8065 28.532 21.8785 28.46 21.8785 28.208V13.736ZM42.9925 18.758H54.2605V20.576H42.9925V18.758ZM47.6905 25.346L48.9505 24.266C49.9405 25.058 51.2725 26.21 51.9025 26.948L50.5705 28.172C49.9765 27.398 48.6805 26.192 47.6905 25.346ZM43.3885 21.872H52.5505V23.708H45.3145V30.62H43.3885V21.872ZM51.7045 21.872H53.7565V28.514C53.7565 29.432 53.5765 29.954 52.9465 30.278C52.3345 30.584 51.4885 30.62 50.3545 30.602C50.2645 30.062 49.9405 29.234 49.6705 28.73C50.3905 28.766 51.1825 28.766 51.3985 28.748C51.6325 28.748 51.7045 28.694 51.7045 28.478V21.872ZM47.4565 19.388H49.3465V22.574C49.3465 24.554 48.7525 26.84 46.1245 28.262C45.8725 27.848 45.3145 27.218 44.8825 26.894C47.2045 25.868 47.4565 23.996 47.4565 22.574V19.388ZM41.4805 15.644H54.3865V17.588H41.4805V15.644ZM40.3105 15.644H42.3625V21.044C42.3625 23.924 41.9665 28.082 39.4465 30.548C39.1585 30.152 38.3305 29.36 37.8985 29.108C40.1125 26.858 40.3105 23.564 40.3105 21.026V15.644ZM45.7285 13.718H48.0145V16.922H45.7285V13.718ZM37.5385 17.894L39.1045 17.12C39.6805 18.164 40.2565 19.55 40.4365 20.45L38.7625 21.332C38.6005 20.432 38.0785 18.992 37.5385 17.894ZM37.3765 24.05C38.2405 23.69 39.4645 23.096 40.7065 22.466L41.2105 24.158C40.1665 24.824 39.0505 25.49 38.0065 26.084L37.3765 24.05ZM62.8285 14.924C62.7205 15.392 62.6125 15.968 62.5225 16.418C62.3425 17.228 62.1265 18.344 61.9285 19.262C61.3345 21.8 59.8945 26.93 58.0045 29.972L55.6465 29.036C57.7885 26.156 59.1385 21.404 59.6425 19.136C59.9845 17.516 60.1825 15.986 60.1645 14.636L62.8285 14.924ZM69.0385 16.724C70.1365 18.29 71.6485 21.638 72.2065 23.348L69.9205 24.41C69.4525 22.412 68.1745 19.244 66.8785 17.642L69.0385 16.724ZM55.5385 18.614C56.1865 18.65 56.7985 18.632 57.4645 18.614C58.9045 18.578 62.3245 18.182 63.6565 18.182C65.5645 18.182 66.9145 19.028 66.9145 21.638C66.9145 23.762 66.6445 26.678 65.8885 28.226C65.2945 29.486 64.2865 29.882 62.9365 29.882C62.2345 29.882 61.3885 29.774 60.7765 29.63L60.3805 27.254C61.0825 27.452 62.1085 27.632 62.5765 27.632C63.1885 27.632 63.6565 27.452 63.9265 26.858C64.4305 25.85 64.6645 23.654 64.6645 21.89C64.6645 20.45 64.0525 20.234 62.9185 20.234C61.8565 20.234 58.7425 20.63 57.7525 20.756C57.2305 20.828 56.2945 20.954 55.7545 21.044L55.5385 18.614ZM68.7145 14.24C69.1645 14.888 69.7945 16.04 70.1365 16.706L68.6965 17.318C68.3185 16.58 67.7605 15.518 67.2745 14.816L68.7145 14.24ZM70.8385 13.412C71.3065 14.096 71.9725 15.248 72.2965 15.878L70.8565 16.49C70.4965 15.734 69.9025 14.69 69.4165 14.006L70.8385 13.412ZM80.5045 14.528C80.3965 14.87 80.3245 15.194 80.2525 15.482C79.9105 17.156 79.6045 19.748 79.6045 21.98C79.6045 24.824 80.1265 26.84 80.7205 28.658L78.6505 29.27C78.1105 27.65 77.5885 24.986 77.5885 22.34C77.5885 19.982 77.9125 17.336 78.1105 15.554C78.1465 15.194 78.1825 14.78 78.1645 14.456L80.5045 14.528ZM77.2825 16.508C80.7025 16.508 83.4205 16.346 86.1745 15.68L86.1925 17.75C83.7265 18.2 79.9465 18.47 77.2285 18.47C76.2745 18.47 74.8705 18.38 74.0245 18.344L73.9705 16.274C74.6185 16.364 76.1845 16.508 77.2825 16.508ZM85.0585 19.154C84.9145 19.478 84.6445 20.306 84.5185 20.684C83.4925 23.924 81.6385 26.354 79.9285 27.614C78.7585 28.478 77.1925 29.27 75.6265 29.27C74.3125 29.27 73.2145 28.478 73.2145 26.642C73.2145 24.104 75.4825 21.458 78.3445 20.414C79.5325 19.982 81.0085 19.712 82.3585 19.712C85.7245 19.712 88.2085 21.656 88.2085 24.464C88.2085 27.02 86.6965 29.486 82.2865 30.17L81.0805 28.262C84.5545 27.884 85.9765 26.138 85.9765 24.356C85.9765 22.826 84.6625 21.53 82.2325 21.53C80.5945 21.53 79.2985 21.998 78.4165 22.394C76.6165 23.24 75.3385 24.968 75.3385 26.174C75.3385 26.768 75.5725 27.074 76.1665 27.074C77.0125 27.074 78.2185 26.48 79.3165 25.454C80.6305 24.248 81.8545 22.646 82.5745 20.162C82.7005 19.784 82.8265 19.01 82.8445 18.614L85.0585 19.154ZM89.9725 21.386C90.5125 21.296 91.3405 21.08 91.8805 20.9C93.1225 20.54 96.1645 19.496 98.3425 19.496C101.204 19.496 103.112 21.188 103.112 23.924C103.112 27.164 100.232 29.396 94.5265 29.738L93.5725 27.524C97.6765 27.416 100.718 26.318 100.718 23.87C100.718 22.538 99.7105 21.584 98.1265 21.584C96.0385 21.584 92.4565 23.078 90.9085 23.726L89.9725 21.386ZM103.458 16.634C104.16 16.616 104.88 16.58 105.222 16.544C106.734 16.4 109.686 16.148 112.998 15.86C114.852 15.698 116.814 15.59 118.092 15.536L118.11 17.858C117.138 17.858 115.59 17.876 114.618 18.092C112.458 18.668 110.82 21.008 110.82 23.132C110.82 26.102 113.592 27.164 116.634 27.326L115.806 29.792C112.026 29.558 108.462 27.524 108.462 23.618C108.462 21.026 109.92 18.992 111.144 18.074C109.452 18.254 105.78 18.632 103.692 19.1L103.458 16.634ZM126.646 14.582C126.484 15.248 126.412 15.716 126.322 16.184C126.106 17.732 125.26 23.672 125.26 25.49C125.26 26.984 126.16 27.794 127.924 27.794C130.444 27.794 131.83 26.624 131.83 25.148C131.83 23.942 131.146 22.772 129.976 21.674L132.496 21.134C133.702 22.646 134.242 23.906 134.242 25.436C134.242 28.154 131.812 30.116 127.87 30.116C125.026 30.116 123.028 28.892 123.028 25.868C123.028 24.032 123.892 18.56 124.072 16.04C124.144 15.212 124.144 14.852 124.108 14.438L126.646 14.582ZM120.22 16.814C121.786 17.336 124.018 17.57 125.854 17.57C127.24 17.57 128.518 17.48 129.418 17.318L129.346 19.478C128.284 19.586 127.294 19.64 125.782 19.64C123.964 19.64 121.768 19.352 120.112 18.884L120.22 16.814ZM119.824 21.278C121.768 21.944 123.856 22.088 125.674 22.088C126.772 22.088 128.104 22.016 129.274 21.872L129.22 24.014C128.23 24.122 127.168 24.176 126.034 24.176C123.64 24.176 121.354 23.924 119.716 23.456L119.824 21.278ZM139.246 14.726H144.34V16.922H139.246V14.726ZM143.278 14.726H145.51C145.51 18.146 145.996 24.77 152.674 28.676C152.17 29.072 151.306 30.026 150.928 30.566C144.07 26.444 143.278 18.398 143.278 14.726ZM142.504 18.668L144.988 19.118C143.728 24.464 141.334 28.334 137.572 30.602C137.176 30.134 136.168 29.234 135.61 28.838C139.372 26.93 141.532 23.438 142.504 18.668ZM158.542 14.546C158.29 15.428 157.912 17.282 157.804 18.29C158.668 16.904 160.252 15.374 162.268 15.374C164.77 15.374 166.714 17.84 166.714 21.8C166.714 26.894 163.6 29.306 158.83 30.188L157.462 28.1C161.476 27.488 164.284 26.156 164.284 21.8C164.284 19.028 163.348 17.48 161.854 17.48C159.73 17.48 157.858 20.684 157.786 23.042C157.75 23.546 157.768 24.122 157.858 24.95L155.644 25.112C155.536 24.41 155.428 23.312 155.428 22.106C155.428 20.414 155.662 18.2 155.932 16.328C156.004 15.662 156.058 14.942 156.076 14.456L158.542 14.546ZM178.432 17.552C177.802 16.904 176.56 15.698 175.858 15.158L177.514 14.006C178.144 14.51 179.494 15.662 180.124 16.328L178.432 17.552ZM173.536 15.626C173.68 15.968 174.04 16.706 174.238 17.048C174.976 18.434 175.786 20.216 176.434 21.728C177.28 23.69 178.684 27.524 179.278 29.558L176.794 30.188C176.236 27.92 175.3 24.878 174.382 22.718C173.662 21.044 172.996 19.406 172.258 18.11C171.988 17.678 171.556 16.994 171.196 16.544L173.536 15.626ZM169.648 20.9C170.35 20.738 171.124 20.45 171.43 20.324C174.706 19.046 178.396 16.94 181.294 16.94C184.066 16.94 185.758 18.632 185.758 20.72C185.758 23.24 184.03 24.824 181.276 24.824C180.286 24.824 179.17 24.572 178.486 24.32L178.558 22.07C179.368 22.412 180.268 22.664 181.042 22.664C182.392 22.664 183.382 21.926 183.382 20.63C183.382 19.73 182.59 18.974 181.24 18.974C178.324 18.974 172.924 22.196 170.692 23.204L169.648 20.9ZM197.638 14.492C197.584 14.798 197.53 15.752 197.512 16.04C197.458 17.228 197.494 20.9 197.512 22.34L195.262 21.584C195.262 20.468 195.262 17.012 195.19 16.058C195.136 15.338 195.064 14.726 195.028 14.492H197.638ZM187.45 16.742C190.132 16.742 194.884 16.598 197.134 16.598C198.97 16.598 201.706 16.58 202.714 16.598L202.678 18.722C201.562 18.668 199.726 18.614 197.08 18.614C193.804 18.614 190.222 18.758 187.504 18.902L187.45 16.742ZM197.206 22.07C197.206 25.004 196.126 26.462 194.056 26.462C192.67 26.462 190.942 25.364 190.942 23.168C190.942 21.134 192.598 19.802 194.542 19.802C196.918 19.802 198.16 21.548 198.16 23.78C198.16 26.138 196.774 29.108 192.382 30.35L190.474 28.442C193.534 27.776 195.928 26.57 195.928 23.42C195.928 22.25 195.298 21.692 194.506 21.692C193.804 21.692 193.102 22.178 193.102 23.132C193.102 23.942 193.768 24.464 194.506 24.464C195.352 24.464 196.09 23.744 195.514 21.602L197.206 22.07ZM207.466 16.148C207.34 16.778 207.25 17.84 207.25 18.344C207.25 19.514 207.25 20.846 207.358 22.16C207.61 24.752 208.15 26.534 209.284 26.534C210.148 26.534 210.85 24.41 211.192 22.988L213.01 25.166C211.804 28.316 210.688 29.396 209.248 29.396C207.25 29.396 205.54 27.632 205.036 22.808C204.856 21.152 204.838 19.028 204.838 17.93C204.838 17.444 204.82 16.67 204.694 16.112L207.466 16.148ZM216.466 16.544C218.176 18.614 219.562 23.114 219.76 25.868L217.384 26.804C217.114 23.888 216.142 19.532 214.18 17.3L216.466 16.544Z" fill="#F7DF7F"/>
<defs>
<filter id="filter0_d_94_227" x="0.50498" y="0.876245" width="236.99" height="57.9168" filterUnits="userSpaceOnUse" color-interpolation-filters="sRGB">
<feFlood flood-opacity="0" result="BackgroundImageFix"/>
<feColorMatrix in="SourceAlpha" type="matrix" values="0 0 0 0 0 0 0 0 0 0 0 0 0 0 0 0 0 0 127 0" result="hardAlpha"/>
<feOffset dy="3.37126"/>
<feGaussianBlur stdDeviation="2.24751"/>
<feComposite in2="hardAlpha" operator="out"/>
<feColorMatrix type="matrix" values="0 0 0 0 0 0 0 0 0 0 0 0 0 0 0 0 0 0 0.25 0"/>
<feBlend mode="normal" in2="BackgroundImageFix" result="effect1_dropShadow_94_227"/>
<feBlend mode="normal" in="SourceGraphic" in2="effect1_dropShadow_94_227" result="shape"/>
</filter>
</defs>
</svg>
