<svg width="200" height="16" viewBox="0 0 200 16" fill="none" xmlns="http://www.w3.org/2000/svg">
<path d="M199.378 5.46787L198.944 9.74956C198.897 10.215 198.758 10.5252 198.246 10.5252C197.749 10.5252 197.625 10.1839 197.579 9.74956L197.129 5.46787V2.19456C197.129 1.44992 197.548 1.13965 198.277 1.13965C198.975 1.13965 199.378 1.48094 199.378 2.19456V5.46787ZM198.261 11.7353C198.975 11.7353 199.549 12.3248 199.549 13.0384C199.549 13.752 198.975 14.3415 198.261 14.3415C197.548 14.3415 196.958 13.752 196.958 13.0384C196.958 12.3248 197.532 11.7353 198.261 11.7353Z" fill="#005EA4"/>
<path d="M187.257 6.87959L192.858 1.51197C193.075 1.29478 193.323 1.13965 193.633 1.13965C194.207 1.13965 194.812 1.74467 194.812 2.31866C194.812 2.5979 194.657 2.89266 194.455 3.07882L190.562 6.86407L195.014 12.5264C195.154 12.7126 195.262 12.9453 195.262 13.1935C195.262 13.8296 194.595 14.326 194.006 14.326C193.711 14.326 193.463 14.1864 193.292 13.9692L188.902 8.41541L187.257 9.98226V13.2711C187.257 14.0157 186.838 14.3415 186.125 14.3415C185.411 14.3415 185.008 14.0002 185.008 13.2711V2.19456C185.008 1.44992 185.427 1.13965 186.156 1.13965C186.854 1.13965 187.257 1.48094 187.257 2.19456V6.87959Z" fill="#005EA4"/>
<path d="M176.698 1.13965C180.591 1.13965 182.686 4.05616 182.686 7.73282C182.686 11.4095 180.591 14.3415 176.698 14.3415C172.819 14.3415 170.709 11.4095 170.709 7.73282C170.709 4.07167 172.819 1.13965 176.698 1.13965ZM176.698 3.10984C174.045 3.10984 173.021 5.40582 173.021 7.73282C173.021 10.0598 174.06 12.3558 176.698 12.3558C179.35 12.3558 180.39 10.0598 180.39 7.73282C180.39 5.40582 179.35 3.10984 176.698 3.10984Z" fill="#005EA4"/>
<path d="M165.823 8.6633C164.706 8.16687 163.558 7.85661 162.332 7.70147L161.588 10.9748C161.386 11.9056 161.091 13.1156 160.455 13.8292C160.005 14.3257 159.323 14.4498 158.687 14.4498C156.561 14.4498 155.305 12.6502 155.305 10.6645C155.305 7.15851 157.787 6.04155 160.889 5.90193L161.339 3.73006H157.042C156.561 3.73006 156.158 3.32671 156.158 2.86131C156.158 2.3804 156.561 1.97705 157.042 1.97705H162.317C162.829 1.97705 163.356 2.34937 163.356 2.89234C163.356 2.98542 163.341 3.0785 163.325 3.17158L162.72 5.94847C163.806 6.07257 164.876 6.30527 165.9 6.69311C165.9 6.11911 165.885 5.54512 165.869 4.97113C165.854 4.64535 165.823 4.33508 165.823 4.0093C165.823 3.51287 166.226 3.0785 166.738 3.0785C167.297 3.0785 167.622 3.49736 167.653 4.02481C167.7 4.87805 167.746 5.79333 167.746 6.67759C167.746 6.98786 167.746 7.28261 167.731 7.59288C168.879 8.25996 169.174 8.69433 169.174 9.06665C169.174 9.54756 168.724 9.95091 168.258 9.95091C167.979 9.95091 167.777 9.85783 167.56 9.67167C167.359 11.0834 166.909 12.5727 165.854 13.5965C165.357 14.0775 164.271 14.8376 163.558 14.8376C163.061 14.8376 162.658 14.4188 162.658 13.9223C162.658 13.519 162.953 13.2087 163.449 12.9915C165.094 12.2779 165.621 10.9438 165.823 8.6633ZM160.502 7.68596C158.562 7.82558 157.151 8.52368 157.151 10.68C157.151 11.5178 157.601 12.6502 158.594 12.6502C158.857 12.6502 159.105 12.5882 159.261 12.371C159.509 12.0297 159.602 11.5798 159.695 11.1765L160.502 7.68596Z" fill="#005EA4"/>
<path d="M142.569 4.66119C142.15 4.66119 141.87 4.36644 141.591 4.0872C141.219 3.71488 140.753 3.34256 140.35 3.01678C139.916 2.67548 139.543 2.38073 139.543 1.96187C139.543 1.44993 140.024 0.937988 140.552 0.937988C140.986 0.937988 141.793 1.58955 142.274 1.9929C142.801 2.41176 143.608 3.0478 143.608 3.60628C143.608 4.13374 143.112 4.66119 142.569 4.66119ZM149.038 6.67793C148.603 7.98105 147.936 9.26866 147.098 10.3701C146.618 10.9751 145.516 12.3713 144.709 12.3713C144.12 12.3713 143.654 11.8128 143.654 11.2699C143.654 10.789 144.104 10.5097 144.802 9.9047C145.392 9.39276 146.137 8.38439 146.555 7.70181C147.052 6.8796 147.424 5.99534 147.734 5.09557C147.89 4.61465 148.06 3.9786 148.06 3.49769C148.06 3.21845 147.921 3.10986 147.672 3.10986H145.578C144.958 3.10986 144.616 2.8151 144.616 2.17906C144.616 1.5275 144.958 1.23274 145.578 1.23274H148.324C149.906 1.23274 149.984 1.93084 150.093 3.35807C150.263 5.70059 151.334 8.21375 152.916 9.93573C153.35 10.4166 153.816 10.82 153.816 11.2854C153.816 11.8439 153.273 12.3868 152.73 12.3868C152.513 12.3868 152.311 12.3093 152.14 12.2007C151.675 11.9059 151.008 11.0061 150.698 10.5252C149.922 9.36174 149.348 8.02759 149.038 6.67793ZM143.034 11.1147C143.22 12.8057 144.787 13.2246 146.245 13.2246H152.978C153.552 13.2246 153.909 13.5348 153.909 14.1243C153.909 14.7294 153.552 15.0706 152.962 15.0706H146.323C144.756 15.0706 143.267 14.7138 142.367 13.3332C142.103 13.7365 141.684 14.2329 141.343 14.5897C140.955 15.0086 140.691 15.2723 140.257 15.2723C139.652 15.2723 139.202 14.7138 139.202 14.1398C139.202 13.7055 139.373 13.5659 140.024 13.0229C140.35 12.7436 140.707 12.4024 141.172 11.968V8.88082C141.172 8.63261 141.079 8.43093 140.8 8.43093H140.148C139.497 8.43093 139.264 8.05861 139.264 7.43808C139.264 6.80203 139.621 6.55382 140.211 6.55382H141.296C142.724 6.55382 143.034 6.86409 143.034 8.29131V11.1147Z" fill="#005EA4"/>
<path d="M131.259 14.7449C129.956 14.7449 128.668 14.4036 127.629 13.6124C126.124 12.4799 125.55 10.789 125.55 8.95839C125.55 7.14333 125.659 5.31275 125.783 3.49769C125.814 3.0478 125.83 2.62894 125.938 2.14803C126.031 1.74468 126.466 1.48096 126.884 1.48096C127.52 1.48096 127.877 1.97738 127.877 2.5824C127.877 2.8151 127.846 3.06332 127.831 3.31153C127.769 4.00963 127.753 4.72325 127.707 5.42135C127.66 6.6469 127.598 7.85694 127.598 9.0825C127.598 11.3785 129.01 12.7902 131.306 12.7902C133.959 12.7902 135.138 11.4871 135.138 8.88082C135.138 8.6171 135.107 8.35337 135.107 8.08964C135.107 7.54667 135.541 7.08127 136.099 7.08127C137.046 7.08127 137.17 8.0431 137.17 8.77223C137.17 12.6351 135.138 14.7449 131.259 14.7449Z" fill="#005EA4"/>
<path d="M114.52 2.79934V1.72892C114.52 0.99979 114.862 0.76709 115.56 0.76709C116.211 0.76709 116.491 1.09287 116.491 1.72892V2.79934H120.09C121.47 2.79934 122.013 3.3423 122.013 4.73851V9.88894C122.013 11.2696 121.47 11.8126 120.09 11.8126H116.491V14.5274C116.491 15.2566 116.149 15.4893 115.451 15.4893C114.8 15.4893 114.52 15.1635 114.52 14.5274V11.8126H110.937C109.556 11.8126 109.013 11.2696 109.013 9.88894V4.73851C109.013 3.3423 109.556 2.79934 110.937 2.79934H114.52ZM110.952 6.46049H114.52V4.55235H111.48C111.123 4.55235 110.952 4.72299 110.952 5.0798V6.46049ZM116.491 4.55235V6.46049H120.074V5.0798C120.074 4.72299 119.888 4.55235 119.531 4.55235H116.491ZM114.52 10.0596V8.08939H110.952V9.53213C110.952 9.88894 111.123 10.0596 111.48 10.0596H114.52ZM120.074 8.08939H116.491V10.0596H119.531C119.888 10.0596 120.074 9.88894 120.074 9.53213V8.08939Z" fill="#005EA4"/>
<path d="M100.078 5.77794C101.179 5.79346 102.281 5.90205 103.335 6.25886C105.213 6.87939 106.469 8.27559 106.469 10.3234C106.469 11.673 105.88 12.9606 104.809 13.7983C104.049 14.3878 103.025 14.7757 102.063 14.7757C101.52 14.7757 101.055 14.4034 101.055 13.8449C101.055 13.6122 101.117 13.4105 101.272 13.2554C101.505 13.0227 101.769 12.9451 102.513 12.8055C103.785 12.5573 104.53 11.6265 104.53 10.4009C104.53 8.0584 101.939 7.57749 100.078 7.57749V11.8126C100.078 13.6742 99.2244 14.6981 97.3008 14.6981C95.0358 14.6981 93.2983 12.9296 93.2983 10.6802C93.2983 9.03575 94.0585 7.60852 95.4857 6.7708C96.3079 6.28988 97.2387 6.05718 98.154 5.90205V4.45931H94.3843C93.8878 4.45931 93.469 4.05596 93.469 3.55953C93.469 3.04759 93.8878 2.65976 94.3998 2.65976H98.154V2.22539C98.154 1.66691 98.5884 1.24805 99.1314 1.24805C99.7053 1.24805 100.093 1.74447 100.093 2.28744V2.65976H102.513C103.01 2.65976 103.444 3.04759 103.444 3.55953C103.444 4.05596 103.025 4.45931 102.529 4.45931H100.078V5.77794ZM105.926 2.0082L107.276 4.87817C107.353 5.0333 107.4 5.18844 107.4 5.32806C107.384 5.82448 107.028 6.25886 106.485 6.25886C106.112 6.25886 105.771 6.05718 105.6 5.71589L104.22 2.76835C104.142 2.61322 104.111 2.48911 104.111 2.34949C104.111 1.82204 104.546 1.40318 105.073 1.40318C105.492 1.40318 105.74 1.65139 105.926 2.0082ZM98.154 7.73262C96.5251 8.04289 95.2065 8.8651 95.2065 10.6957C95.2065 11.7971 95.9356 12.8365 97.1301 12.8365C97.8593 12.8365 98.154 12.3091 98.154 11.642V7.73262Z" fill="#005EA4"/>
<path d="M80.8097 8.84993H78.3431C77.8777 8.84993 77.5054 8.41556 77.5054 7.95016C77.5054 7.46925 77.9087 7.0659 78.3896 7.0659H80.8718C80.9028 6.38331 80.9493 5.70072 80.9804 5.01814H78.3431C77.8777 5.01814 77.5054 4.58376 77.5054 4.13388C77.5054 3.65296 77.9087 3.24962 78.3896 3.24962H81.1045C81.151 2.79973 81.182 2.34984 81.2441 1.91547C81.3217 1.43455 81.7405 1.09326 82.2059 1.09326C82.8265 1.09326 83.1522 1.52764 83.1522 2.10163C83.1522 2.48946 83.0902 2.86178 83.0592 3.24962H88.4733C88.9387 3.24962 89.3265 3.66848 89.3265 4.13388C89.3265 4.59928 88.9542 5.01814 88.4733 5.01814H82.9195C82.8575 5.70072 82.8265 6.38331 82.7954 7.0659H88.4733C88.9387 7.0659 89.3265 7.50027 89.3265 7.95016C89.3265 8.41556 88.9542 8.84993 88.4733 8.84993H82.7334C82.7179 9.08263 82.7179 9.29982 82.7179 9.53252C82.7179 11.844 83.7262 12.9299 86.0687 12.9299C87.6976 12.9299 89.2335 12.3249 89.2335 10.4323C89.2335 10.2772 89.2179 10.1065 89.2179 9.95138C89.2179 9.3929 89.5903 8.95853 90.1643 8.95853C90.49 8.95853 90.8158 9.12917 90.9865 9.40841C91.1106 9.61009 91.1416 9.79625 91.1416 10.3392C91.1416 13.4574 88.9697 14.745 86.0843 14.745C82.9506 14.745 80.7942 13.1626 80.7942 9.87381C80.7942 9.53252 80.8097 9.19123 80.8097 8.84993Z" fill="#005EA4"/>
<path d="M74.4028 1.55854V2.92371C74.4028 3.34257 74.0615 3.69938 73.6271 3.69938C73.2082 3.69938 72.8514 3.34257 72.8514 2.92371V1.51199C72.8514 1.09314 73.2082 0.736328 73.6271 0.736328C74.108 0.736328 74.4028 1.12416 74.4028 1.55854ZM76.6522 1.54302V2.92371C76.6522 3.34257 76.3109 3.69938 75.8765 3.69938C75.4577 3.69938 75.1164 3.34257 75.1164 2.92371V1.51199C75.1164 1.09314 75.4577 0.736328 75.8765 0.736328C76.373 0.736328 76.6522 1.10865 76.6522 1.54302ZM72.1999 2.36523V2.92371C72.1999 3.48219 72.5257 3.97862 73.0221 4.22683C70.3072 4.44402 67.2977 5.80919 67.2977 8.94289C67.2977 11.3164 69.2834 12.8523 71.5328 12.8523C72.1533 12.8523 72.7739 12.7747 73.3634 12.5575C73.5806 12.4799 73.8133 12.4024 74.046 12.4024C74.5269 12.4024 74.9457 12.8522 74.9457 13.3332C74.9457 14.6208 72.4326 14.7604 71.5173 14.7604C68.1509 14.7604 65.343 12.4334 65.343 8.9584C65.343 7.17437 66.1497 5.57649 67.5148 4.45953L62.7678 4.73877C62.2248 4.7698 61.7749 4.36645 61.7749 3.82348C61.7749 3.31154 62.1782 2.87717 62.6902 2.84614L72.1999 2.36523Z" fill="#005EA4"/>
<path d="M52.4515 6.4141H56.9659C58.2845 6.4141 59.1067 6.72437 59.1067 8.21365C59.1067 9.48574 58.843 12.3092 58.5172 13.5192C58.3 14.2794 57.8346 14.8844 57.0745 15.1016C56.6401 15.2257 55.973 15.2257 54.8716 15.2257C53.9098 15.2257 53.3047 15.2257 52.979 15.1016C52.6532 14.9775 52.5291 14.5121 52.5291 14.1863C52.5291 13.3641 53.0565 13.2245 53.7391 13.2245C54.2511 13.2245 54.7475 13.24 55.2594 13.24C56.3143 13.24 56.6091 12.8832 56.7797 11.8127C56.9038 11.0836 57.0745 9.65639 57.0745 8.92726C57.0745 8.41532 56.8418 8.2757 56.3609 8.2757H52.2498C51.9396 10.1683 51.3811 11.6886 50.1711 13.1934C49.6591 13.845 48.2629 15.2877 47.3942 15.2877C46.7736 15.2877 46.2617 14.6362 46.2617 14.0467C46.2617 13.6123 46.572 13.3796 47.0218 13.0693C48.4336 12.0765 49.4885 10.8509 49.9539 9.14445C50.3417 7.74825 50.4503 6.04178 50.4503 4.58353H47.1149C46.4168 4.58353 46.1221 4.30429 46.1221 3.60619C46.1221 2.95463 46.4944 2.72192 47.1149 2.72192H52.436V1.5274C52.436 0.829297 52.9324 0.720703 53.5064 0.720703C54.0649 0.720703 54.4372 0.93789 54.4372 1.5274V2.72192H59.7893C60.4564 2.72192 60.7822 2.98565 60.7822 3.66824C60.7822 4.33531 60.4099 4.58353 59.7893 4.58353H52.5136C52.5136 5.20406 52.4981 5.80908 52.4515 6.4141Z" fill="#005EA4"/>
<path d="M33.5872 4.81642H32.0514C31.555 4.81642 31.1206 4.41308 31.1206 3.90114C31.1206 3.3892 31.555 3.00136 32.0669 3.00136H34.0837L34.3784 1.85337C34.5025 1.45003 34.8903 1.15527 35.3092 1.15527C35.9142 1.15527 36.3951 1.76029 36.2245 2.36531L36.0538 3.00136H39.5754C40.0718 3.00136 40.5062 3.3892 40.5062 3.90114C40.5062 4.41308 40.0718 4.81642 39.5754 4.81642H35.5729L33.5097 12.4645C33.3856 12.8989 33.0287 13.2402 32.5633 13.2402C31.9118 13.2402 31.4929 12.5886 31.6481 11.9836L33.5872 4.81642ZM43.252 2.00851L45.0826 4.56821C45.2067 4.73886 45.2843 4.94053 45.2843 5.1422C45.2843 5.63863 44.8499 6.05749 44.3535 6.05749C44.0587 6.05749 43.7795 5.91787 43.6088 5.66966L41.7317 3.09444C41.6231 2.93931 41.5611 2.73764 41.5611 2.53596C41.5611 2.03954 41.9799 1.62067 42.4919 1.62067C42.8177 1.62067 43.0659 1.76029 43.252 2.00851ZM42.5695 11.0683C42.5229 13.3488 41.4835 14.776 39.11 14.776C37.1088 14.776 35.3868 13.3953 35.3868 11.3165C35.3868 9.17567 37.0932 8.02769 39.0945 8.02769C39.5909 8.02769 40.1028 8.08974 40.5993 8.16731L40.4907 7.06586C40.4596 6.83316 40.4441 6.63148 40.4907 6.4143C40.5837 6.01095 40.9716 5.73171 41.3904 5.73171C41.7628 5.73171 42.0885 5.96441 42.1971 6.3057C42.3523 6.74008 42.3988 7.48472 42.4298 7.95012L42.4919 8.77233C43.0038 9.05157 43.5003 9.34632 43.9501 9.71864C44.3225 10.0134 44.7568 10.3547 44.7568 10.8666C44.7568 11.3941 44.3069 11.8285 43.7795 11.8285C43.252 11.8285 42.9418 11.3631 42.5695 11.0683ZM40.6923 10.0134C40.1959 9.84275 39.684 9.73415 39.141 9.73415C38.1326 9.73415 37.1863 10.1996 37.1863 11.332C37.1863 12.449 37.962 13.0695 39.0789 13.0695C40.5062 13.0695 40.7389 12.0301 40.7389 11.0528C40.7389 10.9442 40.7234 10.5098 40.6923 10.0134Z" fill="#005EA4"/>
<path d="M19.4699 7.25196C20.168 6.75554 20.9281 6.44527 21.7969 6.44527C23.3327 6.44527 24.2635 7.23645 24.2635 8.81881C24.2635 9.036 24.1859 9.74961 24.1084 10.1995C24.0308 10.6804 23.9377 11.2854 23.9377 11.6267C23.9377 12.4955 24.5427 12.8523 25.3494 12.8523C27.0869 12.8523 27.5213 11.1458 27.5213 9.70307C27.5213 9.22216 27.4748 8.74124 27.3662 8.26033C27.2731 7.90352 27.2576 7.82596 27.2576 7.68634C27.2576 7.18991 27.723 6.75554 28.2194 6.75554C28.7003 6.75554 29.0261 7.08132 29.1657 7.51569C29.3829 8.18276 29.4605 8.74124 29.4605 9.53242C29.4605 12.2162 28.4056 14.7604 25.3339 14.7604C23.6275 14.7604 21.9986 13.7521 21.9986 11.8749C21.9986 11.5647 22.1072 10.6804 22.2468 9.88923C22.2933 9.65653 22.3088 9.3928 22.3088 9.17562C22.3088 8.67919 22.0761 8.39995 21.5176 8.39995C20.5713 8.39995 19.7802 9.02048 19.2527 9.76513C18.8494 10.3701 18.6011 11.0217 18.4305 11.7198L17.8875 14.0623C17.7789 14.5122 17.4066 14.838 16.9412 14.838C16.4138 14.838 15.9639 14.4036 15.9639 13.8762C15.9639 13.7831 15.9794 13.7055 16.0104 13.5969L18.6632 2.19461C18.7563 1.74473 19.1441 1.41895 19.6095 1.41895C20.1059 1.41895 20.5713 1.85332 20.5713 2.36526C20.5713 2.47385 20.5558 2.56693 20.5248 2.70655L19.4699 7.25196Z" fill="#005EA4"/>
<path d="M11.8996 4.49033H2.21926C1.69181 4.49033 1.24192 4.05595 1.24192 3.51298C1.24192 2.98553 1.67629 2.53564 2.21926 2.53564H11.9616C12.4891 2.53564 12.9545 2.9545 12.9545 3.51298C12.9545 4.13352 12.4581 4.49033 11.8996 4.49033ZM7.24559 12.8365C8.78141 12.8365 10.1621 12.6038 11.5583 11.9833C11.8841 11.8281 12.0857 11.7506 12.3029 11.7506C12.8149 11.7506 13.2182 12.216 13.2182 12.7124C13.2182 13.4415 12.4736 13.7518 11.7289 14.031C10.3017 14.5895 8.75038 14.7602 7.23007 14.7602C5.81836 14.7602 4.39113 14.574 3.13455 13.9224C1.66078 13.1778 0.72998 11.8592 0.72998 10.1837C0.72998 9.06676 1.16435 7.99634 1.95553 7.23619C2.3744 6.83284 2.80877 6.56911 3.10352 6.56911C3.63098 6.56911 4.08086 7.00349 4.08086 7.53094C4.08086 7.96531 3.80162 8.22904 3.50687 8.50828C3.02596 8.94266 2.66915 9.51665 2.66915 10.1837C2.66915 11.4868 3.75508 12.2625 4.90307 12.5728C5.67874 12.7745 6.4544 12.8365 7.24559 12.8365Z" fill="#005EA4"/>
</svg>
