<svg width="518" height="94" viewBox="0 0 518 94" fill="none" xmlns="http://www.w3.org/2000/svg">
<path d="M96.6321 14.2408H100.478C100.132 13.8178 99.9013 13.3947 99.9013 12.8178C99.9013 12.0101 100.286 11.3562 100.671 10.7024C101.401 9.39468 101.632 8.20237 101.632 6.74084V5.62545C101.632 1.93314 103.286 1.85622 106.44 1.70237C109.863 1.54853 111.632 1.39468 114.017 1.04853C114.478 0.971605 115.247 0.894683 115.478 0.894683C116.863 0.894683 117.632 1.7793 117.632 3.16391C117.632 4.74083 116.632 5.08699 115.286 5.24084C112.786 5.54853 110.286 5.62545 107.709 5.70237C106.94 5.74084 106.671 5.81776 106.671 6.58699V6.85622H116.555C118.017 6.85622 118.824 7.43314 118.824 8.9716C118.824 10.3947 117.863 10.8947 116.555 10.8947H114.017V13.0101C114.017 13.6639 113.978 14.087 113.478 14.587C115.286 15.3178 115.671 16.9716 115.671 18.7408V26.2793C115.671 29.5101 114.324 30.7793 111.094 30.7793H108.824C110.747 31.4716 112.247 31.8562 114.247 32.2024C117.055 32.6639 118.286 32.8947 118.286 34.7408C118.286 36.3178 117.247 37.3562 115.671 37.3562C113.478 37.3562 109.555 36.2024 107.44 35.4716C105.055 34.6255 103.978 34.2408 103.978 32.7793C103.978 31.9716 104.247 31.3178 104.824 30.7793H96.2859C96.8244 31.3562 97.1705 32.0485 97.1705 32.8562C97.1705 34.3947 95.1321 35.0485 92.4782 35.8562C90.5936 36.4331 87.2859 37.3947 85.3244 37.3947C83.5551 37.3947 82.7859 36.0101 82.7859 34.7408C82.7859 33.0101 83.8628 32.7024 85.9398 32.3947C87.8244 32.1255 90.5551 31.3947 92.3244 30.7793H89.9782C86.7474 30.7793 85.4013 29.5101 85.4013 26.2793V18.7408C85.4013 17.8947 85.4782 17.1639 85.7859 16.3178C85.709 16.3562 85.5936 16.3562 85.4782 16.3562C84.0936 16.3562 82.4782 15.2024 82.4782 13.7024C82.4782 13.087 82.8628 12.3178 83.4782 11.3178C84.2859 10.0101 84.7474 8.35622 84.7474 6.74084V5.70237C84.7474 2.16391 85.8244 1.7793 89.0551 1.66391C91.9782 1.54853 93.9013 1.43314 96.9013 0.933144C97.209 0.894683 97.5167 0.856219 97.7859 0.856219C99.0551 0.856219 99.8244 1.89468 99.8244 3.08699C99.8244 4.93314 98.6321 5.16391 97.0936 5.31776C95.4013 5.4716 92.4013 5.70237 90.709 5.70237C90.0551 5.70237 89.709 5.7793 89.709 6.51007V6.85622H98.2474C99.6321 6.85622 100.517 7.39468 100.517 8.89468C100.517 10.3178 99.6705 10.8947 98.2859 10.8947H96.8628V13.0101C96.8628 13.4331 96.8244 13.8562 96.6321 14.2408ZM91.709 14.2408C91.5167 13.8562 91.4782 13.4331 91.4782 13.0101V10.8947H89.2474C88.9782 12.2793 88.709 13.2024 88.0167 14.4331C88.6705 14.2793 89.3244 14.2408 89.9782 14.2408H91.709ZM108.786 14.2408C108.594 13.8562 108.555 13.4331 108.555 13.0101V10.8947H106.209C105.863 12.2024 105.632 13.087 104.863 14.2408H108.786ZM109.786 19.0101V18.3947C109.786 17.8947 109.555 17.6639 109.055 17.6639H91.9782C91.4782 17.6639 91.2474 17.8947 91.2474 18.3947V19.0101H109.786ZM109.786 21.7024H91.2474V23.087H109.786V21.7024ZM109.786 25.8178H91.2474V26.4331C91.2474 26.9331 91.4782 27.1639 91.9782 27.1639H109.055C109.517 27.1639 109.786 26.9331 109.786 26.4331V25.8178ZM146.824 33.3947C146.286 33.4716 145.747 33.4716 145.247 33.4716H138.901C134.824 33.4716 134.055 32.6639 134.055 28.587V24.5485C134.055 20.5101 134.824 19.7024 138.901 19.7024H145.247C149.324 19.7024 150.094 20.5101 150.094 24.5485V28.587C150.094 29.5101 150.094 30.3178 149.901 31.2408C150.824 31.2408 152.132 31.3178 152.555 31.3178C153.44 31.3178 153.44 30.587 153.44 30.0485V18.1639H147.594C144.363 18.1639 143.017 16.8178 143.017 13.587V6.51007C143.017 3.24084 144.363 1.93314 147.594 1.93314H154.555C157.824 1.93314 159.132 3.24084 159.132 6.51007V33.087C159.132 34.5485 158.747 36.1255 157.247 36.8947C156.44 37.3178 153.824 37.3562 152.324 37.3562H151.401C149.055 37.3562 146.747 37.2793 146.747 34.1639C146.747 33.9331 146.786 33.6639 146.824 33.3947ZM130.671 18.1639V34.6255C130.671 36.6255 129.709 37.4716 127.709 37.4716C125.824 37.4716 125.017 36.4331 125.017 34.6255V6.51007C125.017 3.24084 126.324 1.93314 129.555 1.93314H136.555C139.786 1.93314 141.094 3.24084 141.094 6.51007V13.587C141.094 16.8178 139.786 18.1639 136.555 18.1639H130.671ZM153.44 8.39468V7.43314C153.44 6.93314 153.171 6.70237 152.709 6.70237H149.247C148.786 6.70237 148.517 6.93314 148.517 7.43314V8.39468H153.44ZM135.594 8.39468V7.43314C135.594 6.93314 135.324 6.70237 134.863 6.70237H131.401C130.901 6.70237 130.671 6.93314 130.671 7.43314V8.39468H135.594ZM153.44 13.8947V12.1255H148.517V13.1639C148.517 13.6639 148.786 13.8947 149.247 13.8947H153.44ZM130.671 13.8947H134.863C135.324 13.8947 135.594 13.6639 135.594 13.1639V12.1255H130.671V13.8947ZM144.017 24.3947H140.132C139.594 24.3947 139.363 24.6639 139.363 25.2024V27.7408C139.363 28.2408 139.594 28.5101 140.132 28.5101H144.017C144.517 28.5101 144.786 28.2408 144.786 27.7408V25.2024C144.786 24.6639 144.517 24.3947 144.017 24.3947ZM191.324 33.7793H176.363C174.363 33.7793 172.901 32.5485 172.901 30.4716C172.901 25.587 179.94 20.9716 183.671 18.2793C186.055 16.5485 187.786 14.8178 187.786 11.6639C187.786 9.16391 186.594 7.01007 183.824 7.01007C182.094 7.01007 180.901 7.58699 180.132 9.20237C179.824 9.85622 179.594 10.6254 179.555 11.3947C179.517 11.8947 179.632 14.2793 176.478 14.2793C174.555 14.2793 173.171 13.2408 173.171 11.2408C173.171 8.89468 174.401 6.12545 176.094 4.47161C178.132 2.39468 180.824 1.58699 183.671 1.58699C189.94 1.58699 194.247 5.70237 194.247 12.0485C194.247 17.2793 191.401 19.8947 187.401 22.7024C183.555 25.3947 181.594 27.1255 181.594 27.8562C181.594 28.2793 182.171 28.3562 182.517 28.3562H191.324C193.132 28.3562 194.324 29.1255 194.324 31.087C194.324 33.0485 193.132 33.7408 191.324 33.7793ZM241.632 19.3562C241.632 24.587 239.401 29.3562 234.747 32.087C231.632 33.9331 228.055 34.6639 224.44 34.6639C223.017 34.6639 220.901 34.4716 219.671 34.2793C217.709 33.9716 215.901 33.5101 214.171 32.5485C213.171 31.9716 212.401 30.9716 212.401 29.7793C212.401 28.3178 213.671 26.9331 215.171 26.9331C215.824 26.9331 216.478 27.1255 217.094 27.3562C219.478 28.2408 221.978 28.7408 224.555 28.7408C230.517 28.7408 235.555 25.9716 235.555 19.3947C235.555 13.2024 230.555 11.8178 225.363 11.8178C221.324 11.8178 217.324 12.1639 213.363 12.7793C212.978 12.8562 212.555 12.8947 212.171 12.8947C210.555 12.8947 209.247 11.5101 209.247 9.89468C209.247 9.12545 209.517 8.35622 210.094 7.81776C211.094 6.81776 215.017 6.51007 216.478 6.39468C219.401 6.12545 222.324 5.89468 225.247 5.89468C234.247 5.89468 241.632 9.20237 241.632 19.3562ZM254.901 3.08699C256.44 3.08699 257.863 4.24084 257.863 5.81776C257.863 6.43314 257.786 7.04853 257.671 7.62545C257.017 11.4331 256.786 15.2793 256.786 19.1255C256.786 22.8178 257.017 27.1255 258.786 30.4716C259.324 31.3947 259.709 32.0485 259.709 32.8562C259.709 34.4331 258.324 35.7024 256.786 35.7024C255.401 35.7024 254.324 34.6255 253.709 33.5101C251.286 29.087 250.94 23.7408 250.94 18.8178C250.94 14.7408 251.171 10.6639 251.901 6.62545C252.209 4.93314 252.824 3.08699 254.901 3.08699ZM265.209 5.24084H279.863C281.44 5.24084 282.786 6.54853 282.786 8.12545C282.786 9.70237 281.44 11.0101 279.863 11.0101H265.209C263.632 11.0101 262.286 9.74084 262.286 8.12545C262.286 7.31776 262.632 6.58699 263.209 6.01007C263.709 5.4716 264.517 5.24084 265.209 5.24084ZM273.478 34.7024C270.132 34.7024 266.901 33.587 264.478 31.2408C262.555 29.3562 261.786 26.5101 261.786 23.8562C261.786 21.3562 262.709 18.7408 264.363 16.8947C265.055 16.1255 265.94 15.5101 267.017 15.5101C268.555 15.5101 269.863 16.8178 269.863 18.3562C269.863 19.1639 269.478 19.7408 268.901 20.587C268.171 21.6639 267.747 22.8562 267.747 24.1639C267.747 27.6255 270.44 28.8947 273.517 28.8947C275.44 28.8947 277.247 28.5101 279.017 27.7793C279.401 27.6255 279.824 27.5485 280.209 27.5485C281.786 27.5485 283.017 28.8947 283.017 30.4331C283.017 31.587 282.286 32.5101 281.286 33.0101C278.901 34.2024 276.171 34.7024 273.478 34.7024ZM325.132 7.66391V30.9331C325.132 34.6639 323.594 36.2024 319.863 36.2024H296.632C292.901 36.2024 291.363 34.6639 291.363 30.9331V7.66391C291.363 3.89468 292.901 2.39468 296.632 2.39468H319.863C323.594 2.39468 325.132 3.89468 325.132 7.66391ZM317.94 7.70237H298.555C297.747 7.70237 297.286 8.16391 297.286 8.9716V29.6255C297.286 30.4331 297.747 30.8947 298.555 30.8947H317.94C318.747 30.8947 319.209 30.4331 319.209 29.6255V8.9716C319.209 8.12545 318.747 7.70237 317.94 7.70237ZM316.44 15.0101V23.5485C316.44 26.8562 315.094 28.2024 311.786 28.2024H304.671C301.363 28.2024 300.017 26.8562 300.017 23.5485V15.0101C300.017 11.6639 301.363 10.3178 304.671 10.3178H311.786C315.094 10.3178 316.44 11.6639 316.44 15.0101ZM310.363 14.8947H306.132C305.44 14.8947 305.055 15.2793 305.055 15.9331V22.587C305.055 23.2793 305.44 23.6255 306.132 23.6255H310.363C311.017 23.6255 311.401 23.2793 311.401 22.587V15.9331C311.401 15.2408 311.055 14.8947 310.363 14.8947ZM361.747 8.4716C362.324 9.51007 362.709 10.2024 362.709 10.8178C362.709 12.4331 360.555 12.6639 359.363 12.6639C357.555 12.6639 357.094 11.9331 356.555 10.3947C356.363 9.81776 356.055 9.01007 355.824 8.4716H354.632C353.978 9.31776 353.363 10.0101 352.594 10.7408C353.594 11.2408 354.555 11.8562 355.555 12.3947C359.209 14.3947 361.978 15.1255 365.94 16.0485C367.209 16.3562 367.94 17.0485 367.94 18.3562C367.94 20.0101 367.17 21.6255 365.286 21.6255C364.055 21.6255 361.017 20.5101 359.709 20.0101C359.709 21.5485 358.824 22.1255 357.363 22.1255H342.055C340.632 22.1255 339.786 21.6255 339.709 20.087C338.401 20.6255 335.517 21.7024 334.17 21.7024C332.478 21.7024 331.632 20.2024 331.632 18.6639C331.632 16.8947 332.709 16.5485 334.209 16.2024C338.209 15.2408 342.132 13.7793 345.594 11.5101C346.555 10.8947 347.17 10.4716 348.324 10.2408C347.901 9.66391 347.747 9.16391 347.747 8.4716H345.132C345.286 8.85622 345.67 10.0101 345.67 10.3947C345.67 11.9331 343.67 12.2793 342.517 12.2793C340.709 12.2793 340.363 11.4716 339.94 10.0485C339.786 9.58699 339.632 9.04853 339.44 8.4716H338.786C337.824 9.70237 335.786 12.2024 334.17 12.2024C332.709 12.2024 331.209 10.6254 331.209 9.08699C331.209 8.12545 331.594 7.74083 332.247 7.16391C333.555 5.93314 334.978 4.31776 335.978 2.81776C337.017 1.24084 337.555 0.625451 338.824 0.625451C340.17 0.625451 342.094 1.35622 342.094 2.9716C342.094 3.16391 342.055 3.2793 342.055 3.43314H347.247C348.863 3.43314 349.517 4.04853 349.632 5.66391C350.286 4.85622 350.824 4.01007 351.363 3.08699C352.286 1.58699 352.594 0.625451 354.132 0.625451C355.555 0.625451 357.555 1.47161 357.555 3.12545C357.555 3.24084 357.555 3.31776 357.517 3.43314H365.709C367.555 3.43314 368.132 4.35622 368.132 6.08699C368.132 7.74083 367.324 8.4716 365.709 8.4716H361.747ZM344.632 17.8562H354.67C353.094 16.9716 351.555 16.0101 350.171 14.7408C350.017 14.587 349.94 14.5485 349.747 14.5485C349.555 14.5485 349.363 14.7024 349.17 14.8562C347.786 15.9716 346.209 17.0101 344.632 17.8562ZM364.017 28.2793V31.9716C364.017 35.3178 362.67 36.6255 359.363 36.6255H340.209C336.901 36.6255 335.555 35.3178 335.555 31.9716V28.2793C335.555 24.9331 336.901 23.587 340.209 23.587H359.363C362.67 23.587 364.017 24.9331 364.017 28.2793ZM357.401 28.087H342.17C341.44 28.087 341.094 28.4331 341.094 29.1639V31.0101C341.094 31.7408 341.44 32.087 342.17 32.087H357.401C358.094 32.087 358.478 31.7024 358.478 31.0101V29.1639C358.478 28.4331 358.094 28.087 357.401 28.087ZM406.824 21.2793C406.824 24.2408 406.094 27.7793 404.324 30.2408C403.671 31.1639 402.863 32.0485 401.978 32.7793C399.132 35.087 395.363 35.7793 392.017 35.7793C387.978 35.7793 383.824 34.587 380.94 31.3562C378.555 28.6639 377.632 25.1255 377.632 21.587C377.632 16.4331 377.901 11.2408 378.363 6.08699C378.517 4.20237 379.171 2.58699 381.324 2.58699C383.209 2.58699 384.401 3.93314 384.401 5.74084C384.401 6.39468 384.363 7.04853 384.324 7.70237C384.017 10.9331 383.901 14.1639 383.786 17.3947C383.786 18.7793 383.709 20.1255 383.709 21.4716C383.709 26.7408 386.901 29.9716 392.171 29.9716C394.901 29.9716 398.055 29.0485 399.44 26.4331C400.209 24.9331 400.632 23.1255 400.632 21.4331C400.632 20.8947 400.555 20.3947 400.555 19.8562C400.555 18.0101 401.594 16.3178 403.632 16.3178C406.401 16.3178 406.824 19.087 406.824 21.2793ZM425.406 10.8562L414.868 11.5485C413.214 11.6639 411.753 10.3947 411.753 8.70237C411.753 7.08699 413.022 5.81776 414.599 5.74084L442.637 4.2793C443.099 4.24084 443.445 4.24084 443.483 4.24084C445.06 4.24084 446.483 5.51007 446.483 7.16391C446.483 8.4716 445.599 9.89468 443.637 10.0101C442.522 10.087 438.329 10.4716 437.945 10.5485C435.906 10.8947 433.829 11.4331 431.637 12.7024C428.56 14.5101 426.522 17.7024 426.522 21.2793C426.522 26.4331 430.791 30.0101 435.791 30.0101C437.214 30.0101 438.599 29.7793 439.945 29.3562C440.637 29.1255 441.406 28.8947 442.137 28.8947C443.599 28.8947 444.714 30.3947 444.714 31.7793C444.714 35.2793 438.714 35.7793 436.176 35.7793C433.214 35.7793 430.329 35.2408 427.753 33.7793C423.291 31.2408 420.599 26.5485 420.599 21.4331C420.599 17.3562 422.329 13.5101 425.406 10.8562ZM13.4453 61.9716V59.6639C13.4453 57.5101 14.5223 56.8178 16.5992 56.8178C18.5223 56.8178 19.4069 57.7793 19.4069 59.6639V61.9716H27.6761C31.2915 61.9716 32.7915 63.4716 32.7915 67.1255V79.8947C32.7915 83.5485 31.2915 85.0101 27.6761 85.0101H19.4069V90.7793C19.4069 92.9716 18.33 93.6255 16.253 93.6255C14.33 93.6255 13.4453 92.6639 13.4453 90.7793V85.0101H5.25303C1.59918 85.0101 0.0991844 83.5485 0.0991844 79.8947V67.1255C0.0991844 63.4716 1.59918 61.9716 5.25303 61.9716H13.4453ZM5.90688 70.9716H13.4453V67.2024H6.9838C6.29149 67.2024 5.90688 67.587 5.90688 68.2793V70.9716ZM19.4069 67.2024V70.9716H26.9453V68.2793C26.9453 67.587 26.5607 67.2024 25.8684 67.2024H19.4069ZM13.4453 79.7408V75.8178H5.90688V78.6639C5.90688 79.3947 6.29149 79.7408 6.9838 79.7408H13.4453ZM26.9453 75.8178H19.4069V79.7408H25.8684C26.5607 79.7408 26.9453 79.3947 26.9453 78.6639V75.8178ZM73.4838 77.2793C73.4838 80.2408 72.753 83.7793 70.9838 86.2408C70.33 87.1639 69.5223 88.0485 68.6376 88.7793C65.7915 91.087 62.0223 91.7793 58.6761 91.7793C54.6376 91.7793 50.4838 90.587 47.5992 87.3562C45.2146 84.6639 44.2915 81.1255 44.2915 77.587C44.2915 72.4331 44.5607 67.2408 45.0223 62.087C45.1761 60.2024 45.83 58.587 47.9838 58.587C49.8684 58.587 51.0607 59.9331 51.0607 61.7408C51.0607 62.3947 51.0223 63.0485 50.9838 63.7024C50.6761 66.9331 50.5607 70.1639 50.4453 73.3947C50.4453 74.7793 50.3684 76.1255 50.3684 77.4716C50.3684 82.7408 53.5607 85.9716 58.83 85.9716C61.5607 85.9716 64.7146 85.0485 66.0992 82.4331C66.8684 80.9331 67.2915 79.1255 67.2915 77.4331C67.2915 76.8947 67.2146 76.3947 67.2146 75.8562C67.2146 74.0101 68.253 72.3178 70.2915 72.3178C73.0607 72.3178 73.4838 75.087 73.4838 77.2793ZM89.5992 67.4716C88.4453 67.4716 87.6761 66.6639 86.9069 65.8562C86.0223 64.9331 85.0607 64.1254 84.0992 63.3178C82.9069 62.3562 81.9069 61.5485 81.9069 60.3178C81.9069 58.7408 83.3684 57.2408 84.9453 57.2408C86.4453 57.2408 89.1376 59.6639 90.253 60.6639C91.4453 61.7024 92.753 63.0101 92.753 64.2408C92.753 65.8562 91.253 67.4716 89.5992 67.4716ZM105.907 73.087C104.868 75.8947 103.407 78.5485 101.561 80.8947C100.253 82.5101 97.753 85.5485 95.5607 85.5485C93.753 85.5485 92.4069 83.8562 92.4069 82.3178C92.4069 80.8562 93.5992 80.1639 95.2915 78.7024C96.6376 77.5485 98.3684 75.3178 99.33 73.7793C100.484 72.0101 101.407 70.0485 102.099 68.0485C102.407 67.1255 102.945 65.2408 102.945 64.3178C102.945 63.7793 102.599 63.6255 102.099 63.6255H97.4069C95.4453 63.6255 94.5223 62.6639 94.5223 60.7024C94.5223 58.7793 95.5992 57.9331 97.4069 57.9331H104.291C108.638 57.9331 108.791 59.9331 109.061 63.3562C109.253 65.6255 109.907 68.4331 110.676 70.587C111.83 73.7793 113.33 76.2024 115.638 78.7408C116.945 80.1639 117.753 81.0485 117.753 82.2024C117.753 83.9331 116.176 85.5485 114.484 85.5485C112.368 85.5485 110.638 83.0485 109.561 81.4331C107.868 78.8947 106.638 76.0485 105.907 73.087ZM91.3684 82.587C91.5607 84.3947 92.6376 85.5101 94.0607 86.1639C95.33 86.7793 96.9069 86.9716 98.3299 86.9716H115.138C116.907 86.9716 117.945 87.9716 117.945 89.7024C117.945 91.4716 116.907 92.5485 115.138 92.5485H98.5992C96.7146 92.5485 94.8684 92.3178 93.253 91.6639C91.7915 91.087 90.4838 90.1255 89.4069 88.6639C88.83 89.6255 87.9453 90.6639 87.1761 91.4716C86.4069 92.3178 85.6376 93.087 84.4069 93.087C82.5607 93.087 81.1761 91.3562 81.1761 89.587C81.1761 88.3562 81.7146 87.8178 83.1376 86.6639C83.7915 86.1639 84.6761 85.5101 85.753 84.587V77.4716C85.753 77.0101 85.6761 76.4716 85.0607 76.4716H84.0223C82.0223 76.4716 81.3684 75.3178 81.3684 73.5101C81.3684 71.587 82.4069 70.8562 84.2146 70.8562H86.5992C90.5992 70.8562 91.3684 71.587 91.3684 75.587V82.587ZM149.522 77.0485C147.138 75.9716 144.638 75.3178 142.061 75.0101L140.445 82.087C139.907 84.5101 139.022 88.2408 137.022 89.8562C135.868 90.8178 134.176 91.0101 132.753 91.0101C129.753 91.0101 127.099 89.3947 125.599 86.8562C124.638 85.2024 124.253 83.2793 124.253 81.3947C124.253 77.7024 125.638 73.7793 128.945 71.7793C131.599 70.2024 134.561 69.6254 137.599 69.4716L138.561 65.0101H129.061C127.599 65.0101 126.368 63.7408 126.368 62.3178C126.368 60.8562 127.638 59.587 129.099 59.587H141.676C142.753 59.587 143.715 60.2408 144.291 61.1254C144.753 61.8562 144.715 62.5101 144.561 63.2793L143.215 69.6254C145.445 69.8947 147.676 70.3562 149.791 71.1255C149.791 69.1639 149.638 67.2408 149.638 65.3178C149.638 63.7793 150.791 62.4716 152.407 62.4716C153.291 62.4716 154.253 62.9331 154.715 63.7408C155.33 64.7793 155.33 66.8178 155.33 69.5101C155.33 70.8947 155.33 72.3178 155.33 73.7024C158.138 75.4331 158.715 76.3947 158.715 77.4716C158.715 78.9716 157.407 80.2024 155.907 80.2024C155.484 80.2024 155.138 80.087 154.753 79.8947C154.176 83.2024 153.022 86.6639 150.484 89.0101C149.138 90.2408 146.638 91.9331 144.715 91.9331C143.291 91.9331 142.138 90.5485 142.138 89.2024C142.138 87.6639 143.099 87.0101 144.33 86.4716C146.907 85.2793 148.099 83.2408 148.868 80.6255C149.215 79.4331 149.407 78.2408 149.522 77.0485ZM136.599 74.8562C132.445 75.2408 129.715 77.0101 129.715 81.4716C129.715 83.2024 130.484 85.6255 132.599 85.6255C132.984 85.6255 133.368 85.5485 133.676 85.2408C134.522 84.3562 134.753 82.8947 134.945 82.0485L136.599 74.8562ZM189.939 61.8562V58.8178C189.939 57.6255 190.939 56.6255 192.132 56.6255C193.362 56.6255 194.324 57.6255 194.324 58.8178V62.0101C194.324 63.2024 193.362 64.2024 192.132 64.2024C190.747 64.2024 189.939 63.1255 189.939 61.8562ZM195.978 61.8562V58.8178C195.978 57.6255 196.978 56.6255 198.17 56.6255C199.362 56.6255 200.362 57.6255 200.362 58.8178V62.0101C200.362 63.2024 199.362 64.2024 198.17 64.2024C196.785 64.2024 195.978 63.087 195.978 61.8562ZM188.324 60.7024V62.0101C188.324 64.087 190.055 65.8562 192.132 65.8562C193.324 65.8562 194.439 65.3178 195.17 64.3947C195.593 64.9331 196.132 65.3178 196.785 65.587C196.055 66.0485 195.324 66.1255 194.478 66.1639C190.516 66.2793 186.439 66.7793 182.978 68.8562C180.055 70.6255 177.978 73.8178 177.978 77.2793C177.978 82.3178 182.247 86.0101 187.17 86.0101C188.593 86.0101 190.055 85.7793 191.401 85.3562C192.093 85.1255 192.862 84.8947 193.593 84.8947C195.093 84.8947 196.209 86.3947 196.209 87.7793C196.209 91.3562 189.862 91.7793 187.285 91.7793C178.978 91.7793 172.055 86.0101 172.055 77.4331C172.055 73.3562 173.824 69.587 176.862 66.9331L166.324 67.6639C164.67 67.7793 163.209 66.4716 163.209 64.7793C163.209 63.2024 164.516 61.9331 166.093 61.8562L188.324 60.7024ZM220.824 67.2024L209.285 67.9331H208.901C207.439 67.9331 206.247 66.6639 206.247 65.2408C206.247 63.7408 207.439 62.6255 208.901 62.5101L219.055 61.8947L218.978 61.7024C218.17 59.7024 219.67 57.7024 221.824 57.7024C223.132 57.7024 224.362 58.587 224.747 59.8178L225.285 61.5101L236.247 60.8178C237.785 60.7408 239.209 61.9331 239.209 63.5101C239.209 64.9331 238.016 66.1255 236.632 66.2024L226.939 66.8178L228.055 70.2793L236.67 69.7793C238.209 69.6639 239.593 70.8947 239.593 72.4716C239.593 73.9331 238.439 75.0485 237.016 75.1639L229.785 75.587L230.362 77.3947C230.439 77.6639 230.478 77.9716 230.478 78.2793C230.478 79.8947 229.132 81.1255 227.516 81.1255C226.093 81.1255 224.978 80.087 224.555 78.7793L223.632 75.9716L209.632 76.8562C208.093 76.9716 206.632 75.8178 206.632 74.2024C206.632 72.6639 207.901 71.5485 209.362 71.4716L221.939 70.6639L220.824 67.2024ZM223.209 91.8178C219.093 91.8178 213.939 90.8947 210.862 87.9716C209.247 86.4716 208.247 84.3947 208.247 82.2024C208.247 80.4331 209.439 78.7793 211.324 78.7793C212.093 78.7793 212.901 79.0485 213.401 79.7024C213.632 80.0101 213.747 80.587 213.824 81.0485C214.555 85.3947 219.785 86.2408 223.439 86.2408C226.747 86.2408 230.093 85.6639 233.055 84.1255C233.939 83.6639 234.593 83.3562 235.285 83.3562C236.824 83.3562 238.093 84.7408 238.093 86.2408C238.093 87.087 237.709 87.8562 237.093 88.4331C236.055 89.3947 234.055 90.087 232.67 90.5101C229.632 91.3947 226.401 91.8178 223.209 91.8178ZM271.324 85.087C273.17 83.8947 274.709 82.2793 274.709 79.9716C274.709 74.8562 267.939 74.2024 264.132 74.2024C260.055 74.2024 257.324 75.0101 253.824 77.0101L251.439 78.3947C249.67 79.3947 247.439 78.0485 247.439 76.0101C247.439 74.7793 248.285 73.9331 249.362 73.4331L266.285 65.1639L253.401 65.2793C251.939 65.2793 250.632 64.0485 250.632 62.587C250.632 61.087 251.901 59.8562 253.362 59.8562H275.324C276.824 59.8562 278.016 61.0485 278.016 62.5485C278.016 63.9331 277.209 64.6639 276.055 65.2024L266.747 69.7024C267.209 69.6639 267.632 69.6254 268.093 69.6254C274.362 69.6254 280.478 72.7793 280.478 79.7408C280.478 83.8562 278.17 87.5101 274.632 89.5485C271.632 91.3178 267.978 91.9331 264.555 91.9331C261.785 91.9331 258.901 91.5101 256.478 90.1255C254.17 88.7793 252.439 86.5485 252.439 83.8178C252.439 81.7793 253.516 79.9331 255.17 78.7408C257.016 77.3947 259.785 77.0485 262.016 77.0485C266.324 77.0485 271.401 78.8562 271.401 83.9716C271.401 84.3562 271.362 84.7024 271.324 85.087ZM265.862 86.8947C265.901 86.5485 266.016 86.2024 266.132 85.8562C266.285 85.4331 266.324 85.0485 266.324 84.6255C266.324 82.3178 263.362 81.8562 261.593 81.8562C260.17 81.8562 257.824 82.1255 257.824 84.0485C257.824 86.6255 262.132 86.9716 263.978 86.9716C264.593 86.9716 265.209 86.9716 265.862 86.8947ZM297.016 64.3178L298.132 60.3178C298.478 59.1255 299.632 58.2408 300.901 58.2408C301.939 58.2408 302.901 58.7793 303.401 59.6639C303.862 60.4716 303.901 61.3178 303.632 62.2024L303.093 64.0485H303.709C306.824 64.0485 309.978 64.5101 312.632 66.3562C316.247 68.8562 317.709 73.1639 317.709 77.4331C317.709 84.9331 313.401 91.7793 305.247 91.7793C303.016 91.7793 299.209 90.9716 299.209 88.087C299.209 86.4716 300.555 85.2408 302.132 85.2408C302.593 85.2408 303.016 85.3947 303.439 85.5485C304.17 85.8178 304.901 85.9716 305.67 85.9716C310.209 85.9716 311.901 81.1639 311.901 77.3562C311.901 71.9716 308.939 69.7408 303.785 69.7408C302.978 69.7408 302.209 69.7793 301.439 69.7793L295.709 89.7408C295.362 90.9716 294.247 91.8947 292.939 91.8947C290.939 91.8947 289.67 89.9331 290.209 88.087L295.362 70.087L291.593 70.2408C290.824 70.2793 290.055 70.1639 289.478 69.8947C288.593 69.4716 288.055 68.4331 288.055 67.4331C288.055 65.587 289.516 64.6255 291.209 64.5485L297.016 64.3178ZM319.209 70.5101L315.67 62.7793C314.824 60.8947 316.132 58.7024 318.247 58.7024C319.324 58.7024 320.362 59.3562 320.785 60.3562L324.362 68.2024C324.516 68.5485 324.593 68.9331 324.593 69.2793C324.593 70.7793 323.324 72.1639 321.747 72.1639C320.593 72.1639 319.593 71.3562 319.209 70.5101ZM349.401 66.4331H336.632C335.093 66.4331 333.785 65.2024 333.785 63.6639C333.785 62.087 335.093 60.8562 336.632 60.8562H360.632C362.17 60.8562 363.478 62.087 363.478 63.6255C363.478 65.2024 362.17 66.4331 360.632 66.4331H355.324L355.209 71.7793H361.401C362.939 71.7793 364.247 72.9716 364.247 74.5485C364.247 76.1255 362.939 77.3562 361.401 77.3562H354.862C353.785 86.4716 350.709 91.7793 340.747 91.7793C338.209 91.7793 332.17 91.1639 332.17 87.7024C332.17 86.1639 333.478 84.8178 335.016 84.8178C335.747 84.8178 336.401 85.0485 337.055 85.2793C338.439 85.7408 339.901 85.9331 341.362 85.9331C343.632 85.9331 346.093 85.2793 347.285 83.1639C348.285 81.3947 348.747 79.3562 348.939 77.3562H333.785C332.247 77.3562 330.939 76.1255 330.939 74.5485C330.939 73.0101 332.247 71.7793 333.785 71.7793H349.285C349.324 70.0101 349.362 68.2024 349.401 66.4331ZM386.093 71.4331H378.478C377.016 71.4331 375.747 70.2024 375.747 68.7024C375.747 67.2408 377.016 66.0101 378.478 66.0101H399.478C400.978 66.0101 402.209 67.2408 402.209 68.7024C402.209 70.2024 400.978 71.4331 399.478 71.4331H391.709V85.7024H400.478C401.978 85.7024 403.209 86.9331 403.209 88.3947C403.209 89.8562 401.978 91.087 400.478 91.087H377.439C375.978 91.087 374.747 89.8562 374.747 88.3947C374.747 86.9331 375.978 85.7024 377.478 85.7024H386.093V71.4331ZM432.401 66.8947L434.439 76.5101C434.516 76.8562 434.555 77.1255 434.555 77.4331C434.555 78.5485 433.747 80.0485 431.824 80.0485C430.093 80.0485 429.362 79.0101 429.093 77.7024L427.093 68.087C426.709 66.3562 427.939 64.7408 429.747 64.7408C431.209 64.7408 432.209 66.0101 432.401 66.8947ZM422.362 67.3562L424.401 77.0485C424.747 78.7793 423.67 80.5485 421.785 80.5485C420.324 80.5485 419.401 79.7793 419.055 78.2408L417.016 68.7024C416.978 68.5101 416.939 68.087 416.939 67.8947C416.939 66.3947 418.17 65.2408 419.67 65.2408C421.132 65.2408 422.132 66.2408 422.362 67.3562ZM443.939 68.8178C443.939 72.8178 443.785 77.7024 442.555 81.5485C441.478 84.8947 439.632 88.087 436.439 89.8562C433.747 91.3562 430.632 91.8947 427.593 91.8947C425.324 91.8947 422.016 91.4331 420.016 90.3178C419.17 89.8562 418.632 89.0101 418.632 88.0101C418.632 86.6255 419.709 85.3178 421.17 85.3178C421.709 85.3178 422.247 85.4716 422.747 85.6639C424.439 86.2408 425.939 86.5485 427.709 86.5485C431.939 86.5485 435.093 85.1255 436.824 81.1639C438.093 78.3178 438.401 73.5101 438.401 70.4331V69.2408C438.401 67.3178 438.747 65.2408 441.17 65.2408C443.285 65.2408 443.939 67.0101 443.939 68.8178ZM466.978 66.7024C466.093 69.4716 464.747 72.0101 462.824 74.2024C461.824 75.3562 460.17 76.8947 458.555 76.8947C456.978 76.8947 455.632 75.4331 455.632 73.8947C455.632 72.7793 456.247 72.0485 457.016 71.3562C459.285 69.3562 460.593 67.0101 461.516 64.1639C462.285 61.7024 463.901 60.8178 466.401 60.8178H483.785C484.862 60.8178 485.939 61.2793 486.67 62.087C487.478 62.9716 487.67 64.2024 487.67 65.3562C487.67 77.8178 483.67 91.7793 468.709 91.7793C465.439 91.7793 462.209 91.1639 459.324 89.5485C458.093 88.8947 456.862 87.8562 456.862 86.3178C456.862 84.7793 458.17 83.3562 459.747 83.3562C460.516 83.3562 461.17 83.7024 461.862 84.0485C464.016 85.087 466.247 85.9331 468.67 85.9331C479.247 85.9331 481.285 75.0485 481.555 66.7024H466.978ZM516.901 68.087L515.555 78.3947C515.401 79.7408 515.093 80.7024 513.516 80.7024C511.978 80.7024 511.709 79.6639 511.555 78.3947L510.209 68.087V60.7024C510.209 58.3947 511.439 57.587 513.632 57.587C515.747 57.587 516.901 58.5101 516.901 60.7024V68.087ZM513.555 83.2024C515.593 83.2024 517.247 84.8562 517.247 86.8947C517.247 88.9716 515.593 90.6255 513.555 90.6255C511.516 90.6255 509.862 88.9716 509.862 86.8947C509.862 84.8562 511.516 83.2024 513.555 83.2024Z" fill="#005EA4"/>
</svg>
