<svg width="56" height="54" viewBox="0 0 56 54" fill="none" xmlns="http://www.w3.org/2000/svg">
<path fill-rule="evenodd" clip-rule="evenodd" d="M48.4958 45.3956C53.1517 40.5742 56 34.1078 56 27C56 12.0883 43.464 0 28 0C12.536 0 0 12.0883 0 27C0 41.9117 12.536 54 28 54C34.7229 54 40.8925 51.7152 45.7191 47.907L50.7767 49.5953L48.4958 45.3956Z" fill="#005EA4"/>
<path d="M19.048 19.972L19.06 21.34C19.852 21.628 20.608 21.976 21.292 22.468C21.544 22.66 21.808 22.852 21.808 23.2C21.808 23.584 21.508 23.908 21.112 23.908C20.896 23.908 20.728 23.8 20.56 23.668C20.104 23.296 19.6 23.008 19.06 22.768C19.036 24.94 17.668 25.576 15.688 25.576C14.764 25.576 13.768 25.384 13.072 24.724C12.628 24.292 12.388 23.692 12.388 23.068C12.388 21.268 14.236 20.824 15.7 20.824C16.36 20.824 17.02 20.884 17.68 20.992V19.972H12.604C12.244 19.972 11.956 19.648 11.956 19.3C11.956 18.952 12.244 18.628 12.592 18.628H17.668V17.596H12.604C12.244 17.596 11.956 17.272 11.956 16.924C11.956 16.576 12.244 16.252 12.592 16.252H17.668L17.656 15.688C17.644 15.232 17.932 15.016 18.352 15.016C18.7 15.016 19.024 15.316 19.024 15.676L19.036 16.252H21.352C21.7 16.252 21.988 16.576 21.988 16.924C21.988 17.272 21.7 17.596 21.34 17.596H19.036L19.048 18.628H21.352C21.7 18.628 21.988 18.952 21.988 19.3C21.988 19.648 21.7 19.972 21.34 19.972H19.048ZM17.692 22.444V22.3C17.008 22.144 16.312 22.072 15.604 22.072C14.968 22.072 13.768 22.216 13.768 23.08C13.768 24.076 14.884 24.232 15.652 24.232C16.324 24.232 17.176 24.184 17.524 23.5C17.68 23.188 17.692 22.804 17.692 22.444ZM32.212 15.1V16.132C32.212 16.468 31.936 16.732 31.612 16.732C31.288 16.732 31.012 16.468 31.012 16.144V15.064C31.012 14.752 31.288 14.476 31.612 14.476C31.984 14.476 32.212 14.764 32.212 15.1ZM34 15.1V16.132C34 16.468 33.724 16.732 33.4 16.732C33.076 16.732 32.8 16.468 32.8 16.144V15.064C32.8 14.74 33.076 14.476 33.4 14.476C33.772 14.476 34 14.764 34 15.1ZM29.62 17.68H23.368C22.972 17.68 22.648 17.368 22.648 16.984C22.648 16.588 22.984 16.288 23.368 16.288H29.476L29.464 15.856C29.452 15.4 29.728 14.98 30.208 14.98C30.316 14.98 30.412 15.004 30.496 15.04V16.132C30.496 16.744 31 17.248 31.612 17.248C31.96 17.248 32.296 17.08 32.512 16.792C32.644 16.984 32.824 17.116 33.04 17.188C32.968 17.512 32.692 17.752 32.356 17.752H31.024L31.072 19.144C31.156 21.436 31.156 22.36 30.652 23.464C29.872 25.18 27.952 25.612 26.224 25.612C25.696 25.612 25.156 25.6 24.652 25.48C24.304 25.396 24.04 25.144 24.04 24.772C24.04 24.4 24.34 24.076 24.724 24.076C24.904 24.076 25.084 24.112 25.264 24.148C25.624 24.208 25.984 24.232 26.344 24.232C27.568 24.232 28.84 23.98 29.404 22.768C28.804 22.96 28.192 23.032 27.568 23.032C25.996 23.032 23.824 22.636 23.824 20.644C23.824 18.652 26.068 18.34 27.616 18.34C28.3 18.34 29.02 18.4 29.668 18.64L29.62 17.68ZM29.74 20.608C29.632 19.744 28.18 19.72 27.52 19.72C26.872 19.72 25.228 19.708 25.228 20.656C25.228 21.628 26.824 21.652 27.508 21.652C28.204 21.652 29.668 21.664 29.74 20.704V20.608ZM42.796 18.256L42.832 20.752C43.168 20.956 43.48 21.16 43.768 21.4C44.152 21.7 44.464 21.964 44.464 22.372C44.464 22.756 44.176 23.068 43.78 23.068C43.516 23.068 43.252 22.96 42.844 22.48C42.832 24.412 42.124 25.576 40.06 25.576C38.44 25.576 37.108 24.328 37.108 22.684C37.108 21.904 37.456 21.148 38.068 20.656C38.62 20.2 39.316 20.02 40.024 20.02C40.492 20.02 40.948 20.068 41.404 20.188L41.368 18.256H37.804C37.42 18.256 37.096 17.956 37.096 17.572C37.096 17.188 37.42 16.888 37.804 16.888H41.344L41.332 16.108C41.32 15.7 41.608 15.328 42.04 15.328C42.472 15.328 42.748 15.7 42.76 16.108L42.772 16.888H43.804C44.188 16.888 44.512 17.188 44.512 17.572C44.512 17.956 44.188 18.256 43.816 18.256H42.796ZM35.548 20.812C35.548 21.448 35.572 22.072 35.656 22.696C35.74 23.26 35.884 23.692 36.172 24.184C36.28 24.364 36.376 24.58 36.376 24.796C36.376 25.204 36.004 25.492 35.62 25.492C35.404 25.492 35.212 25.408 35.068 25.252C34.78 24.928 34.588 24.52 34.456 24.124C34.096 23.056 34.012 21.928 34.012 20.8C34.012 19.588 34.084 18.376 34.204 17.164C34.24 16.792 34.312 16.132 34.432 15.808C34.552 15.472 34.828 15.34 35.116 15.34C35.512 15.34 35.872 15.664 35.872 16.06C35.872 16.192 35.848 16.324 35.836 16.444C35.68 17.644 35.548 19.36 35.548 20.812ZM41.416 21.652C40.984 21.496 40.516 21.412 40.048 21.412C39.268 21.412 38.56 21.88 38.56 22.732C38.56 23.584 39.184 24.172 40.036 24.172C41.152 24.172 41.428 23.428 41.428 22.444L41.416 21.652ZM12.292 30.512H7.96C7.564 30.512 7.24 30.188 7.24 29.804C7.24 29.408 7.576 29.084 7.96 29.084H15.688C16.084 29.084 16.408 29.408 16.408 29.804C16.408 30.2 16.072 30.512 15.688 30.512H13.816C13.804 31.172 13.804 31.832 13.78 32.48H15.904C16.3 32.48 16.636 32.804 16.636 33.2C16.636 33.596 16.3 33.92 15.916 33.92H13.708C13.432 36.728 12.616 38.588 9.448 38.588C8.8 38.588 8.164 38.48 7.54 38.264C7.132 38.132 6.724 37.88 6.724 37.4C6.724 36.992 7.108 36.656 7.504 36.656C7.648 36.656 7.78 36.704 7.912 36.752C8.428 36.944 8.956 37.052 9.52 37.052C10.492 37.052 11.272 36.812 11.728 35.876C12.016 35.276 12.112 34.58 12.172 33.92H7.06C6.664 33.92 6.34 33.584 6.34 33.2C6.34 32.804 6.676 32.48 7.06 32.48H12.232C12.256 31.832 12.268 31.172 12.292 30.512ZM23.176 32.06V36.98H26.164C26.536 36.98 26.848 37.292 26.848 37.676C26.848 38.048 26.536 38.36 26.164 38.36H18.808C18.436 38.36 18.124 38.048 18.124 37.676C18.124 37.292 18.436 36.98 18.808 36.98H21.76V32.06H19.132C18.748 32.06 18.424 31.76 18.424 31.376C18.424 31.004 18.736 30.692 19.12 30.692H25.864C26.248 30.692 26.56 31.004 26.56 31.376C26.56 31.748 26.236 32.06 25.864 32.06H23.176ZM33.976 30.824L34.624 33.92C34.648 34.028 34.66 34.088 34.66 34.184C34.66 34.568 34.324 34.904 33.94 34.904C33.52 34.904 33.28 34.604 33.196 34.22L32.548 31.124C32.452 30.668 32.776 30.224 33.256 30.224C33.652 30.224 33.892 30.44 33.976 30.824ZM30.784 30.956L31.444 34.112C31.456 34.184 31.468 34.256 31.468 34.34C31.468 34.736 31.132 35.072 30.736 35.072C30.34 35.072 30.076 34.76 30.004 34.4L29.356 31.256C29.344 31.184 29.344 31.136 29.344 31.1C29.344 30.752 29.692 30.392 30.064 30.392C30.448 30.392 30.724 30.656 30.784 30.956ZM30.604 36.704C30.7 36.704 30.784 36.728 30.964 36.812C31.54 37.076 32.164 37.196 32.8 37.196C34.168 37.196 35.224 36.74 35.74 35.396C36.172 34.268 36.172 32.852 36.184 31.652C36.196 30.992 36.196 30.404 36.916 30.404C37.6 30.404 37.648 31.004 37.648 31.52C37.648 33.044 37.588 34.712 37 36.128C36.244 37.976 34.732 38.624 32.824 38.624C32.056 38.624 31.288 38.504 30.568 38.216C30.22 38.072 29.884 37.82 29.884 37.4C29.884 37.004 30.22 36.704 30.604 36.704ZM42.82 30.536C42.58 31.292 42.256 32.024 41.764 32.66C41.464 33.068 40.768 33.848 40.228 33.848C39.808 33.848 39.46 33.476 39.46 33.056C39.46 32.732 39.664 32.528 39.904 32.336C40.636 31.76 41.068 30.872 41.356 30.008C41.44 29.708 41.596 29.456 41.824 29.276C42.016 29.132 42.268 29.012 42.52 29.012H48.268C48.82 29.012 49.156 29.264 49.336 29.708C49.42 29.924 49.42 30.176 49.42 30.404C49.42 31.064 49.36 31.736 49.288 32.396C49.156 33.464 48.904 34.52 48.436 35.492C47.476 37.496 45.808 38.588 43.576 38.588C42.472 38.588 41.356 38.36 40.396 37.796C40.096 37.616 39.82 37.328 39.82 36.956C39.82 36.56 40.18 36.2 40.564 36.2C40.696 36.2 40.972 36.284 41.428 36.536C42.064 36.884 42.832 37.04 43.576 37.04C47.152 37.04 47.8 33.368 47.86 30.536H42.82Z" fill="white"/>
</svg>
