<svg width="648" height="28" viewBox="0 0 648 28" fill="none" xmlns="http://www.w3.org/2000/svg">
<path d="M10.3603 10.5553H13.1603C12.9083 10.2473 12.7403 9.9393 12.7403 9.5193C12.7403 8.9313 13.0203 8.4553 13.3003 7.9793C13.8323 7.0273 14.0003 6.1593 14.0003 5.0953V4.2833C14.0003 1.59529 15.2043 1.5393 17.5003 1.4273C19.9923 1.3153 21.2803 1.20329 23.0163 0.951297C23.3523 0.895296 23.9123 0.839296 24.0803 0.839296C25.0883 0.839296 25.6483 1.4833 25.6483 2.4913C25.6483 3.6393 24.9203 3.8913 23.9403 4.0033C22.1203 4.2273 20.3003 4.2833 18.4243 4.3393C17.8643 4.3673 17.6683 4.4233 17.6683 4.9833V5.1793H24.8643C25.9283 5.1793 26.5163 5.5993 26.5163 6.7193C26.5163 7.7553 25.8163 8.1193 24.8643 8.1193H23.0163V9.6593C23.0163 10.1353 22.9883 10.4433 22.6243 10.8073C23.9403 11.3393 24.2203 12.5433 24.2203 13.8313V19.3193C24.2203 21.6713 23.2403 22.5953 20.8883 22.5953H19.2363C20.6363 23.0993 21.7283 23.3793 23.1843 23.6313C25.2283 23.9673 26.1243 24.1353 26.1243 25.4793C26.1243 26.6273 25.3683 27.3833 24.2203 27.3833C22.6243 27.3833 19.7683 26.5433 18.2283 26.0113C16.4923 25.3953 15.7083 25.1153 15.7083 24.0513C15.7083 23.4633 15.9043 22.9873 16.3243 22.5953H10.1083C10.5003 23.0153 10.7523 23.5193 10.7523 24.1073C10.7523 25.2273 9.26834 25.7033 7.33634 26.2913C5.96434 26.7113 3.55634 27.4113 2.12834 27.4113C0.840339 27.4113 0.280339 26.4033 0.280339 25.4793C0.280339 24.2193 1.06434 23.9953 2.57634 23.7713C3.94834 23.5753 5.93634 23.0433 7.22434 22.5953H5.51634C3.16434 22.5953 2.18434 21.6713 2.18434 19.3193V13.8313C2.18434 13.2153 2.24034 12.6833 2.46434 12.0673C2.40834 12.0953 2.32434 12.0953 2.24034 12.0953C1.23234 12.0953 0.0563391 11.2553 0.0563391 10.1633C0.0563391 9.7153 0.336339 9.1553 0.784339 8.4273C1.37234 7.4753 1.70834 6.2713 1.70834 5.0953V4.3393C1.70834 1.7633 2.49234 1.4833 4.84434 1.3993C6.97234 1.3153 8.37234 1.2313 10.5563 0.867296C10.7803 0.839296 11.0043 0.811295 11.2003 0.811295C12.1243 0.811295 12.6843 1.5673 12.6843 2.4353C12.6843 3.7793 11.8163 3.9473 10.6963 4.0593C9.46434 4.1713 7.28034 4.3393 6.04834 4.3393C5.57234 4.3393 5.32034 4.3953 5.32034 4.9273V5.1793H11.5363C12.5443 5.1793 13.1883 5.5713 13.1883 6.6633C13.1883 7.6993 12.5723 8.1193 11.5643 8.1193H10.5283V9.6593C10.5283 9.9673 10.5003 10.2753 10.3603 10.5553ZM6.77634 10.5553C6.63634 10.2753 6.60834 9.9673 6.60834 9.6593V8.1193H4.98434C4.78834 9.1273 4.59234 9.7993 4.08834 10.6953C4.56434 10.5833 5.04034 10.5553 5.51634 10.5553H6.77634ZM19.2083 10.5553C19.0683 10.2753 19.0403 9.9673 19.0403 9.6593V8.1193H17.3323C17.0803 9.0713 16.9123 9.7153 16.3523 10.5553H19.2083ZM19.9363 14.0273V13.5793C19.9363 13.2153 19.7683 13.0473 19.4043 13.0473H6.97234C6.60834 13.0473 6.44034 13.2153 6.44034 13.5793V14.0273H19.9363ZM19.9363 15.9873H6.44034V16.9953H19.9363V15.9873ZM19.9363 18.9833H6.44034V19.4313C6.44034 19.7953 6.60834 19.9633 6.97234 19.9633H19.4043C19.7403 19.9633 19.9363 19.7953 19.9363 19.4313V18.9833ZM46.9003 24.4993C46.5083 24.5553 46.1163 24.5553 45.7523 24.5553H41.1323C38.1643 24.5553 37.6043 23.9673 37.6043 20.9993V18.0593C37.6043 15.1193 38.1643 14.5313 41.1323 14.5313H45.7523C48.7203 14.5313 49.2803 15.1193 49.2803 18.0593V20.9993C49.2803 21.6713 49.2803 22.2593 49.1403 22.9313C49.8123 22.9313 50.7643 22.9873 51.0723 22.9873C51.7163 22.9873 51.7163 22.4553 51.7163 22.0633V13.4113H47.4603C45.1083 13.4113 44.1283 12.4313 44.1283 10.0793V4.9273C44.1283 2.5473 45.1083 1.59529 47.4603 1.59529H52.5283C54.9083 1.59529 55.8603 2.5473 55.8603 4.9273V24.2753C55.8603 25.3393 55.5803 26.4873 54.4883 27.0473C53.9003 27.3553 51.9963 27.3833 50.9043 27.3833H50.2323C48.5243 27.3833 46.8443 27.3273 46.8443 25.0593C46.8443 24.8913 46.8723 24.6953 46.9003 24.4993ZM35.1403 13.4113V25.3953C35.1403 26.8513 34.4403 27.4673 32.9843 27.4673C31.6123 27.4673 31.0243 26.7113 31.0243 25.3953V4.9273C31.0243 2.5473 31.9763 1.59529 34.3283 1.59529H39.4243C41.7763 1.59529 42.7283 2.5473 42.7283 4.9273V10.0793C42.7283 12.4313 41.7763 13.4113 39.4243 13.4113H35.1403ZM51.7163 6.2993V5.5993C51.7163 5.2353 51.5203 5.0673 51.1843 5.0673H48.6643C48.3283 5.0673 48.1323 5.2353 48.1323 5.5993V6.2993H51.7163ZM38.7243 6.2993V5.5993C38.7243 5.2353 38.5283 5.0673 38.1923 5.0673H35.6723C35.3083 5.0673 35.1403 5.2353 35.1403 5.5993V6.2993H38.7243ZM51.7163 10.3033V9.0153H48.1323V9.7713C48.1323 10.1353 48.3283 10.3033 48.6643 10.3033H51.7163ZM35.1403 10.3033H38.1923C38.5283 10.3033 38.7243 10.1353 38.7243 9.7713V9.0153H35.1403V10.3033ZM44.8563 17.9473H42.0283C41.6363 17.9473 41.4683 18.1433 41.4683 18.5353V20.3833C41.4683 20.7473 41.6363 20.9433 42.0283 20.9433H44.8563C45.2203 20.9433 45.4163 20.7473 45.4163 20.3833V18.5353C45.4163 18.1433 45.2203 17.9473 44.8563 17.9473ZM79.2963 24.7793H68.4043C66.9483 24.7793 65.8843 23.8833 65.8843 22.3713C65.8843 18.8153 71.0083 15.4553 73.7243 13.4953C75.4603 12.2353 76.7203 10.9753 76.7203 8.6793C76.7203 6.8593 75.8523 5.2913 73.8363 5.2913C72.5763 5.2913 71.7083 5.7113 71.1483 6.8873C70.9243 7.3633 70.7563 7.9233 70.7283 8.4833C70.7003 8.8473 70.7843 10.5833 68.4883 10.5833C67.0883 10.5833 66.0803 9.8273 66.0803 8.3713C66.0803 6.6633 66.9763 4.6473 68.2083 3.4433C69.6923 1.9313 71.6523 1.3433 73.7243 1.3433C78.2883 1.3433 81.4243 4.3393 81.4243 8.9593C81.4243 12.7673 79.3523 14.6713 76.4403 16.7153C73.6403 18.6753 72.2123 19.9353 72.2123 20.4673C72.2123 20.7753 72.6323 20.8313 72.8843 20.8313H79.2963C80.6123 20.8313 81.4803 21.3913 81.4803 22.8193C81.4803 24.2473 80.6123 24.7513 79.2963 24.7793ZM115.92 14.2793C115.92 18.0873 114.296 21.5593 110.908 23.5473C108.64 24.8913 106.036 25.4233 103.404 25.4233C102.368 25.4233 100.828 25.2833 99.9323 25.1433C98.5043 24.9193 97.1883 24.5833 95.9283 23.8833C95.2003 23.4633 94.6403 22.7353 94.6403 21.8673C94.6403 20.8033 95.5643 19.7953 96.6563 19.7953C97.1323 19.7953 97.6083 19.9353 98.0563 20.1033C99.7923 20.7473 101.612 21.1113 103.488 21.1113C107.828 21.1113 111.496 19.0953 111.496 14.3073C111.496 9.7993 107.856 8.7913 104.076 8.7913C101.136 8.7913 98.2243 9.0433 95.3403 9.4913C95.0603 9.5473 94.7523 9.5753 94.4723 9.5753C93.2963 9.5753 92.3443 8.5673 92.3443 7.3913C92.3443 6.8313 92.5403 6.2713 92.9603 5.8793C93.6883 5.1513 96.5443 4.9273 97.6083 4.8433C99.7363 4.6473 101.864 4.4793 103.992 4.4793C110.544 4.4793 115.92 6.8873 115.92 14.2793ZM125.58 2.4353C126.7 2.4353 127.736 3.2753 127.736 4.4233C127.736 4.8713 127.68 5.3193 127.596 5.7393C127.12 8.5113 126.952 11.3113 126.952 14.1113C126.952 16.7993 127.12 19.9353 128.408 22.3713C128.8 23.0433 129.08 23.5193 129.08 24.1073C129.08 25.2553 128.072 26.1793 126.952 26.1793C125.944 26.1793 125.16 25.3953 124.712 24.5833C122.948 21.3633 122.696 17.4713 122.696 13.8873C122.696 10.9193 122.864 7.9513 123.396 5.0113C123.62 3.7793 124.068 2.4353 125.58 2.4353ZM133.084 4.0033H143.752C144.9 4.0033 145.88 4.9553 145.88 6.1033C145.88 7.2513 144.9 8.2033 143.752 8.2033H133.084C131.936 8.2033 130.956 7.2793 130.956 6.1033C130.956 5.5153 131.208 4.9833 131.628 4.5633C131.992 4.1713 132.58 4.0033 133.084 4.0033ZM139.104 25.4513C136.668 25.4513 134.316 24.6393 132.552 22.9313C131.152 21.5593 130.592 19.4873 130.592 17.5553C130.592 15.7353 131.264 13.8313 132.468 12.4873C132.972 11.9273 133.616 11.4793 134.4 11.4793C135.52 11.4793 136.472 12.4313 136.472 13.5513C136.472 14.1393 136.192 14.5593 135.772 15.1753C135.24 15.9593 134.932 16.8273 134.932 17.7793C134.932 20.2993 136.892 21.2233 139.132 21.2233C140.532 21.2233 141.848 20.9433 143.136 20.4113C143.416 20.2993 143.724 20.2433 144.004 20.2433C145.152 20.2433 146.048 21.2233 146.048 22.3433C146.048 23.1833 145.516 23.8553 144.788 24.2193C143.052 25.0873 141.064 25.4513 139.104 25.4513ZM176.708 5.7673V22.7073C176.708 25.4233 175.588 26.5433 172.872 26.5433H155.96C153.244 26.5433 152.124 25.4233 152.124 22.7073V5.7673C152.124 3.0233 153.244 1.9313 155.96 1.9313H172.872C175.588 1.9313 176.708 3.0233 176.708 5.7673ZM171.472 5.7953H157.36C156.772 5.7953 156.436 6.1313 156.436 6.7193V21.7553C156.436 22.3433 156.772 22.6793 157.36 22.6793H171.472C172.06 22.6793 172.396 22.3433 172.396 21.7553V6.7193C172.396 6.1033 172.06 5.7953 171.472 5.7953ZM170.38 11.1153V17.3313C170.38 19.7393 169.4 20.7193 166.992 20.7193H161.812C159.404 20.7193 158.424 19.7393 158.424 17.3313V11.1153C158.424 8.6793 159.404 7.6993 161.812 7.6993H166.992C169.4 7.6993 170.38 8.6793 170.38 11.1153ZM165.956 11.0313H162.876C162.372 11.0313 162.092 11.3113 162.092 11.7873V16.6313C162.092 17.1353 162.372 17.3873 162.876 17.3873H165.956C166.432 17.3873 166.712 17.1353 166.712 16.6313V11.7873C166.712 11.2833 166.46 11.0313 165.956 11.0313ZM203.364 6.3553C203.784 7.1113 204.064 7.6153 204.064 8.0633C204.064 9.2393 202.496 9.4073 201.628 9.4073C200.312 9.4073 199.976 8.8753 199.584 7.7553C199.444 7.3353 199.22 6.7473 199.052 6.3553H198.184C197.708 6.9713 197.26 7.4753 196.7 8.0073C197.428 8.3713 198.128 8.8193 198.856 9.2113C201.516 10.6673 203.532 11.1993 206.416 11.8713C207.34 12.0953 207.872 12.5993 207.872 13.5513C207.872 14.7553 207.312 15.9313 205.94 15.9313C205.044 15.9313 202.832 15.1193 201.88 14.7553C201.88 15.8753 201.236 16.2953 200.172 16.2953H189.028C187.992 16.2953 187.376 15.9313 187.32 14.8113C186.368 15.2033 184.268 15.9873 183.288 15.9873C182.056 15.9873 181.44 14.8953 181.44 13.7753C181.44 12.4873 182.224 12.2353 183.316 11.9833C186.228 11.2833 189.084 10.2193 191.604 8.5673C192.304 8.1193 192.752 7.8113 193.592 7.6433C193.284 7.2233 193.172 6.8593 193.172 6.3553H191.268C191.38 6.6353 191.66 7.4753 191.66 7.7553C191.66 8.8753 190.204 9.1273 189.364 9.1273C188.048 9.1273 187.796 8.5393 187.488 7.5033C187.376 7.1673 187.264 6.7753 187.124 6.3553H186.648C185.948 7.2513 184.464 9.0713 183.288 9.0713C182.224 9.0713 181.132 7.9233 181.132 6.8033C181.132 6.1033 181.412 5.8233 181.888 5.4033C182.84 4.5073 183.876 3.3313 184.604 2.2393C185.36 1.0913 185.752 0.643296 186.676 0.643296C187.656 0.643296 189.056 1.1753 189.056 2.3513C189.056 2.4913 189.028 2.5753 189.028 2.6873H192.808C193.984 2.6873 194.46 3.1353 194.544 4.3113C195.02 3.7233 195.412 3.1073 195.804 2.4353C196.476 1.3433 196.7 0.643296 197.82 0.643296C198.856 0.643296 200.312 1.2593 200.312 2.4633C200.312 2.5473 200.312 2.6033 200.284 2.6873H206.248C207.592 2.6873 208.012 3.3593 208.012 4.6193C208.012 5.8233 207.424 6.3553 206.248 6.3553H203.364ZM190.904 13.1873H198.212C197.064 12.5433 195.944 11.8433 194.936 10.9193C194.824 10.8073 194.768 10.7793 194.628 10.7793C194.488 10.7793 194.348 10.8913 194.208 11.0033C193.2 11.8153 192.052 12.5713 190.904 13.1873ZM205.016 20.7753V23.4633C205.016 25.8993 204.036 26.8513 201.628 26.8513H187.684C185.276 26.8513 184.296 25.8993 184.296 23.4633V20.7753C184.296 18.3393 185.276 17.3593 187.684 17.3593H201.628C204.036 17.3593 205.016 18.3393 205.016 20.7753ZM200.2 20.6353H189.112C188.58 20.6353 188.328 20.8873 188.328 21.4193V22.7633C188.328 23.2953 188.58 23.5473 189.112 23.5473H200.2C200.704 23.5473 200.984 23.2673 200.984 22.7633V21.4193C200.984 20.8873 200.704 20.6353 200.2 20.6353ZM236.18 15.6793C236.18 17.8353 235.648 20.4113 234.36 22.2033C233.884 22.8753 233.296 23.5193 232.652 24.0513C230.58 25.7313 227.836 26.2353 225.4 26.2353C222.46 26.2353 219.436 25.3673 217.336 23.0153C215.6 21.0553 214.928 18.4793 214.928 15.9033C214.928 12.1513 215.124 8.3713 215.46 4.6193C215.572 3.2473 216.048 2.0713 217.616 2.0713C218.988 2.0713 219.856 3.0513 219.856 4.3673C219.856 4.8433 219.828 5.3193 219.8 5.7953C219.576 8.1473 219.492 10.4993 219.408 12.8513C219.408 13.8593 219.352 14.8393 219.352 15.8193C219.352 19.6553 221.676 22.0073 225.512 22.0073C227.5 22.0073 229.796 21.3353 230.804 19.4313C231.364 18.3393 231.672 17.0233 231.672 15.7913C231.672 15.3993 231.616 15.0353 231.616 14.6433C231.616 13.2993 232.372 12.0673 233.856 12.0673C235.872 12.0673 236.18 14.0833 236.18 15.6793ZM249.708 8.0913L242.036 8.5953C240.832 8.6793 239.768 7.7553 239.768 6.5233C239.768 5.3473 240.692 4.4233 241.84 4.3673L262.252 3.3033C262.588 3.2753 262.84 3.2753 262.868 3.2753C264.016 3.2753 265.052 4.1993 265.052 5.4033C265.052 6.3553 264.408 7.3913 262.98 7.4753C262.168 7.5313 259.116 7.8113 258.836 7.8673C257.352 8.1193 255.84 8.5113 254.244 9.4353C252.004 10.7513 250.52 13.0753 250.52 15.6793C250.52 19.4313 253.628 22.0353 257.268 22.0353C258.304 22.0353 259.312 21.8673 260.292 21.5593C260.796 21.3913 261.356 21.2233 261.888 21.2233C262.952 21.2233 263.764 22.3153 263.764 23.3233C263.764 25.8713 259.396 26.2353 257.548 26.2353C255.392 26.2353 253.292 25.8433 251.416 24.7793C248.168 22.9313 246.208 19.5153 246.208 15.7913C246.208 12.8233 247.468 10.0233 249.708 8.0913ZM280.704 4.5353V2.8553C280.704 1.2873 281.488 0.783295 283 0.783295C284.4 0.783295 285.044 1.4833 285.044 2.8553V4.5353H291.064C293.696 4.5353 294.788 5.6273 294.788 8.2873V17.5833C294.788 20.2433 293.696 21.3073 291.064 21.3073H285.044V25.5073C285.044 27.1033 284.26 27.5793 282.748 27.5793C281.348 27.5793 280.704 26.8793 280.704 25.5073V21.3073H274.74C272.08 21.3073 270.988 20.2433 270.988 17.5833V8.2873C270.988 5.6273 272.08 4.5353 274.74 4.5353H280.704ZM275.216 11.0873H280.704V8.3433H276C275.496 8.3433 275.216 8.6233 275.216 9.1273V11.0873ZM285.044 8.3433V11.0873H290.532V9.1273C290.532 8.6233 290.252 8.3433 289.748 8.3433H285.044ZM280.704 17.4713V14.6153H275.216V16.6873C275.216 17.2193 275.496 17.4713 276 17.4713H280.704ZM290.532 14.6153H285.044V17.4713H289.748C290.252 17.4713 290.532 17.2193 290.532 16.6873V14.6153ZM324.412 15.6793C324.412 17.8353 323.88 20.4113 322.592 22.2033C322.116 22.8753 321.528 23.5193 320.884 24.0513C318.812 25.7313 316.068 26.2353 313.632 26.2353C310.692 26.2353 307.668 25.3673 305.568 23.0153C303.832 21.0553 303.16 18.4793 303.16 15.9033C303.16 12.1513 303.356 8.3713 303.692 4.6193C303.804 3.2473 304.28 2.0713 305.848 2.0713C307.22 2.0713 308.088 3.0513 308.088 4.3673C308.088 4.8433 308.06 5.3193 308.032 5.7953C307.808 8.1473 307.724 10.4993 307.64 12.8513C307.64 13.8593 307.584 14.8393 307.584 15.8193C307.584 19.6553 309.908 22.0073 313.744 22.0073C315.732 22.0073 318.028 21.3353 319.036 19.4313C319.596 18.3393 319.904 17.0233 319.904 15.7913C319.904 15.3993 319.848 15.0353 319.848 14.6433C319.848 13.2993 320.604 12.0673 322.088 12.0673C324.104 12.0673 324.412 14.0833 324.412 15.6793ZM336.144 8.5393C335.304 8.5393 334.744 7.9513 334.184 7.3633C333.54 6.6913 332.84 6.1033 332.14 5.5153C331.272 4.8153 330.544 4.2273 330.544 3.3313C330.544 2.1833 331.608 1.0913 332.756 1.0913C333.848 1.0913 335.808 2.8553 336.62 3.5833C337.488 4.3393 338.44 5.2913 338.44 6.1873C338.44 7.3633 337.348 8.5393 336.144 8.5393ZM348.016 12.6273C347.26 14.6713 346.196 16.6033 344.852 18.3113C343.9 19.4873 342.08 21.6993 340.484 21.6993C339.168 21.6993 338.188 20.4673 338.188 19.3473C338.188 18.2833 339.056 17.7793 340.288 16.7153C341.268 15.8753 342.528 14.2513 343.228 13.1313C344.068 11.8433 344.74 10.4153 345.244 8.9593C345.468 8.2873 345.86 6.9153 345.86 6.2433C345.86 5.8513 345.608 5.7393 345.244 5.7393H341.828C340.4 5.7393 339.728 5.0393 339.728 3.6113C339.728 2.2113 340.512 1.59529 341.828 1.59529H346.84C350.004 1.59529 350.116 3.0513 350.312 5.5433C350.452 7.1953 350.928 9.2393 351.488 10.8073C352.328 13.1313 353.42 14.8953 355.1 16.7433C356.052 17.7793 356.64 18.4233 356.64 19.2633C356.64 20.5233 355.492 21.6993 354.26 21.6993C352.72 21.6993 351.46 19.8793 350.676 18.7033C349.444 16.8553 348.548 14.7833 348.016 12.6273ZM337.432 19.5433C337.572 20.8593 338.356 21.6713 339.392 22.1473C340.316 22.5953 341.464 22.7353 342.5 22.7353H354.736C356.024 22.7353 356.78 23.4633 356.78 24.7233C356.78 26.0113 356.024 26.7953 354.736 26.7953H342.696C341.324 26.7953 339.98 26.6273 338.804 26.1513C337.74 25.7313 336.788 25.0313 336.004 23.9673C335.584 24.6673 334.94 25.4233 334.38 26.0113C333.82 26.6273 333.26 27.1873 332.364 27.1873C331.02 27.1873 330.012 25.9273 330.012 24.6393C330.012 23.7433 330.404 23.3513 331.44 22.5113C331.916 22.1473 332.56 21.6713 333.344 20.9993V15.8193C333.344 15.4833 333.288 15.0913 332.84 15.0913H332.084C330.628 15.0913 330.152 14.2513 330.152 12.9353C330.152 11.5353 330.908 11.0033 332.224 11.0033H333.96C336.872 11.0033 337.432 11.5353 337.432 14.4473V19.5433ZM379.768 15.5113C378.032 14.7273 376.212 14.2513 374.336 14.0273L373.16 19.1793C372.768 20.9433 372.124 23.6593 370.668 24.8353C369.828 25.5353 368.596 25.6753 367.56 25.6753C365.376 25.6753 363.444 24.4993 362.352 22.6513C361.652 21.4473 361.372 20.0473 361.372 18.6753C361.372 15.9873 362.38 13.1313 364.788 11.6753C366.72 10.5273 368.876 10.1073 371.088 9.9953L371.788 6.7473H364.872C363.808 6.7473 362.912 5.8233 362.912 4.7873C362.912 3.7233 363.836 2.7993 364.9 2.7993H374.056C374.84 2.7993 375.54 3.2753 375.96 3.9193C376.296 4.4513 376.268 4.9273 376.156 5.4873L375.176 10.1073C376.8 10.3033 378.424 10.6393 379.964 11.1993C379.964 9.7713 379.852 8.3713 379.852 6.9713C379.852 5.8513 380.692 4.8993 381.868 4.8993C382.512 4.8993 383.212 5.2353 383.548 5.8233C383.996 6.5793 383.996 8.0633 383.996 10.0233C383.996 11.0313 383.996 12.0673 383.996 13.0753C386.04 14.3353 386.46 15.0353 386.46 15.8193C386.46 16.9113 385.508 17.8073 384.416 17.8073C384.108 17.8073 383.856 17.7233 383.576 17.5833C383.156 19.9913 382.316 22.5113 380.468 24.2193C379.488 25.1153 377.668 26.3473 376.268 26.3473C375.232 26.3473 374.392 25.3393 374.392 24.3593C374.392 23.2393 375.092 22.7633 375.988 22.3713C377.864 21.5033 378.732 20.0193 379.292 18.1153C379.544 17.2473 379.684 16.3793 379.768 15.5113ZM370.36 13.9153C367.336 14.1953 365.348 15.4833 365.348 18.7313C365.348 19.9913 365.908 21.7553 367.448 21.7553C367.728 21.7553 368.008 21.6993 368.232 21.4753C368.848 20.8313 369.016 19.7673 369.156 19.1513L370.36 13.9153ZM409.192 4.4513V2.2393C409.192 1.3713 409.92 0.643296 410.788 0.643296C411.684 0.643296 412.384 1.3713 412.384 2.2393V4.5633C412.384 5.4313 411.684 6.1593 410.788 6.1593C409.78 6.1593 409.192 5.3753 409.192 4.4513ZM413.588 4.4513V2.2393C413.588 1.3713 414.316 0.643296 415.184 0.643296C416.052 0.643296 416.78 1.3713 416.78 2.2393V4.5633C416.78 5.4313 416.052 6.1593 415.184 6.1593C414.176 6.1593 413.588 5.3473 413.588 4.4513ZM408.016 3.6113V4.5633C408.016 6.0753 409.276 7.3633 410.788 7.3633C411.656 7.3633 412.468 6.9713 413 6.2993C413.308 6.6913 413.7 6.9713 414.176 7.1673C413.644 7.5033 413.112 7.5593 412.496 7.5873C409.612 7.6713 406.644 8.0353 404.124 9.5473C401.996 10.8353 400.484 13.1593 400.484 15.6793C400.484 19.3473 403.592 22.0353 407.176 22.0353C408.212 22.0353 409.276 21.8673 410.256 21.5593C410.76 21.3913 411.32 21.2233 411.852 21.2233C412.944 21.2233 413.756 22.3153 413.756 23.3233C413.756 25.9273 409.136 26.2353 407.26 26.2353C401.212 26.2353 396.172 22.0353 396.172 15.7913C396.172 12.8233 397.46 10.0793 399.672 8.1473L392 8.6793C390.796 8.7633 389.732 7.8113 389.732 6.5793C389.732 5.4313 390.684 4.5073 391.832 4.4513L408.016 3.6113ZM431.676 8.3433L423.276 8.8753H422.996C421.932 8.8753 421.064 7.9513 421.064 6.9153C421.064 5.8233 421.932 5.0113 422.996 4.9273L430.388 4.4793L430.332 4.3393C429.744 2.8833 430.836 1.4273 432.404 1.4273C433.356 1.4273 434.252 2.0713 434.532 2.9673L434.924 4.1993L442.904 3.6953C444.024 3.6393 445.06 4.5073 445.06 5.6553C445.06 6.6913 444.192 7.5593 443.184 7.6153L436.128 8.0633L436.94 10.5833L443.212 10.2193C444.332 10.1353 445.34 11.0313 445.34 12.1793C445.34 13.2433 444.5 14.0553 443.464 14.1393L438.2 14.4473L438.62 15.7633C438.676 15.9593 438.704 16.1833 438.704 16.4073C438.704 17.5833 437.724 18.4793 436.548 18.4793C435.512 18.4793 434.7 17.7233 434.392 16.7713L433.72 14.7273L423.528 15.3713C422.408 15.4553 421.344 14.6153 421.344 13.4393C421.344 12.3193 422.268 11.5073 423.332 11.4513L432.488 10.8633L431.676 8.3433ZM433.412 26.2633C430.416 26.2633 426.664 25.5913 424.424 23.4633C423.248 22.3713 422.52 20.8593 422.52 19.2633C422.52 17.9753 423.388 16.7713 424.76 16.7713C425.32 16.7713 425.908 16.9673 426.272 17.4433C426.44 17.6673 426.524 18.0873 426.58 18.4233C427.112 21.5873 430.92 22.2033 433.58 22.2033C435.988 22.2033 438.424 21.7833 440.58 20.6633C441.224 20.3273 441.7 20.1033 442.204 20.1033C443.324 20.1033 444.248 21.1113 444.248 22.2033C444.248 22.8193 443.968 23.3793 443.52 23.7993C442.764 24.4993 441.308 25.0033 440.3 25.3113C438.088 25.9553 435.736 26.2633 433.412 26.2633ZM468.44 21.3633C469.784 20.4953 470.904 19.3193 470.904 17.6393C470.904 13.9153 465.976 13.4393 463.204 13.4393C460.236 13.4393 458.248 14.0273 455.7 15.4833L453.964 16.4913C452.676 17.2193 451.052 16.2393 451.052 14.7553C451.052 13.8593 451.668 13.2433 452.452 12.8793L464.772 6.8593L455.392 6.9433C454.328 6.9433 453.376 6.0473 453.376 4.9833C453.376 3.8913 454.3 2.9953 455.364 2.9953H471.352C472.444 2.9953 473.312 3.8633 473.312 4.9553C473.312 5.9633 472.724 6.4953 471.884 6.8873L465.108 10.1633C465.444 10.1353 465.752 10.1073 466.088 10.1073C470.652 10.1073 475.104 12.4033 475.104 17.4713C475.104 20.4673 473.424 23.1273 470.848 24.6113C468.664 25.8993 466.004 26.3473 463.512 26.3473C461.496 26.3473 459.396 26.0393 457.632 25.0313C455.952 24.0513 454.692 22.4273 454.692 20.4393C454.692 18.9553 455.476 17.6113 456.68 16.7433C458.024 15.7633 460.04 15.5113 461.664 15.5113C464.8 15.5113 468.496 16.8273 468.496 20.5513C468.496 20.8313 468.468 21.0833 468.44 21.3633ZM464.464 22.6793C464.492 22.4273 464.576 22.1753 464.66 21.9233C464.772 21.6153 464.8 21.3353 464.8 21.0273C464.8 19.3473 462.644 19.0113 461.356 19.0113C460.32 19.0113 458.612 19.2073 458.612 20.6073C458.612 22.4833 461.748 22.7353 463.092 22.7353C463.54 22.7353 463.988 22.7353 464.464 22.6793ZM487.144 6.2433L487.956 3.3313C488.208 2.4633 489.048 1.8193 489.972 1.8193C490.728 1.8193 491.428 2.2113 491.792 2.8553C492.128 3.4433 492.156 4.0593 491.96 4.7033L491.568 6.0473H492.016C494.284 6.0473 496.58 6.3833 498.512 7.7273C501.144 9.5473 502.208 12.6833 502.208 15.7913C502.208 21.2513 499.072 26.2353 493.136 26.2353C491.512 26.2353 488.74 25.6473 488.74 23.5473C488.74 22.3713 489.72 21.4753 490.868 21.4753C491.204 21.4753 491.512 21.5873 491.82 21.6993C492.352 21.8953 492.884 22.0073 493.444 22.0073C496.748 22.0073 497.98 18.5073 497.98 15.7353C497.98 11.8153 495.824 10.1913 492.072 10.1913C491.484 10.1913 490.924 10.2193 490.364 10.2193L486.192 24.7513C485.94 25.6473 485.128 26.3193 484.176 26.3193C482.72 26.3193 481.796 24.8913 482.188 23.5473L485.94 10.4433L483.196 10.5553C482.636 10.5833 482.076 10.4993 481.656 10.3033C481.012 9.9953 480.62 9.2393 480.62 8.5113C480.62 7.1673 481.684 6.4673 482.916 6.4113L487.144 6.2433ZM503.3 10.7513L500.724 5.1233C500.108 3.7513 501.06 2.1553 502.6 2.1553C503.384 2.1553 504.14 2.6313 504.448 3.3593L507.052 9.0713C507.164 9.3233 507.22 9.6033 507.22 9.8553C507.22 10.9473 506.296 11.9553 505.148 11.9553C504.308 11.9553 503.58 11.3673 503.3 10.7513ZM525.28 7.7833H515.984C514.864 7.7833 513.912 6.8873 513.912 5.7673C513.912 4.6193 514.864 3.7233 515.984 3.7233H533.456C534.576 3.7233 535.528 4.6193 535.528 5.7393C535.528 6.8873 534.576 7.7833 533.456 7.7833H529.592L529.508 11.6753H534.016C535.136 11.6753 536.088 12.5433 536.088 13.6913C536.088 14.8393 535.136 15.7353 534.016 15.7353H529.256C528.472 22.3713 526.232 26.2353 518.98 26.2353C517.132 26.2353 512.736 25.7873 512.736 23.2673C512.736 22.1473 513.688 21.1673 514.808 21.1673C515.34 21.1673 515.816 21.3353 516.292 21.5033C517.3 21.8393 518.364 21.9793 519.428 21.9793C521.08 21.9793 522.872 21.5033 523.74 19.9633C524.468 18.6753 524.804 17.1913 524.944 15.7353H513.912C512.792 15.7353 511.84 14.8393 511.84 13.6913C511.84 12.5713 512.792 11.6753 513.912 11.6753H525.196C525.224 10.3873 525.252 9.0713 525.28 7.7833ZM551.992 11.4233H546.448C545.384 11.4233 544.46 10.5273 544.46 9.4353C544.46 8.3713 545.384 7.4753 546.448 7.4753H561.736C562.828 7.4753 563.724 8.3713 563.724 9.4353C563.724 10.5273 562.828 11.4233 561.736 11.4233H556.08V21.8113H562.464C563.556 21.8113 564.452 22.7073 564.452 23.7713C564.452 24.8353 563.556 25.7313 562.464 25.7313H545.692C544.628 25.7313 543.732 24.8353 543.732 23.7713C543.732 22.7073 544.628 21.8113 545.72 21.8113H551.992V11.4233ZM585.704 8.1193L587.188 15.1193C587.244 15.3713 587.272 15.5673 587.272 15.7913C587.272 16.6033 586.684 17.6953 585.284 17.6953C584.024 17.6953 583.492 16.9393 583.296 15.9873L581.84 8.9873C581.56 7.7273 582.456 6.5513 583.772 6.5513C584.836 6.5513 585.564 7.4753 585.704 8.1193ZM578.396 8.4553L579.88 15.5113C580.132 16.7713 579.348 18.0593 577.976 18.0593C576.912 18.0593 576.24 17.4993 575.988 16.3793L574.504 9.4353C574.476 9.2953 574.448 8.9873 574.448 8.8473C574.448 7.7553 575.344 6.9153 576.436 6.9153C577.5 6.9153 578.228 7.6433 578.396 8.4553ZM594.104 9.5193C594.104 12.4313 593.992 15.9873 593.096 18.7873C592.312 21.2233 590.968 23.5473 588.644 24.8353C586.684 25.9273 584.416 26.3193 582.204 26.3193C580.552 26.3193 578.144 25.9833 576.688 25.1713C576.072 24.8353 575.68 24.2193 575.68 23.4913C575.68 22.4833 576.464 21.5313 577.528 21.5313C577.92 21.5313 578.312 21.6433 578.676 21.7833C579.908 22.2033 581 22.4273 582.288 22.4273C585.368 22.4273 587.664 21.3913 588.924 18.5073C589.848 16.4353 590.072 12.9353 590.072 10.6953V9.8273C590.072 8.4273 590.324 6.9153 592.088 6.9153C593.628 6.9153 594.104 8.2033 594.104 9.5193ZM610.876 7.9793C610.232 9.9953 609.252 11.8433 607.852 13.4393C607.124 14.2793 605.92 15.3993 604.744 15.3993C603.596 15.3993 602.616 14.3353 602.616 13.2153C602.616 12.4033 603.064 11.8713 603.624 11.3673C605.276 9.9113 606.228 8.2033 606.9 6.1313C607.46 4.3393 608.636 3.6953 610.456 3.6953H623.112C623.896 3.6953 624.68 4.0313 625.212 4.6193C625.8 5.2633 625.94 6.1593 625.94 6.9993C625.94 16.0713 623.028 26.2353 612.136 26.2353C609.756 26.2353 607.404 25.7873 605.304 24.6113C604.408 24.1353 603.512 23.3793 603.512 22.2593C603.512 21.1393 604.464 20.1033 605.612 20.1033C606.172 20.1033 606.648 20.3553 607.152 20.6073C608.72 21.3633 610.344 21.9793 612.108 21.9793C619.808 21.9793 621.292 14.0553 621.488 7.9793H610.876ZM647.22 8.9873L646.24 16.4913C646.128 17.4713 645.904 18.1713 644.756 18.1713C643.636 18.1713 643.44 17.4153 643.328 16.4913L642.348 8.9873V3.6113C642.348 1.9313 643.244 1.3433 644.84 1.3433C646.38 1.3433 647.22 2.0153 647.22 3.6113V8.9873ZM644.784 19.9913C646.268 19.9913 647.472 21.1953 647.472 22.6793C647.472 24.1913 646.268 25.3953 644.784 25.3953C643.3 25.3953 642.096 24.1913 642.096 22.6793C642.096 21.1953 643.3 19.9913 644.784 19.9913Z" fill="#005EA4"/>
</svg>
