<svg width="129" height="124" viewBox="0 0 129 124" fill="none" xmlns="http://www.w3.org/2000/svg">
<path d="M128.571 61.928C128.571 96.1299 99.7894 123.856 64.2855 123.856C28.7816 123.856 0 96.1299 0 61.928C0 27.7261 28.7816 0 64.2855 0C99.7894 0 128.571 27.7261 128.571 61.928Z" fill="#005EA4"/>
<path d="M24.2689 42.5644C24.0485 46.2287 23.4424 49.7552 21.4036 53.0889C20.274 54.9624 18.7863 56.643 16.9955 57.9103C16.5822 58.2134 16.0587 58.4613 15.5904 58.4613C14.6261 58.4613 13.8271 57.6623 13.8271 56.6981C13.8271 55.8991 14.3506 55.4032 14.9567 54.9899C19.0067 52.345 20.4944 47.1379 20.6873 42.5644H15.5353C14.6261 42.5644 13.8271 41.793 13.8271 40.8563C13.8271 39.9471 14.5985 39.1481 15.5353 39.1481H20.7424C20.7148 38.1838 20.6597 36.6134 20.6597 36.2828C20.6597 35.2634 21.3209 34.4645 22.3954 34.4645C23.2771 34.4645 23.8832 34.9604 24.0485 35.6767C24.2413 36.4481 24.2964 37.991 24.2964 39.1481H34.7107C35.8678 39.1481 36.7495 40.0298 36.7495 41.242C36.7495 41.2695 36.7495 41.3247 36.7495 41.3522L36.226 56.5052C36.1709 57.993 34.8209 58.5164 33.5536 58.5164C31.377 58.5164 28.925 58.0481 26.9413 56.9736C26.1699 56.5603 25.426 55.9266 25.426 54.9624C25.426 54.0532 26.2526 53.2542 27.1893 53.2542C27.6026 53.2542 28.0434 53.392 28.9526 53.9705C29.9168 54.5766 31.2944 54.7971 32.6444 54.7971L33.1127 42.5644H24.2689ZM42.4801 36.4481L51.1861 37.6604C52.0402 37.7981 52.7014 38.542 52.7014 39.3961C52.7014 40.4706 51.7372 41.2971 50.6902 41.1593L41.8464 39.9471C40.9648 39.8094 40.276 39.093 40.276 38.1838C40.276 37.4124 40.827 36.6961 41.4882 36.5032C41.6811 36.4481 41.8464 36.4206 42.0392 36.4206C42.177 36.4206 42.3147 36.4206 42.4801 36.4481ZM58.4871 40.9389C58.4871 39.9471 59.2861 39.1757 60.2779 39.1757C60.9943 39.1757 61.5453 39.5338 61.8483 40.1951C62.0688 40.691 62.2065 41.5175 62.2065 43.5012C62.2065 52.4552 55.8698 58.4889 46.9984 58.4889C45.3178 58.4889 43.6372 58.296 42.0392 57.745C41.1301 57.4419 40.2484 56.8358 40.2484 55.7889C40.2484 54.8797 41.0474 54.0807 41.9566 54.0807C42.2596 54.0807 42.5903 54.1634 42.8933 54.2736C44.2709 54.7144 45.6484 54.9899 47.1086 54.9899C53.9688 54.9899 58.6249 50.4165 58.6249 43.5563C58.6249 43.0328 58.5973 42.5369 58.5422 41.9583C58.5147 41.5726 58.4871 41.1042 58.4871 40.9389ZM82.8697 47.0277C83.4758 44.6583 83.7238 42.2338 83.8615 39.7818H72.6208C71.932 41.9859 71.2157 43.3634 69.0667 45.5399C68.0749 46.5318 66.6422 47.441 65.981 47.441C65.0167 47.441 64.1902 46.6695 64.1902 45.6777C64.1902 44.8787 64.6585 44.4104 65.2647 44.0246C67.1932 42.7573 68.5708 40.7736 69.3422 38.6247C69.783 37.4124 70.1687 36.4206 71.5738 36.4206H85.4595C86.7819 36.4206 87.4707 37.3022 87.4707 38.542C87.4707 40.1675 87.2503 42.2063 87.0299 43.8318C86.8095 45.2093 86.5064 46.5593 86.1758 47.9093L87.2227 48.1848C87.9942 48.3777 88.5727 49.0389 88.5727 49.8379C88.5727 50.9124 87.5258 51.7664 86.4789 51.5185L85.0187 51.1328C82.7595 55.9817 79.2054 58.4613 73.7779 58.4613C71.3534 58.4613 68.8463 58.0205 66.6698 56.8634C65.9534 56.5052 65.2922 55.8991 65.2922 55.0175C65.2922 54.0807 66.1463 53.2818 67.083 53.2818C67.4136 53.2818 67.7167 53.392 68.0198 53.5297C69.8381 54.4389 71.9044 54.9348 73.9432 54.9348C77.4422 54.9348 80.1146 53.4195 81.685 50.2511L73.4748 48.1297C72.7034 47.9369 72.1248 47.2756 72.1248 46.4767C72.1248 45.3471 73.1993 44.5481 74.2738 44.8236L82.8697 47.0277ZM93.1737 36.4481L101.88 37.6604C102.734 37.7981 103.395 38.542 103.395 39.3961C103.395 40.4706 102.431 41.2971 101.384 41.1593L92.5401 39.9471C91.6584 39.8094 90.9697 39.093 90.9697 38.1838C90.9697 37.4124 91.5207 36.6961 92.1819 36.5032C92.3748 36.4481 92.5401 36.4206 92.7329 36.4206C92.8707 36.4206 93.0084 36.4206 93.1737 36.4481ZM109.181 40.9389C109.181 39.9471 109.98 39.1757 110.972 39.1757C111.688 39.1757 112.239 39.5338 112.542 40.1951C112.762 40.691 112.9 41.5175 112.9 43.5012C112.9 52.4552 106.563 58.4889 97.6921 58.4889C96.0115 58.4889 94.3309 58.296 92.7329 57.745C91.8237 57.4419 90.9421 56.8358 90.9421 55.7889C90.9421 54.8797 91.7411 54.0807 92.6503 54.0807C92.9533 54.0807 93.2839 54.1634 93.587 54.2736C94.9646 54.7144 96.3421 54.9899 97.8023 54.9899C104.662 54.9899 109.319 50.4165 109.319 43.5563C109.319 43.0328 109.291 42.5369 109.236 41.9583C109.208 41.5726 109.181 41.1042 109.181 40.9389Z" fill="white"/>
<path d="M97.4607 76.8509V89.7999C97.4607 92.9682 96.4413 93.106 93.4934 93.106H93.0801C91.8403 93.106 90.7107 93.0233 90.7107 91.2601C90.7107 90.1029 91.2893 89.6897 92.4189 89.6897H93.2179C94.072 89.6897 94.2373 89.3866 94.2373 88.5876V76.8509C94.2373 75.6938 94.8158 75.3632 95.9179 75.3632C96.9648 75.3632 97.4332 75.804 97.4607 76.8509ZM85.4485 79.1928V82.6091H86.8536C87.9281 82.6091 88.3965 83.1877 88.3965 84.207C88.3965 85.1713 87.8179 85.7223 86.8536 85.7223H85.4485V86.1907C86.1373 87.4305 86.9638 88.5876 87.9006 89.6621C88.6995 90.5437 89.0301 91.0121 89.0301 91.6182C89.0301 92.3346 88.4516 93.1335 87.6526 93.1335C86.8812 93.1335 86.1924 92.059 85.4485 90.654V99.856C85.4485 100.986 85.0077 101.537 83.8506 101.537C82.7761 101.537 82.3628 100.848 82.3628 99.856V92.6927C81.9771 93.5743 81.5363 94.456 81.0128 95.2825C80.6547 95.8335 80.2414 96.4947 79.4975 96.4947C78.5608 96.4947 77.8169 95.6407 77.8169 94.7315C77.8169 94.0703 78.1475 93.6019 78.5332 93.106C80.2414 90.7917 81.4261 88.4499 82.3077 85.7223H79.773C78.6434 85.7223 78.0924 85.254 78.0924 84.0968C78.0924 82.9948 78.7536 82.6091 79.773 82.6091H82.3628V79.6887C81.6189 79.7989 80.5445 79.9366 79.8006 79.9366C78.8087 79.9366 78.2853 79.303 78.2853 78.3387C78.2853 77.154 78.8087 76.9336 79.7455 76.8509C82.0598 76.6305 83.6577 76.4377 85.972 75.8316C86.1648 75.7765 86.5781 75.6938 86.8536 75.6938C87.7628 75.6938 88.2587 76.4928 88.2587 77.3193C88.2587 78.6142 87.3495 78.8071 85.4485 79.1928ZM100.491 78.4213C101.566 78.4213 101.841 79.1377 102.199 80.8458C102.42 81.9203 103.054 83.8764 103.522 84.8407C104.018 85.8601 104.211 86.3009 104.211 86.7142C104.211 87.6509 103.246 88.2019 102.392 88.2019C102.034 88.2019 101.704 88.0917 101.456 87.8438C100.905 87.2927 100.409 85.8876 100.161 85.1438C99.8025 84.0693 98.8383 80.7632 98.8383 79.7438C98.8383 78.8071 99.6923 78.4213 100.491 78.4213ZM91.0689 78.5591C91.923 78.5591 92.6944 78.8897 92.6944 79.854C92.6944 81.1764 91.7852 84.8683 91.372 86.2183C90.8485 87.954 90.4352 89.1662 89.3883 89.1662C88.5067 89.1662 87.4597 88.5325 87.4597 87.5682C87.4597 87.3754 87.5148 87.0723 87.8179 86.4111C88.5893 84.5927 89.1128 82.8846 89.4434 80.9285C89.774 78.9999 89.9944 78.5591 91.0689 78.5591ZM101.18 88.6978C101.952 88.6978 103.026 89.2213 103.026 90.2131C103.026 90.6815 102.695 91.3978 102.255 92.2244C101.373 93.7948 100.326 95.3376 99.0862 96.6325C96.8546 98.9468 94.7332 100.021 91.7026 100.903C90.7934 101.151 89.774 101.399 89.3056 101.399C88.2587 101.399 87.7077 100.49 87.7077 99.5253C87.7077 98.6437 88.2863 98.3407 89.0301 98.1478C91.2067 97.5692 93.025 97.156 94.9536 95.8886C96.7719 94.6488 98.2321 92.9407 99.2515 90.9846C100.023 89.3591 100.436 88.6978 101.18 88.6978Z" fill="white"/>
<path d="M34.8886 77.5246H29.2276C27.9081 77.5246 27.1419 76.4605 27.1419 75.2262C27.1419 73.3533 28.3763 73.1405 30.6748 72.7574C33.2712 72.3318 34.9738 70.5867 35.7825 68.1179C36.1656 66.9261 36.5912 65.9472 38.3789 65.9472C39.5281 65.9472 40.8476 66.6282 40.8476 67.9051V99.3175C40.8476 101.403 39.7409 102.169 37.783 102.169C35.9102 102.169 34.8886 101.233 34.8886 99.3175V77.5246ZM60.1668 65.9472C63.274 65.9472 66.594 67.3092 68.4242 69.9056C71.1058 73.6939 71.7442 79.4826 71.7442 84.037C71.7442 88.5488 71.1058 94.4652 68.4242 98.2109C66.5514 100.765 63.274 102.169 60.1668 102.169C57.017 102.169 53.7821 100.765 51.9093 98.2109C49.2278 94.5078 48.5467 88.5062 48.5467 84.037C48.5467 79.4826 49.1852 73.6939 51.9093 69.9056C53.7396 67.3092 57.0596 65.9472 60.1668 65.9472ZM60.1668 70.9698C54.5909 70.9698 54.5483 80.1636 54.5483 84.037C54.5483 87.9103 54.6334 97.1042 60.1668 97.1042C65.7001 97.1042 65.7853 87.9103 65.7853 84.037C65.7853 80.1636 65.7001 70.9698 60.1668 70.9698Z" fill="#F7DF7F"/>
</svg>
