<svg width="218" height="60" viewBox="0 0 218 60" fill="none" xmlns="http://www.w3.org/2000/svg">
<g filter="url(#filter0_d_94_88)">
<mask id="path-1-inside-1_94_88" fill="white">
<path fill-rule="evenodd" clip-rule="evenodd" d="M14.119 1C8.53045 1 4 5.53045 4 11.119V31.881C4 37.4695 8.53045 42 14.119 42H102.193L109.087 52.7336L115.982 42H203.881C209.47 42 214 37.4695 214 31.881V11.119C214 5.53045 209.47 1 203.881 1H14.119Z"/>
</mask>
<path fill-rule="evenodd" clip-rule="evenodd" d="M14.119 1C8.53045 1 4 5.53045 4 11.119V31.881C4 37.4695 8.53045 42 14.119 42H102.193L109.087 52.7336L115.982 42H203.881C209.47 42 214 37.4695 214 31.881V11.119C214 5.53045 209.47 1 203.881 1H14.119Z" fill="white"/>
<path d="M102.193 42L104.625 40.4375L103.772 39.1088H102.193V42ZM109.087 52.7336L106.655 54.2961L109.087 58.0832L111.52 54.2961L109.087 52.7336ZM115.982 42V39.1088H114.403L113.549 40.4375L115.982 42ZM6.89116 11.119C6.89116 7.12719 10.1272 3.89116 14.119 3.89116V-1.89116C6.93371 -1.89116 1.10884 3.93371 1.10884 11.119H6.89116ZM6.89116 31.881V11.119H1.10884V31.881H6.89116ZM14.119 39.1088C10.1272 39.1088 6.89116 35.8728 6.89116 31.881H1.10884C1.10884 39.0663 6.93371 44.8912 14.119 44.8912V39.1088ZM102.193 39.1088H14.119V44.8912H102.193V39.1088ZM111.52 51.1711L104.625 40.4375L99.7602 43.5625L106.655 54.2961L111.52 51.1711ZM113.549 40.4375L106.655 51.1711L111.52 54.2961L118.414 43.5625L113.549 40.4375ZM203.881 39.1088H115.982V44.8912H203.881V39.1088ZM211.109 31.881C211.109 35.8728 207.873 39.1088 203.881 39.1088V44.8912C211.066 44.8912 216.891 39.0663 216.891 31.881H211.109ZM211.109 11.119V31.881H216.891V11.119H211.109ZM203.881 3.89116C207.873 3.89116 211.109 7.12719 211.109 11.119H216.891C216.891 3.93371 211.066 -1.89116 203.881 -1.89116V3.89116ZM14.119 3.89116H203.881V-1.89116H14.119V3.89116Z" fill="#005EA4" mask="url(#path-1-inside-1_94_88)"/>
</g>
<path d="M74.4 16.34H76.6V15.32C76.6 14.12 77.2 13.84 78.3 13.84C79.32 13.84 79.74 14.34 79.74 15.32V16.34H84.82C85.78 16.34 86.28 16.74 86.28 17.74C86.28 18.7 85.7 19.06 84.82 19.06H79.74V21.08H86.04C87.04 21.08 87.48 21.48 87.48 22.5C87.48 23.44 86.9 23.78 86.04 23.78H69.96C68.98 23.78 68.5 23.38 68.5 22.38C68.5 21.42 69.1 21.08 69.96 21.08H76.6V19.06H72.9C72.18 20.14 71.74 20.82 70.9 20.82C70.08 20.82 69.08 20.2 69.08 19.32C69.08 18.68 69.76 17.98 70.22 17.4C70.82 16.64 71.22 15.9 71.62 15.02C71.92 14.4 72.14 14.04 72.88 14.04C73.68 14.04 74.66 14.38 74.66 15.32C74.66 15.7 74.54 16 74.4 16.34ZM85.64 27.24V30.06C85.64 31.8 84.94 32.5 83.22 32.5H72.8C71.06 32.5 70.36 31.8 70.36 30.06V27.24C70.36 25.5 71.06 24.8 72.8 24.8H83.22C84.94 24.8 85.64 25.5 85.64 27.24ZM82 27.42H74.02C73.64 27.42 73.46 27.62 73.46 27.98V29.28C73.46 29.66 73.64 29.84 74.02 29.84H82C82.36 29.84 82.54 29.66 82.54 29.28V27.98C82.54 27.6 82.36 27.42 82 27.42ZM97.12 24.8C97.76 26.38 98.68 27.64 99.82 28.92C100.14 29.28 100.34 29.56 100.34 30.08C100.34 30.9 99.56 31.54 98.76 31.54C98.1 31.54 97.74 31.06 97.38 30.56C96.88 29.84 96.44 28.94 96.06 28.14C95.36 29.76 94.44 31.1 93.12 32.32C92.8 32.62 92.48 32.88 92 32.88C91.22 32.88 90.32 32.04 90.32 31.26C90.32 30.84 90.48 30.56 91.12 29.94C92.8 28.4 93.6 27 94.1 24.8H91.48C90.38 24.8 90.02 24.32 90.02 23.26C90.02 22.28 90.56 21.9 91.48 21.9H94.42V19.06H93.78C93.32 19.96 92.66 21.2 91.74 21.2C91 21.2 90.1 20.58 90.1 19.78C90.1 19.36 90.34 19 90.56 18.66C91.48 17.28 91.92 16.34 92.5 14.82C92.74 14.16 92.96 13.8 93.72 13.8C94.42 13.8 95.38 14.18 95.38 14.98C95.38 15.32 95.2 15.86 95.08 16.2H98.62C99.72 16.2 100.08 16.66 100.08 17.72C100.08 18.7 99.54 19.06 98.62 19.06H97.36V21.9H99.04C99.66 21.9 100.22 22.04 100.42 22.7V17.26C100.42 15.54 101.12 14.84 102.86 14.84H106.14C107.88 14.84 108.58 15.54 108.58 17.26V30.04C108.58 31.78 107.88 32.48 106.14 32.48H102.86C101.12 32.48 100.42 31.78 100.42 30.04V24C100.22 24.66 99.66 24.8 99.04 24.8H97.12ZM105.1 17.76H103.84C103.46 17.76 103.28 17.96 103.28 18.32V28.94C103.28 29.3 103.46 29.5 103.84 29.5H105.1C105.46 29.5 105.66 29.3 105.66 28.94V18.32C105.66 17.94 105.46 17.76 105.1 17.76ZM122.56 17.96C122.7 17.68 122.78 17.4 122.86 17.1H119.92C118.96 17.1 118.64 16.66 118.64 15.74C118.64 14.86 119.08 14.5 119.92 14.5H129.36C130.32 14.5 130.66 14.92 130.66 15.84C130.66 16.72 130.22 17.1 129.36 17.1H125.9C125.8 17.38 125.7 17.68 125.58 17.96H127.34C129.44 17.96 129.88 18.32 129.88 20.44V26.24C129.88 28.36 129.44 28.72 127.34 28.72H121.74C119.64 28.72 119.2 28.36 119.2 26.24V20.44C119.2 18.32 119.66 17.96 121.74 17.96H122.56ZM116.46 26.3C116.8 26.2 117.16 26.1 117.5 26.1C118.38 26.1 118.76 26.92 118.76 27.68C118.76 28.64 118.16 28.84 117 29.22C116.16 29.5 113.36 30.4 112.88 30.4C112.06 30.4 111.62 29.4 111.62 28.7C111.62 27.46 112.44 27.42 113.5 27.12V17.82H113.08C112 17.82 111.66 17.28 111.66 16.26C111.66 15.28 112.2 14.9 113.12 14.9H117.08C118.12 14.9 118.46 15.42 118.46 16.42C118.46 17.34 118.06 17.82 117.12 17.82H116.46V26.3ZM122.1 21H126.88V20.5C126.88 20.24 126.74 20.12 126.5 20.12H122.48C122.24 20.12 122.1 20.24 122.1 20.5V21ZM126.88 22.78H122.1V23.66H126.88V22.78ZM122.1 25.52V26.14C122.1 26.38 122.24 26.52 122.48 26.52H126.5C126.74 26.52 126.88 26.38 126.88 26.14V25.52H122.1ZM122.38 28.74C123.08 28.74 123.68 29.46 123.68 30.14C123.68 30.86 122.82 31.28 121.62 31.88C121.02 32.2 119.7 32.82 119.02 32.82C118.16 32.82 117.64 32.1 117.64 31.32C117.64 30.46 118.3 30.28 119.16 30.02C119.56 29.9 120.46 29.54 120.96 29.26C121.62 28.9 121.96 28.74 122.38 28.74ZM124.94 30.2C124.94 29.54 125.44 28.76 126.36 28.76C126.8 28.76 127.2 28.98 127.72 29.26C128.26 29.52 128.82 29.76 129.4 29.98C130.04 30.2 130.68 30.44 130.68 31.24C130.68 31.98 130.16 32.84 129.3 32.84C128.7 32.84 127.44 32.26 126.9 31.96C125.62 31.3 124.94 30.96 124.94 30.2ZM150.6 17.2V29.64C150.6 31.54 149.82 32.32 147.94 32.32H137.66C135.76 32.32 135 31.54 135 29.64V17.2C135 15.3 135.78 14.54 137.66 14.54H147.94C149.82 14.54 150.6 15.3 150.6 17.2ZM138.1 19.54H147.5V17.86C147.5 17.54 147.28 17.3 146.94 17.3H138.66C138.32 17.3 138.1 17.54 138.1 17.86V19.54ZM138.1 22.14V24.46H147.5V22.14H138.1ZM138.1 27.06V28.98C138.1 29.3 138.32 29.54 138.66 29.54H146.94C147.28 29.54 147.5 29.3 147.5 28.98V27.06H138.1Z" fill="#005EA4"/>
<defs>
<filter id="filter0_d_94_88" x="0" y="0" width="218" height="59.7334" filterUnits="userSpaceOnUse" color-interpolation-filters="sRGB">
<feFlood flood-opacity="0" result="BackgroundImageFix"/>
<feColorMatrix in="SourceAlpha" type="matrix" values="0 0 0 0 0 0 0 0 0 0 0 0 0 0 0 0 0 0 127 0" result="hardAlpha"/>
<feOffset dy="3"/>
<feGaussianBlur stdDeviation="2"/>
<feComposite in2="hardAlpha" operator="out"/>
<feColorMatrix type="matrix" values="0 0 0 0 0 0 0 0 0 0 0 0 0 0 0 0 0 0 0.25 0"/>
<feBlend mode="normal" in2="BackgroundImageFix" result="effect1_dropShadow_94_88"/>
<feBlend mode="normal" in="SourceGraphic" in2="effect1_dropShadow_94_88" result="shape"/>
</filter>
</defs>
</svg>
