<svg viewBox="0 0 153 13" fill="none" xmlns="http://www.w3.org/2000/svg">
<path d="M8.55731 1.59925C7.75191 2.01313 3.91511 4.02662 3.91511 4.02662C2.91955 4.56355 2.0023 4.65304 1.24165 4.65304H0V6.91261H1.63316C2.27076 6.91261 3.32225 6.9238 4.36255 6.37568L5.73843 5.65978V12.9083H7.98682V4.45169L9.23966 3.79171C10.2352 3.25478 10.8281 3.26597 11.6782 3.26597H12.9199V1.01758H11.1077C10.4701 1.01758 9.53049 1.08469 8.54612 1.58807" fill="#B60081"/>
<path d="M25.0011 0.279297H22.5737V2.44939H14.2178V4.70896H19.766C19.5871 5.86112 18.7034 9.07151 14.2513 10.5928V12.8971C14.2513 12.8971 20.6609 12.1029 22.0032 4.72015H22.5625V12.8636H24.9899V4.72015H27.2159V2.46057H24.9899" fill="#B60081"/>
<path d="M35.9298 0.828125H28.8267V3.0877H35.9298V0.828125Z" fill="#B60081"/>
<path d="M38.8604 2.4502C38.8604 2.4502 39.498 11.4661 28.793 10.6384V12.9427C28.793 12.9427 41.3996 14.4192 41.2542 2.4502" fill="#B60081"/>
<path d="M56.0087 10.7278C58.9171 10.2356 60.3153 8.27802 60.1923 4.25105H62.2729C62.4071 4.86628 62.3512 5.79472 62.2281 6.73435C64.4094 6.56656 65.9643 5.15712 66.2439 2.95347H55.6172V0.705078H68.6936C68.6936 6.2869 65.9978 8.56885 61.5458 8.99392C60.7068 11.041 58.7605 12.5511 55.9975 12.8867" fill="#B60081"/>
<path d="M83.6718 10.7278C86.5802 10.2356 87.9784 8.27802 87.8554 4.25105H89.936C90.0702 4.86628 90.0143 5.79472 89.8912 6.73435C92.0725 6.56656 93.6385 5.15712 93.907 2.95347H83.2803V0.705078H96.3567C96.3567 6.2869 93.6609 8.56885 89.2089 8.99392C88.3699 11.041 86.4236 12.5511 83.6606 12.8867" fill="#B60081"/>
<path d="M72.586 7.69643H70.2705V0.559747H72.586M79.1746 0.492631H81.4901V3.50167C81.4901 9.75466 78.8949 12.361 71.4115 12.6966V10.4818C77.4072 10.1685 79.1746 8.28929 79.1746 3.49049V0.481445V0.492631Z" fill="#B60081"/>
<path d="M105.104 0.369141H98.0005V2.62872H105.104V0.369141Z" fill="#B60081"/>
<path d="M108.035 1.99121C108.035 1.99121 108.672 11.0071 97.9673 10.1794V12.4837C97.9673 12.4837 110.574 13.9603 110.429 1.99121" fill="#B60081"/>
<path d="M123.919 0.604492C123.572 8.66962 120.652 11.8576 112.699 12.4169V10.2357C119.5 9.66517 121.279 7.13713 121.592 0.615678" fill="#B60081"/>
<path d="M114.511 6.26462H112.118L111.469 0.604492H113.829" fill="#B60081"/>
<path d="M118.885 6.26462H116.48L115.842 0.604492H118.191" fill="#B60081"/>
<path d="M50.348 6.77849C50.348 7.84116 49.4867 8.70248 48.424 8.70248C47.3613 8.70248 46.5 7.85235 46.5 6.77849C46.5 5.70463 47.3837 4.85449 48.424 4.85449C49.4643 4.85449 50.348 5.70463 50.348 6.77849Z" fill="#B60081"/>
<path d="M126.668 6.20824L125.191 4.84355C125.717 4.22832 126.735 3.02023 127.429 0.11186L129.487 0.380325C129.353 0.917254 129.207 1.55486 128.961 2.28195H130.673V0H132.776V2.27076H137.418V4.19476H132.776V6.19706H137.049V8.09868H132.776V10.3583H137.966V12.2823H125.359V10.3583H130.673V8.09868H126.31V6.19706H126.657L126.668 6.20824ZM130.684 6.20824V4.20595H128.189C127.664 5.2798 127.205 5.82792 126.847 6.20824H130.673H130.684Z" fill="#B60081"/>
<path d="M142.317 3.89274C141.299 4.45204 140.483 4.76525 139.856 4.98897L138.883 2.99785C142.385 1.91281 143.581 0.939626 144.376 0H146.669C147.978 1.33114 149.096 2.02467 152.105 3.02023L151.065 5.02252C150.64 4.86592 149.902 4.58627 148.66 3.90392V4.7988H142.329V3.89274H142.317ZM144.968 5.46997V11.4657H141.803V12.1257H139.912V5.48115H144.968V5.46997ZM141.803 9.65354H143.112V7.22617H141.803V9.65354ZM147.284 3.06497C146.3 2.39381 145.807 1.89044 145.494 1.55486C145.092 1.95755 144.678 2.36025 143.671 3.06497H147.284ZM150.975 5.46997V10.3471C150.975 11.1189 150.617 11.667 149.767 11.667H148.313L147.888 9.74303H148.716C148.94 9.74303 149.119 9.66473 149.119 9.42982V7.23736H147.631V12.6961H145.763V5.45878H150.975V5.46997Z" fill="#B60081"/>
</svg>
