<svg width="34" height="43" viewBox="0 0 34 43" fill="none" xmlns="http://www.w3.org/2000/svg">
<path d="M3.6914 1.94079C0.759854 3.84204 0.183963 9.78504 1.29075 14.6287C2.15271 18.4008 3.9853 23.4606 7.0755 28.2252C9.98254 32.7076 14.0383 36.7267 17.1308 39.0521C21.1021 42.038 26.7632 43.9359 29.6948 42.0347C31.1771 41.0733 33.3795 38.4466 33.4799 37.9753C33.4799 37.9753 32.1885 35.9841 31.9051 35.5471L27.5743 28.8695C27.2525 28.3732 25.2342 28.8268 24.2089 29.4075C22.8259 30.1912 21.5522 32.2937 21.5522 32.2937C20.6039 32.8416 19.8096 32.2957 18.15 31.5319C16.1104 30.5935 13.8171 27.6776 11.992 25.0366C10.3249 22.2932 8.59777 19.0101 8.57277 16.765C8.55219 14.9382 8.37769 13.9904 9.26474 13.348C9.26474 13.348 11.704 13.0425 12.9835 12.0994C13.9319 11.4001 15.1691 9.74229 14.8473 9.24598L10.5164 2.56843C10.233 2.13145 8.94159 0.140202 8.94159 0.140202C8.47019 0.0397898 5.17375 0.979416 3.6914 1.94079Z" fill="#005EA4"/>
</svg>
