<svg width="222" height="60" viewBox="0 0 222 60" fill="none" xmlns="http://www.w3.org/2000/svg">
<g filter="url(#filter0_d_94_248)">
<mask id="path-1-inside-1_94_248" fill="white">
<path fill-rule="evenodd" clip-rule="evenodd" d="M16.119 0C10.5305 0 6 4.53046 6 10.1191V26.4613C6 32.0499 10.5305 36.5804 16.1191 36.5804H104.245L111.087 47.6868L117.929 36.5804H205.49C211.078 36.5804 215.609 32.0499 215.609 26.4613V10.119C215.609 4.53045 211.078 0 205.49 0H16.119Z"/>
</mask>
<path fill-rule="evenodd" clip-rule="evenodd" d="M16.119 0C10.5305 0 6 4.53046 6 10.1191V26.4613C6 32.0499 10.5305 36.5804 16.1191 36.5804H104.245L111.087 47.6868L117.929 36.5804H205.49C211.078 36.5804 215.609 32.0499 215.609 26.4613V10.119C215.609 4.53045 211.078 0 205.49 0H16.119Z" fill="white"/>
<path d="M104.245 36.5804L106.707 35.064L105.86 33.6892H104.245V36.5804ZM111.087 47.6868L108.626 49.2032L111.087 53.1991L113.549 49.2032L111.087 47.6868ZM117.929 36.5804V33.6892H116.314L115.468 35.064L117.929 36.5804ZM8.89116 10.1191C8.89116 6.1272 12.1272 2.89116 16.119 2.89116V-2.89116C8.93371 -2.89116 3.10884 2.93372 3.10884 10.1191H8.89116ZM8.89116 26.4613V10.1191H3.10884V26.4613H8.89116ZM16.1191 33.6892C12.1272 33.6892 8.89116 30.4532 8.89116 26.4613H3.10884C3.10884 33.6466 8.93372 39.4715 16.1191 39.4715V33.6892ZM104.245 33.6892H16.1191V39.4715H104.245V33.6892ZM113.549 46.1704L106.707 35.064L101.784 38.0967L108.626 49.2032L113.549 46.1704ZM115.468 35.064L108.626 46.1704L113.549 49.2032L120.391 38.0967L115.468 35.064ZM205.49 33.6892H117.929V39.4715H205.49V33.6892ZM212.718 26.4613C212.718 30.4532 209.482 33.6892 205.49 33.6892V39.4715C212.675 39.4715 218.5 33.6466 218.5 26.4613H212.718ZM212.718 10.119V26.4613H218.5V10.119H212.718ZM205.49 2.89116C209.482 2.89116 212.718 6.12719 212.718 10.119H218.5C218.5 2.93371 212.675 -2.89116 205.49 -2.89116V2.89116ZM16.119 2.89116H205.49V-2.89116H16.119V2.89116Z" fill="#005EA4" mask="url(#path-1-inside-1_94_248)"/>
</g>
<path d="M90 13.1961C90 14.4921 88.92 15.5721 87.624 15.5721C86.328 15.5721 85.248 14.4741 85.248 13.1961C85.248 11.9001 86.328 10.8201 87.624 10.8201C88.92 10.8201 90 11.9001 90 13.1961ZM88.686 13.1961C88.686 12.6201 88.2 12.1341 87.624 12.1341C87.048 12.1341 86.562 12.6201 86.562 13.1961C86.562 13.7721 87.048 14.2581 87.624 14.2581C88.2 14.2581 88.686 13.7721 88.686 13.1961ZM88.29 16.2741C88.056 22.1421 86.922 27.3081 79.884 27.3081C78.12 27.3081 76.5 26.9661 74.934 26.1021C74.358 25.7961 73.8 25.3281 73.8 24.6261C73.8 23.9061 74.43 23.2761 75.15 23.2761C75.51 23.2761 75.834 23.4381 76.14 23.6001C77.292 24.1941 78.57 24.5541 79.884 24.5541C82.17 24.5541 83.844 23.8341 84.708 21.6021C85.41 19.8021 85.41 17.7501 85.428 15.8421H74.898C74.16 15.8421 73.548 15.2121 73.548 14.4741C73.548 13.7361 74.16 13.1241 74.898 13.1241H84.474V13.2141C84.474 14.9061 85.932 16.3461 87.624 16.3461C87.84 16.3461 88.074 16.3101 88.29 16.2741ZM105.75 15.3201H95.112C94.392 15.3201 93.78 14.8341 93.78 14.0061C93.78 13.2861 94.392 12.6741 95.112 12.6741H105.75C106.47 12.6741 107.082 13.2861 107.082 14.0061C107.082 14.7981 106.506 15.3201 105.75 15.3201ZM105.084 19.9281H94.176C93.474 19.9281 92.862 19.4961 92.862 18.6141C92.862 17.9121 93.456 17.3181 94.158 17.3181H106.452C106.884 17.3181 107.334 17.4441 107.604 17.7861C107.856 18.1101 107.874 18.5421 107.874 18.9381C107.874 20.7021 107.694 22.5741 106.776 24.1221C105.318 26.5701 102.636 27.3261 99.954 27.3261C98.046 27.3261 96.066 26.9661 94.392 25.9941C93.87 25.7061 93.402 25.2741 93.402 24.6261C93.402 23.8881 94.014 23.2581 94.77 23.2581C95.076 23.2581 95.346 23.3841 95.616 23.5281C97.038 24.2661 98.352 24.5721 99.972 24.5721C103.23 24.5721 105.048 23.3661 105.084 19.9281ZM114.426 12.6921L119.88 13.4661C120.564 13.5561 121.068 14.2041 121.068 14.8701C121.068 15.6621 120.348 16.4001 119.52 16.2921L114.03 15.5181C113.31 15.4281 112.752 14.8521 112.752 14.0961C112.752 13.3761 113.382 12.6921 114.192 12.6741C114.246 12.6741 114.318 12.6741 114.426 12.6921ZM117.306 24.5181C119.826 24.5181 122.22 23.5641 123.534 21.3141C124.218 20.1261 124.452 18.7041 124.452 17.3361C124.452 17.0661 124.434 16.7781 124.416 16.4901C124.398 16.2921 124.38 16.0761 124.38 15.8781C124.38 15.0861 125.046 14.4921 125.802 14.4921C127.242 14.4921 127.296 16.1481 127.296 17.1921C127.296 18.3081 127.206 19.3881 126.918 20.4501C126.504 21.9981 125.712 23.4201 124.56 24.5541C122.562 26.5341 119.898 27.3261 117.126 27.3261C115.848 27.3261 112.734 27.1641 112.734 25.3641C112.734 24.6621 113.328 23.9961 114.048 23.9961C114.372 23.9961 114.624 24.0681 115.146 24.2301C115.848 24.4461 116.568 24.5181 117.306 24.5181ZM147.348 12.2601V25.8321C147.348 27.9561 146.322 27.9921 144 27.9921C142.56 27.9921 141.912 27.7041 141.912 26.4981C141.912 25.4001 142.488 25.1301 143.37 25.1301C143.604 25.1301 143.892 25.1301 144.198 25.1301C144.738 25.1301 144.918 25.0941 144.918 24.5001V12.2601C144.918 11.3781 145.26 10.9641 146.178 10.9641C147.06 10.9641 147.33 11.4681 147.348 12.2601ZM138.654 14.0241C138.6 14.5461 138.546 15.0501 138.474 15.5541H139.572C140.526 15.5541 141.48 15.5901 141.48 17.1561C141.48 18.6321 140.94 21.3501 140.454 22.7541C139.824 24.5181 138.744 26.3361 137.286 27.5241C136.962 27.7761 136.548 28.0281 136.134 28.0281C135.378 28.0281 134.766 27.3621 134.766 26.6241C134.766 26.1201 135.018 25.9041 135.396 25.5981C136.44 24.7701 137.34 23.7621 137.952 22.5741C137.52 22.1421 137.088 21.7281 136.62 21.3141C136.404 21.6201 136.134 21.9261 135.72 21.9261C135.126 21.9261 134.604 21.3861 134.478 20.8281V27.0021C134.478 27.7761 134.1 28.1361 133.326 28.1361C132.534 28.1361 132.174 27.7761 132.174 27.0021V20.5941C132.03 20.6841 131.922 20.7201 131.76 20.7201C131.022 20.7201 130.518 19.8021 130.518 19.0281C130.518 18.7581 130.59 18.4701 130.716 18.2181C131.184 17.3181 131.346 16.9941 131.58 16.5621C131.922 15.9141 132.12 15.3381 132.462 14.1861C132.606 13.7001 132.84 12.7281 132.984 11.9901C133.128 11.2881 133.362 10.9821 134.046 10.9821C134.658 10.9821 135.288 11.2521 135.288 11.9541V12.0621C135.522 11.5941 135.954 11.5221 136.44 11.5221H140.508C141.408 11.5221 141.822 11.9001 141.822 12.8001C141.822 13.6821 141.354 14.0241 140.508 14.0241H138.654ZM144.036 13.4301V22.9521C144.036 23.7621 143.676 24.0861 142.884 24.0861C142.128 24.0861 141.822 23.6901 141.822 22.9521V13.4301C141.822 12.6561 142.164 12.2781 142.956 12.2781C143.73 12.2781 144.036 12.7101 144.036 13.4301ZM136.278 14.0241C135.594 13.9701 135.252 13.7361 135.144 13.0341C134.982 14.0061 134.766 14.8881 134.478 15.8241V20.3061C134.532 20.0541 134.586 19.9101 134.82 19.4421C135.738 17.6061 136.152 16.0761 136.278 14.0241ZM137.988 17.9301C137.88 18.3801 137.736 18.8481 137.592 19.2261C138.06 19.5681 138.348 19.7841 138.798 20.1801C138.996 19.0821 139.068 18.5061 139.068 18.2181C139.068 18.0021 138.942 17.9301 138.744 17.9301H137.988Z" fill="#005EA4"/>
<defs>
<filter id="filter0_d_94_248" x="0.217687" y="0" width="221.174" height="59.2516" filterUnits="userSpaceOnUse" color-interpolation-filters="sRGB">
<feFlood flood-opacity="0" result="BackgroundImageFix"/>
<feColorMatrix in="SourceAlpha" type="matrix" values="0 0 0 0 0 0 0 0 0 0 0 0 0 0 0 0 0 0 127 0" result="hardAlpha"/>
<feOffset dy="5.78231"/>
<feGaussianBlur stdDeviation="2.89116"/>
<feComposite in2="hardAlpha" operator="out"/>
<feColorMatrix type="matrix" values="0 0 0 0 0 0 0 0 0 0 0 0 0 0 0 0 0 0 0.25 0"/>
<feBlend mode="normal" in2="BackgroundImageFix" result="effect1_dropShadow_94_248"/>
<feBlend mode="normal" in="SourceGraphic" in2="effect1_dropShadow_94_248" result="shape"/>
</filter>
</defs>
</svg>
