<svg width="247" height="51" viewBox="0 0 247 51" fill="none" xmlns="http://www.w3.org/2000/svg">
<mask id="path-1-inside-1_94_140" fill="white">
<path fill-rule="evenodd" clip-rule="evenodd" d="M10.119 0C4.53045 0 0 4.53045 0 10.119V28.9116C0 34.5002 4.53046 39.0306 10.1191 39.0306H115.771L123.833 50.881L131.896 39.0306H236.881C242.47 39.0306 247 34.5002 247 28.9116V10.119C247 4.53045 242.47 0 236.881 0H10.119Z"/>
</mask>
<path fill-rule="evenodd" clip-rule="evenodd" d="M10.119 0C4.53045 0 0 4.53045 0 10.119V28.9116C0 34.5002 4.53046 39.0306 10.1191 39.0306H115.771L123.833 50.881L131.896 39.0306H236.881C242.47 39.0306 247 34.5002 247 28.9116V10.119C247 4.53045 242.47 0 236.881 0H10.119Z" fill="white"/>
<path d="M115.771 39.0306L118.161 37.4043L117.301 36.1395H115.771V39.0306ZM123.833 50.881L121.443 52.5073L123.833 56.0208L126.224 52.5073L123.833 50.881ZM131.896 39.0306V36.1395H130.366L129.505 37.4043L131.896 39.0306ZM2.89116 10.119C2.89116 6.12719 6.12719 2.89116 10.119 2.89116V-2.89116C2.93371 -2.89116 -2.89116 2.9337 -2.89116 10.119H2.89116ZM2.89116 28.9116V10.119H-2.89116V28.9116H2.89116ZM10.1191 36.1395C6.1272 36.1395 2.89116 32.9034 2.89116 28.9116H-2.89116C-2.89116 36.0969 2.93372 41.9218 10.1191 41.9218V36.1395ZM115.771 36.1395H10.1191V41.9218H115.771V36.1395ZM126.224 49.2547L118.161 37.4043L113.381 40.6569L121.443 52.5073L126.224 49.2547ZM129.505 37.4043L121.443 49.2547L126.224 52.5073L134.286 40.6569L129.505 37.4043ZM236.881 36.1395H131.896V41.9218H236.881V36.1395ZM244.109 28.9116C244.109 32.9034 240.873 36.1395 236.881 36.1395V41.9218C244.066 41.9218 249.891 36.0969 249.891 28.9116H244.109ZM244.109 10.119V28.9116H249.891V10.119H244.109ZM236.881 2.89116C240.873 2.89116 244.109 6.1272 244.109 10.119H249.891C249.891 2.93371 244.066 -2.89116 236.881 -2.89116V2.89116ZM10.119 2.89116H236.881V-2.89116H10.119V2.89116Z" fill="#005EA4" mask="url(#path-1-inside-1_94_140)"/>
<path d="M66.276 20.08C67.572 20.998 68.274 22.15 68.274 23.77C68.274 25.012 67.878 26.2 66.996 27.1C65.934 28.162 64.584 28.396 63.126 28.396C61.56 28.396 60.048 28.036 59.058 26.74C58.518 26.056 58.086 25.102 58.086 24.22C58.086 23.32 58.698 22.942 59.544 22.942C60.984 22.942 60.984 23.788 61.074 24.382C61.128 24.76 61.416 25.21 61.704 25.444C62.1 25.75 62.694 25.858 63.162 25.858C63.954 25.858 64.602 25.57 64.998 24.886C65.196 24.544 65.232 24.112 65.232 23.716C65.232 22.33 64.548 21.556 63.126 21.556H62.856C62.064 21.556 61.65 21.196 61.65 20.386C61.65 19.576 62.082 19.252 62.856 19.252H63.108C64.35 19.252 64.782 18.37 64.782 17.254C64.782 16.156 64.188 15.472 63.072 15.472C61.956 15.472 61.398 15.994 61.236 17.092C61.182 17.398 61.164 18.244 59.814 18.244C58.986 18.244 58.392 17.866 58.392 16.984C58.392 16.192 58.788 15.274 59.256 14.644C60.192 13.384 61.614 12.934 63.126 12.934C65.718 12.934 67.806 14.392 67.806 17.146C67.806 18.37 67.32 19.414 66.276 20.08ZM90.324 21.25C90.324 23.698 89.28 25.93 87.102 27.208C85.644 28.072 83.97 28.414 82.278 28.414C81.612 28.414 80.622 28.324 80.046 28.234C79.128 28.09 78.282 27.874 77.472 27.424C77.004 27.154 76.644 26.686 76.644 26.128C76.644 25.444 77.238 24.796 77.94 24.796C78.246 24.796 78.552 24.886 78.84 24.994C79.956 25.408 81.126 25.642 82.332 25.642C85.122 25.642 87.48 24.346 87.48 21.268C87.48 18.37 85.14 17.722 82.71 17.722C80.82 17.722 78.948 17.884 77.094 18.172C76.914 18.208 76.716 18.226 76.536 18.226C75.78 18.226 75.168 17.578 75.168 16.822C75.168 16.462 75.294 16.102 75.564 15.85C76.032 15.382 77.868 15.238 78.552 15.184C79.92 15.058 81.288 14.95 82.656 14.95C86.868 14.95 90.324 16.498 90.324 21.25ZM103.068 16.372C103.41 16.588 103.698 16.984 103.698 17.416C103.698 17.974 103.5 19.234 103.338 20.224C103.158 21.286 102.942 22.348 102.708 23.41C102.42 24.598 102.15 25.858 101.556 26.956C100.926 28.09 99.882 28.504 98.622 28.504C97.578 28.504 96.66 28.09 95.904 27.388C94.446 26.056 93.87 24.112 93.87 22.186C93.87 17.254 97.2 13.726 102.168 13.726C105.21 13.726 108.324 15.058 109.656 17.956C110.124 18.982 110.304 20.152 110.304 21.268C110.304 23.932 109.296 26.65 106.902 28.054C106.11 28.504 105.12 28.864 104.184 28.864C103.392 28.864 102.708 28.252 102.708 27.46C102.708 26.812 103.194 26.254 103.788 26.092C105.678 25.606 107.46 24.76 107.46 21.196C107.46 18.424 105.804 16.696 103.068 16.372ZM101.664 16.336C98.424 16.66 96.588 18.982 96.588 22.186C96.588 23.392 97.002 25.822 98.586 25.822C98.802 25.822 99.018 25.75 99.18 25.606C99.576 25.246 99.918 23.554 100.044 22.996C100.404 21.322 100.746 19.63 100.944 17.938C101.016 17.326 101.106 16.696 101.664 16.336ZM130.392 14.77C130.392 16.066 129.312 17.146 128.016 17.146C126.738 17.146 125.64 16.066 125.64 14.77C125.64 13.474 126.738 12.394 128.016 12.394C129.312 12.394 130.392 13.474 130.392 14.77ZM122.814 15.742H125.046C125.46 17.02 126.666 17.92 128.016 17.92C128.322 17.92 128.628 17.866 128.934 17.794C128.682 18.118 128.286 18.334 127.872 18.334H122.778V27.82C122.778 28.54 122.166 29.134 121.446 29.134C120.744 29.134 120.114 28.54 120.114 27.82V18.334H115.038C114.336 18.334 113.742 17.758 113.742 17.038C113.742 16.336 114.336 15.742 115.038 15.742H120.096V14.698C120.096 13.96 120.708 13.348 121.446 13.348C122.184 13.348 122.814 13.96 122.814 14.698V15.742ZM129.078 14.77C129.078 14.194 128.592 13.708 128.016 13.708C127.44 13.708 126.954 14.194 126.954 14.77C126.954 15.346 127.458 15.832 128.016 15.832C128.592 15.832 129.078 15.346 129.078 14.77ZM126.234 19.864C126.81 19.864 127.44 20.368 127.476 20.8C127.494 21.124 127.512 21.646 127.512 22.078C127.512 23.518 127.926 24.922 128.988 25.93C129.33 26.254 129.672 26.632 129.672 27.136C129.672 27.838 129.06 28.414 128.376 28.414C127.728 28.414 127.152 27.892 126.738 27.442C125.928 26.56 125.388 25.426 125.1 24.274C124.92 23.5 124.884 22.726 124.884 21.952C124.884 21.178 124.92 20.854 125.118 20.512C125.334 20.116 125.802 19.864 126.234 19.864ZM115.38 22.096C115.38 21.556 115.38 21.142 115.434 20.8C115.524 20.224 116.1 19.864 116.658 19.864C117.234 19.864 117.738 20.26 117.918 20.8C117.99 21.052 118.026 21.25 118.026 22.114C118.026 23.572 117.72 24.976 117.018 26.254C116.55 27.118 115.56 28.414 114.48 28.414C113.814 28.414 113.22 27.802 113.22 27.136C113.22 26.632 113.58 26.254 113.922 25.93C114.966 24.922 115.38 23.518 115.38 22.096ZM140.04 20.908C138.654 21.25 137.232 21.412 135.81 21.412C134.73 21.412 133.02 21.286 133.02 19.846C133.02 19.09 133.614 18.388 134.388 18.388C134.532 18.388 134.658 18.406 134.802 18.424C135.306 18.478 135.81 18.514 136.314 18.514C139.716 18.514 143.406 16.804 145.368 14.356C145.782 13.852 146.088 13.618 146.646 13.618C147.402 13.618 148.104 14.248 148.104 15.022C148.104 15.76 147.114 16.912 146.124 17.758C145.17 18.586 144.162 19.27 142.974 19.828V27.748C142.974 28.558 142.308 29.224 141.516 29.224C140.706 29.224 140.04 28.558 140.04 27.748V20.908ZM154.926 14.32L160.38 15.094C161.064 15.184 161.568 15.832 161.568 16.498C161.568 17.29 160.848 18.028 160.02 17.92L154.53 17.146C153.81 17.056 153.252 16.48 153.252 15.724C153.252 15.004 153.882 14.32 154.692 14.302C154.746 14.302 154.818 14.302 154.926 14.32ZM157.806 26.146C160.326 26.146 162.72 25.192 164.034 22.942C164.718 21.754 164.952 20.332 164.952 18.964C164.952 18.694 164.934 18.406 164.916 18.118C164.898 17.92 164.88 17.704 164.88 17.506C164.88 16.714 165.546 16.12 166.302 16.12C167.742 16.12 167.796 17.776 167.796 18.82C167.796 19.936 167.706 21.016 167.418 22.078C167.004 23.626 166.212 25.048 165.06 26.182C163.062 28.162 160.398 28.954 157.626 28.954C156.348 28.954 153.234 28.792 153.234 26.992C153.234 26.29 153.828 25.624 154.548 25.624C154.872 25.624 155.124 25.696 155.646 25.858C156.348 26.074 157.068 26.146 157.806 26.146ZM177.624 21.664V27.802C177.624 28.576 176.976 29.224 176.184 29.224C175.41 29.224 174.762 28.576 174.762 27.802V14.86C174.762 14.068 175.41 13.42 176.202 13.42C176.976 13.42 177.624 14.068 177.624 14.842V18.676C179.388 19.432 181.278 19.792 183.186 19.792C183.888 19.792 184.59 19.738 185.256 19.594C185.832 19.486 185.976 19.468 186.174 19.468C186.912 19.468 187.488 20.152 187.488 20.872C187.488 21.322 187.29 21.736 186.912 21.988C186.138 22.492 184.176 22.564 183.24 22.564C181.332 22.564 179.424 22.33 177.624 21.664Z" fill="#005EA4"/>
</svg>
