<svg width="509" height="70" viewBox="0 0 509 70" fill="none" xmlns="http://www.w3.org/2000/svg">
<rect x="3.65249" y="3.11587" width="501.923" height="63.4615" rx="31.7308" fill="white" stroke="#005EA4" stroke-width="5.76923"/>
<path d="M217.387 24.8003H231.468V27.735H217.387V24.8003ZM216.499 35.1657H232.464V38.0734H216.499V35.1657ZM216.256 30.0773H232.652V33.0119H216.256V30.0773ZM222.933 21.8657H226.002V31.6119H222.933V21.8657ZM226.406 32.5273H229.476V43.6465C229.476 44.4362 229.386 45.0465 229.206 45.4773C229.027 45.926 228.677 46.276 228.156 46.5273C227.654 46.7606 227.035 46.9042 226.299 46.958C225.581 47.0119 224.737 47.0388 223.768 47.0388C223.714 46.5901 223.597 46.0696 223.418 45.4773C223.238 44.9029 223.05 44.4093 222.852 43.9965C223.463 44.0144 224.073 44.0324 224.683 44.0503C225.294 44.0503 225.688 44.0414 225.868 44.0234C226.083 44.0234 226.227 43.9965 226.299 43.9426C226.37 43.8709 226.406 43.7452 226.406 43.5657V32.5273ZM217.952 39.635L220.51 38.208C220.905 38.6567 221.3 39.1593 221.695 39.7157C222.09 40.2542 222.449 40.7926 222.772 41.3311C223.095 41.8516 223.355 42.3362 223.552 42.785L220.779 44.3734C220.636 43.9426 220.411 43.458 220.106 42.9196C219.801 42.3632 219.46 41.7978 219.083 41.2234C218.724 40.6491 218.347 40.1196 217.952 39.635ZM207.102 35.408C208.197 35.1567 209.508 34.8337 211.033 34.4388C212.577 34.0439 214.12 33.6311 215.664 33.2003L216.068 36.108C214.65 36.5209 213.214 36.9426 211.76 37.3734C210.324 37.7862 209.005 38.1632 207.802 38.5042L207.102 35.408ZM207.533 26.8465H215.852V29.808H207.533V26.8465ZM210.576 21.758H213.537V43.458C213.537 44.1939 213.456 44.7773 213.295 45.208C213.151 45.6567 212.873 46.0067 212.46 46.258C212.047 46.4914 211.536 46.6529 210.926 46.7426C210.333 46.8324 209.597 46.8683 208.718 46.8503C208.682 46.4555 208.583 45.9619 208.422 45.3696C208.26 44.7952 208.081 44.2926 207.883 43.8619C208.368 43.8798 208.817 43.8978 209.229 43.9157C209.66 43.9157 209.956 43.9067 210.118 43.8888C210.279 43.8888 210.396 43.8619 210.468 43.808C210.54 43.7362 210.576 43.6106 210.576 43.4311V21.758ZM242.426 29.2965H259.279V32.0157H242.426V29.2965ZM249.452 39.1234L251.337 37.508C251.84 37.9029 252.36 38.3426 252.899 38.8273C253.455 39.3119 253.985 39.7965 254.487 40.2811C255.008 40.7478 255.42 41.1606 255.726 41.5196L253.76 43.3503C253.455 42.9734 253.06 42.5337 252.576 42.0311C252.091 41.5285 251.57 41.026 251.014 40.5234C250.476 40.0209 249.955 39.5542 249.452 39.1234ZM242.991 33.9542H256.695V36.6734H245.899V47.0388H242.991V33.9542ZM255.456 33.9542H258.526V43.8888C258.526 44.5709 258.436 45.1183 258.256 45.5311C258.095 45.9439 257.781 46.267 257.314 46.5003C256.847 46.7337 256.291 46.8773 255.645 46.9311C255.017 47.0029 254.272 47.0298 253.41 47.0119C253.356 46.5991 253.222 46.1234 253.006 45.585C252.809 45.0465 252.602 44.5888 252.387 44.2119C252.926 44.2298 253.446 44.2478 253.949 44.2657C254.469 44.2657 254.81 44.2567 254.972 44.2388C255.151 44.2388 255.277 44.2119 255.349 44.158C255.42 44.0862 255.456 43.9785 255.456 43.835V33.9542ZM249.102 30.2119H251.902V35.0042C251.902 35.7401 251.831 36.4939 251.687 37.2657C251.561 38.0375 251.319 38.8003 250.96 39.5542C250.619 40.308 250.135 41.026 249.506 41.708C248.878 42.3721 248.07 42.9734 247.083 43.5119C246.904 43.2067 246.626 42.8478 246.249 42.435C245.89 42.0221 245.558 41.6901 245.252 41.4388C246.114 41.0619 246.796 40.6132 247.299 40.0926C247.819 39.5721 248.205 39.0247 248.456 38.4503C248.726 37.858 248.896 37.2657 248.968 36.6734C249.058 36.0811 249.102 35.5157 249.102 34.9773V30.2119ZM240.164 24.6388H259.441V27.5196H240.164V24.6388ZM238.414 24.6388H241.483V32.6888C241.483 33.7657 241.429 34.9414 241.322 36.2157C241.214 37.4901 241.008 38.7734 240.702 40.0657C240.397 41.3401 239.958 42.5696 239.383 43.7542C238.809 44.9388 238.055 45.9978 237.122 46.9311C236.978 46.7157 236.754 46.4644 236.449 46.1773C236.161 45.8901 235.865 45.6119 235.56 45.3426C235.273 45.0734 235.022 44.885 234.806 44.7773C235.632 43.9337 236.278 43.0093 236.745 42.0042C237.229 40.9991 237.588 39.967 237.822 38.908C238.073 37.8311 238.235 36.7632 238.306 35.7042C238.378 34.6273 238.414 33.6132 238.414 32.6619V24.6388ZM246.518 21.7311H249.91V26.5503H246.518V21.7311ZM234.241 27.9773L236.583 26.8465C237.032 27.6183 237.445 28.4709 237.822 29.4042C238.199 30.3196 238.45 31.1183 238.576 31.8003L236.072 33.1465C236 32.6798 235.865 32.1503 235.668 31.558C235.488 30.9657 235.273 30.3644 235.022 29.7542C234.788 29.126 234.528 28.5337 234.241 27.9773ZM234.026 37.185C234.672 36.9337 235.426 36.5926 236.287 36.1619C237.167 35.7311 238.073 35.2914 239.006 34.8426L239.76 37.3734C238.97 37.858 238.163 38.3426 237.337 38.8273C236.529 39.3119 235.74 39.7785 234.968 40.2273L234.026 37.185ZM272.633 23.535C272.561 23.876 272.481 24.2529 272.391 24.6657C272.301 25.0606 272.22 25.4285 272.149 25.7696C272.077 26.1644 271.987 26.6132 271.879 27.1157C271.772 27.6003 271.664 28.0939 271.556 28.5965C271.467 29.0811 271.368 29.5567 271.26 30.0234C271.081 30.7952 270.856 31.6926 270.587 32.7157C270.318 33.7388 270.004 34.8426 269.645 36.0273C269.286 37.1939 268.882 38.3696 268.433 39.5542C267.985 40.7388 267.509 41.8965 267.006 43.0273C266.504 44.1401 265.965 45.1452 265.391 46.0426L261.891 44.6426C262.519 43.7991 263.102 42.8567 263.641 41.8157C264.197 40.7567 264.7 39.6798 265.149 38.585C265.597 37.4721 265.992 36.3773 266.333 35.3003C266.692 34.2055 266.997 33.1914 267.249 32.258C267.518 31.3247 267.724 30.526 267.868 29.8619C268.119 28.6414 268.317 27.4657 268.46 26.335C268.604 25.2042 268.658 24.1362 268.622 23.1311L272.633 23.535ZM281.895 26.2542C282.326 26.8465 282.765 27.5734 283.214 28.435C283.681 29.2785 284.138 30.176 284.587 31.1273C285.036 32.0785 285.44 32.9939 285.799 33.8734C286.158 34.7529 286.436 35.5157 286.633 36.1619L283.214 37.7234C283.052 36.9696 282.81 36.135 282.487 35.2196C282.182 34.3042 281.823 33.3798 281.41 32.4465C280.997 31.4952 280.558 30.5978 280.091 29.7542C279.642 28.9106 279.176 28.2016 278.691 27.6273L281.895 26.2542ZM261.702 29.0542C262.187 29.0901 262.663 29.108 263.129 29.108C263.614 29.0901 264.099 29.0721 264.583 29.0542C265.032 29.0362 265.57 29.0093 266.199 28.9734C266.827 28.9196 267.491 28.8657 268.191 28.8119C268.909 28.758 269.627 28.7042 270.345 28.6503C271.063 28.5785 271.727 28.5247 272.337 28.4888C272.947 28.4529 273.45 28.435 273.845 28.435C274.814 28.435 275.658 28.5965 276.376 28.9196C277.094 29.2247 277.659 29.7542 278.072 30.508C278.502 31.2619 278.718 32.285 278.718 33.5773C278.718 34.6362 278.673 35.785 278.583 37.0234C278.494 38.2619 278.332 39.4465 278.099 40.5773C277.883 41.708 277.578 42.6683 277.183 43.458C276.752 44.3914 276.16 45.0375 275.406 45.3965C274.67 45.7555 273.791 45.935 272.768 45.935C272.265 45.935 271.718 45.8901 271.126 45.8003C270.533 45.7285 270.004 45.6478 269.537 45.558L268.972 42.0042C269.313 42.0939 269.69 42.1837 270.102 42.2734C270.533 42.3632 270.937 42.435 271.314 42.4888C271.709 42.5426 272.023 42.5696 272.256 42.5696C272.705 42.5696 273.1 42.4888 273.441 42.3273C273.782 42.1478 274.06 41.8426 274.276 41.4119C274.527 40.8914 274.733 40.2183 274.895 39.3926C275.056 38.567 275.173 37.6785 275.245 36.7273C275.335 35.758 275.379 34.8337 275.379 33.9542C275.379 33.2362 275.272 32.7067 275.056 32.3657C274.859 32.0247 274.563 31.8003 274.168 31.6926C273.791 31.567 273.324 31.5042 272.768 31.5042C272.355 31.5042 271.799 31.5401 271.099 31.6119C270.399 31.6657 269.645 31.7375 268.837 31.8273C268.047 31.8991 267.311 31.9798 266.629 32.0696C265.947 32.1593 265.418 32.2221 265.041 32.258C264.646 32.3298 264.144 32.4106 263.533 32.5003C262.941 32.5721 262.438 32.6439 262.026 32.7157L261.702 29.0542ZM281.41 22.5119C281.644 22.835 281.886 23.2208 282.137 23.6696C282.406 24.1183 282.667 24.567 282.918 25.0157C283.169 25.4644 283.385 25.8593 283.564 26.2003L281.383 27.1426C281.204 26.7657 280.997 26.3529 280.764 25.9042C280.531 25.4555 280.288 25.0067 280.037 24.558C279.786 24.1093 279.535 23.7234 279.283 23.4003L281.41 22.5119ZM284.614 21.3003C284.847 21.6414 285.099 22.0362 285.368 22.485C285.637 22.9337 285.897 23.3824 286.149 23.8311C286.418 24.2798 286.624 24.6567 286.768 24.9619L284.641 25.8773C284.354 25.3208 284.013 24.6926 283.618 23.9926C283.223 23.2747 282.837 22.6644 282.46 22.1619L284.614 21.3003ZM300.66 22.9426C300.588 23.1939 300.517 23.4452 300.445 23.6965C300.391 23.9298 300.337 24.1542 300.283 24.3696C300.122 25.2132 299.969 26.1824 299.826 27.2773C299.682 28.3542 299.565 29.485 299.476 30.6696C299.386 31.8362 299.341 32.985 299.341 34.1157C299.341 35.5157 299.413 36.808 299.556 37.9926C299.7 39.1593 299.897 40.2452 300.149 41.2503C300.418 42.2375 300.705 43.1798 301.01 44.0773L297.914 45.0196C297.645 44.2119 297.385 43.2516 297.133 42.1388C296.9 41.026 296.702 39.8324 296.541 38.558C296.379 37.2657 296.299 35.9644 296.299 34.6542C296.299 33.7567 296.326 32.8593 296.379 31.9619C296.451 31.0465 296.523 30.1491 296.595 29.2696C296.667 28.3721 296.747 27.5196 296.837 26.7119C296.945 25.8862 297.035 25.1414 297.106 24.4773C297.124 24.226 297.142 23.9567 297.16 23.6696C297.178 23.3644 297.178 23.0952 297.16 22.8619L300.66 22.9426ZM295.868 25.9311C297.573 25.9311 299.17 25.8952 300.66 25.8234C302.168 25.7516 303.613 25.626 304.995 25.4465C306.395 25.267 307.786 25.0067 309.168 24.6657L309.195 27.7888C308.261 27.9503 307.229 28.1029 306.099 28.2465C304.986 28.3721 303.819 28.4798 302.599 28.5696C301.396 28.6593 300.211 28.7311 299.045 28.785C297.878 28.8209 296.783 28.8388 295.76 28.8388C295.294 28.8388 294.764 28.8298 294.172 28.8119C293.597 28.7939 293.023 28.776 292.449 28.758C291.892 28.7221 291.408 28.6952 290.995 28.6773L290.914 25.5542C291.219 25.5901 291.659 25.6439 292.233 25.7157C292.808 25.7696 293.418 25.8234 294.064 25.8773C294.728 25.9132 295.329 25.9311 295.868 25.9311ZM307.472 29.8619C307.418 30.0234 307.337 30.2478 307.229 30.535C307.122 30.8221 307.014 31.1183 306.906 31.4234C306.817 31.7285 306.745 31.9709 306.691 32.1503C306.17 33.7657 305.533 35.2465 304.779 36.5926C304.044 37.9209 303.245 39.0875 302.383 40.0926C301.522 41.0798 300.669 41.8875 299.826 42.5157C298.946 43.1798 297.941 43.7632 296.81 44.2657C295.679 44.7503 294.54 44.9926 293.391 44.9926C292.745 44.9926 292.144 44.858 291.587 44.5888C291.031 44.3196 290.582 43.8978 290.241 43.3234C289.918 42.7311 289.756 41.9862 289.756 41.0888C289.756 40.1196 289.954 39.1683 290.349 38.235C290.744 37.3016 291.291 36.4132 291.991 35.5696C292.691 34.726 293.508 33.9811 294.441 33.335C295.374 32.6709 296.379 32.1503 297.456 31.7734C298.336 31.4503 299.296 31.1901 300.337 30.9926C301.396 30.7952 302.437 30.6965 303.46 30.6965C305.129 30.6965 306.619 31.0016 307.929 31.6119C309.258 32.2221 310.299 33.0567 311.052 34.1157C311.806 35.1747 312.183 36.4132 312.183 37.8311C312.183 38.7824 312.031 39.7157 311.726 40.6311C311.42 41.5285 310.918 42.3632 310.218 43.135C309.536 43.9067 308.629 44.5709 307.499 45.1273C306.368 45.6837 304.977 46.0875 303.326 46.3388L301.549 43.5119C303.272 43.3144 304.672 42.9285 305.749 42.3542C306.826 41.7619 307.606 41.0529 308.091 40.2273C308.594 39.4016 308.845 38.5491 308.845 37.6696C308.845 36.8798 308.629 36.1709 308.199 35.5426C307.786 34.9144 307.158 34.4119 306.314 34.035C305.488 33.6401 304.465 33.4426 303.245 33.4426C302.024 33.4426 300.929 33.5773 299.96 33.8465C299.009 34.1157 298.21 34.4029 297.564 34.708C296.667 35.1388 295.868 35.6862 295.168 36.3503C294.468 36.9965 293.92 37.6785 293.526 38.3965C293.131 39.1144 292.933 39.7785 292.933 40.3888C292.933 40.8196 293.032 41.1516 293.229 41.385C293.427 41.6003 293.741 41.708 294.172 41.708C294.818 41.708 295.563 41.5016 296.406 41.0888C297.25 40.658 298.085 40.0567 298.91 39.285C299.879 38.3875 300.795 37.3106 301.656 36.0542C302.518 34.7978 303.227 33.2362 303.783 31.3696C303.837 31.1901 303.891 30.9567 303.945 30.6696C303.999 30.3824 304.044 30.0952 304.079 29.808C304.133 29.5029 304.169 29.2606 304.187 29.0811L307.472 29.8619ZM318.079 33.2273C318.492 33.1375 318.968 33.0298 319.506 32.9042C320.045 32.7606 320.52 32.626 320.933 32.5003C321.382 32.3567 321.983 32.1683 322.737 31.935C323.491 31.7016 324.317 31.4683 325.214 31.235C326.129 31.0016 327.045 30.8042 327.96 30.6426C328.894 30.4811 329.773 30.4003 330.599 30.4003C332.017 30.4003 333.255 30.6696 334.314 31.208C335.391 31.7285 336.226 32.4824 336.818 33.4696C337.41 34.4567 337.706 35.6324 337.706 36.9965C337.706 38.217 337.437 39.3298 336.899 40.335C336.378 41.3401 335.579 42.2196 334.502 42.9734C333.426 43.7273 332.079 44.3375 330.464 44.8042C328.867 45.2888 327 45.5939 324.864 45.7196L323.437 42.408C324.981 42.3721 326.399 42.2375 327.691 42.0042C329.001 41.7709 330.132 41.4388 331.083 41.008C332.052 40.5593 332.797 39.9939 333.318 39.3119C333.856 38.6298 334.126 37.8401 334.126 36.9426C334.126 36.2606 333.964 35.6683 333.641 35.1657C333.336 34.6452 332.896 34.2414 332.322 33.9542C331.747 33.667 331.065 33.5234 330.276 33.5234C329.647 33.5234 328.947 33.6042 328.176 33.7657C327.404 33.9273 326.605 34.1337 325.779 34.385C324.972 34.6362 324.173 34.9055 323.383 35.1926C322.594 35.4798 321.858 35.758 321.176 36.0273C320.494 36.2965 319.928 36.5298 319.479 36.7273L318.079 33.2273ZM341.723 26.0926C342.262 26.0747 342.773 26.0567 343.258 26.0388C343.742 26.0029 344.119 25.976 344.389 25.958C344.945 25.9042 345.627 25.8414 346.435 25.7696C347.242 25.6978 348.149 25.617 349.154 25.5273C350.177 25.4375 351.263 25.3478 352.412 25.258C353.56 25.1503 354.754 25.0426 355.992 24.935C356.926 24.8632 357.859 24.8003 358.792 24.7465C359.726 24.6747 360.605 24.6209 361.431 24.585C362.274 24.5311 363.001 24.4952 363.612 24.4773L363.639 27.9234C363.154 27.9234 362.597 27.9324 361.969 27.9503C361.341 27.9683 360.713 28.0042 360.085 28.058C359.474 28.0939 358.927 28.1657 358.442 28.2734C357.635 28.4888 356.881 28.8567 356.181 29.3773C355.499 29.8798 354.897 30.4811 354.377 31.1811C353.856 31.8811 353.453 32.635 353.165 33.4426C352.896 34.2324 352.762 35.0311 352.762 35.8388C352.762 36.7183 352.914 37.4991 353.219 38.1811C353.524 38.8452 353.946 39.4196 354.485 39.9042C355.041 40.3709 355.687 40.7657 356.423 41.0888C357.159 41.3939 357.949 41.6273 358.792 41.7888C359.654 41.9503 360.542 42.058 361.458 42.1119L360.192 45.8003C359.062 45.7285 357.958 45.5491 356.881 45.2619C355.822 44.9747 354.826 44.5798 353.892 44.0773C352.977 43.5747 352.169 42.9644 351.469 42.2465C350.769 41.5106 350.222 40.676 349.827 39.7426C349.432 38.7914 349.235 37.7324 349.235 36.5657C349.235 35.2555 349.441 34.0619 349.854 32.985C350.267 31.908 350.778 30.9657 351.389 30.158C351.999 29.3324 352.609 28.6952 353.219 28.2465C352.717 28.3003 352.106 28.3721 351.389 28.4619C350.689 28.5337 349.926 28.6234 349.1 28.7311C348.292 28.8209 347.467 28.9196 346.623 29.0273C345.78 29.135 344.963 29.2606 344.173 29.4042C343.401 29.5298 342.701 29.6555 342.073 29.7811L341.723 26.0926ZM378.021 23.0503C377.913 23.535 377.823 23.9657 377.751 24.3426C377.68 24.7196 377.617 25.0875 377.563 25.4465C377.491 25.8234 377.401 26.3709 377.294 27.0888C377.204 27.7888 377.096 28.5875 376.971 29.485C376.863 30.3644 376.746 31.2888 376.621 32.258C376.513 33.2093 376.405 34.1426 376.298 35.058C376.19 35.9734 376.1 36.808 376.028 37.5619C375.975 38.3157 375.948 38.917 375.948 39.3657C375.948 40.4785 376.28 41.3311 376.944 41.9234C377.626 42.4978 378.631 42.785 379.959 42.785C381.216 42.785 382.275 42.6144 383.136 42.2734C383.998 41.9144 384.653 41.4388 385.101 40.8465C385.55 40.2542 385.775 39.5901 385.775 38.8542C385.775 37.9388 385.532 37.0503 385.048 36.1888C384.581 35.3093 383.899 34.4567 383.001 33.6311L386.798 32.8234C387.695 33.9542 388.35 35.0311 388.763 36.0542C389.194 37.0593 389.409 38.1362 389.409 39.285C389.409 40.6311 389.023 41.8337 388.251 42.8926C387.48 43.9516 386.376 44.7773 384.94 45.3696C383.522 45.9619 381.826 46.258 379.851 46.258C378.451 46.258 377.204 46.0426 376.109 45.6119C375.014 45.1811 374.162 44.4991 373.551 43.5657C372.941 42.6324 372.636 41.4209 372.636 39.9311C372.636 39.3747 372.681 38.6388 372.771 37.7234C372.86 36.7901 372.968 35.767 373.094 34.6542C373.237 33.5234 373.381 32.3837 373.525 31.235C373.668 30.0683 373.794 28.9644 373.901 27.9234C374.027 26.8824 374.126 25.985 374.198 25.2311C374.234 24.6029 374.251 24.1273 374.251 23.8042C374.269 23.4632 374.26 23.1401 374.225 22.835L378.021 23.0503ZM368.409 26.3888C369.217 26.6401 370.096 26.8555 371.048 27.035C371.999 27.1965 372.977 27.3221 373.982 27.4119C374.987 27.4837 375.939 27.5196 376.836 27.5196C377.895 27.5196 378.882 27.4837 379.798 27.4119C380.713 27.3401 381.512 27.2503 382.194 27.1426L382.086 30.3465C381.278 30.4183 380.471 30.4811 379.663 30.535C378.855 30.5888 377.886 30.6157 376.755 30.6157C375.84 30.6157 374.889 30.5708 373.901 30.4811C372.914 30.3734 371.936 30.2388 370.967 30.0773C369.998 29.8978 369.091 29.7003 368.248 29.485L368.409 26.3888ZM367.844 33.0657C368.813 33.3888 369.791 33.6401 370.778 33.8196C371.784 33.9991 372.771 34.1247 373.74 34.1965C374.727 34.2503 375.669 34.2773 376.567 34.2773C377.393 34.2773 378.281 34.2503 379.232 34.1965C380.201 34.1426 381.117 34.0619 381.978 33.9542L381.898 37.158C381.144 37.2298 380.372 37.2926 379.582 37.3465C378.793 37.3824 377.976 37.4003 377.132 37.4003C375.337 37.4003 373.614 37.3106 371.963 37.1311C370.312 36.9337 368.876 36.6644 367.655 36.3234L367.844 33.0657ZM393.825 29.0003H417.786V32.3388H393.825V29.0003ZM407.663 30.3465C408.201 32.3926 408.946 34.3042 409.898 36.0811C410.849 37.858 412.025 39.4106 413.425 40.7388C414.843 42.067 416.494 43.117 418.378 43.8888C418.109 44.1221 417.822 44.4183 417.517 44.7773C417.23 45.1362 416.943 45.5042 416.655 45.8811C416.386 46.276 416.162 46.626 415.982 46.9311C413.918 45.9619 412.141 44.7144 410.651 43.1888C409.18 41.6632 407.941 39.8862 406.936 37.858C405.931 35.8119 405.087 33.5593 404.405 31.1003L407.663 30.3465ZM403.948 21.758H407.475C407.457 23.1221 407.412 24.567 407.34 26.0926C407.286 27.6003 407.151 29.135 406.936 30.6965C406.721 32.258 406.371 33.8106 405.886 35.3542C405.419 36.8798 404.755 38.3516 403.894 39.7696C403.05 41.1696 401.955 42.4798 400.609 43.7003C399.281 44.9209 397.657 45.9978 395.736 46.9311C395.485 46.5003 395.135 46.0247 394.686 45.5042C394.237 44.9837 393.78 44.5529 393.313 44.2119C395.144 43.3862 396.678 42.435 397.917 41.358C399.155 40.2632 400.16 39.0875 400.932 37.8311C401.722 36.5567 402.323 35.2375 402.736 33.8734C403.149 32.4914 403.427 31.1003 403.571 29.7003C403.732 28.3003 403.831 26.9273 403.867 25.5811C403.903 24.235 403.93 22.9606 403.948 21.758ZM420.775 26.6042H444.682V29.7542H420.775V26.6042ZM426.832 30.6157C427.568 33.2901 428.663 35.5516 430.117 37.4003C431.589 39.2311 433.527 40.676 435.932 41.735C438.355 42.7939 441.371 43.5119 444.978 43.8888C444.745 44.1221 444.503 44.4273 444.251 44.8042C444 45.1811 443.767 45.558 443.551 45.935C443.336 46.3119 443.157 46.6619 443.013 46.985C440.159 46.608 437.682 46.0247 435.582 45.235C433.482 44.4452 431.678 43.4132 430.171 42.1388C428.681 40.8644 427.416 39.3388 426.375 37.5619C425.351 35.767 424.481 33.6939 423.763 31.3426L426.832 30.6157ZM433.805 22.1888H437.386C437.368 24.3247 437.323 26.3439 437.251 28.2465C437.198 30.1311 437.036 31.8991 436.767 33.5503C436.498 35.1837 436.058 36.6824 435.448 38.0465C434.855 39.4106 434.021 40.6491 432.944 41.7619C431.867 42.8567 430.476 43.817 428.771 44.6426C427.084 45.4862 424.992 46.1862 422.498 46.7426C422.408 46.4555 422.255 46.1324 422.04 45.7734C421.842 45.4324 421.618 45.0914 421.367 44.7503C421.116 44.4093 420.873 44.1221 420.64 43.8888C422.937 43.4221 424.858 42.8388 426.401 42.1388C427.963 41.4388 429.219 40.6311 430.171 39.7157C431.14 38.7824 431.867 37.7234 432.351 36.5388C432.854 35.3542 433.204 34.0439 433.401 32.608C433.599 31.1542 433.716 29.5657 433.751 27.8426C433.787 26.1016 433.805 24.217 433.805 22.1888ZM447.644 32.985H471.632V36.2965H447.644V32.985ZM449.501 25.3119H470.151V28.6503H449.501V25.3119ZM460.863 33.8734C461.689 36.5119 463.035 38.6747 464.901 40.3619C466.768 42.0491 469.299 43.1978 472.494 43.808C472.26 44.0593 472 44.3644 471.713 44.7234C471.444 45.0824 471.192 45.4503 470.959 45.8273C470.726 46.2221 470.528 46.5721 470.367 46.8773C468.069 46.285 466.113 45.4503 464.498 44.3734C462.882 43.2785 461.536 41.9144 460.459 40.2811C459.4 38.6478 458.521 36.7362 457.821 34.5465L460.863 33.8734ZM457.794 21.7311H461.267V30.535C461.267 31.7914 461.186 33.0657 461.025 34.358C460.863 35.6503 460.549 36.9247 460.082 38.1811C459.616 39.4196 458.934 40.5952 458.036 41.708C457.139 42.8209 455.954 43.835 454.482 44.7503C453.01 45.6657 451.198 46.4465 449.044 47.0926C448.918 46.8055 448.739 46.4734 448.505 46.0965C448.29 45.7375 448.048 45.3696 447.778 44.9926C447.509 44.6337 447.267 44.3375 447.051 44.1042C448.972 43.5657 450.578 42.9106 451.871 42.1388C453.163 41.367 454.204 40.5234 454.994 39.608C455.784 38.6747 456.376 37.7055 456.771 36.7003C457.184 35.6773 457.453 34.6452 457.578 33.6042C457.722 32.5632 457.794 31.5401 457.794 30.535V21.7311Z" fill="#005EA4"/>
<path d="M50.4787 24.4234C50.4787 24.8362 50.6223 25.1862 50.9094 25.4734C51.1966 25.7426 51.5466 25.8773 51.9594 25.8773C52.3543 25.8773 52.6953 25.7426 52.9825 25.4734C53.2697 25.1862 53.4133 24.8362 53.4133 24.4234C53.4133 24.0285 53.2697 23.6875 52.9825 23.4003C52.6953 23.1132 52.3543 22.9696 51.9594 22.9696C51.5466 22.9696 51.1966 23.1132 50.9094 23.4003C50.6223 23.6875 50.4787 24.0285 50.4787 24.4234ZM48.8364 24.4234C48.8364 23.8491 48.971 23.3285 49.2402 22.8619C49.5274 22.3952 49.9043 22.0183 50.371 21.7311C50.8556 21.4439 51.3851 21.3003 51.9594 21.3003C52.5338 21.3003 53.0543 21.4439 53.521 21.7311C53.9876 22.0183 54.3556 22.3952 54.6248 22.8619C54.912 23.3285 55.0556 23.8491 55.0556 24.4234C55.0556 24.9978 54.912 25.5273 54.6248 26.0119C54.3556 26.4785 53.9876 26.8555 53.521 27.1426C53.0543 27.4119 52.5338 27.5465 51.9594 27.5465C51.3851 27.5465 50.8556 27.4119 50.371 27.1426C49.9043 26.8555 49.5274 26.4785 49.2402 26.0119C48.971 25.5273 48.8364 24.9978 48.8364 24.4234ZM45.121 23.3734C45.103 23.4991 45.0761 23.7055 45.0402 23.9926C45.0043 24.2798 44.9684 24.585 44.9325 24.908C44.8966 25.2132 44.8787 25.4824 44.8787 25.7157C44.8787 26.2542 44.8787 26.8465 44.8787 27.4926C44.8787 28.1388 44.8787 28.785 44.8787 29.4311C44.8787 30.0593 44.8787 30.6337 44.8787 31.1542C44.8787 31.5132 44.8787 32.0157 44.8787 32.6619C44.8787 33.308 44.8787 34.035 44.8787 34.8426C44.8787 35.6503 44.8787 36.4939 44.8787 37.3734C44.8787 38.235 44.8787 39.0785 44.8787 39.9042C44.8787 40.7119 44.8787 41.4478 44.8787 42.1119C44.8787 42.758 44.8787 43.2696 44.8787 43.6465C44.8787 44.4183 44.6453 45.0285 44.1787 45.4773C43.7299 45.9439 43.0299 46.1773 42.0787 46.1773C41.5941 46.1773 41.1005 46.1683 40.5979 46.1503C40.0953 46.1324 39.6017 46.1055 39.1171 46.0696C38.6325 46.0337 38.1569 45.9888 37.6902 45.935L37.3671 42.5965C37.9415 42.7042 38.4979 42.785 39.0364 42.8388C39.5928 42.8926 40.0325 42.9196 40.3556 42.9196C40.7146 42.9196 40.9658 42.8478 41.1094 42.7042C41.253 42.5426 41.3338 42.2914 41.3517 41.9503C41.3517 41.7888 41.3517 41.4388 41.3517 40.9003C41.3697 40.3619 41.3787 39.7247 41.3787 38.9888C41.3787 38.2529 41.3787 37.4721 41.3787 36.6465C41.3787 35.8209 41.3787 35.0311 41.3787 34.2773C41.3787 33.5234 41.3787 32.8683 41.3787 32.3119C41.3787 31.7555 41.3787 31.3696 41.3787 31.1542C41.3787 30.8311 41.3787 30.3465 41.3787 29.7003C41.3787 29.0362 41.3787 28.3362 41.3787 27.6003C41.3787 26.8644 41.3787 26.2362 41.3787 25.7157C41.3787 25.3567 41.3517 24.935 41.2979 24.4503C41.2441 23.9478 41.1902 23.5888 41.1364 23.3734H45.121ZM31.9287 27.6542C32.3415 27.708 32.7723 27.7619 33.221 27.8157C33.6697 27.8516 34.1094 27.8696 34.5402 27.8696C34.7556 27.8696 35.1864 27.8696 35.8325 27.8696C36.4966 27.8696 37.2864 27.8696 38.2017 27.8696C39.1171 27.8696 40.0953 27.8696 41.1364 27.8696C42.1953 27.8696 43.2543 27.8696 44.3133 27.8696C45.3902 27.8696 46.3864 27.8696 47.3017 27.8696C48.2351 27.8696 49.0428 27.8696 49.7248 27.8696C50.4069 27.8696 50.8825 27.8696 51.1517 27.8696C51.5287 27.8696 51.9684 27.8516 52.471 27.8157C52.9915 27.7798 53.4402 27.735 53.8171 27.6811V31.208C53.4043 31.1721 52.9556 31.1542 52.471 31.1542C51.9864 31.1362 51.5556 31.1273 51.1787 31.1273C50.9094 31.1273 50.4338 31.1273 49.7517 31.1273C49.0876 31.1273 48.2889 31.1273 47.3556 31.1273C46.4402 31.1273 45.453 31.1273 44.3941 31.1273C43.3351 31.1273 42.2761 31.1273 41.2171 31.1273C40.1582 31.1273 39.171 31.1273 38.2556 31.1273C37.3402 31.1273 36.5505 31.1273 35.8864 31.1273C35.2402 31.1273 34.7915 31.1273 34.5402 31.1273C34.1453 31.1273 33.7056 31.1362 33.221 31.1542C32.7543 31.1721 32.3235 31.1991 31.9287 31.235V27.6542ZM38.7941 34.9503C38.4889 35.5606 38.121 36.2157 37.6902 36.9157C37.2594 37.6157 36.7928 38.3157 36.2902 39.0157C35.8056 39.7157 35.3299 40.3709 34.8633 40.9811C34.3966 41.5734 33.9748 42.067 33.5979 42.4619L30.6902 40.4696C31.1389 40.0567 31.5966 39.5721 32.0633 39.0157C32.5479 38.4414 33.0146 37.8401 33.4633 37.2119C33.9299 36.5837 34.3517 35.9555 34.7287 35.3273C35.1235 34.6991 35.4646 34.0978 35.7517 33.5234L38.7941 34.9503ZM50.371 33.4426C50.712 33.8734 51.0889 34.385 51.5017 34.9773C51.9325 35.5696 52.3633 36.2067 52.7941 36.8888C53.2248 37.5529 53.6287 38.208 54.0056 38.8542C54.3825 39.4824 54.7056 40.0388 54.9748 40.5234L51.7979 42.2465C51.5107 41.6721 51.1787 41.0529 50.8017 40.3888C50.4428 39.7247 50.0658 39.0606 49.671 38.3965C49.2761 37.7324 48.8812 37.1132 48.4864 36.5388C48.1094 35.9465 47.7594 35.4439 47.4364 35.0311L50.371 33.4426ZM58.2056 34.1426C60.6287 33.5144 62.8184 32.7875 64.7748 31.9619C66.7492 31.1183 68.4812 30.2388 69.971 29.3234C70.9043 28.7491 71.8376 28.0939 72.771 27.358C73.7223 26.6042 74.6107 25.8324 75.4364 25.0426C76.2799 24.2529 76.9889 23.4991 77.5633 22.7811L80.471 25.5542C79.6453 26.3619 78.7389 27.1785 77.7517 28.0042C76.7825 28.8298 75.7684 29.6196 74.7094 30.3734C73.6505 31.1273 72.6005 31.8183 71.5594 32.4465C70.5364 33.0388 69.3876 33.6491 68.1133 34.2773C66.8569 34.9055 65.5287 35.4978 64.1287 36.0542C62.7287 36.6106 61.3197 37.1042 59.9017 37.535L58.2056 34.1426ZM69.4056 31.0465L73.2287 30.158V42.2734C73.2287 42.6683 73.2376 43.0991 73.2556 43.5657C73.2735 44.0324 73.3005 44.4632 73.3364 44.858C73.3723 45.2709 73.4171 45.585 73.471 45.8003H69.2171C69.253 45.585 69.2799 45.2709 69.2979 44.858C69.3338 44.4632 69.3607 44.0324 69.3787 43.5657C69.3966 43.0991 69.4056 42.6683 69.4056 42.2734V31.0465ZM89.9479 24.1542C90.4146 24.4773 90.962 24.8721 91.5902 25.3388C92.2184 25.8055 92.8646 26.317 93.5287 26.8734C94.2107 27.4119 94.8479 27.9414 95.4402 28.4619C96.0325 28.9824 96.5171 29.4491 96.8941 29.8619L94.1479 32.6619C93.8069 32.285 93.3582 31.8362 92.8017 31.3157C92.2453 30.7952 91.6441 30.2567 90.9979 29.7003C90.3517 29.1439 89.7146 28.6144 89.0864 28.1119C88.4582 27.6093 87.9017 27.1875 87.4171 26.8465L89.9479 24.1542ZM86.5825 42.085C87.9825 41.8875 89.3017 41.6093 90.5402 41.2503C91.7787 40.8914 92.9274 40.4785 93.9864 40.0119C95.0453 39.5452 96.0146 39.0606 96.8941 38.558C98.4197 37.6426 99.8197 36.6016 101.094 35.435C102.368 34.2683 103.481 33.0567 104.433 31.8003C105.384 30.526 106.138 29.2875 106.694 28.085L108.794 31.8811C108.112 33.0837 107.268 34.2862 106.263 35.4888C105.276 36.6914 104.154 37.8401 102.898 38.935C101.641 40.0119 100.286 40.9811 98.8325 41.8426C97.9171 42.3991 96.9299 42.9285 95.871 43.4311C94.812 43.9157 93.6902 44.3465 92.5056 44.7234C91.3389 45.1183 90.1184 45.4234 88.844 45.6388L86.5825 42.085ZM118.836 42.0311C118.836 41.6901 118.836 41.1337 118.836 40.3619C118.836 39.5721 118.836 38.6657 118.836 37.6426C118.836 36.6016 118.836 35.5157 118.836 34.385C118.836 33.2542 118.836 32.1683 118.836 31.1273C118.836 30.0683 118.836 29.135 118.836 28.3273C118.836 27.5196 118.836 26.9273 118.836 26.5503C118.836 26.0837 118.809 25.5452 118.756 24.935C118.72 24.3247 118.657 23.7862 118.567 23.3196H122.767C122.713 23.7862 122.659 24.3067 122.606 24.8811C122.552 25.4375 122.525 25.9939 122.525 26.5503C122.525 27.0529 122.525 27.735 122.525 28.5965C122.525 29.458 122.525 30.4183 122.525 31.4773C122.525 32.5183 122.525 33.5862 122.525 34.6811C122.525 35.758 122.525 36.7991 122.525 37.8042C122.525 38.8093 122.525 39.6888 122.525 40.4426C122.525 41.1785 122.525 41.708 122.525 42.0311C122.525 42.2824 122.534 42.6414 122.552 43.108C122.57 43.5567 122.606 44.0234 122.659 44.508C122.713 44.9926 122.749 45.4234 122.767 45.8003H118.567C118.639 45.2619 118.702 44.6337 118.756 43.9157C118.809 43.1978 118.836 42.5696 118.836 42.0311ZM121.717 30.2926C122.615 30.526 123.62 30.8311 124.733 31.208C125.845 31.567 126.967 31.9529 128.098 32.3657C129.229 32.7785 130.288 33.1914 131.275 33.6042C132.28 33.9991 133.115 34.367 133.779 34.708L132.244 38.4234C131.49 38.0285 130.656 37.6337 129.74 37.2388C128.825 36.826 127.891 36.4311 126.94 36.0542C126.007 35.6773 125.083 35.3273 124.167 35.0042C123.27 34.6811 122.453 34.3939 121.717 34.1426V30.2926ZM143.283 44.6157V41.4119H149.206V28.758H144.521V26.2811C145.777 26.0478 146.863 25.8414 147.779 25.6619C148.694 25.4644 149.52 25.1144 150.256 24.6119H153.163V41.4119H158.548V44.6157H143.283Z" fill="#005EA4"/>
</svg>
