<svg width="509" height="70" viewBox="0 0 509 70" fill="none" xmlns="http://www.w3.org/2000/svg">
<rect x="3.65445" y="2.88492" width="501.923" height="63.4615" rx="31.7308" fill="white" stroke="#005EA4" stroke-width="5.76923"/>
<path d="M210.685 23.1425H229.478V46.4309H226.004V26.4001H213.997V46.4848H210.685V23.1425ZM212.947 32.1886H227.431V35.3655H212.947V32.1886ZM212.947 41.4502H227.458V44.7078H212.947V41.4502ZM235.212 24.8386H237.797V37.654H235.212V24.8386ZM249.051 34.2617H252.039V46.8078H249.051V34.2617ZM239.304 21.5809H242.158V32.3501C242.158 33.7143 242.104 35.0604 241.997 36.3886C241.907 37.6989 241.701 38.9732 241.378 40.2117C241.072 41.4502 240.606 42.6258 239.978 43.7386C239.367 44.8335 238.542 45.8566 237.501 46.8078C237.339 46.5925 237.115 46.3502 236.828 46.0809C236.558 45.8117 236.271 45.5514 235.966 45.3002C235.661 45.0668 235.392 44.8784 235.158 44.7348C236.397 43.6399 237.303 42.4373 237.878 41.1271C238.47 39.7989 238.856 38.3989 239.035 36.9271C239.215 35.4373 239.304 33.9117 239.304 32.3501V21.5809ZM244.097 36.2809H255.701V38.8925H246.978V45.004H244.097V36.2809ZM244.393 22.1732H257.181V30.9771H244.097V28.6886H254.193V24.4617H244.393V22.1732ZM245.174 25.5117H255.997V27.6655H245.174V25.5117ZM254.274 36.2809H257.262V42.0694C257.262 42.6976 257.199 43.2002 257.074 43.5771C256.966 43.954 256.715 44.2502 256.32 44.4655C255.943 44.6809 255.494 44.8066 254.974 44.8425C254.471 44.8963 253.897 44.9232 253.251 44.9232C253.215 44.5284 253.125 44.0886 252.981 43.604C252.856 43.1194 252.703 42.6886 252.524 42.3117C252.847 42.3296 253.143 42.3386 253.412 42.3386C253.699 42.3386 253.897 42.3386 254.004 42.3386C254.094 42.3207 254.157 42.2937 254.193 42.2578C254.247 42.204 254.274 42.1232 254.274 42.0155V36.2809ZM242.616 31.9194H259.12V36.5232H256.131V34.3425H245.497V36.5232H242.616V31.9194ZM270.104 22.7655C270.015 23.0886 269.916 23.4925 269.808 23.9771C269.701 24.4617 269.593 24.9732 269.485 25.5117C269.378 26.0322 269.279 26.5437 269.189 27.0463C269.117 27.5489 269.063 27.9886 269.028 28.3655C269.351 27.8271 269.736 27.3066 270.185 26.804C270.634 26.2835 271.136 25.8168 271.693 25.404C272.267 24.9732 272.886 24.6322 273.551 24.3809C274.233 24.1296 274.951 24.004 275.704 24.004C276.961 24.004 278.092 24.3899 279.097 25.1617C280.102 25.9335 280.892 27.0373 281.466 28.4732C282.058 29.9091 282.354 31.6143 282.354 33.5886C282.354 35.4912 282.076 37.1604 281.52 38.5963C280.963 40.0143 280.165 41.2258 279.124 42.2309C278.083 43.236 276.835 44.0527 275.381 44.6809C273.945 45.3271 272.339 45.8117 270.562 46.1348L268.516 43.0117C270.006 42.7784 271.37 42.4643 272.608 42.0694C273.865 41.6566 274.942 41.1002 275.839 40.4002C276.754 39.7002 277.454 38.8027 277.939 37.7078C278.442 36.595 278.693 35.2309 278.693 33.6155C278.693 32.2335 278.549 31.0668 278.262 30.1155C277.975 29.1463 277.553 28.4104 276.997 27.9078C276.458 27.4053 275.812 27.154 275.058 27.154C274.269 27.154 273.515 27.4143 272.797 27.9348C272.079 28.4553 271.433 29.1373 270.858 29.9809C270.302 30.8066 269.853 31.704 269.512 32.6732C269.189 33.6425 269.01 34.5758 268.974 35.4732C268.956 35.8502 268.947 36.263 268.947 36.7117C268.965 37.1604 269.019 37.6989 269.108 38.3271L265.797 38.5425C265.725 38.0219 265.644 37.3758 265.554 36.604C265.483 35.8143 265.447 34.9617 265.447 34.0463C265.447 33.4181 265.465 32.745 265.501 32.0271C265.554 31.3091 265.608 30.5822 265.662 29.8463C265.734 29.0925 265.815 28.3386 265.904 27.5848C266.012 26.8309 266.111 26.113 266.201 25.4309C266.272 24.9104 266.326 24.3989 266.362 23.8963C266.398 23.3937 266.416 22.963 266.416 22.604L270.104 22.7655ZM293.474 23.0078H301.12V26.2925H293.474V23.0078ZM299.531 23.0078H302.87C302.87 23.8694 302.906 24.8476 302.978 25.9425C303.049 27.0194 303.202 28.1771 303.435 29.4155C303.669 30.636 304.019 31.8925 304.485 33.1848C304.952 34.4771 305.571 35.7604 306.343 37.0348C307.133 38.2912 308.12 39.5027 309.304 40.6694C310.489 41.836 311.907 42.913 313.558 43.9002C313.325 44.0796 313.038 44.3399 312.697 44.6809C312.356 45.0219 312.024 45.3719 311.701 45.7309C311.395 46.1078 311.144 46.4399 310.947 46.7271C309.26 45.686 307.797 44.5194 306.558 43.2271C305.32 41.9168 304.279 40.5348 303.435 39.0809C302.592 37.6091 301.91 36.1284 301.389 34.6386C300.869 33.1309 300.474 31.6681 300.204 30.2501C299.935 28.8143 299.756 27.4771 299.666 26.2386C299.576 25.0001 299.531 23.9232 299.531 23.0078ZM298.374 28.9309L302.062 29.604C301.452 32.2604 300.635 34.6745 299.612 36.8463C298.589 39.0181 297.36 40.9296 295.924 42.5809C294.506 44.2322 292.863 45.6232 290.997 46.754C290.799 46.5207 290.521 46.2335 290.162 45.8925C289.803 45.5694 289.426 45.2373 289.031 44.8963C288.654 44.5732 288.322 44.313 288.035 44.1155C290.853 42.6976 293.097 40.7053 294.766 38.1386C296.435 35.554 297.638 32.4848 298.374 28.9309ZM330.439 21.6348H333.589V25.8886H330.439V21.6348ZM324.435 24.4617H340.051V29.7925H337.062V27.2078H327.289V29.7925H324.435V24.4617ZM326.428 29.3886H337.978V32.1617H326.428V29.3886ZM324.812 34.1271H339.916V37.0078H324.812V34.1271ZM327.854 35.5001H330.924C330.87 36.954 330.744 38.2732 330.547 39.4578C330.367 40.6245 330.044 41.6745 329.578 42.6078C329.129 43.5232 328.465 44.3219 327.585 45.004C326.706 45.704 325.548 46.2963 324.112 46.7809C324.022 46.5117 323.879 46.2155 323.681 45.8925C323.502 45.5873 323.295 45.2822 323.062 44.9771C322.829 44.6719 322.604 44.4296 322.389 44.2502C323.61 43.8912 324.579 43.4514 325.297 42.9309C326.015 42.4104 326.544 41.8002 326.885 41.1002C327.244 40.3822 327.486 39.5655 327.612 38.6501C327.738 37.7168 327.819 36.6668 327.854 35.5001ZM332.835 35.1771H335.851V42.8232C335.851 43.236 335.869 43.4873 335.904 43.5771C335.958 43.6668 336.084 43.7117 336.281 43.7117C336.335 43.7117 336.425 43.7117 336.551 43.7117C336.676 43.7117 336.793 43.7117 336.901 43.7117C337.026 43.7117 337.125 43.7117 337.197 43.7117C337.322 43.7117 337.421 43.6399 337.493 43.4963C337.583 43.3527 337.645 43.0566 337.681 42.6078C337.717 42.1412 337.744 41.4502 337.762 40.5348C337.96 40.6963 338.211 40.8578 338.516 41.0194C338.839 41.1809 339.171 41.3245 339.512 41.4502C339.871 41.5758 340.176 41.6745 340.428 41.7463C340.356 43.0027 340.203 43.9809 339.97 44.6809C339.754 45.3809 339.449 45.8655 339.054 46.1348C338.678 46.4219 338.166 46.5655 337.52 46.5655C337.412 46.5655 337.278 46.5655 337.116 46.5655C336.954 46.5655 336.784 46.5655 336.604 46.5655C336.443 46.5655 336.281 46.5655 336.12 46.5655C335.958 46.5655 335.824 46.5655 335.716 46.5655C334.944 46.5655 334.343 46.4489 333.912 46.2155C333.499 45.9822 333.212 45.5873 333.051 45.0309C332.907 44.4925 332.835 43.7655 332.835 42.8502V35.1771ZM316.143 22.6578H322.497V25.5655H318.97V46.8078H316.143V22.6578ZM321.528 22.6578H322.039L322.497 22.5501L324.597 23.7617C324.381 24.5155 324.139 25.3322 323.87 26.2117C323.601 27.0912 323.322 27.9527 323.035 28.7963C322.766 29.6399 322.506 30.4117 322.254 31.1117C323.08 32.1348 323.619 33.104 323.87 34.0194C324.121 34.9348 324.247 35.7873 324.247 36.5771C324.247 37.4386 324.148 38.1566 323.951 38.7309C323.771 39.3053 323.466 39.745 323.035 40.0501C322.82 40.1937 322.578 40.3104 322.308 40.4002C322.057 40.4899 321.788 40.5617 321.501 40.6155C320.998 40.6694 320.406 40.6873 319.724 40.6694C319.706 40.2925 319.634 39.8348 319.508 39.2963C319.401 38.7578 319.239 38.3002 319.024 37.9232C319.275 37.9412 319.49 37.9502 319.67 37.9502C319.867 37.9502 320.047 37.9502 320.208 37.9502C320.531 37.9322 320.783 37.8514 320.962 37.7078C321.124 37.5822 321.231 37.3937 321.285 37.1425C321.357 36.8732 321.393 36.5502 321.393 36.1732C321.393 35.545 321.267 34.8271 321.016 34.0194C320.783 33.2117 320.289 32.3591 319.535 31.4617C319.715 30.8514 319.894 30.1873 320.074 29.4694C320.271 28.7335 320.46 27.9976 320.639 27.2617C320.836 26.5258 321.007 25.8437 321.151 25.2155C321.312 24.5694 321.438 24.0309 321.528 23.6002V22.6578ZM343.012 25.9155C343.551 25.8976 344.062 25.8796 344.547 25.8617C345.031 25.8258 345.399 25.7989 345.651 25.7809C346.207 25.745 346.889 25.6912 347.697 25.6194C348.522 25.5296 349.438 25.4399 350.443 25.3501C351.466 25.2604 352.552 25.1707 353.701 25.0809C354.849 24.9912 356.043 24.8925 357.281 24.7848C358.215 24.695 359.139 24.6232 360.054 24.5694C360.988 24.4976 361.867 24.4437 362.693 24.4078C363.537 24.354 364.272 24.3181 364.901 24.3001L364.928 27.7463C364.443 27.7463 363.887 27.7553 363.258 27.7732C362.63 27.7912 362.002 27.8271 361.374 27.8809C360.763 27.9168 360.216 27.9976 359.731 28.1232C358.924 28.3386 358.17 28.7066 357.47 29.2271C356.77 29.7296 356.16 30.3309 355.639 31.0309C355.137 31.713 354.742 32.4578 354.454 33.2655C354.167 34.0553 354.024 34.854 354.024 35.6617C354.024 36.5412 354.176 37.3219 354.481 38.004C354.804 38.6681 355.235 39.2425 355.774 39.7271C356.33 40.1937 356.976 40.5886 357.712 40.9117C358.448 41.2168 359.238 41.4502 360.081 41.6117C360.943 41.7732 361.831 41.8809 362.747 41.9348L361.481 45.6232C360.351 45.5514 359.247 45.3719 358.17 45.0848C357.111 44.7976 356.115 44.4027 355.181 43.9002C354.248 43.3976 353.431 42.7873 352.731 42.0694C352.049 41.3335 351.502 40.4989 351.089 39.5655C350.694 38.6143 350.497 37.5553 350.497 36.3886C350.497 35.0963 350.703 33.9117 351.116 32.8348C351.529 31.7399 352.04 30.7886 352.651 29.9809C353.279 29.1553 353.898 28.5181 354.508 28.0694C354.006 28.1412 353.395 28.213 352.678 28.2848C351.978 28.3566 351.215 28.4463 350.389 28.554C349.581 28.6437 348.756 28.7425 347.912 28.8501C347.069 28.9578 346.252 29.0835 345.462 29.2271C344.69 29.3527 343.99 29.4784 343.362 29.604L343.012 25.9155ZM361.078 30.3848C361.311 30.7078 361.553 31.0937 361.804 31.5425C362.074 31.9732 362.334 32.413 362.585 32.8617C362.837 33.2925 363.052 33.6873 363.231 34.0463L361.185 34.9617C360.844 34.2078 360.512 33.5437 360.189 32.9694C359.884 32.395 359.516 31.8117 359.085 31.2194L361.078 30.3848ZM364.093 29.1463C364.326 29.4694 364.578 29.8463 364.847 30.2771C365.134 30.6899 365.412 31.1207 365.681 31.5694C365.951 32.0001 366.175 32.386 366.354 32.7271L364.335 33.6963C363.976 32.9784 363.626 32.3412 363.285 31.7848C362.962 31.2284 362.576 30.654 362.128 30.0617L364.093 29.1463ZM380.704 22.8194C380.597 23.304 380.507 23.7348 380.435 24.1117C380.363 24.4886 380.301 24.8566 380.247 25.2155C380.175 25.5925 380.085 26.1399 379.978 26.8578C379.888 27.5578 379.78 28.3566 379.654 29.254C379.547 30.1335 379.43 31.0578 379.304 32.0271C379.197 32.9784 379.089 33.9117 378.981 34.8271C378.874 35.7425 378.784 36.5771 378.712 37.3309C378.658 38.0848 378.631 38.686 378.631 39.1348C378.631 40.2476 378.963 41.1002 379.628 41.6925C380.31 42.2668 381.315 42.554 382.643 42.554C383.899 42.554 384.958 42.3835 385.82 42.0425C386.681 41.6835 387.336 41.2078 387.785 40.6155C388.234 40.0232 388.458 39.3591 388.458 38.6232C388.458 37.7078 388.216 36.8194 387.731 35.9578C387.265 35.0784 386.583 34.2258 385.685 33.4001L389.481 32.5925C390.379 33.7232 391.034 34.8001 391.447 35.8232C391.878 36.8284 392.093 37.9053 392.093 39.054C392.093 40.4002 391.707 41.6027 390.935 42.6617C390.163 43.7207 389.06 44.5463 387.624 45.1386C386.206 45.7309 384.51 46.0271 382.535 46.0271C381.135 46.0271 379.888 45.8117 378.793 45.3809C377.698 44.9502 376.845 44.2681 376.235 43.3348C375.625 42.4014 375.32 41.1899 375.32 39.7002C375.32 39.1437 375.365 38.4078 375.454 37.4925C375.544 36.5591 375.652 35.536 375.778 34.4232C375.921 33.2925 376.065 32.1527 376.208 31.004C376.352 29.8373 376.478 28.7335 376.585 27.6925C376.711 26.6514 376.81 25.754 376.881 25.0001C376.917 24.3719 376.935 23.8963 376.935 23.5732C376.953 23.2322 376.944 22.9091 376.908 22.604L380.704 22.8194ZM371.093 26.1578C371.901 26.4091 372.78 26.6245 373.731 26.804C374.683 26.9655 375.661 27.0912 376.666 27.1809C377.671 27.2527 378.622 27.2886 379.52 27.2886C380.579 27.2886 381.566 27.2527 382.481 27.1809C383.397 27.1091 384.195 27.0194 384.878 26.9117L384.77 30.1155C383.962 30.1873 383.154 30.2501 382.347 30.304C381.539 30.3578 380.57 30.3848 379.439 30.3848C378.524 30.3848 377.572 30.3399 376.585 30.2501C375.598 30.1425 374.62 30.0078 373.651 29.8463C372.681 29.6668 371.775 29.4694 370.931 29.254L371.093 26.1578ZM370.528 32.8348C371.497 33.1578 372.475 33.4091 373.462 33.5886C374.467 33.7681 375.454 33.8937 376.424 33.9655C377.411 34.0194 378.353 34.0463 379.251 34.0463C380.076 34.0463 380.965 34.0194 381.916 33.9655C382.885 33.9117 383.801 33.8309 384.662 33.7232L384.581 36.9271C383.828 36.9989 383.056 37.0617 382.266 37.1155C381.476 37.1514 380.66 37.1694 379.816 37.1694C378.021 37.1694 376.298 37.0796 374.647 36.9001C372.995 36.7027 371.56 36.4335 370.339 36.0925L370.528 32.8348ZM396.024 32.1348H420.954V35.6617H396.024V32.1348ZM433.447 24.3809H447.231V27.1809H433.447V24.3809ZM432.558 29.5502H448.012V32.3771H432.558V29.5502ZM432.612 34.6655H447.824V37.4925H432.612V34.6655ZM438.643 21.4732H441.847V31.3809H438.643V21.4732ZM442.062 32.2425H445.239V43.3886C445.239 44.1604 445.14 44.7617 444.943 45.1925C444.745 45.6412 444.386 45.9912 443.866 46.2425C443.345 46.4758 442.708 46.6194 441.954 46.6732C441.219 46.745 440.348 46.7809 439.343 46.7809C439.271 46.3322 439.136 45.8117 438.939 45.2194C438.742 44.645 438.535 44.1514 438.32 43.7386C438.984 43.7566 439.63 43.7745 440.258 43.7925C440.886 43.7925 441.308 43.7925 441.524 43.7925C441.721 43.7925 441.856 43.7655 441.928 43.7117C442.017 43.6399 442.062 43.5053 442.062 43.3078V32.2425ZM433.689 39.3232L436.247 37.8425C436.678 38.2553 437.108 38.7219 437.539 39.2425C437.97 39.763 438.365 40.2835 438.724 40.804C439.083 41.3245 439.361 41.8002 439.558 42.2309L436.758 43.8732C436.615 43.4425 436.372 42.9668 436.031 42.4463C435.69 41.9078 435.313 41.3694 434.901 40.8309C434.506 40.2745 434.102 39.7719 433.689 39.3232ZM425.154 23.1694H432.074V41.5848H425.154V38.704H429.085V26.0501H425.154V23.1694ZM425.316 30.8155H430.539V33.6425H425.316V30.8155ZM423.62 23.1694H426.608V43.9809H423.62V23.1694ZM462.201 24.5963C461.465 25.6194 460.531 26.6784 459.401 27.7732C458.288 28.8681 457.049 29.9181 455.685 30.9232C454.339 31.9284 452.93 32.8258 451.458 33.6155C451.315 33.3463 451.126 33.0501 450.893 32.7271C450.678 32.404 450.435 32.0899 450.166 31.7848C449.915 31.4796 449.672 31.2104 449.439 30.9771C450.983 30.2412 452.463 29.3348 453.881 28.2578C455.299 27.163 456.565 26.0232 457.678 24.8386C458.808 23.654 459.706 22.5143 460.37 21.4194H463.735C464.471 22.4425 465.279 23.4207 466.158 24.354C467.038 25.2873 467.98 26.1489 468.985 26.9386C469.99 27.7284 471.022 28.4373 472.081 29.0655C473.14 29.6937 474.208 30.2232 475.285 30.654C474.872 31.0668 474.487 31.5335 474.128 32.054C473.769 32.5745 473.437 33.0771 473.131 33.5617C472.108 33.0232 471.067 32.404 470.008 31.704C468.967 31.004 467.962 30.2591 466.993 29.4694C466.024 28.6617 465.126 27.845 464.301 27.0194C463.475 26.1937 462.775 25.386 462.201 24.5963ZM455.47 29.5771H469.012V32.404H455.47V29.5771ZM452.239 35.0694H472.189V37.8694H452.239V35.0694ZM450.893 43.254H473.778V46.0271H450.893V43.254ZM460.451 30.7078H463.87V44.654H460.451V30.7078ZM453.935 38.8925L456.52 37.8155C456.861 38.2643 457.193 38.7578 457.516 39.2963C457.857 39.8348 458.162 40.3643 458.431 40.8848C458.701 41.4053 458.898 41.8719 459.024 42.2848L456.251 43.5232C456.143 43.1104 455.963 42.6348 455.712 42.0963C455.461 41.5399 455.183 40.9835 454.878 40.4271C454.572 39.8707 454.258 39.3591 453.935 38.8925ZM467.612 37.8425L470.708 38.9732C470.17 39.7989 469.613 40.6245 469.039 41.4502C468.465 42.2578 467.935 42.9489 467.451 43.5232L465.028 42.5002C465.333 42.0694 465.647 41.5937 465.97 41.0732C466.293 40.5348 466.598 39.9873 466.885 39.4309C467.172 38.8566 467.415 38.3271 467.612 37.8425Z" fill="#005EA4"/>
<path d="M53.4614 23.385C53.4614 23.8568 53.6255 24.2568 53.9537 24.585C54.2819 24.8927 54.6819 25.0465 55.1537 25.0465C55.605 25.0465 55.9947 24.8927 56.3229 24.585C56.6511 24.2568 56.8152 23.8568 56.8152 23.385C56.8152 22.9337 56.6511 22.544 56.3229 22.2158C55.9947 21.8876 55.605 21.7235 55.1537 21.7235C54.6819 21.7235 54.2819 21.8876 53.9537 22.2158C53.6255 22.544 53.4614 22.9337 53.4614 23.385ZM51.5845 23.385C51.5845 22.7286 51.7383 22.1337 52.046 21.6004C52.3742 21.067 52.805 20.6363 53.3383 20.3081C53.8922 19.9799 54.4973 19.8158 55.1537 19.8158C55.8101 19.8158 56.405 19.9799 56.9383 20.3081C57.4716 20.6363 57.8922 21.067 58.1998 21.6004C58.5281 22.1337 58.6922 22.7286 58.6922 23.385C58.6922 24.0414 58.5281 24.6465 58.1998 25.2004C57.8922 25.7337 57.4716 26.1645 56.9383 26.4927C56.405 26.8004 55.8101 26.9542 55.1537 26.9542C54.4973 26.9542 53.8922 26.8004 53.3383 26.4927C52.805 26.1645 52.3742 25.7337 52.046 25.2004C51.7383 24.6465 51.5845 24.0414 51.5845 23.385ZM47.3383 22.185C47.3178 22.3286 47.287 22.5645 47.246 22.8927C47.205 23.2209 47.164 23.5696 47.1229 23.9388C47.0819 24.2876 47.0614 24.5952 47.0614 24.8619C47.0614 25.4773 47.0614 26.1542 47.0614 26.8927C47.0614 27.6311 47.0614 28.3696 47.0614 29.1081C47.0614 29.826 47.0614 30.4824 47.0614 31.0773C47.0614 31.4876 47.0614 32.0619 47.0614 32.8004C47.0614 33.5388 47.0614 34.3696 47.0614 35.2927C47.0614 36.2158 47.0614 37.1799 47.0614 38.185C47.0614 39.1696 47.0614 40.1337 47.0614 41.0773C47.0614 42.0004 47.0614 42.8414 47.0614 43.6004C47.0614 44.3388 47.0614 44.9235 47.0614 45.3542C47.0614 46.2363 46.7947 46.9337 46.2614 47.4465C45.7486 47.9799 44.9486 48.2465 43.8614 48.2465C43.3075 48.2465 42.7434 48.2363 42.1691 48.2158C41.5947 48.1952 41.0306 48.1645 40.4768 48.1235C39.9229 48.0824 39.3793 48.0311 38.846 47.9696L38.4768 44.1542C39.1332 44.2773 39.7691 44.3696 40.3845 44.4311C41.0204 44.4927 41.5229 44.5235 41.8922 44.5235C42.3024 44.5235 42.5896 44.4414 42.7537 44.2773C42.9178 44.0927 43.0101 43.8055 43.0306 43.4158C43.0306 43.2311 43.0306 42.8311 43.0306 42.2158C43.0511 41.6004 43.0614 40.8722 43.0614 40.0311C43.0614 39.1901 43.0614 38.2978 43.0614 37.3542C43.0614 36.4106 43.0614 35.5081 43.0614 34.6465C43.0614 33.785 43.0614 33.0363 43.0614 32.4004C43.0614 31.7645 43.0614 31.3235 43.0614 31.0773C43.0614 30.7081 43.0614 30.1542 43.0614 29.4158C43.0614 28.6568 43.0614 27.8568 43.0614 27.0158C43.0614 26.1747 43.0614 25.4568 43.0614 24.8619C43.0614 24.4517 43.0306 23.9696 42.9691 23.4158C42.9075 22.8414 42.846 22.4311 42.7845 22.185H47.3383ZM32.2614 27.0773C32.7332 27.1388 33.2255 27.2004 33.7383 27.2619C34.2511 27.3029 34.7537 27.3235 35.246 27.3235C35.4922 27.3235 35.9845 27.3235 36.7229 27.3235C37.4819 27.3235 38.3845 27.3235 39.4306 27.3235C40.4768 27.3235 41.5947 27.3235 42.7845 27.3235C43.9947 27.3235 45.205 27.3235 46.4152 27.3235C47.646 27.3235 48.7845 27.3235 49.8306 27.3235C50.8973 27.3235 51.8204 27.3235 52.5999 27.3235C53.3793 27.3235 53.9229 27.3235 54.2306 27.3235C54.6614 27.3235 55.164 27.3029 55.7383 27.2619C56.3332 27.2209 56.846 27.1696 57.2768 27.1081V31.1388C56.805 31.0978 56.2922 31.0773 55.7383 31.0773C55.1845 31.0568 54.6922 31.0465 54.2614 31.0465C53.9537 31.0465 53.4101 31.0465 52.6306 31.0465C51.8716 31.0465 50.9588 31.0465 49.8922 31.0465C48.846 31.0465 47.7178 31.0465 46.5075 31.0465C45.2973 31.0465 44.087 31.0465 42.8768 31.0465C41.6665 31.0465 40.5383 31.0465 39.4922 31.0465C38.446 31.0465 37.5434 31.0465 36.7845 31.0465C36.046 31.0465 35.5332 31.0465 35.246 31.0465C34.7947 31.0465 34.2922 31.0568 33.7383 31.0773C33.205 31.0978 32.7127 31.1286 32.2614 31.1696V27.0773ZM40.1075 35.4158C39.7588 36.1132 39.3383 36.8619 38.846 37.6619C38.3537 38.4619 37.8204 39.2619 37.246 40.0619C36.6922 40.8619 36.1486 41.6106 35.6152 42.3081C35.0819 42.985 34.5998 43.5491 34.1691 44.0004L30.846 41.7235C31.3588 41.2517 31.8819 40.6978 32.4152 40.0619C32.9691 39.4055 33.5024 38.7183 34.0152 38.0004C34.5486 37.2824 35.0306 36.5645 35.4614 35.8465C35.9127 35.1286 36.3024 34.4414 36.6306 33.785L40.1075 35.4158ZM53.3383 33.6927C53.7281 34.185 54.1588 34.7696 54.6306 35.4465C55.1229 36.1235 55.6152 36.8517 56.1075 37.6311C56.5999 38.3901 57.0614 39.1388 57.4922 39.8773C57.9229 40.5952 58.2922 41.2311 58.5998 41.785L54.9691 43.7542C54.6409 43.0978 54.2614 42.3901 53.8306 41.6311C53.4204 40.8722 52.9896 40.1132 52.5383 39.3542C52.087 38.5952 51.6357 37.8876 51.1845 37.2311C50.7537 36.5542 50.3537 35.9799 49.9845 35.5081L53.3383 33.6927ZM62.2922 34.4927C65.0614 33.7747 67.564 32.944 69.7998 32.0004C72.0563 31.0363 74.0357 30.0311 75.7383 28.985C76.805 28.3286 77.8716 27.5799 78.9383 26.7388C80.0255 25.8773 81.0409 24.9952 81.9845 24.0927C82.9486 23.1901 83.7588 22.3286 84.4152 21.5081L87.7383 24.6773C86.7947 25.6004 85.7588 26.5337 84.6306 27.4773C83.5229 28.4209 82.364 29.3235 81.1537 30.185C79.9434 31.0465 78.7434 31.8363 77.5537 32.5542C76.3845 33.2311 75.0716 33.9286 73.6152 34.6465C72.1793 35.3645 70.6614 36.0414 69.0614 36.6773C67.4614 37.3132 65.8511 37.8773 64.2306 38.3696L62.2922 34.4927ZM75.0922 30.9542L79.4614 29.9388V43.785C79.4614 44.2363 79.4716 44.7286 79.4922 45.2619C79.5127 45.7952 79.5434 46.2876 79.5845 46.7388C79.6255 47.2106 79.6768 47.5696 79.7383 47.8158H74.8768C74.9178 47.5696 74.9486 47.2106 74.9691 46.7388C75.0101 46.2876 75.0409 45.7952 75.0614 45.2619C75.0819 44.7286 75.0922 44.2363 75.0922 43.785V30.9542ZM98.5691 23.0773C99.1024 23.4465 99.7281 23.8978 100.446 24.4311C101.164 24.9645 101.902 25.5491 102.661 26.185C103.441 26.8004 104.169 27.4055 104.846 28.0004C105.523 28.5952 106.077 29.1286 106.508 29.6004L103.369 32.8004C102.979 32.3696 102.467 31.8568 101.831 31.2619C101.195 30.667 100.508 30.0517 99.7691 29.4158C99.0306 28.7799 98.3024 28.1747 97.5845 27.6004C96.8665 27.026 96.2306 26.544 95.6768 26.1542L98.5691 23.0773ZM94.7229 43.5696C96.3229 43.344 97.8306 43.026 99.246 42.6158C100.661 42.2055 101.974 41.7337 103.184 41.2004C104.395 40.667 105.502 40.1132 106.508 39.5388C108.251 38.4927 109.851 37.3029 111.308 35.9696C112.764 34.6363 114.036 33.2517 115.123 31.8158C116.21 30.3593 117.072 28.944 117.708 27.5696L120.108 31.9081C119.328 33.2824 118.364 34.6568 117.215 36.0311C116.087 37.4055 114.805 38.7183 113.369 39.9696C111.933 41.2004 110.384 42.3081 108.723 43.2927C107.677 43.9286 106.549 44.5337 105.338 45.1081C104.128 45.6619 102.846 46.1542 101.492 46.585C100.159 47.0363 98.764 47.385 97.3075 47.6311L94.7229 43.5696ZM131.584 43.5081C131.584 43.1183 131.584 42.4824 131.584 41.6004C131.584 40.6978 131.584 39.6619 131.584 38.4927C131.584 37.3029 131.584 36.0619 131.584 34.7696C131.584 33.4773 131.584 32.2363 131.584 31.0465C131.584 29.8363 131.584 28.7696 131.584 27.8465C131.584 26.9235 131.584 26.2465 131.584 25.8158C131.584 25.2824 131.554 24.667 131.492 23.9696C131.451 23.2722 131.379 22.6568 131.277 22.1235H136.077C136.015 22.6568 135.954 23.2517 135.892 23.9081C135.831 24.544 135.8 25.1799 135.8 25.8158C135.8 26.3901 135.8 27.1696 135.8 28.1542C135.8 29.1388 135.8 30.2363 135.8 31.4465C135.8 32.6363 135.8 33.8568 135.8 35.1081C135.8 36.3388 135.8 37.5286 135.8 38.6773C135.8 39.826 135.8 40.8311 135.8 41.6927C135.8 42.5337 135.8 43.1388 135.8 43.5081C135.8 43.7952 135.81 44.2055 135.831 44.7388C135.851 45.2517 135.892 45.785 135.954 46.3388C136.015 46.8927 136.056 47.385 136.077 47.8158H131.277C131.359 47.2004 131.431 46.4824 131.492 45.6619C131.554 44.8414 131.584 44.1235 131.584 43.5081ZM134.877 30.0927C135.902 30.3593 137.051 30.7081 138.323 31.1388C139.595 31.5491 140.877 31.9901 142.169 32.4619C143.461 32.9337 144.672 33.4055 145.8 33.8773C146.949 34.3286 147.902 34.7491 148.661 35.1388L146.908 39.385C146.046 38.9337 145.092 38.4824 144.046 38.0311C143 37.5593 141.933 37.1081 140.846 36.6773C139.779 36.2465 138.723 35.8465 137.677 35.4773C136.651 35.1081 135.718 34.7799 134.877 34.4927V30.0927ZM167.923 46.8619C166.487 46.8619 165.195 46.6773 164.046 46.3081C162.897 45.9388 161.892 45.4568 161.031 44.8619C160.169 44.2465 159.431 43.5901 158.815 42.8927L161.031 40.0619C161.872 40.985 162.877 41.7337 164.046 42.3081C165.215 42.8824 166.415 43.1696 167.646 43.1696C168.487 43.1696 169.236 43.0465 169.892 42.8004C170.549 42.5337 171.051 42.1645 171.4 41.6927C171.769 41.2209 171.954 40.667 171.954 40.0311C171.954 39.2927 171.728 38.6568 171.277 38.1235C170.846 37.5696 170.108 37.1491 169.061 36.8619C168.015 36.5542 166.569 36.4004 164.723 36.4004V33.1696C166.323 33.1696 167.615 33.0158 168.6 32.7081C169.584 32.3799 170.302 31.9491 170.754 31.4158C171.205 30.8824 171.431 30.2978 171.431 29.6619C171.431 28.8414 171.102 28.1645 170.446 27.6311C169.79 27.0978 168.825 26.8311 167.554 26.8311C166.549 26.8311 165.543 27.0568 164.538 27.5081C163.554 27.9388 162.59 28.6363 161.646 29.6004L159.277 26.8311C160.467 25.7235 161.769 24.8517 163.184 24.2158C164.62 23.5593 166.128 23.2311 167.708 23.2311C169.349 23.2311 170.764 23.4876 171.954 24.0004C173.143 24.4927 174.056 25.1901 174.692 26.0927C175.349 26.9747 175.677 28.0106 175.677 29.2004C175.677 30.5132 175.328 31.6311 174.631 32.5542C173.954 33.4568 172.99 34.1132 171.738 34.5235V34.6465C172.6 34.8722 173.369 35.2414 174.046 35.7542C174.723 36.2465 175.256 36.8927 175.646 37.6927C176.056 38.4722 176.261 39.3747 176.261 40.4004C176.261 41.7337 175.882 42.8824 175.123 43.8465C174.364 44.8106 173.349 45.5593 172.077 46.0927C170.825 46.6055 169.441 46.8619 167.923 46.8619Z" fill="#005EA4"/>
</svg>
