<svg width="310" height="67" viewBox="0 0 310 67" fill="none" xmlns="http://www.w3.org/2000/svg">
<rect x="3.11538" y="3.11538" width="303.769" height="60.3281" rx="30.164" fill="white"/>
<rect x="3.11538" y="3.11538" width="303.769" height="60.3281" rx="30.164" stroke="#005EA4" stroke-width="5.76923"/>
<path d="M35.77 34.146C35.77 35.4073 35.6673 36.5367 35.462 37.534C35.2713 38.5313 34.956 39.382 34.516 40.086C34.0907 40.7753 33.526 41.3033 32.822 41.67C32.1327 42.0367 31.282 42.22 30.27 42.22C29.0087 42.22 27.9747 41.8973 27.168 41.252C26.3613 40.6067 25.76 39.6827 25.364 38.48C24.9827 37.2773 24.792 35.8327 24.792 34.146C24.792 32.4447 24.968 30.9927 25.32 29.79C25.672 28.5873 26.2513 27.6633 27.058 27.018C27.8647 26.3727 28.9353 26.05 30.27 26.05C31.5313 26.05 32.5653 26.3727 33.372 27.018C34.1787 27.6487 34.78 28.5727 35.176 29.79C35.572 30.9927 35.77 32.4447 35.77 34.146ZM28.092 34.146C28.092 35.334 28.158 36.3313 28.29 37.138C28.422 37.93 28.642 38.5313 28.95 38.942C29.2727 39.338 29.7127 39.536 30.27 39.536C30.8273 39.536 31.26 39.338 31.568 38.942C31.8907 38.546 32.118 37.952 32.25 37.16C32.3967 36.3533 32.47 35.3487 32.47 34.146C32.47 32.9433 32.3967 31.946 32.25 31.154C32.118 30.3473 31.8907 29.746 31.568 29.35C31.26 28.9393 30.8273 28.734 30.27 28.734C29.7127 28.734 29.2727 28.9393 28.95 29.35C28.642 29.746 28.422 30.3473 28.29 31.154C28.158 31.946 28.092 32.9433 28.092 34.146ZM45.6758 42H42.3538V32.914C42.3538 32.6647 42.3538 32.3567 42.3538 31.99C42.3685 31.6233 42.3832 31.242 42.3978 30.846C42.4125 30.45 42.4272 30.098 42.4418 29.79C42.3685 29.878 42.2072 30.0393 41.9578 30.274C41.7232 30.494 41.5032 30.692 41.2978 30.868L39.4938 32.32L37.8878 30.318L42.9478 26.292H45.6758V42Z" fill="#005EA4"/>
<path d="M77.866 25.808H89.372V28.206H77.866V25.808ZM77.14 34.278H90.186V36.654H77.14V34.278ZM76.942 30.12H90.34V32.518H76.942V30.12ZM82.398 23.41H84.906V31.374H82.398V23.41ZM85.236 32.122H87.744V41.208C87.744 41.8533 87.6707 42.352 87.524 42.704C87.3773 43.0707 87.0913 43.3567 86.666 43.562C86.2553 43.7527 85.7493 43.87 85.148 43.914C84.5613 43.958 83.872 43.98 83.08 43.98C83.036 43.6133 82.9407 43.188 82.794 42.704C82.6473 42.2347 82.4933 41.8313 82.332 41.494C82.8307 41.5087 83.3293 41.5233 83.828 41.538C84.3267 41.538 84.6493 41.5307 84.796 41.516C84.972 41.516 85.0893 41.494 85.148 41.45C85.2067 41.3913 85.236 41.2887 85.236 41.142V32.122ZM78.328 37.93L80.418 36.764C80.7407 37.1307 81.0633 37.5413 81.386 37.996C81.7087 38.436 82.002 38.876 82.266 39.316C82.53 39.7413 82.7427 40.1373 82.904 40.504L80.638 41.802C80.5207 41.45 80.3373 41.054 80.088 40.614C79.8387 40.1593 79.56 39.6973 79.252 39.228C78.9587 38.7587 78.6507 38.326 78.328 37.93ZM69.462 34.476C70.3567 34.2707 71.4273 34.0067 72.674 33.684C73.9353 33.3613 75.1967 33.024 76.458 32.672L76.788 35.048C75.6293 35.3853 74.456 35.73 73.268 36.082C72.0947 36.4193 71.0167 36.7273 70.034 37.006L69.462 34.476ZM69.814 27.48H76.612V29.9H69.814V27.48ZM72.3 23.322H74.72V41.054C74.72 41.6553 74.654 42.132 74.522 42.484C74.4047 42.8507 74.1773 43.1367 73.84 43.342C73.5027 43.5327 73.0847 43.6647 72.586 43.738C72.102 43.8113 71.5007 43.8407 70.782 43.826C70.7527 43.5033 70.672 43.1 70.54 42.616C70.408 42.1467 70.2613 41.736 70.1 41.384C70.496 41.3987 70.8627 41.4133 71.2 41.428C71.552 41.428 71.794 41.4207 71.926 41.406C72.058 41.406 72.1533 41.384 72.212 41.34C72.2707 41.2813 72.3 41.1787 72.3 41.032V23.322ZM98.326 29.482H112.098V31.704H98.326V29.482ZM104.068 37.512L105.608 36.192C106.019 36.5147 106.444 36.874 106.884 37.27C107.339 37.666 107.771 38.062 108.182 38.458C108.607 38.8393 108.945 39.1767 109.194 39.47L107.588 40.966C107.339 40.658 107.016 40.2987 106.62 39.888C106.224 39.4773 105.799 39.0667 105.344 38.656C104.904 38.2453 104.479 37.864 104.068 37.512ZM98.788 33.288H109.986V35.51H101.164V43.98H98.788V33.288ZM108.974 33.288H111.482V41.406C111.482 41.9633 111.409 42.4107 111.262 42.748C111.13 43.0853 110.873 43.3493 110.492 43.54C110.111 43.7307 109.656 43.848 109.128 43.892C108.615 43.9507 108.006 43.9727 107.302 43.958C107.258 43.6207 107.148 43.232 106.972 42.792C106.811 42.352 106.642 41.978 106.466 41.67C106.906 41.6847 107.331 41.6993 107.742 41.714C108.167 41.714 108.446 41.7067 108.578 41.692C108.725 41.692 108.827 41.67 108.886 41.626C108.945 41.5673 108.974 41.4793 108.974 41.362V33.288ZM103.782 30.23H106.07V34.146C106.07 34.7473 106.011 35.3633 105.894 35.994C105.791 36.6247 105.593 37.248 105.3 37.864C105.021 38.48 104.625 39.0667 104.112 39.624C103.599 40.1667 102.939 40.658 102.132 41.098C101.985 40.8487 101.758 40.5553 101.45 40.218C101.157 39.8807 100.885 39.6093 100.636 39.404C101.34 39.096 101.897 38.7293 102.308 38.304C102.733 37.8787 103.049 37.4313 103.254 36.962C103.474 36.478 103.613 35.994 103.672 35.51C103.745 35.026 103.782 34.564 103.782 34.124V30.23ZM96.478 25.676H112.23V28.03H96.478V25.676ZM95.048 25.676H97.556V32.254C97.556 33.134 97.512 34.0947 97.424 35.136C97.336 36.1773 97.1673 37.226 96.918 38.282C96.6687 39.3233 96.3093 40.328 95.84 41.296C95.3707 42.264 94.7547 43.1293 93.992 43.892C93.8747 43.716 93.6913 43.5107 93.442 43.276C93.2073 43.0413 92.9653 42.814 92.716 42.594C92.4813 42.374 92.276 42.22 92.1 42.132C92.7747 41.4427 93.3027 40.6873 93.684 39.866C94.08 39.0447 94.3733 38.2013 94.564 37.336C94.7693 36.456 94.9013 35.5833 94.96 34.718C95.0187 33.838 95.048 33.0093 95.048 32.232V25.676ZM101.67 23.3H104.442V27.238H101.67V23.3ZM91.638 28.404L93.552 27.48C93.9187 28.1107 94.256 28.8073 94.564 29.57C94.872 30.318 95.0773 30.9707 95.18 31.528L93.134 32.628C93.0753 32.2467 92.9653 31.814 92.804 31.33C92.6573 30.846 92.4813 30.3547 92.276 29.856C92.0853 29.3427 91.8727 28.8587 91.638 28.404ZM91.462 35.928C91.99 35.7227 92.606 35.444 93.31 35.092C94.0287 34.74 94.7693 34.3807 95.532 34.014L96.148 36.082C95.5027 36.478 94.8427 36.874 94.168 37.27C93.508 37.666 92.8627 38.0473 92.232 38.414L91.462 35.928ZM123.01 24.774C122.951 25.0527 122.885 25.3607 122.812 25.698C122.739 26.0207 122.673 26.3213 122.614 26.6C122.555 26.9227 122.482 27.2893 122.394 27.7C122.306 28.096 122.218 28.4993 122.13 28.91C122.057 29.306 121.976 29.6947 121.888 30.076C121.741 30.7067 121.558 31.44 121.338 32.276C121.118 33.112 120.861 34.014 120.568 34.982C120.275 35.9353 119.945 36.896 119.578 37.864C119.211 38.832 118.823 39.778 118.412 40.702C118.001 41.6113 117.561 42.4327 117.092 43.166L114.232 42.022C114.745 41.3327 115.222 40.5627 115.662 39.712C116.117 38.8467 116.527 37.9667 116.894 37.072C117.261 36.1627 117.583 35.268 117.862 34.388C118.155 33.4933 118.405 32.6647 118.61 31.902C118.83 31.1393 118.999 30.4867 119.116 29.944C119.321 28.9467 119.483 27.986 119.6 27.062C119.717 26.138 119.761 25.2653 119.732 24.444L123.01 24.774ZM130.578 26.996C130.93 27.48 131.289 28.074 131.656 28.778C132.037 29.4673 132.411 30.2007 132.778 30.978C133.145 31.7553 133.475 32.5033 133.768 33.222C134.061 33.9407 134.289 34.564 134.45 35.092L131.656 36.368C131.524 35.752 131.326 35.07 131.062 34.322C130.813 33.574 130.519 32.8187 130.182 32.056C129.845 31.2787 129.485 30.5453 129.104 29.856C128.737 29.1667 128.356 28.5873 127.96 28.118L130.578 26.996ZM114.078 29.284C114.474 29.3133 114.863 29.328 115.244 29.328C115.64 29.3133 116.036 29.2987 116.432 29.284C116.799 29.2693 117.239 29.2473 117.752 29.218C118.265 29.174 118.808 29.13 119.38 29.086C119.967 29.042 120.553 28.998 121.14 28.954C121.727 28.8953 122.269 28.8513 122.768 28.822C123.267 28.7927 123.677 28.778 124 28.778C124.792 28.778 125.481 28.91 126.068 29.174C126.655 29.4233 127.117 29.856 127.454 30.472C127.806 31.088 127.982 31.924 127.982 32.98C127.982 33.8453 127.945 34.784 127.872 35.796C127.799 36.808 127.667 37.776 127.476 38.7C127.3 39.624 127.051 40.4087 126.728 41.054C126.376 41.8167 125.892 42.3447 125.276 42.638C124.675 42.9313 123.956 43.078 123.12 43.078C122.709 43.078 122.262 43.0413 121.778 42.968C121.294 42.9093 120.861 42.8433 120.48 42.77L120.018 39.866C120.297 39.9393 120.605 40.0127 120.942 40.086C121.294 40.1593 121.624 40.218 121.932 40.262C122.255 40.306 122.511 40.328 122.702 40.328C123.069 40.328 123.391 40.262 123.67 40.13C123.949 39.9833 124.176 39.734 124.352 39.382C124.557 38.9567 124.726 38.4067 124.858 37.732C124.99 37.0573 125.085 36.3313 125.144 35.554C125.217 34.762 125.254 34.0067 125.254 33.288C125.254 32.7013 125.166 32.2687 124.99 31.99C124.829 31.7113 124.587 31.528 124.264 31.44C123.956 31.3373 123.575 31.286 123.12 31.286C122.783 31.286 122.328 31.3153 121.756 31.374C121.184 31.418 120.568 31.4767 119.908 31.55C119.263 31.6087 118.661 31.6747 118.104 31.748C117.547 31.8213 117.114 31.8727 116.806 31.902C116.483 31.9607 116.073 32.0267 115.574 32.1C115.09 32.1587 114.679 32.2173 114.342 32.276L114.078 29.284ZM130.182 23.938C130.373 24.202 130.571 24.5173 130.776 24.884C130.996 25.2507 131.209 25.6173 131.414 25.984C131.619 26.3507 131.795 26.6733 131.942 26.952L130.16 27.722C130.013 27.414 129.845 27.0767 129.654 26.71C129.463 26.3433 129.265 25.9767 129.06 25.61C128.855 25.2433 128.649 24.928 128.444 24.664L130.182 23.938ZM132.8 22.948C132.991 23.2267 133.196 23.5493 133.416 23.916C133.636 24.2827 133.849 24.6493 134.054 25.016C134.274 25.3827 134.443 25.6907 134.56 25.94L132.822 26.688C132.587 26.2333 132.309 25.72 131.986 25.148C131.663 24.5613 131.348 24.0627 131.04 23.652L132.8 22.948ZM145.912 24.29C145.853 24.4953 145.795 24.7007 145.736 24.906C145.692 25.0967 145.648 25.28 145.604 25.456C145.472 26.1453 145.347 26.9373 145.23 27.832C145.113 28.712 145.017 29.636 144.944 30.604C144.871 31.5573 144.834 32.496 144.834 33.42C144.834 34.564 144.893 35.62 145.01 36.588C145.127 37.5413 145.289 38.4287 145.494 39.25C145.714 40.0567 145.949 40.8267 146.198 41.56L143.668 42.33C143.448 41.67 143.235 40.8853 143.03 39.976C142.839 39.0667 142.678 38.0913 142.546 37.05C142.414 35.994 142.348 34.9307 142.348 33.86C142.348 33.1267 142.37 32.3933 142.414 31.66C142.473 30.912 142.531 30.1787 142.59 29.46C142.649 28.7267 142.715 28.03 142.788 27.37C142.876 26.6953 142.949 26.0867 143.008 25.544C143.023 25.3387 143.037 25.1187 143.052 24.884C143.067 24.6347 143.067 24.4147 143.052 24.224L145.912 24.29ZM141.996 26.732C143.389 26.732 144.695 26.7027 145.912 26.644C147.144 26.5853 148.325 26.4827 149.454 26.336C150.598 26.1893 151.735 25.9767 152.864 25.698L152.886 28.25C152.123 28.382 151.28 28.5067 150.356 28.624C149.447 28.7267 148.493 28.8147 147.496 28.888C146.513 28.9613 145.545 29.02 144.592 29.064C143.639 29.0933 142.744 29.108 141.908 29.108C141.527 29.108 141.094 29.1007 140.61 29.086C140.141 29.0713 139.671 29.0567 139.202 29.042C138.747 29.0127 138.351 28.9907 138.014 28.976L137.948 26.424C138.197 26.4533 138.557 26.4973 139.026 26.556C139.495 26.6 139.994 26.644 140.522 26.688C141.065 26.7173 141.556 26.732 141.996 26.732ZM151.478 29.944C151.434 30.076 151.368 30.2593 151.28 30.494C151.192 30.7287 151.104 30.9707 151.016 31.22C150.943 31.4693 150.884 31.6673 150.84 31.814C150.415 33.134 149.894 34.344 149.278 35.444C148.677 36.5293 148.024 37.4827 147.32 38.304C146.616 39.1107 145.919 39.7707 145.23 40.284C144.511 40.8267 143.69 41.3033 142.766 41.714C141.842 42.11 140.911 42.308 139.972 42.308C139.444 42.308 138.953 42.198 138.498 41.978C138.043 41.758 137.677 41.4133 137.398 40.944C137.134 40.46 137.002 39.8513 137.002 39.118C137.002 38.326 137.163 37.5487 137.486 36.786C137.809 36.0233 138.256 35.2973 138.828 34.608C139.4 33.9187 140.067 33.31 140.83 32.782C141.593 32.2393 142.414 31.814 143.294 31.506C144.013 31.242 144.797 31.0293 145.648 30.868C146.513 30.7067 147.364 30.626 148.2 30.626C149.564 30.626 150.781 30.8753 151.852 31.374C152.937 31.8727 153.788 32.5547 154.404 33.42C155.02 34.2853 155.328 35.2973 155.328 36.456C155.328 37.2333 155.203 37.996 154.954 38.744C154.705 39.4773 154.294 40.1593 153.722 40.79C153.165 41.4207 152.424 41.9633 151.5 42.418C150.576 42.8727 149.439 43.2027 148.09 43.408L146.638 41.098C148.046 40.9367 149.19 40.6213 150.07 40.152C150.95 39.668 151.588 39.0887 151.984 38.414C152.395 37.7393 152.6 37.0427 152.6 36.324C152.6 35.6787 152.424 35.0993 152.072 34.586C151.735 34.0727 151.221 33.662 150.532 33.354C149.857 33.0313 149.021 32.87 148.024 32.87C147.027 32.87 146.132 32.98 145.34 33.2C144.563 33.42 143.91 33.6547 143.382 33.904C142.649 34.256 141.996 34.7033 141.424 35.246C140.852 35.774 140.405 36.3313 140.082 36.918C139.759 37.5047 139.598 38.0473 139.598 38.546C139.598 38.898 139.679 39.1693 139.84 39.36C140.001 39.536 140.258 39.624 140.61 39.624C141.138 39.624 141.747 39.4553 142.436 39.118C143.125 38.766 143.807 38.2747 144.482 37.644C145.274 36.9107 146.022 36.0307 146.726 35.004C147.43 33.9773 148.009 32.7013 148.464 31.176C148.508 31.0293 148.552 30.8387 148.596 30.604C148.64 30.3693 148.677 30.1347 148.706 29.9C148.75 29.6507 148.779 29.4527 148.794 29.306L151.478 29.944ZM160.146 32.694C160.483 32.6207 160.872 32.5327 161.312 32.43C161.752 32.3127 162.141 32.2027 162.478 32.1C162.845 31.9827 163.336 31.8287 163.952 31.638C164.568 31.4473 165.243 31.2567 165.976 31.066C166.724 30.8753 167.472 30.714 168.22 30.582C168.983 30.45 169.701 30.384 170.376 30.384C171.535 30.384 172.547 30.604 173.412 31.044C174.292 31.4693 174.974 32.0853 175.458 32.892C175.942 33.6987 176.184 34.6593 176.184 35.774C176.184 36.7713 175.964 37.6807 175.524 38.502C175.099 39.3233 174.446 40.042 173.566 40.658C172.686 41.274 171.586 41.7727 170.266 42.154C168.961 42.55 167.435 42.7993 165.69 42.902L164.524 40.196C165.785 40.1667 166.944 40.0567 168 39.866C169.071 39.6753 169.995 39.404 170.772 39.052C171.564 38.6853 172.173 38.2233 172.598 37.666C173.038 37.1087 173.258 36.4633 173.258 35.73C173.258 35.1727 173.126 34.6887 172.862 34.278C172.613 33.8527 172.253 33.5227 171.784 33.288C171.315 33.0533 170.757 32.936 170.112 32.936C169.599 32.936 169.027 33.002 168.396 33.134C167.765 33.266 167.113 33.4347 166.438 33.64C165.778 33.8453 165.125 34.0653 164.48 34.3C163.835 34.5347 163.233 34.762 162.676 34.982C162.119 35.202 161.657 35.3927 161.29 35.554L160.146 32.694ZM179.466 26.864C179.906 26.8493 180.324 26.8347 180.72 26.82C181.116 26.7907 181.424 26.7687 181.644 26.754C182.099 26.71 182.656 26.6587 183.316 26.6C183.976 26.5413 184.717 26.4753 185.538 26.402C186.374 26.3287 187.262 26.2553 188.2 26.182C189.139 26.094 190.114 26.006 191.126 25.918C191.889 25.8593 192.652 25.808 193.414 25.764C194.177 25.7053 194.896 25.6613 195.57 25.632C196.26 25.588 196.854 25.5587 197.352 25.544L197.374 28.36C196.978 28.36 196.524 28.3673 196.01 28.382C195.497 28.3967 194.984 28.426 194.47 28.47C193.972 28.4993 193.524 28.558 193.128 28.646C192.468 28.822 191.852 29.1227 191.28 29.548C190.723 29.9587 190.232 30.45 189.806 31.022C189.381 31.594 189.051 32.21 188.816 32.87C188.596 33.5153 188.486 34.168 188.486 34.828C188.486 35.5467 188.611 36.1847 188.86 36.742C189.11 37.2847 189.454 37.754 189.894 38.15C190.349 38.5313 190.877 38.854 191.478 39.118C192.08 39.3673 192.725 39.558 193.414 39.69C194.118 39.822 194.844 39.91 195.592 39.954L194.558 42.968C193.634 42.9093 192.732 42.7627 191.852 42.528C190.987 42.2933 190.173 41.9707 189.41 41.56C188.662 41.1493 188.002 40.6507 187.43 40.064C186.858 39.4627 186.411 38.7807 186.088 38.018C185.766 37.2407 185.604 36.3753 185.604 35.422C185.604 34.3513 185.773 33.376 186.11 32.496C186.448 31.616 186.866 30.846 187.364 30.186C187.863 29.5113 188.362 28.9907 188.86 28.624C188.45 28.668 187.951 28.7267 187.364 28.8C186.792 28.8587 186.169 28.932 185.494 29.02C184.834 29.0933 184.16 29.174 183.47 29.262C182.781 29.35 182.114 29.4527 181.468 29.57C180.838 29.6727 180.266 29.7753 179.752 29.878L179.466 26.864ZM209.127 24.378C209.039 24.774 208.965 25.126 208.907 25.434C208.848 25.742 208.797 26.0427 208.753 26.336C208.694 26.644 208.621 27.0913 208.533 27.678C208.459 28.25 208.371 28.9027 208.269 29.636C208.181 30.3547 208.085 31.11 207.983 31.902C207.895 32.6793 207.807 33.442 207.719 34.19C207.631 34.938 207.557 35.62 207.499 36.236C207.455 36.852 207.433 37.3433 207.433 37.71C207.433 38.6193 207.704 39.316 208.247 39.8C208.804 40.2693 209.625 40.504 210.711 40.504C211.737 40.504 212.603 40.3647 213.307 40.086C214.011 39.7927 214.546 39.404 214.913 38.92C215.279 38.436 215.463 37.8933 215.463 37.292C215.463 36.544 215.265 35.818 214.869 35.114C214.487 34.3953 213.93 33.6987 213.197 33.024L216.299 32.364C217.032 33.288 217.567 34.168 217.905 35.004C218.257 35.8253 218.433 36.7053 218.433 37.644C218.433 38.744 218.117 39.7267 217.487 40.592C216.856 41.4573 215.954 42.132 214.781 42.616C213.622 43.1 212.236 43.342 210.623 43.342C209.479 43.342 208.459 43.166 207.565 42.814C206.67 42.462 205.973 41.9047 205.475 41.142C204.976 40.3793 204.727 39.3893 204.727 38.172C204.727 37.7173 204.763 37.116 204.837 36.368C204.91 35.6053 204.998 34.7693 205.101 33.86C205.218 32.936 205.335 32.0047 205.453 31.066C205.57 30.1127 205.673 29.2107 205.761 28.36C205.863 27.5093 205.944 26.776 206.003 26.16C206.032 25.6467 206.047 25.258 206.047 24.994C206.061 24.7153 206.054 24.4513 206.025 24.202L209.127 24.378ZM201.273 27.106C201.933 27.3113 202.651 27.4873 203.429 27.634C204.206 27.766 205.005 27.8687 205.827 27.942C206.648 28.0007 207.425 28.03 208.159 28.03C209.024 28.03 209.831 28.0007 210.579 27.942C211.327 27.8833 211.979 27.81 212.537 27.722L212.449 30.34C211.789 30.3987 211.129 30.45 210.469 30.494C209.809 30.538 209.017 30.56 208.093 30.56C207.345 30.56 206.567 30.5233 205.761 30.45C204.954 30.362 204.155 30.252 203.363 30.12C202.571 29.9733 201.83 29.812 201.141 29.636L201.273 27.106ZM200.811 32.562C201.603 32.826 202.402 33.0313 203.209 33.178C204.03 33.3247 204.837 33.4273 205.629 33.486C206.435 33.53 207.205 33.552 207.939 33.552C208.613 33.552 209.339 33.53 210.117 33.486C210.909 33.442 211.657 33.376 212.361 33.288L212.295 35.906C211.679 35.9647 211.048 36.016 210.403 36.06C209.757 36.0893 209.09 36.104 208.401 36.104C206.934 36.104 205.526 36.0307 204.177 35.884C202.827 35.7227 201.654 35.5027 200.657 35.224L200.811 32.562ZM222.041 29.24H241.621V31.968H222.041V29.24ZM233.349 30.34C233.789 32.012 234.397 33.574 235.175 35.026C235.952 36.478 236.913 37.7467 238.057 38.832C239.215 39.9173 240.565 40.7753 242.105 41.406C241.885 41.5967 241.65 41.8387 241.401 42.132C241.166 42.4253 240.931 42.726 240.697 43.034C240.477 43.3567 240.293 43.6427 240.147 43.892C238.46 43.1 237.008 42.0807 235.791 40.834C234.588 39.5873 233.576 38.1353 232.755 36.478C231.933 34.806 231.244 32.9653 230.687 30.956L233.349 30.34ZM230.313 23.322H233.195C233.18 24.4367 233.143 25.6173 233.085 26.864C233.041 28.096 232.931 29.35 232.755 30.626C232.579 31.902 232.293 33.1707 231.897 34.432C231.515 35.6787 230.973 36.8813 230.269 38.04C229.579 39.184 228.685 40.2547 227.585 41.252C226.499 42.2493 225.172 43.1293 223.603 43.892C223.397 43.54 223.111 43.1513 222.745 42.726C222.378 42.3007 222.004 41.9487 221.623 41.67C223.119 40.9953 224.373 40.218 225.385 39.338C226.397 38.4433 227.218 37.4827 227.849 36.456C228.494 35.4147 228.985 34.3367 229.323 33.222C229.66 32.0927 229.887 30.956 230.005 29.812C230.137 28.668 230.217 27.546 230.247 26.446C230.276 25.346 230.298 24.3047 230.313 23.322ZM244.063 27.282H263.599V29.856H244.063V27.282ZM249.013 30.56C249.614 32.7453 250.509 34.5933 251.697 36.104C252.899 37.6 254.483 38.7807 256.449 39.646C258.429 40.5113 260.893 41.098 263.841 41.406C263.65 41.5967 263.452 41.846 263.247 42.154C263.041 42.462 262.851 42.77 262.675 43.078C262.499 43.386 262.352 43.672 262.235 43.936C259.903 43.628 257.879 43.1513 256.163 42.506C254.447 41.8607 252.973 41.0173 251.741 39.976C250.523 38.9347 249.489 37.688 248.639 36.236C247.803 34.7693 247.091 33.0753 246.505 31.154L249.013 30.56ZM254.711 23.674H257.637C257.622 25.4193 257.585 27.0693 257.527 28.624C257.483 30.164 257.351 31.6087 257.131 32.958C256.911 34.2927 256.551 35.5173 256.053 36.632C255.569 37.7467 254.887 38.7587 254.007 39.668C253.127 40.5627 251.99 41.3473 250.597 42.022C249.218 42.7113 247.509 43.2833 245.471 43.738C245.397 43.5033 245.273 43.2393 245.097 42.946C244.935 42.6673 244.752 42.3887 244.547 42.11C244.341 41.8313 244.143 41.5967 243.953 41.406C245.83 41.0247 247.399 40.548 248.661 39.976C249.937 39.404 250.963 38.744 251.741 37.996C252.533 37.2333 253.127 36.368 253.523 35.4C253.933 34.432 254.219 33.3613 254.381 32.188C254.542 31 254.637 29.702 254.667 28.294C254.696 26.8713 254.711 25.3313 254.711 23.674ZM266.019 32.496H285.621V35.202H266.019V32.496ZM267.537 26.226H284.411V28.954H267.537V26.226ZM276.821 33.222C277.495 35.378 278.595 37.1453 280.121 38.524C281.646 39.9027 283.714 40.8413 286.325 41.34C286.134 41.5453 285.921 41.7947 285.687 42.088C285.467 42.3813 285.261 42.682 285.071 42.99C284.88 43.3127 284.719 43.5987 284.587 43.848C282.709 43.364 281.111 42.682 279.791 41.802C278.471 40.9073 277.371 39.7927 276.491 38.458C275.625 37.1233 274.907 35.5613 274.335 33.772L276.821 33.222ZM274.313 23.3H277.151V30.494C277.151 31.5207 277.085 32.562 276.953 33.618C276.821 34.674 276.564 35.7153 276.183 36.742C275.801 37.754 275.244 38.7147 274.511 39.624C273.777 40.5333 272.809 41.362 271.607 42.11C270.404 42.858 268.923 43.496 267.163 44.024C267.06 43.7893 266.913 43.518 266.723 43.21C266.547 42.9167 266.349 42.616 266.129 42.308C265.909 42.0147 265.711 41.7727 265.535 41.582C267.104 41.142 268.417 40.6067 269.473 39.976C270.529 39.3453 271.379 38.656 272.025 37.908C272.67 37.1453 273.154 36.3533 273.477 35.532C273.814 34.696 274.034 33.8527 274.137 33.002C274.254 32.1513 274.313 31.3153 274.313 30.494V23.3Z" fill="#005EA4"/>
</svg>
