<svg width="509" height="72" viewBox="0 0 509 72" fill="none" xmlns="http://www.w3.org/2000/svg">
<rect x="3.65249" y="3.50064" width="501.923" height="64.8687" rx="32.4343" fill="white" stroke="#005EA4" stroke-width="5.76923"/>
<path d="M217.387 25.1851H231.468V28.1197H217.387V25.1851ZM216.499 35.5505H232.464V38.4582H216.499V35.5505ZM216.256 30.462H232.652V33.3966H216.256V30.462ZM222.933 22.2505H226.002V31.9966H222.933V22.2505ZM226.406 32.912H229.476V44.0313C229.476 44.821 229.386 45.4313 229.206 45.862C229.027 46.3107 228.677 46.6607 228.156 46.912C227.654 47.1454 227.035 47.2889 226.299 47.3428C225.581 47.3966 224.737 47.4236 223.768 47.4236C223.714 46.9748 223.597 46.4543 223.418 45.862C223.238 45.2877 223.05 44.7941 222.852 44.3813C223.463 44.3992 224.073 44.4172 224.683 44.4351C225.294 44.4351 225.688 44.4261 225.868 44.4082C226.083 44.4082 226.227 44.3813 226.299 44.3274C226.37 44.2556 226.406 44.13 226.406 43.9505V32.912ZM217.952 40.0197L220.51 38.5928C220.905 39.0415 221.3 39.5441 221.695 40.1005C222.09 40.6389 222.449 41.1774 222.772 41.7159C223.095 42.2364 223.355 42.721 223.552 43.1697L220.779 44.7582C220.636 44.3274 220.411 43.8428 220.106 43.3043C219.801 42.7479 219.46 42.1825 219.083 41.6082C218.724 41.0338 218.347 40.5043 217.952 40.0197ZM207.102 35.7928C208.197 35.5415 209.508 35.2184 211.033 34.8236C212.577 34.4287 214.12 34.0159 215.664 33.5851L216.068 36.4928C214.65 36.9056 213.214 37.3274 211.76 37.7582C210.324 38.171 209.005 38.5479 207.802 38.8889L207.102 35.7928ZM207.533 27.2313H215.852V30.1928H207.533V27.2313ZM210.576 22.1428H213.537V43.8428C213.537 44.5787 213.456 45.162 213.295 45.5928C213.151 46.0415 212.873 46.3915 212.46 46.6428C212.047 46.8761 211.536 47.0377 210.926 47.1274C210.333 47.2172 209.597 47.2531 208.718 47.2351C208.682 46.8402 208.583 46.3466 208.422 45.7543C208.26 45.18 208.081 44.6774 207.883 44.2466C208.368 44.2646 208.817 44.2825 209.229 44.3005C209.66 44.3005 209.956 44.2915 210.118 44.2736C210.279 44.2736 210.396 44.2466 210.468 44.1928C210.54 44.121 210.576 43.9954 210.576 43.8159V22.1428ZM242.426 29.6813H259.279V32.4005H242.426V29.6813ZM249.452 39.5082L251.337 37.8928C251.84 38.2877 252.36 38.7274 252.899 39.212C253.455 39.6966 253.985 40.1813 254.487 40.6659C255.008 41.1325 255.42 41.5454 255.726 41.9043L253.76 43.7351C253.455 43.3582 253.06 42.9184 252.576 42.4159C252.091 41.9133 251.57 41.4107 251.014 40.9082C250.476 40.4056 249.955 39.9389 249.452 39.5082ZM242.991 34.3389H256.695V37.0582H245.899V47.4236H242.991V34.3389ZM255.456 34.3389H258.526V44.2736C258.526 44.9556 258.436 45.5031 258.256 45.9159C258.095 46.3287 257.781 46.6518 257.314 46.8851C256.847 47.1184 256.291 47.262 255.645 47.3159C255.017 47.3877 254.272 47.4146 253.41 47.3966C253.356 46.9838 253.222 46.5082 253.006 45.9697C252.809 45.4313 252.602 44.9736 252.387 44.5966C252.926 44.6146 253.446 44.6325 253.949 44.6505C254.469 44.6505 254.81 44.6415 254.972 44.6236C255.151 44.6236 255.277 44.5966 255.349 44.5428C255.42 44.471 255.456 44.3633 255.456 44.2197V34.3389ZM249.102 30.5966H251.902V35.3889C251.902 36.1248 251.831 36.8787 251.687 37.6505C251.561 38.4223 251.319 39.1851 250.96 39.9389C250.619 40.6928 250.135 41.4107 249.506 42.0928C248.878 42.7569 248.07 43.3582 247.083 43.8966C246.904 43.5915 246.626 43.2325 246.249 42.8197C245.89 42.4069 245.558 42.0748 245.252 41.8236C246.114 41.4466 246.796 40.9979 247.299 40.4774C247.819 39.9569 248.205 39.4095 248.456 38.8351C248.726 38.2428 248.896 37.6505 248.968 37.0582C249.058 36.4659 249.102 35.9005 249.102 35.362V30.5966ZM240.164 25.0236H259.441V27.9043H240.164V25.0236ZM238.414 25.0236H241.483V33.0736C241.483 34.1505 241.429 35.3261 241.322 36.6005C241.214 37.8748 241.008 39.1582 240.702 40.4505C240.397 41.7248 239.958 42.9543 239.383 44.1389C238.809 45.3236 238.055 46.3825 237.122 47.3159C236.978 47.1005 236.754 46.8492 236.449 46.562C236.161 46.2748 235.865 45.9966 235.56 45.7274C235.273 45.4582 235.022 45.2697 234.806 45.162C235.632 44.3184 236.278 43.3941 236.745 42.3889C237.229 41.3838 237.588 40.3518 237.822 39.2928C238.073 38.2159 238.235 37.1479 238.306 36.0889C238.378 35.012 238.414 33.9979 238.414 33.0466V25.0236ZM246.518 22.1159H249.91V26.9351H246.518V22.1159ZM234.241 28.362L236.583 27.2313C237.032 28.0031 237.445 28.8556 237.822 29.789C238.199 30.7043 238.45 31.5031 238.576 32.1851L236.072 33.5313C236 33.0646 235.865 32.5351 235.668 31.9428C235.488 31.3505 235.273 30.7492 235.022 30.1389C234.788 29.5107 234.528 28.9184 234.241 28.362ZM234.026 37.5697C234.672 37.3184 235.426 36.9774 236.287 36.5466C237.167 36.1159 238.073 35.6761 239.006 35.2274L239.76 37.7582C238.97 38.2428 238.163 38.7274 237.337 39.212C236.529 39.6966 235.74 40.1633 234.968 40.612L234.026 37.5697ZM273.01 23.4351C272.902 23.9197 272.813 24.3505 272.741 24.7274C272.669 25.1043 272.606 25.4723 272.552 25.8313C272.481 26.2082 272.391 26.7556 272.283 27.4736C272.194 28.1736 272.086 28.9723 271.96 29.8697C271.852 30.7492 271.736 31.6736 271.61 32.6428C271.502 33.5941 271.395 34.5274 271.287 35.4428C271.179 36.3582 271.09 37.1928 271.018 37.9466C270.964 38.7005 270.937 39.3018 270.937 39.7505C270.937 40.8633 271.269 41.7159 271.933 42.3082C272.615 42.8825 273.62 43.1697 274.949 43.1697C276.205 43.1697 277.264 42.9992 278.126 42.6582C278.987 42.2992 279.642 41.8236 280.091 41.2313C280.54 40.6389 280.764 39.9748 280.764 39.2389C280.764 38.3236 280.522 37.4351 280.037 36.5736C279.57 35.6941 278.888 34.8415 277.991 34.0159L281.787 33.2082C282.685 34.3389 283.34 35.4159 283.752 36.4389C284.183 37.4441 284.399 38.521 284.399 39.6697C284.399 41.0159 284.013 42.2184 283.241 43.2774C282.469 44.3364 281.365 45.162 279.929 45.7543C278.511 46.3466 276.815 46.6428 274.841 46.6428C273.441 46.6428 272.194 46.4274 271.099 45.9966C270.004 45.5659 269.151 44.8838 268.541 43.9505C267.931 43.0172 267.626 41.8056 267.626 40.3159C267.626 39.7595 267.67 39.0236 267.76 38.1082C267.85 37.1748 267.958 36.1518 268.083 35.0389C268.227 33.9082 268.37 32.7684 268.514 31.6197C268.658 30.4531 268.783 29.3492 268.891 28.3082C269.017 27.2672 269.115 26.3697 269.187 25.6159C269.223 24.9877 269.241 24.512 269.241 24.1889C269.259 23.8479 269.25 23.5248 269.214 23.2197L273.01 23.4351ZM263.399 26.7736C264.206 27.0248 265.086 27.2402 266.037 27.4197C266.988 27.5813 267.967 27.7069 268.972 27.7966C269.977 27.8684 270.928 27.9043 271.826 27.9043C272.885 27.9043 273.872 27.8684 274.787 27.7966C275.702 27.7248 276.501 27.6351 277.183 27.5274L277.076 30.7313C276.268 30.8031 275.46 30.8659 274.652 30.9197C273.845 30.9736 272.876 31.0005 271.745 31.0005C270.829 31.0005 269.878 30.9556 268.891 30.8659C267.904 30.7582 266.926 30.6236 265.956 30.462C264.987 30.2825 264.081 30.0851 263.237 29.8697L263.399 26.7736ZM262.833 33.4505C263.802 33.7736 264.781 34.0248 265.768 34.2043C266.773 34.3838 267.76 34.5095 268.729 34.5813C269.717 34.6351 270.659 34.662 271.556 34.662C272.382 34.662 273.27 34.6351 274.222 34.5813C275.191 34.5274 276.106 34.4466 276.968 34.3389L276.887 37.5428C276.133 37.6146 275.361 37.6774 274.572 37.7313C273.782 37.7672 272.965 37.7851 272.122 37.7851C270.327 37.7851 268.604 37.6954 266.952 37.5159C265.301 37.3184 263.865 37.0492 262.645 36.7082L262.833 33.4505ZM297.295 23.6505C297.223 24.2069 297.151 24.8082 297.079 25.4543C297.026 26.1005 296.981 26.6928 296.945 27.2313C296.927 27.9672 296.891 28.8646 296.837 29.9236C296.801 30.9646 296.765 32.0595 296.729 33.2082C296.711 34.3569 296.685 35.4877 296.649 36.6005C296.631 37.7133 296.622 38.6825 296.622 39.5082C296.622 40.4056 296.783 41.1236 297.106 41.662C297.447 42.1825 297.896 42.5595 298.452 42.7928C299.009 43.0082 299.637 43.1159 300.337 43.1159C301.45 43.1159 302.464 42.9723 303.379 42.6851C304.295 42.38 305.129 41.9761 305.883 41.4736C306.637 40.971 307.31 40.3877 307.902 39.7236C308.513 39.0595 309.06 38.3595 309.545 37.6236L311.995 40.5851C311.564 41.2313 310.999 41.9133 310.299 42.6313C309.599 43.3492 308.764 44.0223 307.795 44.6505C306.844 45.2787 305.74 45.7902 304.483 46.1851C303.227 46.58 301.836 46.7774 300.31 46.7774C298.838 46.7774 297.555 46.5441 296.46 46.0774C295.383 45.6287 294.54 44.9287 293.929 43.9774C293.337 43.0082 293.041 41.7607 293.041 40.2351C293.041 39.4992 293.05 38.6646 293.068 37.7313C293.086 36.78 293.113 35.7928 293.149 34.7697C293.185 33.7466 293.211 32.7505 293.229 31.7813C293.247 30.7941 293.265 29.9056 293.283 29.1159C293.301 28.3261 293.31 27.6979 293.31 27.2313C293.31 26.5851 293.283 25.9569 293.229 25.3466C293.176 24.7184 293.086 24.1351 292.96 23.5966L297.295 23.6505ZM318.079 33.612C318.492 33.5223 318.968 33.4146 319.506 33.2889C320.045 33.1454 320.52 33.0107 320.933 32.8851C321.382 32.7415 321.983 32.5531 322.737 32.3197C323.491 32.0864 324.317 31.8531 325.214 31.6197C326.129 31.3864 327.045 31.1889 327.96 31.0274C328.894 30.8659 329.773 30.7851 330.599 30.7851C332.017 30.7851 333.255 31.0543 334.314 31.5928C335.391 32.1133 336.226 32.8672 336.818 33.8543C337.41 34.8415 337.706 36.0172 337.706 37.3813C337.706 38.6018 337.437 39.7146 336.899 40.7197C336.378 41.7248 335.579 42.6043 334.502 43.3582C333.426 44.112 332.079 44.7223 330.464 45.1889C328.867 45.6736 327 45.9787 324.864 46.1043L323.437 42.7928C324.981 42.7569 326.399 42.6223 327.691 42.3889C329.001 42.1556 330.132 41.8236 331.083 41.3928C332.052 40.9441 332.797 40.3787 333.318 39.6966C333.856 39.0146 334.126 38.2248 334.126 37.3274C334.126 36.6454 333.964 36.0531 333.641 35.5505C333.336 35.03 332.896 34.6261 332.322 34.3389C331.747 34.0518 331.065 33.9082 330.276 33.9082C329.647 33.9082 328.947 33.9889 328.176 34.1505C327.404 34.312 326.605 34.5184 325.779 34.7697C324.972 35.021 324.173 35.2902 323.383 35.5774C322.594 35.8646 321.858 36.1428 321.176 36.412C320.494 36.6813 319.928 36.9146 319.479 37.112L318.079 33.612ZM353.591 23.7313C353.501 24.0723 353.411 24.4492 353.322 24.862C353.25 25.2569 353.178 25.6248 353.106 25.9659C353.035 26.3607 352.945 26.8095 352.837 27.312C352.729 27.7966 352.622 28.2902 352.514 28.7928C352.424 29.2774 352.326 29.7531 352.218 30.2197C352.038 30.9915 351.814 31.8889 351.545 32.912C351.276 33.9351 350.961 35.0389 350.602 36.2236C350.244 37.3902 349.84 38.5659 349.391 39.7505C348.942 40.9351 348.467 42.0928 347.964 43.2236C347.461 44.3364 346.923 45.3415 346.349 46.2389L342.849 44.8389C343.477 43.9954 344.06 43.0531 344.599 42.012C345.155 40.9531 345.658 39.8672 346.106 38.7543C346.555 37.6415 346.95 36.5466 347.291 35.4697C347.65 34.3928 347.955 33.3877 348.206 32.4543C348.458 31.521 348.655 30.7223 348.799 30.0582C349.05 28.8377 349.247 27.662 349.391 26.5313C349.535 25.4005 349.597 24.3325 349.579 23.3274L353.591 23.7313ZM362.852 26.262C363.283 26.8364 363.723 27.5633 364.172 28.4428C364.638 29.3043 365.087 30.2197 365.518 31.1889C365.967 32.1582 366.37 33.0915 366.729 33.9889C367.106 34.8864 367.394 35.6492 367.591 36.2774L364.172 37.8659C363.992 37.112 363.741 36.2774 363.418 35.362C363.113 34.4287 362.754 33.4864 362.341 32.5351C361.946 31.5659 361.515 30.6505 361.049 29.789C360.6 28.9274 360.133 28.2095 359.649 27.6351L362.852 26.262ZM342.66 29.2505C343.145 29.2864 343.62 29.3043 344.087 29.3043C344.554 29.2864 345.038 29.2684 345.541 29.2505C345.972 29.2325 346.501 29.2056 347.129 29.1697C347.776 29.1159 348.449 29.062 349.149 29.0082C349.867 28.9543 350.585 28.9005 351.302 28.8466C352.02 28.7748 352.685 28.721 353.295 28.6851C353.905 28.6492 354.408 28.6313 354.802 28.6313C355.754 28.6313 356.588 28.7928 357.306 29.1159C358.042 29.421 358.617 29.9505 359.029 30.7043C359.46 31.4582 359.676 32.4813 359.676 33.7736C359.676 34.8325 359.622 35.9813 359.514 37.2197C359.424 38.4582 359.272 39.6428 359.056 40.7736C358.841 41.9043 358.536 42.8646 358.141 43.6543C357.71 44.5877 357.118 45.2338 356.364 45.5928C355.628 45.9518 354.749 46.1313 353.726 46.1313C353.205 46.1313 352.649 46.0864 352.056 45.9966C351.482 45.9248 350.961 45.8441 350.495 45.7543L349.902 42.2005C350.261 42.2902 350.647 42.38 351.06 42.4697C351.491 42.5595 351.895 42.6313 352.272 42.6851C352.667 42.7389 352.981 42.7659 353.214 42.7659C353.663 42.7659 354.058 42.6851 354.399 42.5236C354.74 42.3441 355.018 42.0389 355.233 41.6082C355.485 41.0877 355.682 40.4146 355.826 39.5889C355.987 38.7633 356.104 37.8748 356.176 36.9236C356.265 35.9543 356.31 35.03 356.31 34.1505C356.31 33.4325 356.211 32.9031 356.014 32.562C355.817 32.221 355.52 31.9966 355.126 31.8889C354.749 31.7633 354.273 31.7005 353.699 31.7005C353.304 31.7005 352.747 31.7364 352.029 31.8082C351.329 31.862 350.585 31.9338 349.795 32.0236C349.005 32.0954 348.26 32.1761 347.56 32.2659C346.878 32.3556 346.349 32.4184 345.972 32.4543C345.595 32.5261 345.101 32.6069 344.491 32.6966C343.899 32.7684 343.396 32.8402 342.983 32.912L342.66 29.2505ZM377.795 23.3813C377.705 23.7043 377.606 24.1082 377.499 24.5928C377.391 25.0774 377.283 25.5889 377.176 26.1274C377.068 26.6479 376.969 27.1595 376.879 27.662C376.808 28.1646 376.754 28.6043 376.718 28.9813C377.041 28.4428 377.427 27.9223 377.876 27.4197C378.324 26.8992 378.827 26.4325 379.383 26.0197C379.958 25.5889 380.577 25.2479 381.241 24.9966C381.923 24.7454 382.641 24.6197 383.395 24.6197C384.651 24.6197 385.782 25.0056 386.787 25.7774C387.792 26.5492 388.582 27.6531 389.156 29.0889C389.749 30.5248 390.045 32.23 390.045 34.2043C390.045 36.1069 389.767 37.7761 389.21 39.212C388.654 40.63 387.855 41.8415 386.814 42.8466C385.773 43.8518 384.526 44.6684 383.072 45.2966C381.636 45.9428 380.029 46.4274 378.252 46.7505L376.206 43.6274C377.696 43.3941 379.06 43.08 380.299 42.6851C381.555 42.2723 382.632 41.7159 383.529 41.0159C384.445 40.3159 385.145 39.4184 385.629 38.3236C386.132 37.2107 386.383 35.8466 386.383 34.2313C386.383 32.8492 386.24 31.6825 385.952 30.7313C385.665 29.762 385.244 29.0261 384.687 28.5236C384.149 28.021 383.502 27.7697 382.749 27.7697C381.959 27.7697 381.205 28.03 380.487 28.5505C379.769 29.071 379.123 29.7531 378.549 30.5966C377.992 31.4223 377.544 32.3197 377.202 33.2889C376.879 34.2582 376.7 35.1915 376.664 36.0889C376.646 36.4659 376.637 36.8787 376.637 37.3274C376.655 37.7761 376.709 38.3146 376.799 38.9428L373.487 39.1582C373.415 38.6377 373.335 37.9915 373.245 37.2197C373.173 36.43 373.137 35.5774 373.137 34.662C373.137 34.0338 373.155 33.3607 373.191 32.6428C373.245 31.9248 373.299 31.1979 373.352 30.462C373.424 29.7082 373.505 28.9543 373.595 28.2005C373.702 27.4466 373.801 26.7287 373.891 26.0466C373.963 25.5261 374.017 25.0146 374.052 24.512C374.088 24.0095 374.106 23.5787 374.106 23.2197L377.795 23.3813ZM410.695 31.6466H413.926V47.4236H410.695V31.6466ZM403.587 35.0389H420.899V37.9466H403.587V35.0389ZM414.545 36.3313C415.047 37.3005 415.676 38.2607 416.429 39.212C417.201 40.1633 418.036 41.0428 418.933 41.8505C419.849 42.6582 420.773 43.3313 421.706 43.8697C421.473 44.0492 421.204 44.2915 420.899 44.5966C420.611 44.9018 420.333 45.2159 420.064 45.5389C419.813 45.862 419.597 46.1582 419.418 46.4274C418.485 45.7633 417.56 44.9377 416.645 43.9505C415.747 42.9633 414.904 41.8954 414.114 40.7466C413.342 39.58 412.678 38.3954 412.122 37.1928L414.545 36.3313ZM410.237 36.062L412.768 36.9505C412.194 38.2069 411.494 39.4364 410.668 40.6389C409.842 41.8236 408.936 42.9095 407.949 43.8966C406.961 44.8659 405.929 45.6915 404.852 46.3736C404.691 46.1043 404.476 45.8082 404.206 45.4851C403.955 45.162 403.686 44.8569 403.399 44.5697C403.129 44.2646 402.869 44.0043 402.618 43.7889C403.659 43.2505 404.664 42.5774 405.633 41.7697C406.602 40.9441 407.482 40.0466 408.272 39.0774C409.079 38.0902 409.735 37.0851 410.237 36.062ZM408.433 26.1543V29.762H416.349V26.1543H408.433ZM405.391 23.3005H419.606V32.5889H405.391V23.3005ZM401.864 22.1966L404.852 23.1659C404.26 24.6915 403.551 26.2172 402.726 27.7428C401.918 29.2505 401.038 30.6864 400.087 32.0505C399.154 33.3966 398.194 34.5813 397.206 35.6043C397.117 35.3351 396.973 34.9941 396.776 34.5813C396.578 34.1684 396.363 33.7466 396.129 33.3159C395.896 32.8851 395.681 32.5441 395.483 32.2928C396.327 31.4672 397.144 30.5159 397.933 29.4389C398.723 28.362 399.45 27.2043 400.114 25.9659C400.796 24.7274 401.379 23.471 401.864 22.1966ZM399.252 29.6274L402.322 26.5582V26.5851V47.3428H399.252V29.6274ZM435.949 36.5736V37.7043H443.46V36.5736H435.949ZM435.949 33.5851V34.7159H443.46V33.5851H435.949ZM433.068 31.6197H446.476V39.6428H433.068V31.6197ZM438.076 22.1159H441.226V25.5889H438.076V22.1159ZM438.076 39.2389H441.226V47.4236H438.076V39.2389ZM432.502 23.7851H447.337V26.3159H432.502V23.7851ZM431.614 28.012H447.849V30.5428H431.614V28.012ZM431.372 41.0428H447.983V43.5736H431.372V41.0428ZM442.087 25.6966L445.129 26.262C444.878 26.7107 444.654 27.1325 444.456 27.5274C444.259 27.9043 444.07 28.2364 443.891 28.5236L441.199 27.9851C441.36 27.6441 441.522 27.2582 441.683 26.8274C441.863 26.3966 441.997 26.0197 442.087 25.6966ZM434.522 26.3159L437.187 25.8043C437.367 26.1454 437.528 26.5313 437.672 26.962C437.815 27.3748 437.914 27.7338 437.968 28.0389L435.195 28.6851C435.159 28.3441 435.078 27.9582 434.952 27.5274C434.827 27.0787 434.683 26.6748 434.522 26.3159ZM423.833 23.2736H430.187V26.1813H426.66V47.4236H423.833V23.2736ZM429.218 23.2736H429.729L430.187 23.1659L432.287 24.3774C432.072 25.1313 431.829 25.9479 431.56 26.8274C431.291 27.7069 431.013 28.5684 430.726 29.412C430.456 30.2556 430.196 31.0274 429.945 31.7274C430.77 32.7505 431.309 33.7197 431.56 34.6351C431.811 35.5505 431.937 36.4031 431.937 37.1928C431.937 38.0543 431.838 38.7723 431.641 39.3466C431.461 39.921 431.156 40.3607 430.726 40.6659C430.51 40.8095 430.268 40.9261 429.999 41.0159C429.747 41.1056 429.478 41.1774 429.191 41.2313C428.688 41.2851 428.096 41.3031 427.414 41.2851C427.396 40.9082 427.324 40.4505 427.199 39.912C427.091 39.3736 426.929 38.9159 426.714 38.5389C426.965 38.5569 427.181 38.5659 427.36 38.5659C427.558 38.5659 427.737 38.5659 427.899 38.5659C428.222 38.5479 428.473 38.4672 428.652 38.3236C428.814 38.1979 428.922 38.0095 428.976 37.7582C429.047 37.4889 429.083 37.1659 429.083 36.7889C429.083 36.1607 428.958 35.4428 428.706 34.6351C428.473 33.8274 427.979 32.9748 427.226 32.0774C427.405 31.4672 427.585 30.8031 427.764 30.0851C427.961 29.3492 428.15 28.6133 428.329 27.8774C428.527 27.1415 428.697 26.4595 428.841 25.8313C429.002 25.1851 429.128 24.6466 429.218 24.2159V23.2736Z" fill="#005EA4"/>
<path d="M55.6118 24.1882C55.6118 24.66 55.7759 25.06 56.1041 25.3882C56.4323 25.6959 56.8323 25.8498 57.3041 25.8498C57.7554 25.8498 58.1451 25.6959 58.4733 25.3882C58.8015 25.06 58.9656 24.66 58.9656 24.1882C58.9656 23.7369 58.8015 23.3472 58.4733 23.019C58.1451 22.6908 57.7554 22.5267 57.3041 22.5267C56.8323 22.5267 56.4323 22.6908 56.1041 23.019C55.7759 23.3472 55.6118 23.7369 55.6118 24.1882ZM53.7349 24.1882C53.7349 23.5318 53.8887 22.9369 54.1964 22.4036C54.5246 21.8703 54.9554 21.4395 55.4887 21.1113C56.0425 20.7831 56.6477 20.619 57.3041 20.619C57.9605 20.619 58.5554 20.7831 59.0887 21.1113C59.622 21.4395 60.0425 21.8703 60.3502 22.4036C60.6784 22.9369 60.8425 23.5318 60.8425 24.1882C60.8425 24.8446 60.6784 25.4498 60.3502 26.0036C60.0425 26.5369 59.622 26.9677 59.0887 27.2959C58.5554 27.6036 57.9605 27.7574 57.3041 27.7574C56.6477 27.7574 56.0425 27.6036 55.4887 27.2959C54.9554 26.9677 54.5246 26.5369 54.1964 26.0036C53.8887 25.4498 53.7349 24.8446 53.7349 24.1882ZM49.4887 22.9882C49.4682 23.1318 49.4374 23.3677 49.3964 23.6959C49.3554 24.0241 49.3143 24.3728 49.2733 24.7421C49.2323 25.0908 49.2118 25.3985 49.2118 25.6651C49.2118 26.2805 49.2118 26.9574 49.2118 27.6959C49.2118 28.4344 49.2118 29.1728 49.2118 29.9113C49.2118 30.6292 49.2118 31.2856 49.2118 31.8805C49.2118 32.2908 49.2118 32.8651 49.2118 33.6036C49.2118 34.3421 49.2118 35.1728 49.2118 36.0959C49.2118 37.019 49.2118 37.9831 49.2118 38.9882C49.2118 39.9728 49.2118 40.9369 49.2118 41.8805C49.2118 42.8036 49.2118 43.6446 49.2118 44.4036C49.2118 45.1421 49.2118 45.7267 49.2118 46.1574C49.2118 47.0395 48.9451 47.7369 48.4118 48.2498C47.899 48.7831 47.099 49.0498 46.0118 49.0498C45.4579 49.0498 44.8938 49.0395 44.3195 49.019C43.7451 48.9985 43.181 48.9677 42.6272 48.9267C42.0733 48.8856 41.5297 48.8344 40.9964 48.7728L40.6272 44.9574C41.2836 45.0805 41.9195 45.1728 42.5349 45.2344C43.1708 45.2959 43.6733 45.3267 44.0425 45.3267C44.4528 45.3267 44.74 45.2446 44.9041 45.0805C45.0682 44.8959 45.1605 44.6087 45.181 44.219C45.181 44.0344 45.181 43.6344 45.181 43.019C45.2015 42.4036 45.2118 41.6754 45.2118 40.8344C45.2118 39.9933 45.2118 39.101 45.2118 38.1574C45.2118 37.2139 45.2118 36.3113 45.2118 35.4498C45.2118 34.5882 45.2118 33.8395 45.2118 33.2036C45.2118 32.5677 45.2118 32.1267 45.2118 31.8805C45.2118 31.5113 45.2118 30.9574 45.2118 30.219C45.2118 29.46 45.2118 28.66 45.2118 27.819C45.2118 26.978 45.2118 26.26 45.2118 25.6651C45.2118 25.2549 45.181 24.7728 45.1195 24.219C45.0579 23.6446 44.9964 23.2344 44.9349 22.9882H49.4887ZM34.4118 27.8805C34.8836 27.9421 35.3759 28.0036 35.8887 28.0651C36.4015 28.1062 36.9041 28.1267 37.3964 28.1267C37.6425 28.1267 38.1349 28.1267 38.8733 28.1267C39.6323 28.1267 40.5349 28.1267 41.581 28.1267C42.6272 28.1267 43.7451 28.1267 44.9349 28.1267C46.1451 28.1267 47.3554 28.1267 48.5656 28.1267C49.7964 28.1267 50.9349 28.1267 51.981 28.1267C53.0477 28.1267 53.9708 28.1267 54.7502 28.1267C55.5297 28.1267 56.0733 28.1267 56.381 28.1267C56.8118 28.1267 57.3143 28.1062 57.8887 28.0651C58.4836 28.0241 58.9964 27.9728 59.4272 27.9113V31.9421C58.9554 31.901 58.4425 31.8805 57.8887 31.8805C57.3349 31.86 56.8425 31.8498 56.4118 31.8498C56.1041 31.8498 55.5605 31.8498 54.781 31.8498C54.022 31.8498 53.1092 31.8498 52.0425 31.8498C50.9964 31.8498 49.8682 31.8498 48.6579 31.8498C47.4477 31.8498 46.2374 31.8498 45.0272 31.8498C43.8169 31.8498 42.6887 31.8498 41.6425 31.8498C40.5964 31.8498 39.6938 31.8498 38.9349 31.8498C38.1964 31.8498 37.6836 31.8498 37.3964 31.8498C36.9451 31.8498 36.4425 31.86 35.8887 31.8805C35.3554 31.901 34.8631 31.9318 34.4118 31.9728V27.8805ZM42.2579 36.219C41.9092 36.9164 41.4887 37.6651 40.9964 38.4651C40.5041 39.2651 39.9708 40.0651 39.3964 40.8651C38.8425 41.6651 38.299 42.4139 37.7656 43.1113C37.2323 43.7882 36.7502 44.3523 36.3195 44.8036L32.9964 42.5267C33.5092 42.0549 34.0323 41.501 34.5656 40.8651C35.1195 40.2087 35.6528 39.5215 36.1656 38.8036C36.699 38.0856 37.181 37.3677 37.6118 36.6498C38.0631 35.9318 38.4528 35.2446 38.781 34.5882L42.2579 36.219ZM55.4887 34.4959C55.8784 34.9882 56.3092 35.5728 56.781 36.2498C57.2733 36.9267 57.7656 37.6549 58.2579 38.4344C58.7502 39.1933 59.2118 39.9421 59.6425 40.6805C60.0733 41.3985 60.4425 42.0344 60.7502 42.5882L57.1195 44.5574C56.7913 43.901 56.4118 43.1933 55.981 42.4344C55.5708 41.6754 55.14 40.9164 54.6887 40.1574C54.2374 39.3985 53.7861 38.6908 53.3349 38.0344C52.9041 37.3574 52.5041 36.7831 52.1349 36.3113L55.4887 34.4959ZM64.4425 35.2959C67.2118 34.578 69.7143 33.7472 71.9502 32.8036C74.2066 31.8395 76.1861 30.8344 77.8887 29.7882C78.9554 29.1318 80.022 28.3831 81.0887 27.5421C82.1759 26.6805 83.1913 25.7985 84.1349 24.8959C85.099 23.9933 85.9092 23.1318 86.5656 22.3113L89.8887 25.4805C88.9451 26.4036 87.9092 27.3369 86.781 28.2805C85.6733 29.2241 84.5143 30.1267 83.3041 30.9882C82.0938 31.8498 80.8938 32.6395 79.7041 33.3574C78.5349 34.0344 77.222 34.7318 75.7656 35.4498C74.3297 36.1677 72.8118 36.8446 71.2118 37.4805C69.6118 38.1164 68.0015 38.6805 66.381 39.1728L64.4425 35.2959ZM77.2425 31.7574L81.6118 30.7421V44.5882C81.6118 45.0395 81.622 45.5318 81.6425 46.0651C81.6631 46.5985 81.6938 47.0908 81.7349 47.5421C81.7759 48.0139 81.8272 48.3728 81.8887 48.619H77.0272C77.0682 48.3728 77.099 48.0139 77.1195 47.5421C77.1605 47.0908 77.1913 46.5985 77.2118 46.0651C77.2323 45.5318 77.2425 45.0395 77.2425 44.5882V31.7574ZM100.719 23.8805C101.253 24.2498 101.878 24.701 102.596 25.2344C103.314 25.7677 104.053 26.3523 104.812 26.9882C105.591 27.6036 106.319 28.2087 106.996 28.8036C107.673 29.3985 108.227 29.9318 108.658 30.4036L105.519 33.6036C105.13 33.1728 104.617 32.66 103.981 32.0651C103.345 31.4703 102.658 30.8549 101.919 30.219C101.181 29.5831 100.453 28.978 99.7349 28.4036C99.0169 27.8292 98.381 27.3472 97.8272 26.9574L100.719 23.8805ZM96.8733 44.3728C98.4733 44.1472 99.981 43.8292 101.396 43.419C102.812 43.0087 104.125 42.5369 105.335 42.0036C106.545 41.4703 107.653 40.9164 108.658 40.3421C110.402 39.2959 112.002 38.1062 113.458 36.7728C114.914 35.4395 116.186 34.0549 117.273 32.619C118.36 31.1626 119.222 29.7472 119.858 28.3728L122.258 32.7113C121.478 34.0856 120.514 35.46 119.366 36.8344C118.237 38.2087 116.955 39.5215 115.519 40.7728C114.084 42.0036 112.535 43.1113 110.873 44.0959C109.827 44.7318 108.699 45.3369 107.489 45.9113C106.278 46.4651 104.996 46.9574 103.643 47.3882C102.309 47.8395 100.914 48.1882 99.4579 48.4344L96.8733 44.3728ZM133.735 44.3113C133.735 43.9215 133.735 43.2856 133.735 42.4036C133.735 41.501 133.735 40.4651 133.735 39.2959C133.735 38.1062 133.735 36.8651 133.735 35.5728C133.735 34.2805 133.735 33.0395 133.735 31.8498C133.735 30.6395 133.735 29.5728 133.735 28.6498C133.735 27.7267 133.735 27.0498 133.735 26.619C133.735 26.0856 133.704 25.4703 133.643 24.7728C133.602 24.0754 133.53 23.46 133.427 22.9267H138.227C138.166 23.46 138.104 24.0549 138.043 24.7113C137.981 25.3472 137.95 25.9831 137.95 26.619C137.95 27.1933 137.95 27.9728 137.95 28.9574C137.95 29.9421 137.95 31.0395 137.95 32.2498C137.95 33.4395 137.95 34.66 137.95 35.9113C137.95 37.1421 137.95 38.3318 137.95 39.4805C137.95 40.6292 137.95 41.6344 137.95 42.4959C137.95 43.3369 137.95 43.9421 137.95 44.3113C137.95 44.5985 137.96 45.0087 137.981 45.5421C138.002 46.0549 138.043 46.5882 138.104 47.1421C138.166 47.6959 138.207 48.1882 138.227 48.619H133.427C133.509 48.0036 133.581 47.2856 133.643 46.4651C133.704 45.6446 133.735 44.9267 133.735 44.3113ZM137.027 30.8959C138.053 31.1626 139.202 31.5113 140.473 31.9421C141.745 32.3523 143.027 32.7933 144.319 33.2651C145.612 33.7369 146.822 34.2087 147.95 34.6805C149.099 35.1318 150.053 35.5523 150.812 35.9421L149.058 40.1882C148.196 39.7369 147.243 39.2856 146.196 38.8344C145.15 38.3626 144.084 37.9113 142.996 37.4805C141.93 37.0498 140.873 36.6498 139.827 36.2805C138.802 35.9113 137.868 35.5831 137.027 35.2959V30.8959ZM171.427 47.2651H156.073V44.0344L161.581 38.4651C162.689 37.3164 163.581 36.3626 164.258 35.6036C164.935 34.8241 165.427 34.1267 165.735 33.5113C166.043 32.8754 166.196 32.1985 166.196 31.4805C166.196 30.5985 165.95 29.9421 165.458 29.5113C164.986 29.0805 164.34 28.8651 163.519 28.8651C162.678 28.8651 161.858 29.06 161.058 29.4498C160.258 29.8395 159.417 30.3933 158.535 31.1113L156.012 28.1267C156.648 27.5728 157.314 27.06 158.012 26.5882C158.73 26.1164 159.55 25.7369 160.473 25.4498C161.417 25.1421 162.545 24.9882 163.858 24.9882C165.294 24.9882 166.525 25.2549 167.55 25.7882C168.596 26.301 169.396 27.0087 169.95 27.9113C170.525 28.7933 170.812 29.7985 170.812 30.9267C170.812 31.8498 170.668 32.701 170.381 33.4805C170.114 34.26 169.714 35.019 169.181 35.7574C168.668 36.4754 168.032 37.2241 167.273 38.0036C166.514 38.7626 165.653 39.5933 164.689 40.4959L161.858 43.1421V43.3574H171.427V47.2651Z" fill="#005EA4"/>
</svg>
