<svg width="223" height="45" viewBox="0 0 223 45" fill="none" xmlns="http://www.w3.org/2000/svg">
<path d="M222.486 32.8471L221.856 37.6711C221.784 38.3011 221.64 38.7511 220.902 38.7511C220.182 38.7511 220.056 38.2651 219.984 37.6711L219.354 32.8471V29.3911C219.354 28.3111 219.93 27.9331 220.956 27.9331C221.946 27.9331 222.486 28.3651 222.486 29.3911V32.8471ZM220.92 39.9211C221.874 39.9211 222.648 40.6951 222.648 41.6491C222.648 42.6211 221.874 43.3951 220.92 43.3951C219.966 43.3951 219.192 42.6211 219.192 41.6491C219.192 40.6951 219.966 39.9211 220.92 39.9211Z" fill="#353535"/>
<path d="M196.35 29.1392H206.358C207.096 29.1392 207.672 29.7332 207.672 30.4532C207.672 31.1732 207.186 31.7672 206.358 31.7672H196.458C195.09 31.7672 195 30.8492 195 30.4532C195 29.6072 195.576 29.1392 196.35 29.1392ZM201.462 43.9352C199.824 43.9352 197.286 43.6832 195.846 42.8732C195.396 42.6212 195.09 42.2072 195.09 41.6852C195.09 41.0372 195.63 40.3892 196.314 40.3892C196.638 40.3892 196.98 40.5152 197.286 40.6232C198.618 41.0912 200.022 41.3252 201.444 41.3252C202.578 41.3252 203.838 41.1812 204.846 40.6052C205.656 40.1552 206.268 39.3632 206.268 38.4092C206.268 36.2312 203.262 36.0152 201.66 36.0152C200.724 36.0152 199.788 36.1052 198.87 36.2132C197.844 36.3212 196.8 36.5912 195.792 36.7892C195.594 36.8252 195.378 36.8612 195.162 36.8612C194.46 36.8612 193.956 36.1952 193.956 35.5292C193.956 35.2052 194.064 34.8632 194.316 34.6472C194.73 34.2872 195.324 34.1792 196.674 33.9092C197.79 33.6932 198.726 33.6032 199.77 33.5132C200.4 33.4772 201.048 33.4412 201.696 33.4412C204.936 33.4412 208.968 34.2332 208.968 38.2832C208.968 42.3152 204.918 43.9352 201.462 43.9352Z" fill="#353535"/>
<path d="M184.83 33.5668V36.6088C185.676 36.9148 186.486 37.2748 187.278 37.7068C187.854 38.0308 188.88 38.6608 189.276 39.1828C189.474 39.4348 189.6 39.7048 189.6 40.0468C189.6 40.8028 188.952 41.4148 188.214 41.4148C187.782 41.4148 187.44 41.1988 187.116 40.9648C186.396 40.4428 185.64 39.9568 184.812 39.6148V39.7768C184.812 43.0168 182.508 43.9348 179.664 43.9348C177.162 43.9348 174.462 42.5308 174.462 39.7228C174.462 37.9588 175.56 36.6268 177.18 36.0508C177.99 35.7628 178.854 35.6728 179.7 35.6728C180.474 35.6728 181.248 35.7628 182.004 35.8888V29.6788C182.004 28.9228 182.634 28.2568 183.408 28.2568C184.182 28.2568 184.83 28.9048 184.83 29.6788V30.8668H188.412C189.15 30.8668 189.78 31.4608 189.78 32.1988C189.78 32.9368 189.168 33.5668 188.43 33.5668H184.83ZM182.022 38.4988C181.212 38.3008 180.384 38.1928 179.556 38.1928C178.566 38.1928 177.288 38.5168 177.288 39.7408C177.288 41.0728 178.692 41.4328 179.772 41.4328C180.348 41.4328 181.086 41.3068 181.518 40.8928C181.914 40.5148 182.022 39.9208 182.022 39.3988V38.4988Z" fill="#353535"/>
<path d="M157.614 29.103H167.136C167.856 29.103 168.45 29.697 168.45 30.417C168.45 31.137 167.856 31.731 167.136 31.731H157.452C156.732 31.731 156.138 31.155 156.138 30.417C156.138 29.589 156.858 29.103 157.614 29.103ZM165.498 36.699C166.416 36.735 166.992 37.239 166.992 38.193C166.992 38.517 166.956 38.841 166.902 39.165C166.83 39.579 166.776 40.011 166.776 40.425C166.776 41.091 167.226 41.379 167.856 41.379C168.27 41.379 168.702 41.307 169.098 41.181C169.548 41.037 169.764 40.983 169.998 40.983C170.682 40.983 171.168 41.613 171.168 42.261C171.168 42.621 171.042 42.963 170.772 43.215C170.196 43.773 168.666 43.935 167.892 43.935C167.01 43.935 166.11 43.827 165.354 43.395C164.598 42.963 164.076 42.171 164.076 41.289C164.076 40.803 164.166 40.317 164.238 39.831C164.256 39.705 164.256 39.561 164.256 39.435C164.256 38.949 163.95 38.751 163.5 38.751C163.05 38.751 162.654 39.021 162.312 39.309L157.56 43.449C157.236 43.737 156.894 43.899 156.444 43.899C155.688 43.899 154.968 43.377 154.968 42.567C154.968 42.153 155.094 41.811 155.472 41.523L162.744 35.745L156.39 36.195C155.958 36.231 155.562 36.141 155.238 35.817C155.004 35.583 154.86 35.241 154.86 34.899C154.86 34.197 155.472 33.639 156.174 33.603L166.92 33.117C167.622 33.081 168.198 33.441 168.198 34.179C168.198 34.575 168 34.881 167.676 35.115L165.498 36.699Z" fill="#353535"/>
<path d="M144.078 28.8331H146.292V28.4911C146.292 27.6271 146.976 27.5371 147.696 27.5371C148.362 27.5371 148.866 27.7531 148.866 28.4911V28.8331H150.162C150.936 28.8331 151.278 29.1571 151.278 29.9311C151.278 30.6691 150.864 30.9571 150.162 30.9571H148.866V31.8031H150.594C151.368 31.8031 151.692 32.1271 151.692 32.9011C151.692 33.6391 151.26 33.9091 150.594 33.9091H141.504V37.0411C141.504 38.8411 141.36 41.0011 140.874 42.7291C140.514 43.9531 140.388 44.3851 139.632 44.3851C138.948 44.3851 138.228 44.0971 138.228 43.3231C138.228 43.0711 138.354 42.5131 138.57 41.8111C139.038 40.2451 139.236 38.8051 139.236 37.1671V33.9091H139.056C138.678 33.9091 138.39 33.4951 138.39 32.8831C138.39 32.0911 138.75 31.8031 139.524 31.8031H141.468V30.9571H140.208C139.434 30.9571 139.092 30.6331 139.092 29.8591C139.092 29.1211 139.506 28.8331 140.208 28.8331H141.468V28.5271C141.468 27.6451 142.152 27.5371 142.872 27.5371C143.538 27.5371 144.078 27.7531 144.078 28.5091V28.8331ZM138.192 32.5231V43.6291C138.192 44.5111 137.742 44.7631 136.896 44.7631C136.104 44.7631 135.744 44.4211 135.744 43.6291V36.8971C135.672 36.9151 135.6 36.9151 135.528 36.9151C134.718 36.9151 134.34 35.9611 134.34 35.2771C134.34 34.5751 134.7 34.1071 135.15 33.3331C135.996 31.8391 136.41 30.1291 136.77 28.4551C136.914 27.8611 137.202 27.6091 137.814 27.6091C138.48 27.6091 139.056 27.9331 139.056 28.6711C139.056 29.3191 138.57 31.3531 138.192 32.5231ZM146.292 30.9571H144.078V31.8031H146.292V30.9571ZM143.97 41.4151V43.6291C143.97 44.3671 143.664 44.7451 142.89 44.7451C142.17 44.7451 141.882 44.3131 141.882 43.6291V36.5731C141.882 35.0611 142.512 34.4491 144.024 34.4491H148.884C150.396 34.4491 151.026 35.0611 151.026 36.5731V42.8191C151.026 44.5471 150.504 44.6371 148.938 44.6371C148.29 44.6371 147.552 44.5831 147.552 43.5211C147.552 42.9991 147.768 42.5491 148.344 42.5491C148.596 42.5491 148.632 42.2791 148.632 42.0991V41.4151H147.318V43.4851C147.318 44.1691 147.03 44.6011 146.292 44.6011C145.554 44.6011 145.266 44.1691 145.266 43.4851V41.4151H143.97ZM145.266 37.1131V36.2671H144.348C144.114 36.2671 143.97 36.3571 143.97 36.6091V37.1131H145.266ZM147.318 37.1131H148.632V36.6091C148.632 36.3751 148.524 36.2671 148.29 36.2671H147.318V37.1131ZM145.266 38.8411H143.97V39.7411H145.266V38.8411ZM147.318 38.8411V39.7411H148.632V38.8411H147.318Z" fill="#353535"/>
<path d="M122.892 32.037L122.154 33.189C122.748 33.045 123.342 32.991 123.936 32.991C125.484 32.991 127.212 33.315 127.644 35.043C128.274 34.899 130.038 34.629 130.254 34.629C130.902 34.629 131.442 35.223 131.442 35.871C131.442 36.735 130.776 37.023 130.056 37.167C129.3 37.311 128.562 37.437 127.806 37.599L127.842 39.129C127.842 39.741 127.392 40.353 126.636 40.353C125.952 40.353 125.394 40.011 125.394 39.111V38.121C124.404 38.391 121.956 38.949 121.956 40.263C121.956 41.469 124.062 41.631 124.926 41.631C126.456 41.631 127.626 41.325 129.066 40.839C129.246 40.785 129.444 40.749 129.642 40.749C130.308 40.749 130.812 41.379 130.812 42.009C130.812 42.981 129.732 43.323 128.976 43.557C127.68 43.953 126.312 44.115 124.962 44.115C122.532 44.115 119.202 43.341 119.202 40.299C119.202 38.697 120.264 37.581 121.614 36.861C122.694 36.267 123.936 35.979 125.124 35.673C124.8 35.223 123.918 35.187 123.414 35.187C122.298 35.187 121.128 35.529 120.3 36.303C119.778 36.807 119.418 37.401 119.04 37.995L118.716 38.517C118.464 38.913 118.068 39.183 117.6 39.183C116.916 39.183 116.322 38.589 116.322 37.905C116.322 37.581 116.466 37.293 116.646 37.023L119.85 32.073H117.168C116.484 32.073 115.926 31.623 115.926 30.849C115.926 30.165 116.412 29.607 117.186 29.607H121.326L121.974 28.617C122.208 28.257 122.658 28.041 123.072 28.041C123.774 28.041 124.404 28.617 124.404 29.319C124.404 29.409 124.386 29.517 124.368 29.607H129.264C129.912 29.607 130.488 30.165 130.488 30.831C130.488 31.497 129.93 32.037 129.264 32.037H122.892Z" fill="#353535"/>
<path d="M105.036 39.9032H104.082C103.344 39.9032 102.48 39.8672 102.174 39.0572C102.066 40.4432 101.562 41.2352 100.068 41.2352C99.546 41.2352 98.97 41.1092 98.754 40.5692V43.4312C98.754 44.3492 98.358 44.7452 97.44 44.7452C96.576 44.7452 96.27 44.2232 96.27 43.4312V30.2012C96.27 28.3112 96.63 27.9872 98.52 27.9872H99.78C101.274 27.9872 101.994 28.1492 101.994 29.8412C101.994 30.1832 101.958 30.5792 101.904 30.9212C103.578 29.9672 103.884 29.7512 105.27 28.3832C105.864 27.7892 106.278 27.5552 107.124 27.5552C107.988 27.5552 108.438 27.7172 109.014 28.3472C110.328 29.7332 110.76 30.0032 112.344 31.0112C112.758 31.2812 112.974 31.6232 112.974 32.1092C112.974 32.8472 112.47 33.6212 111.678 33.6212C111.3 33.6212 110.868 33.3332 110.346 32.9732C110.22 33.5132 109.788 33.6392 109.284 33.6392H108.312V34.3232H109.95C111.822 34.3232 112.164 34.6832 112.164 36.5552V37.6892C112.164 39.5612 111.804 39.9032 109.95 39.9032H109.14C109.95 41.1812 110.796 41.5052 112.092 42.0992C112.632 42.3332 112.92 42.6212 112.92 43.2332C112.92 43.9532 112.434 44.6912 111.642 44.6912C110.886 44.6912 109.788 44.0072 109.194 43.5572C108.312 42.8912 107.682 42.1532 107.106 41.1992C106.458 42.3152 105.54 43.2512 104.46 43.9352C103.956 44.2412 103.092 44.6912 102.516 44.6912C101.706 44.6912 101.202 43.9532 101.202 43.2152C101.202 42.5132 101.562 42.2252 102.156 42.0092C103.434 41.5232 104.316 41.1092 105.036 39.9032ZM105.81 31.4432H108.492C108.06 30.9752 107.718 30.5792 107.466 30.2912C107.322 30.1292 107.232 30.0752 107.178 30.0752C107.07 30.0752 106.998 30.1652 106.926 30.2552C106.566 30.7052 106.224 31.0472 105.81 31.4432ZM98.754 39.0212C98.88 38.7332 98.97 38.6972 99.276 38.6252C99.618 38.5532 99.798 38.4092 99.798 37.6892C99.798 36.6992 99.456 35.6372 99.042 34.9532C98.916 34.7372 98.826 34.5392 98.826 34.3952C98.826 34.2332 98.898 33.8912 99.096 33.2972C99.222 32.9012 99.726 31.1372 99.726 30.8132C99.726 30.6512 99.618 30.5432 99.402 30.5432H99.078C98.862 30.5432 98.754 30.6512 98.754 30.8672V39.0212ZM105.828 34.3232V33.6392H104.784C104.316 33.6392 103.992 33.5492 103.758 33.0992C103.398 33.3512 102.948 33.6572 102.498 33.6572C101.994 33.6572 101.598 33.2792 101.364 32.8652C101.31 33.0632 100.95 34.0892 100.95 34.2152C100.95 34.3412 101.022 34.4672 101.13 34.6112C101.598 35.2232 101.886 36.0872 102.048 36.9332V36.5552C102.048 34.6832 102.39 34.3232 104.262 34.3232H105.828ZM108.24 37.7252H109.554C109.77 37.7252 109.878 37.6172 109.878 37.4012V36.8252C109.878 36.6272 109.77 36.5012 109.554 36.5012H108.312C108.312 36.9152 108.276 37.3112 108.24 37.7252ZM105.756 37.7252C105.81 37.3112 105.828 36.9152 105.828 36.5012H104.64C104.424 36.5012 104.316 36.6092 104.316 36.8252V37.4012C104.316 37.6172 104.424 37.7252 104.64 37.7252H105.756Z" fill="#353535"/>
<path d="M80.502 32.505V43.431C80.502 44.331 80.088 44.763 79.17 44.763C78.306 44.763 77.928 44.259 77.928 43.431V36.933C77.766 36.987 77.64 37.023 77.46 37.023C76.596 37.023 76.02 36.195 76.02 35.385C76.02 34.791 76.29 34.413 76.614 33.963C77.64 32.523 78.414 30.615 78.792 28.833C78.954 28.041 79.188 27.645 80.07 27.645C80.772 27.645 81.474 27.915 81.474 28.725C81.474 29.517 80.934 31.407 80.502 32.505ZM85.866 40.299C85.182 41.217 84.57 41.955 83.742 42.747C83.148 43.323 82.608 43.809 82.032 43.809C81.294 43.809 80.7 43.053 80.7 42.333C80.7 41.757 81.096 41.433 81.528 41.127C82.986 40.119 83.724 39.453 84.786 37.995H82.284C81.384 37.995 80.97 37.617 80.97 36.699C80.97 35.853 81.492 35.511 82.284 35.511H85.866V34.395H84.138C82.59 34.395 81.96 33.765 81.96 32.217V30.291C81.96 28.743 82.59 28.113 84.138 28.113H90.222C91.77 28.113 92.4 28.743 92.4 30.291V32.217C92.4 33.765 91.77 34.395 90.222 34.395H88.422V35.511H91.986C92.886 35.511 93.318 35.889 93.318 36.807C93.318 37.653 92.778 37.995 91.986 37.995H89.592C90.618 39.471 91.464 40.281 92.796 41.415C93.102 41.667 93.3 41.919 93.3 42.333C93.3 43.053 92.616 43.827 91.86 43.827C91.14 43.827 90.294 42.747 89.862 42.207C89.358 41.577 88.854 40.857 88.422 40.155V43.413C88.422 44.349 88.008 44.727 87.09 44.727C86.208 44.727 85.866 44.241 85.866 43.413V40.299ZM89.214 30.363H85.128C84.786 30.363 84.624 30.525 84.624 30.867V31.695C84.624 32.037 84.786 32.199 85.128 32.199H89.214C89.556 32.199 89.718 32.037 89.718 31.695V30.867C89.718 30.525 89.556 30.363 89.214 30.363Z" fill="#353535"/>
<path d="M64.7516 41.2531C68.6396 41.2531 69.6116 38.4091 69.6116 35.0611C69.6116 34.0711 69.5756 32.5591 69.0896 32.0371C68.8916 31.8391 68.6216 31.7491 68.3336 31.7491C67.9196 31.7491 67.5596 31.9111 67.1816 32.0731C66.9836 32.1631 66.7496 32.2171 66.5156 32.2171C65.7956 32.2171 65.2196 31.6051 65.2196 30.8851C65.2196 29.4631 67.3616 28.9951 68.4776 28.9951C69.4316 28.9951 70.4216 29.2291 71.1056 29.9311C72.2756 31.1371 72.4196 33.4231 72.4196 35.0251C72.4196 37.4551 71.9696 40.1731 70.1876 41.9731C68.6756 43.5211 66.7136 43.9531 64.6256 43.9531C63.2756 43.9531 59.5136 43.5391 59.5136 41.7031C59.5136 40.9651 60.1436 40.3531 60.8816 40.3531C61.1516 40.3531 61.4036 40.4611 61.6556 40.5691C62.6456 40.9831 63.6716 41.2531 64.7516 41.2531ZM61.4936 30.6151V36.6631C61.4936 37.4371 60.8096 38.0851 60.0356 38.0851C59.2616 38.0851 58.5776 37.4371 58.5776 36.6631V30.6151C58.5776 29.8231 59.2616 29.1751 60.0356 29.1751C60.4316 29.1751 60.8276 29.3551 61.1156 29.6431C61.3676 29.8951 61.4936 30.2731 61.4936 30.6151Z" fill="#353535"/>
<path d="M41.82 31.0833L42.342 29.2113C42.504 28.6533 43.044 28.2393 43.638 28.2393C44.124 28.2393 44.574 28.4913 44.808 28.9053C45.024 29.2833 45.042 29.6793 44.916 30.0933L44.664 30.9573H44.952C46.41 30.9573 47.886 31.1733 49.128 32.0373C50.82 33.2073 51.504 35.2233 51.504 37.2213C51.504 40.7313 49.488 43.9353 45.672 43.9353C44.628 43.9353 42.846 43.5573 42.846 42.2073C42.846 41.4513 43.476 40.8753 44.214 40.8753C44.43 40.8753 44.628 40.9473 44.826 41.0193C45.168 41.1453 45.51 41.2173 45.87 41.2173C47.994 41.2173 48.786 38.9673 48.786 37.1853C48.786 34.6653 47.4 33.6213 44.988 33.6213C44.61 33.6213 44.25 33.6393 43.89 33.6393L41.208 42.9813C41.046 43.5573 40.524 43.9893 39.912 43.9893C38.976 43.9893 38.382 43.0713 38.634 42.2073L41.046 33.7833L39.282 33.8553C38.922 33.8733 38.562 33.8193 38.292 33.6933C37.878 33.4953 37.626 33.0093 37.626 32.5413C37.626 31.6773 38.31 31.2273 39.102 31.1913L41.82 31.0833ZM52.206 33.9813L50.55 30.3633C50.154 29.4813 50.766 28.4553 51.756 28.4553C52.26 28.4553 52.746 28.7613 52.944 29.2293L54.618 32.9013C54.69 33.0633 54.726 33.2433 54.726 33.4053C54.726 34.1073 54.132 34.7553 53.394 34.7553C52.854 34.7553 52.386 34.3773 52.206 33.9813Z" fill="#353535"/>
<path d="M33.1617 37.4373C33.1617 39.4893 32.1717 41.6133 30.2997 42.6033C29.0397 43.2693 27.5457 43.5753 26.1057 43.5753C25.5297 43.5753 24.9537 43.5033 24.3957 43.4313C23.5857 43.3413 22.7757 43.1073 22.0737 42.7113C21.6597 42.4773 21.3537 42.0453 21.3537 41.5593C21.3537 40.9293 21.8757 40.3533 22.5237 40.3533C22.7937 40.3533 23.0457 40.4073 23.6757 40.6413C24.4857 40.9473 25.3677 41.0553 26.2137 41.0553C28.5537 41.0553 30.5517 40.0293 30.5517 37.4193C30.5517 35.0433 28.6257 34.5033 26.6097 34.5033C24.9717 34.5033 23.3337 34.6653 21.7137 34.8993C21.5877 34.9173 21.4617 34.9353 21.3357 34.9353C20.6337 34.9353 20.0757 34.3233 20.0757 33.6393C20.0757 33.2973 20.1837 32.9553 20.4357 32.7393C20.8497 32.3793 21.7317 32.2713 23.0457 32.1453C24.2877 32.0193 25.3317 31.9473 26.5017 31.9473C30.1557 31.9473 33.1617 33.2793 33.1617 37.4373Z" fill="#353535"/>
<path d="M14.3339 37.1489C14.3339 38.5349 13.9919 40.1909 13.1639 41.3429C12.8579 41.7749 12.4799 42.1889 12.0659 42.5309C10.7339 43.6109 8.96988 43.9349 7.40388 43.9349C5.51388 43.9349 3.56987 43.3769 2.21987 41.8649C1.10387 40.6049 0.671875 38.9489 0.671875 37.2929C0.671875 34.8809 0.797875 32.4509 1.01387 30.0389C1.08587 29.1569 1.39188 28.4009 2.39987 28.4009C3.28187 28.4009 3.83987 29.0309 3.83987 29.8769C3.83987 30.1829 3.82187 30.4889 3.80388 30.7949C3.65987 32.3069 3.60587 33.8189 3.55187 35.3309C3.55187 35.9789 3.51588 36.6089 3.51588 37.2389C3.51588 39.7049 5.00988 41.2169 7.47587 41.2169C8.75388 41.2169 10.2299 40.7849 10.8779 39.5609C11.2379 38.8589 11.4359 38.0129 11.4359 37.2209C11.4359 36.9689 11.3999 36.7349 11.3999 36.4829C11.3999 35.6189 11.8859 34.8269 12.8399 34.8269C14.1359 34.8269 14.3339 36.1229 14.3339 37.1489Z" fill="#353535"/>
<path d="M188.218 10.3652L185.176 10.6892C184.816 10.7252 184.51 10.7252 184.186 10.5452C183.826 10.3292 183.592 9.95118 183.592 9.51918C183.592 9.01518 183.916 8.61918 184.366 8.40318L192.88 4.31718L186.976 4.42518C186.292 4.44318 185.68 3.93918 185.68 3.21918C185.68 2.51718 186.292 2.01318 186.958 2.01318H197.218C197.884 2.01318 198.496 2.51718 198.496 3.20118C198.496 3.66918 198.19 4.08318 197.776 4.28118L189.64 8.04318L197.776 7.26918C198.496 7.21518 199.18 7.73718 199.18 8.47518C199.18 8.87118 198.982 9.24918 198.64 9.46518C198.37 9.62718 198.064 9.66318 197.758 9.68118L193.996 9.95118C192.502 10.0592 190.018 10.5092 190.018 12.4532C190.018 14.1452 192.106 14.4332 193.384 14.4332C194.716 14.4332 195.598 14.2532 196.876 13.7852C197.056 13.7132 197.254 13.6952 197.452 13.6952C198.1 13.6952 198.676 14.2712 198.676 14.9192C198.676 16.7012 194.662 16.9352 193.402 16.9352C192.07 16.9352 190.702 16.7372 189.532 16.0532C188.29 15.3332 187.426 14.0372 187.426 12.5612C187.426 11.7512 187.714 10.9952 188.218 10.3652Z" fill="#353535"/>
<path d="M178.166 5.30702H167.222C166.538 5.30702 165.836 4.87502 165.836 3.90302C165.836 3.14702 166.466 2.49902 167.222 2.49902H178.166C178.922 2.49902 179.552 3.14702 179.552 3.90302C179.552 4.69502 178.994 5.30702 178.166 5.30702ZM165.242 11.625C165.242 10.455 165.71 9.08702 166.52 8.22302C166.952 7.75502 167.564 7.32302 168.23 7.32302C168.932 7.32302 169.508 7.93502 169.508 8.63702C169.508 9.08702 169.22 9.42902 168.914 9.73502C168.428 10.239 167.96 10.761 167.96 11.499C167.96 13.893 171.02 14.253 172.82 14.253C173.666 14.253 174.512 14.181 175.34 14.037C176.276 13.875 177.122 13.551 177.986 13.191C178.202 13.101 178.436 13.047 178.652 13.047C179.354 13.047 179.84 13.749 179.84 14.397C179.84 15.171 179.21 15.603 178.58 15.909C176.888 16.701 174.8 16.935 172.946 16.935C171.164 16.935 169.328 16.701 167.744 15.819C166.196 14.937 165.242 13.425 165.242 11.625Z" fill="#353535"/>
<path d="M157.376 4.37107H148.16C147.458 4.37107 146.828 3.86707 146.828 3.12907C146.828 2.39107 147.458 1.85107 148.16 1.85107H157.358C158.078 1.85107 158.708 2.39107 158.708 3.12907C158.708 3.95707 158.096 4.37107 157.376 4.37107ZM149.33 7.68307C150.626 6.87307 152.426 6.65707 153.938 6.65707C157.052 6.65707 160.454 7.89907 160.454 11.5351C160.454 13.4071 159.5 14.9191 157.916 15.8731C156.422 16.7551 154.64 16.9891 152.948 16.9891C151.328 16.9891 149.618 16.7911 148.142 16.0891C147.512 15.7831 146.792 15.3511 146.792 14.5771C146.792 13.8751 147.44 13.2811 148.124 13.2811C148.484 13.2811 148.79 13.4431 149.096 13.6051C150.338 14.2531 151.796 14.4511 153.182 14.4511C154.496 14.4511 156.008 14.1991 156.998 13.2451C157.448 12.8131 157.736 12.2371 157.736 11.5891C157.736 9.60907 155.306 9.17707 153.758 9.17707C152.372 9.17707 150.878 9.46507 149.672 10.1671C149.114 10.4731 148.628 10.8871 148.196 11.3731C147.908 11.6971 147.584 11.9311 147.134 11.9311C146.306 11.9311 145.82 11.3011 145.82 10.5631C145.82 10.4011 145.856 10.2391 145.91 10.0771L146.9 6.67507C147.062 6.06307 147.566 5.59507 148.232 5.59507C148.916 5.59507 149.528 6.17107 149.528 6.85507C149.528 7.14307 149.402 7.43107 149.33 7.68307Z" fill="#353535"/>
<path d="M129.476 4.08326L129.998 2.21126C130.16 1.65326 130.7 1.23926 131.294 1.23926C131.78 1.23926 132.23 1.49126 132.464 1.90526C132.68 2.28326 132.698 2.67926 132.572 3.09326L132.32 3.95726H132.608C134.066 3.95726 135.542 4.17326 136.784 5.03726C138.476 6.20726 139.16 8.22326 139.16 10.2213C139.16 13.7313 137.144 16.9353 133.328 16.9353C132.284 16.9353 130.502 16.5573 130.502 15.2073C130.502 14.4513 131.132 13.8753 131.87 13.8753C132.086 13.8753 132.284 13.9473 132.482 14.0193C132.824 14.1453 133.166 14.2173 133.526 14.2173C135.65 14.2173 136.442 11.9673 136.442 10.1853C136.442 7.66526 135.056 6.62126 132.644 6.62126C132.266 6.62126 131.906 6.63926 131.546 6.63926L128.864 15.9813C128.702 16.5573 128.18 16.9893 127.568 16.9893C126.632 16.9893 126.038 16.0713 126.29 15.2073L128.702 6.78326L126.938 6.85526C126.578 6.87326 126.218 6.81926 125.948 6.69326C125.534 6.49526 125.282 6.00926 125.282 5.54126C125.282 4.67726 125.966 4.22726 126.758 4.19126L129.476 4.08326ZM139.862 6.98126L138.206 3.36326C137.81 2.48126 138.422 1.45526 139.412 1.45526C139.916 1.45526 140.402 1.76126 140.6 2.22926L142.274 5.90126C142.346 6.06326 142.382 6.24326 142.382 6.40526C142.382 7.10726 141.788 7.75526 141.05 7.75526C140.51 7.75526 140.042 7.37726 139.862 6.98126Z" fill="#353535"/>
<path d="M117.451 13.8031C118.315 13.2451 119.035 12.4891 119.035 11.4091C119.035 9.01512 115.867 8.70912 114.085 8.70912C112.177 8.70912 110.899 9.08712 109.261 10.0231L108.145 10.6711C107.317 11.1391 106.273 10.5091 106.273 9.55512C106.273 8.97912 106.669 8.58312 107.173 8.34912L115.093 4.47912L109.063 4.53312C108.379 4.53312 107.767 3.95712 107.767 3.27312C107.767 2.57112 108.361 1.99512 109.045 1.99512H119.323C120.025 1.99512 120.583 2.55312 120.583 3.25512C120.583 3.90312 120.205 4.24512 119.665 4.49712L115.309 6.60312C115.525 6.58512 115.723 6.56712 115.939 6.56712C118.873 6.56712 121.735 8.04312 121.735 11.3011C121.735 13.2271 120.655 14.9371 118.999 15.8911C117.595 16.7191 115.885 17.0071 114.283 17.0071C112.987 17.0071 111.637 16.8091 110.503 16.1611C109.423 15.5311 108.613 14.4871 108.613 13.2091C108.613 12.2551 109.117 11.3911 109.891 10.8331C110.755 10.2031 112.051 10.0411 113.095 10.0411C115.111 10.0411 117.487 10.8871 117.487 13.2811C117.487 13.4611 117.469 13.6231 117.451 13.8031ZM114.895 14.6491C114.913 14.4871 114.967 14.3251 115.021 14.1631C115.093 13.9651 115.111 13.7851 115.111 13.5871C115.111 12.5071 113.725 12.2911 112.897 12.2911C112.231 12.2911 111.133 12.4171 111.133 13.3171C111.133 14.5231 113.149 14.6851 114.013 14.6851C114.301 14.6851 114.589 14.6851 114.895 14.6491Z" fill="#353535"/>
<path d="M91.7116 6.11697V4.73097H88.1476C87.4636 4.73097 86.8516 4.22697 86.8516 3.52497C86.8516 2.80497 87.4636 2.30097 88.1476 2.30097H91.7116C91.7116 1.54497 92.3236 0.896973 93.0796 0.896973C93.8356 0.896973 94.3756 1.52697 94.3756 2.26497V2.30097H100.478C101.162 2.30097 101.756 2.80497 101.756 3.48897C101.756 4.13697 101.324 4.69497 100.478 4.69497H94.3756V5.75697C95.0956 5.75697 95.8156 5.81097 96.5356 5.90097C96.7876 5.66697 97.1296 5.54097 97.4716 5.54097C98.0116 5.54097 98.4436 5.86497 98.6416 6.35097C101 7.14297 102.548 8.81697 102.548 11.373C102.548 13.443 101.486 15.459 99.5956 16.395C98.8936 16.755 97.8136 16.989 97.0396 16.989C96.2836 16.989 95.6176 16.431 95.6176 15.639C95.6176 15.207 95.8516 14.793 96.1936 14.559C96.4276 14.397 96.7516 14.343 97.0576 14.307C97.6876 14.253 98.2636 14.127 98.7856 13.785C99.6136 13.263 100.01 12.273 100.01 11.337C100.01 9.98697 99.1996 9.15897 98.0116 8.67297L95.5096 13.857C95.0056 14.901 94.2676 16.089 93.1336 16.503C92.6116 16.683 92.0536 16.755 91.5136 16.755C88.7416 16.755 86.9056 14.325 86.9056 11.697C86.9056 8.78097 88.9576 6.72897 91.7116 6.11697ZM94.0876 11.697L95.7076 8.04297C95.4016 8.02497 95.0956 8.00697 94.7896 8.00697C94.5556 8.00697 94.3216 8.02497 94.0876 8.02497V11.697ZM91.7116 8.52897C90.2896 9.08697 89.4256 10.167 89.4256 11.715C89.4256 12.939 90.1276 14.415 91.5136 14.415C92.3056 14.415 92.8636 13.821 93.2236 13.191H93.0616C92.3236 13.191 91.7116 12.561 91.7116 11.823V8.52897Z" fill="#353535"/>
<path d="M79.1294 2.84107V1.41907C79.1294 0.861067 79.5974 0.393066 80.1554 0.393066C80.7134 0.393066 81.1814 0.861067 81.1814 1.41907V2.91307C81.1814 3.47107 80.7134 3.93907 80.1554 3.93907C79.5074 3.93907 79.1294 3.41707 79.1294 2.84107ZM81.9914 2.82307V1.41907C81.9914 0.861067 82.4594 0.393066 83.0174 0.393066C83.5754 0.393066 84.0434 0.861067 84.0434 1.41907V2.91307C84.0434 3.47107 83.5754 3.93907 83.0174 3.93907C82.3694 3.93907 81.9914 3.39907 81.9914 2.82307ZM73.0994 6.63907L70.4174 15.9811C70.2554 16.5571 69.7334 16.9891 69.1214 16.9891C68.1854 16.9891 67.5914 16.0711 67.8254 15.2071L70.2554 6.78307L68.4194 6.87307C68.0954 6.89107 67.7894 6.85507 67.5014 6.69307C67.1054 6.45907 66.8354 6.00907 66.8354 5.54107C66.8354 4.71307 67.5014 4.24507 68.2574 4.20907L71.0294 4.08307L71.5514 2.22907C71.7134 1.65307 72.2535 1.23907 72.8475 1.23907C73.8555 1.23907 74.3954 2.17507 74.1255 3.09307L73.8735 3.95707H74.2514C78.2294 3.95707 80.5695 6.20707 80.5695 10.2211C80.5695 13.6951 78.6254 16.9351 74.8274 16.9351C73.7834 16.9351 72.0194 16.5391 72.0194 15.2071C72.0194 14.4691 72.6314 13.8751 73.3694 13.8751C73.6574 13.8751 73.9095 13.9831 74.1795 14.0911C74.4135 14.1811 74.6834 14.2171 74.9534 14.2171C77.1314 14.2171 77.8514 11.9311 77.8514 10.1131C77.8514 7.64707 76.5194 6.62107 74.1434 6.62107C73.7834 6.62107 73.4414 6.63907 73.0994 6.63907ZM80.1915 4.71307C80.7495 4.69507 81.2535 4.42507 81.5955 3.99307C81.9555 4.46107 82.5134 4.71307 83.1074 4.71307L84.1515 7.01707C84.2775 7.28707 84.2775 7.35907 84.2775 7.52107C84.2775 8.16907 83.7915 8.87107 82.9275 8.87107C82.4595 8.87107 81.9554 8.58307 81.7394 8.13307L80.1915 4.71307Z" fill="#353535"/>
<path d="M49.5196 11.841C49.1236 12.075 48.5476 12.399 48.0976 12.399C47.3236 12.399 47.0176 11.499 47.0176 10.869C47.0176 10.167 47.3596 9.93298 47.9716 9.71698C48.6556 9.46498 49.1416 9.26698 49.8076 8.96098C49.8256 8.87098 49.8256 8.81698 49.8256 8.72698V7.44898C49.5736 7.57498 49.3576 7.64698 49.0696 7.64698C48.4216 7.64698 48.2956 7.28698 48.0436 6.54898C47.8996 6.17098 47.7376 5.77498 47.5576 5.39698C47.2876 4.89298 47.1976 4.65898 47.1976 4.38898C47.1976 3.75898 47.8816 3.27298 48.4756 3.27298C49.0156 3.27298 49.2136 3.43498 49.8256 4.73098V4.02898C49.8256 2.48098 50.4376 1.85098 52.0036 1.85098H55.2796V1.50898C55.2796 0.572977 55.9456 0.500977 56.7556 0.500977C57.4936 0.500977 58.1236 0.644977 58.1236 1.50898V1.85098H63.1096C64.0276 1.85098 64.3516 2.19298 64.3516 3.11098C64.3516 3.93898 63.8656 4.19098 63.1096 4.19098H52.8136C52.4896 4.19098 52.3276 4.37098 52.3276 4.69498V9.32098C52.3276 11.175 51.9496 13.695 51.2836 15.423C51.0676 16.017 50.6176 16.935 50.1496 17.349C49.9516 17.529 49.6816 17.619 49.4116 17.619C48.6376 17.619 47.8276 17.061 47.8276 16.233C47.8276 15.873 47.9176 15.711 48.1516 15.333C48.8536 14.199 49.2136 13.137 49.5196 11.841ZM61.2376 14.379C61.0216 14.739 60.6256 14.973 60.2116 14.973C59.7796 14.973 59.5096 14.685 59.2756 14.361C58.9336 13.893 58.6816 13.425 58.4296 12.885C58.0876 13.641 57.1876 15.225 56.2516 15.225C55.8736 15.225 55.6036 15.045 55.3516 14.775V16.449C55.3516 17.403 54.9736 17.745 54.0376 17.745C53.1916 17.745 52.8856 17.223 52.8856 16.449V10.491C52.8856 8.96098 53.4976 8.34898 55.0276 8.34898H57.0796C57.0976 8.07898 57.0976 7.82698 57.0976 7.55698V7.35898H53.6596C52.8316 7.35898 52.3816 7.05298 52.3816 6.17098C52.3816 5.37898 52.9576 5.10898 53.6596 5.10898H63.0376C63.8836 5.10898 64.3336 5.43298 64.3336 6.31498C64.3336 7.10698 63.7396 7.35898 63.0376 7.35898H59.4556V7.55698C59.4556 7.82698 59.4376 8.07898 59.4196 8.34898H61.5796C63.1096 8.34898 63.7216 8.96098 63.7216 10.491V15.441C63.7216 16.413 63.6676 17.277 62.7856 17.547C62.3896 17.673 61.6336 17.673 61.0756 17.673H60.5356C59.7436 17.673 58.9876 17.637 58.9876 16.593C58.9876 15.855 59.3296 15.495 60.0676 15.495C60.2836 15.495 60.4996 15.513 60.7336 15.513C61.0936 15.513 61.2376 15.441 61.2376 14.955V14.379ZM59.5276 10.401C59.8156 11.517 60.3916 12.381 61.1296 13.299C61.1836 13.371 61.2016 13.407 61.2376 13.479V10.869C61.2376 10.563 61.0756 10.401 60.7696 10.401H59.5276ZM55.3516 13.389C56.2876 12.255 56.5936 11.877 56.8996 10.401H55.8196C55.5136 10.401 55.3516 10.563 55.3516 10.869V13.389Z" fill="#353535"/>
<path d="M34.2558 9.68111C34.5078 9.42911 34.7958 9.39311 35.1378 9.39311H40.4298V8.31311H34.9218C33.9858 8.31311 33.7158 7.84511 33.7158 6.98111C33.7158 6.15311 34.1118 5.75711 34.9218 5.75711H37.9098V4.58711H35.4618C34.6158 4.58711 34.2558 4.17311 34.2558 3.32711C34.2558 2.53511 34.6878 2.17511 35.4618 2.17511H37.9098V1.68911C37.9098 0.699109 38.5218 0.537109 39.3678 0.537109C40.1598 0.537109 40.6278 0.825109 40.6278 1.68911V2.17511H43.2918C44.1378 2.17511 44.5338 2.55311 44.5338 3.41711C44.5338 4.24511 44.0658 4.58711 43.2918 4.58711H40.6278V5.75711H43.7598C44.7138 5.75711 45.0018 6.18911 45.0018 7.10711C45.0018 7.88111 44.6418 8.31311 43.8498 8.31311H43.1478V9.39311H43.7418C44.6238 9.39311 44.8758 9.96911 44.8758 10.7431C44.8758 11.4811 44.5158 11.9671 43.7418 11.9671H43.1478V15.4051C43.1478 16.1431 43.1118 16.8991 42.4458 17.2951C41.9598 17.5831 41.0598 17.6371 40.4658 17.6371H39.7278C38.4498 17.6371 37.6578 17.5111 37.6578 16.1071V15.8551C37.4778 15.9271 37.2978 15.9631 37.0818 15.9631C36.5058 15.9631 36.2538 15.7651 35.9838 15.2791C35.8038 14.9551 35.5698 14.5231 35.2278 13.9651C35.0478 13.6771 34.8858 13.4071 34.8858 13.0651C34.8858 12.5071 35.3718 12.1471 35.8578 11.9671H35.1378C34.2198 11.9671 33.9318 11.5171 33.9318 10.6531C33.9318 10.4731 33.9498 10.3471 33.9858 10.1851C33.6798 10.4551 32.8338 10.8151 32.4378 10.9951V15.4231C32.4378 17.3671 31.8798 17.6551 30.3318 17.6551H29.8278C28.8378 17.6551 27.9018 17.5831 27.9018 16.2511C27.9018 15.3871 28.3518 14.9551 29.1978 14.9551H29.3598C29.7738 14.9551 29.8818 14.8831 29.8818 14.4691V11.9851C29.5758 12.0931 29.1978 12.2191 28.8738 12.2191C28.0638 12.2191 27.7578 11.3911 27.7578 10.7071C27.7578 9.96911 28.0998 9.71711 28.8198 9.50111C29.1438 9.41111 29.4858 9.30311 29.8818 9.19511V6.20711H29.1078C28.1898 6.20711 27.8298 5.75711 27.8298 4.85711C27.8298 4.01111 28.2618 3.59711 29.1078 3.59711H29.8818V1.92311C29.8818 1.07711 30.2778 0.591109 31.1598 0.591109C32.0418 0.591109 32.4378 1.07711 32.4378 1.92311V3.59711H32.8518C33.7698 3.59711 34.1118 4.06511 34.1118 4.94711C34.1118 5.81111 33.6798 6.20711 32.8518 6.20711H32.4378V8.31311C32.6718 8.22311 32.9238 8.15111 33.1758 8.15111C33.8598 8.15111 34.2918 8.69111 34.2918 9.33911C34.2918 9.42911 34.2738 9.57311 34.2558 9.68111ZM36.9558 11.9671C37.2078 12.0751 37.6758 12.6331 38.0538 13.2451C38.4138 13.8391 38.6478 14.3251 38.6478 14.6491C38.6478 14.7571 38.6298 14.8291 38.5938 14.9191C38.9718 14.9191 39.3318 14.9551 39.7098 14.9551C40.2678 14.9551 40.4298 14.8291 40.4298 14.1811V11.9671H36.9558Z" fill="#353535"/>
</svg>
