<svg width="222" height="63" viewBox="0 0 222 63" fill="none" xmlns="http://www.w3.org/2000/svg">
<g filter="url(#filter0_d_94_133)">
<mask id="path-1-inside-1_94_133" fill="white">
<path fill-rule="evenodd" clip-rule="evenodd" d="M16.498 0C10.9094 0 6.37891 4.53045 6.37891 10.119V28.9116C6.37891 34.5002 10.9094 39.0306 16.498 39.0306H104.624L111.466 50.8811L118.308 39.0306H205.869C211.457 39.0306 215.988 34.5002 215.988 28.9116V10.119C215.988 4.53045 211.457 0 205.869 0H16.498Z"/>
</mask>
<path fill-rule="evenodd" clip-rule="evenodd" d="M16.498 0C10.9094 0 6.37891 4.53045 6.37891 10.119V28.9116C6.37891 34.5002 10.9094 39.0306 16.498 39.0306H104.624L111.466 50.8811L118.308 39.0306H205.869C211.457 39.0306 215.988 34.5002 215.988 28.9116V10.119C215.988 4.53045 211.457 0 205.869 0H16.498Z" fill="white"/>
<path d="M104.624 39.0306L107.128 37.585L106.294 36.1395H104.624V39.0306ZM111.466 50.8811L108.962 52.3267L111.466 56.6634L113.97 52.3267L111.466 50.8811ZM118.308 39.0306V36.1395H116.639L115.804 37.585L118.308 39.0306ZM9.27006 10.119C9.27006 6.12719 12.5061 2.89116 16.498 2.89116V-2.89116C9.31262 -2.89116 3.48775 2.9337 3.48775 10.119H9.27006ZM9.27006 28.9116V10.119H3.48775V28.9116H9.27006ZM16.498 36.1395C12.5061 36.1395 9.27006 32.9034 9.27006 28.9116H3.48775C3.48775 36.0969 9.31262 41.9218 16.498 41.9218V36.1395ZM104.624 36.1395H16.498V41.9218H104.624V36.1395ZM113.97 49.4355L107.128 37.585L102.121 40.4762L108.962 52.3267L113.97 49.4355ZM115.804 37.585L108.962 49.4355L113.97 52.3267L120.812 40.4762L115.804 37.585ZM205.869 36.1395H118.308V41.9218H205.869V36.1395ZM213.097 28.9116C213.097 32.9034 209.861 36.1395 205.869 36.1395V41.9218C213.054 41.9218 218.879 36.0969 218.879 28.9116H213.097ZM213.097 10.119V28.9116H218.879V10.119H213.097ZM205.869 2.89116C209.861 2.89116 213.097 6.1272 213.097 10.119H218.879C218.879 2.93371 213.054 -2.89116 205.869 -2.89116V2.89116ZM16.498 2.89116H205.869V-2.89116H16.498V2.89116Z" fill="#005EA4" mask="url(#path-1-inside-1_94_133)"/>
</g>
<path d="M88.6489 20.08C88.7749 20.44 88.7929 20.746 88.7929 21.124V24.436C88.7929 25.966 88.1809 26.578 86.6509 26.578H85.6969C86.4169 26.83 87.5509 27.19 88.3069 27.262C89.5129 27.388 90.0169 27.622 90.0169 28.432C90.0169 29.188 89.5309 29.656 88.7749 29.656C87.7489 29.656 86.0209 29.152 84.9949 28.774C83.7529 28.324 83.3209 28.18 83.3209 27.478C83.3209 27.136 83.4469 26.812 83.6989 26.578H79.7389C79.9729 26.83 80.1349 27.154 80.1349 27.496C80.1349 28.234 79.2709 28.522 77.8849 28.954C77.3989 29.098 76.7149 29.314 76.0309 29.476C75.5269 29.602 75.0409 29.674 74.6629 29.674C73.8889 29.674 73.4209 29.188 73.4209 28.414C73.4209 27.712 73.8889 27.442 74.6989 27.334C75.9049 27.172 76.6609 26.956 77.7589 26.578H76.7689C75.2569 26.578 74.6269 25.966 74.6269 24.436V21.124C74.6269 20.638 74.6809 20.134 74.9509 19.72C74.5729 19.864 74.3389 19.918 74.1589 19.918C73.4389 19.918 73.0969 19.036 73.0969 18.442C73.0969 17.722 73.3849 17.542 74.1049 17.326C74.5729 17.182 75.1489 17.038 75.9409 16.732C76.4989 16.516 77.0929 16.3 77.3989 16.3C78.0829 16.3 78.4249 16.966 78.4249 17.56C78.4249 18.046 78.1369 18.316 77.6329 18.586C77.3989 18.712 77.1109 18.838 76.7869 18.982H78.6589C78.5509 18.766 78.4969 18.586 78.4969 18.334C78.4969 17.668 78.8389 17.506 80.0989 17.182C80.9269 16.966 81.7549 16.462 82.2409 15.742C82.3489 15.58 82.4569 15.508 82.6189 15.4H81.1789C80.8729 15.652 80.2609 16.156 79.7029 16.462C79.4149 16.624 79.1449 16.732 78.9649 16.732C78.3349 16.732 77.8309 16.102 77.8309 15.508C77.8309 14.986 78.1189 14.788 78.9649 14.248C79.5409 13.87 80.0629 13.366 80.6389 12.808C80.9089 12.538 81.1609 12.394 81.5569 12.394C82.1149 12.394 82.8169 12.754 82.8169 13.312C82.8169 13.366 82.8169 13.42 82.7989 13.456H88.2529C89.0269 13.456 89.8369 13.672 89.8369 14.626C89.8369 15.166 89.5309 15.868 89.2969 16.354C89.0629 16.822 88.8289 17.182 88.2529 17.182C87.7669 17.182 86.7949 16.984 86.7949 16.246C86.7949 16.138 86.8489 16.03 86.9389 15.85C86.9749 15.778 87.0649 15.598 87.0649 15.544C87.0649 15.418 86.9389 15.4 86.8309 15.4H84.8509C85.0849 15.49 85.1389 15.544 85.3009 15.742C86.3989 17.11 87.7489 17.38 89.3509 17.686C89.9449 17.794 90.1969 18.154 90.1969 18.748C90.1969 19.396 89.8189 20.134 89.0809 20.134C88.9369 20.134 88.7929 20.098 88.6489 20.08ZM73.6549 14.122C73.6549 13.492 74.1049 12.808 74.7889 12.808C75.0229 12.808 75.3289 12.898 75.6709 13.006C75.9949 13.114 76.3909 13.276 76.7149 13.42C77.2729 13.654 77.7949 13.888 77.7949 14.5C77.7949 15.184 77.3089 15.904 76.5889 15.904C76.4089 15.904 76.1569 15.814 75.9229 15.706C75.2929 15.4 74.7349 15.202 74.2849 15.022C73.8709 14.86 73.6549 14.59 73.6549 14.122ZM85.9669 18.982C85.1389 18.478 84.4009 17.848 83.8249 17.074C83.1589 17.992 82.4389 18.496 81.4309 18.982H85.9669ZM86.0389 21.124V20.854C86.0389 20.62 85.9129 20.512 85.6969 20.512H77.7049C77.4889 20.512 77.3629 20.62 77.3629 20.854V21.124H86.0389ZM77.3629 22.402V23.032H86.0389V22.402H77.3629ZM77.3629 24.328V24.634C77.3629 24.85 77.4889 24.976 77.7049 24.976H85.6969C85.9129 24.976 86.0389 24.85 86.0389 24.634V24.328H77.3629ZM100.367 24.526C100.151 24.922 99.7369 25.246 99.2689 25.246C98.8369 25.246 98.4769 24.94 98.0449 24.094V28.468C98.0449 29.44 97.6129 29.782 96.6769 29.782C95.7949 29.782 95.4529 29.296 95.4529 28.468V25.192C94.7689 26.578 94.2649 26.884 93.8329 26.884C93.0589 26.884 92.4289 26.056 92.4289 25.318C92.4289 24.904 92.5009 24.742 93.3289 23.752C93.8869 23.086 94.9309 21.556 95.4349 20.548H93.9409C93.0229 20.548 92.5909 20.188 92.5909 19.252C92.5909 18.388 93.1489 18.082 93.9409 18.082H95.4529V13.87C95.4529 12.898 95.8849 12.556 96.8209 12.556C97.6849 12.556 98.0449 13.06 98.0449 13.87V18.082H99.3229C100.223 18.082 100.655 18.442 100.655 19.378C100.655 20.242 100.097 20.548 99.3229 20.548H98.0989C98.8729 21.754 99.2329 22.186 100.187 23.23C100.313 23.374 100.439 23.554 100.475 23.752C100.655 23.374 100.925 23.266 101.339 23.194L105.425 22.42V13.816C105.425 12.7 105.965 12.502 106.973 12.502C107.873 12.502 108.251 12.934 108.251 13.816V21.88L108.395 21.862C109.475 21.682 109.835 22.474 109.835 23.392C109.835 24.112 109.475 24.382 108.791 24.508L108.251 24.598V28.396C108.251 29.512 107.693 29.728 106.685 29.728C105.785 29.728 105.425 29.278 105.425 28.396V25.138L102.059 25.768C101.807 25.822 101.645 25.84 101.501 25.84C100.727 25.84 100.421 25.21 100.367 24.526ZM98.3689 16.678C98.3689 16.516 98.4049 16.372 98.5309 15.958C98.6569 15.562 98.8189 14.896 98.8729 14.626C99.0349 13.78 99.2329 13.51 99.8449 13.51C100.403 13.51 101.033 13.78 101.033 14.428C101.033 14.644 100.943 15.31 100.475 16.696C100.313 17.164 100.115 17.614 99.5569 17.614C99.0169 17.614 98.3689 17.29 98.3689 16.678ZM93.7249 13.528C94.2109 13.528 94.4089 13.708 94.6249 14.356C95.0389 15.634 95.1829 16.48 95.1829 16.696C95.1829 17.326 94.4989 17.596 93.9769 17.596C93.3829 17.596 93.2389 17.2 93.1129 16.534C93.0229 16.102 92.8609 15.49 92.7169 15.094C92.5729 14.698 92.5369 14.518 92.5369 14.374C92.5369 13.798 93.2389 13.528 93.7249 13.528ZM101.447 14.896C101.447 14.176 102.023 13.6 102.743 13.6C103.103 13.6 103.391 13.708 104.147 14.338C105.101 15.13 105.299 15.364 105.299 15.868C105.299 16.588 104.723 17.29 103.967 17.29C103.625 17.29 103.499 17.236 102.869 16.642C102.653 16.426 102.401 16.192 102.059 15.904C101.519 15.436 101.447 15.256 101.447 14.896ZM100.871 19.522C100.871 18.82 101.447 18.136 102.185 18.136C102.545 18.136 102.887 18.244 104.021 19.216C104.633 19.738 104.813 19.936 104.813 20.404C104.813 21.106 104.147 21.88 103.427 21.88C103.103 21.88 102.941 21.826 102.365 21.286C102.077 21.016 101.843 20.8 101.519 20.53C100.943 20.044 100.871 19.882 100.871 19.522ZM125.027 13.708H127.781C128.429 13.708 128.897 13.96 128.897 14.662C128.897 15.364 128.429 15.616 127.781 15.616H125.027V16.12H127.709C128.249 16.12 128.591 16.318 128.591 16.912C128.591 17.488 128.249 17.704 127.709 17.704H125.027V18.208H128.087C128.807 18.208 129.185 18.496 129.185 19.252C129.185 19.972 128.735 20.224 128.087 20.224H119.339C118.619 20.224 118.241 19.936 118.241 19.18C118.241 18.478 118.691 18.208 119.339 18.208H122.435V17.704H119.807C119.267 17.704 118.925 17.488 118.925 16.912C118.925 16.318 119.267 16.12 119.807 16.12H122.435V15.616H119.591C118.943 15.616 118.493 15.364 118.493 14.662C118.493 13.96 118.943 13.708 119.591 13.708H122.435V13.474C122.435 12.7 123.119 12.556 123.749 12.556C124.379 12.556 125.027 12.718 125.027 13.474V13.708ZM117.053 15.184H113.543C112.805 15.184 112.427 14.878 112.427 14.104C112.427 13.366 112.841 13.06 113.543 13.06H117.053C117.809 13.06 118.169 13.384 118.169 14.158C118.169 14.896 117.755 15.166 117.053 15.184ZM117.611 17.92H113.093C112.355 17.92 111.959 17.596 111.959 16.822C111.959 16.048 112.355 15.724 113.093 15.724H117.611C118.367 15.724 118.709 16.048 118.709 16.822C118.709 17.614 118.367 17.902 117.611 17.92ZM117.089 20.602H113.543C112.769 20.602 112.427 20.26 112.427 19.486C112.427 18.748 112.859 18.46 113.543 18.46H117.089C117.863 18.46 118.205 18.784 118.205 19.576C118.205 20.314 117.791 20.584 117.089 20.602ZM121.535 26.686V28.414C121.535 29.314 121.121 29.764 120.221 29.764C119.339 29.764 118.961 29.242 118.961 28.414V22.888C118.961 21.376 119.573 20.764 121.103 20.764H126.269C127.799 20.764 128.411 21.376 128.411 22.888V27.424C128.411 29.566 127.871 29.656 125.909 29.656C125.729 29.656 125.531 29.656 125.351 29.656C124.523 29.656 123.713 29.566 123.713 28.45C123.713 27.766 124.091 27.406 124.757 27.406C125.009 27.406 125.261 27.406 125.531 27.406C125.801 27.406 125.891 27.352 125.891 27.082V26.686H121.535ZM117.035 23.248H113.543C112.805 23.248 112.427 22.942 112.427 22.168C112.427 21.43 112.859 21.142 113.543 21.142H117.089C117.809 21.142 118.205 21.448 118.205 22.204C118.205 22.996 117.773 23.248 117.035 23.248ZM121.535 23.194H125.891V22.978C125.891 22.744 125.783 22.636 125.549 22.636H121.877C121.643 22.636 121.535 22.744 121.535 22.978V23.194ZM118.151 25.84V27.424C118.151 29.134 117.845 29.476 116.135 29.476H114.533C112.823 29.476 112.517 29.134 112.517 27.424V25.84C112.517 24.112 112.841 23.806 114.551 23.806H116.117C117.827 23.806 118.151 24.13 118.151 25.84ZM125.891 24.67H121.535V25.228H125.891V24.67ZM115.829 25.786H115.181C114.965 25.786 114.839 25.894 114.839 26.11V26.974C114.839 27.19 114.965 27.316 115.181 27.316H115.829C116.045 27.316 116.153 27.19 116.153 26.974V26.11C116.153 25.894 116.045 25.786 115.829 25.786ZM141.281 18.244C141.695 19.432 142.073 20.098 142.793 21.124C143.945 20.044 144.251 19.702 145.277 18.514C145.547 18.19 145.781 17.992 146.249 17.992C146.897 17.992 147.689 18.658 147.689 19.342C147.689 19.666 147.545 19.936 147.131 20.404C146.573 21.052 145.115 22.492 144.449 23.032C145.871 24.418 146.411 24.742 148.031 25.804C148.355 26.02 148.625 26.398 148.625 26.794C148.625 27.496 147.959 28.432 147.113 28.432C146.645 28.432 146.267 28.216 145.907 27.946C145.205 27.424 144.539 26.848 143.909 26.236C142.775 25.138 141.983 24.094 141.281 22.69V27.496C141.281 28.936 140.741 29.422 139.877 29.602C139.463 29.692 138.977 29.692 138.455 29.692H137.483C136.223 29.692 135.503 29.602 135.503 28.234C135.503 27.316 135.881 26.884 136.817 26.884C137.285 26.884 137.771 26.92 138.239 26.92C138.617 26.92 138.689 26.704 138.689 26.362V17.758H132.767C131.813 17.758 131.435 17.344 131.435 16.408C131.435 15.526 131.939 15.166 132.767 15.166H138.689V13.834C138.689 12.808 139.139 12.538 140.039 12.538C140.921 12.538 141.281 13.006 141.281 13.834V15.166H144.035C142.973 14.482 142.613 14.248 142.613 13.834C142.613 13.186 143.207 12.502 143.837 12.502C144.233 12.502 144.791 12.844 145.475 13.276C146.465 13.906 146.807 14.122 146.807 14.644C146.807 14.824 146.753 15.004 146.663 15.166H147.293C148.283 15.166 148.607 15.598 148.607 16.516C148.607 17.434 148.121 17.758 147.293 17.758H141.281V18.244ZM134.027 18.01C134.405 18.01 134.783 18.244 135.107 18.586C135.413 18.892 136.115 19.738 136.331 19.99C136.727 20.476 137.087 20.908 137.087 21.43C137.087 22.204 136.241 22.87 135.503 22.87C134.981 22.87 134.675 22.51 134.297 21.916C134.009 21.466 133.667 21.034 133.325 20.638C132.893 20.152 132.551 19.756 132.551 19.288C132.551 18.604 133.397 18.01 134.027 18.01ZM132.749 28.072C131.975 28.072 131.417 27.244 131.417 26.542C131.417 25.804 131.939 25.57 133.181 25.012C134.315 24.508 135.377 23.878 136.457 23.266C136.691 23.122 136.979 22.978 137.249 22.978C137.951 22.978 138.455 23.698 138.455 24.364C138.455 24.976 137.987 25.246 136.331 26.254C135.917 26.506 134.801 27.208 133.883 27.658C133.397 27.892 132.965 28.072 132.749 28.072Z" fill="#005EA4"/>
<defs>
<filter id="filter0_d_94_133" x="0.596593" y="0" width="221.174" height="62.4455" filterUnits="userSpaceOnUse" color-interpolation-filters="sRGB">
<feFlood flood-opacity="0" result="BackgroundImageFix"/>
<feColorMatrix in="SourceAlpha" type="matrix" values="0 0 0 0 0 0 0 0 0 0 0 0 0 0 0 0 0 0 127 0" result="hardAlpha"/>
<feOffset dy="5.78231"/>
<feGaussianBlur stdDeviation="2.89116"/>
<feComposite in2="hardAlpha" operator="out"/>
<feColorMatrix type="matrix" values="0 0 0 0 0 0 0 0 0 0 0 0 0 0 0 0 0 0 0.25 0"/>
<feBlend mode="normal" in2="BackgroundImageFix" result="effect1_dropShadow_94_133"/>
<feBlend mode="normal" in="SourceGraphic" in2="effect1_dropShadow_94_133" result="shape"/>
</filter>
</defs>
</svg>
