<svg width="130" height="124" viewBox="0 0 130 124" fill="none" xmlns="http://www.w3.org/2000/svg">
<path fill-rule="evenodd" clip-rule="evenodd" d="M118.312 96.8059C125.352 86.8727 129.469 74.8635 129.469 61.928C129.469 27.7261 100.688 0 65.1839 0C29.68 0 0.898438 27.7261 0.898438 61.928C0.898438 96.1299 29.68 123.856 65.1839 123.856C83.5561 123.856 100.128 116.432 111.844 104.527L125.039 108.665L118.312 96.8059Z" fill="#005EA4"/>
<path d="M25.1673 42.5644C24.9469 46.2287 24.3408 49.7552 22.302 53.0889C21.1724 54.9624 19.6847 56.643 17.8939 57.9103C17.4806 58.2134 16.9572 58.4613 16.4888 58.4613C15.5245 58.4613 14.7255 57.6623 14.7255 56.6981C14.7255 55.8991 15.249 55.4032 15.8551 54.9899C19.9051 52.345 21.3929 47.1379 21.5857 42.5644H16.4337C15.5245 42.5644 14.7255 41.793 14.7255 40.8563C14.7255 39.9471 15.497 39.1481 16.4337 39.1481H21.6408C21.6133 38.1838 21.5582 36.6134 21.5582 36.2828C21.5582 35.2634 22.2194 34.4645 23.2939 34.4645C24.1755 34.4645 24.7816 34.9604 24.9469 35.6767C25.1398 36.4481 25.1949 37.991 25.1949 39.1481H35.6091C36.7663 39.1481 37.6479 40.0298 37.6479 41.242C37.6479 41.2695 37.6479 41.3247 37.6479 41.3522L37.1244 56.5052C37.0693 57.993 35.7193 58.5164 34.452 58.5164C32.2755 58.5164 29.8234 58.0481 27.8398 56.9736C27.0683 56.5603 26.3245 55.9266 26.3245 54.9624C26.3245 54.0532 27.151 53.2542 28.0877 53.2542C28.501 53.2542 28.9418 53.392 29.851 53.9705C30.8153 54.5766 32.1928 54.7971 33.5428 54.7971L34.0112 42.5644H25.1673ZM43.3785 36.4481L52.0846 37.6604C52.9387 37.7981 53.5999 38.542 53.5999 39.3961C53.5999 40.4706 52.6356 41.2971 51.5887 41.1593L42.7448 39.9471C41.8632 39.8094 41.1744 39.093 41.1744 38.1838C41.1744 37.4124 41.7254 36.6961 42.3867 36.5032C42.5795 36.4481 42.7448 36.4206 42.9377 36.4206C43.0754 36.4206 43.2132 36.4206 43.3785 36.4481ZM59.3856 40.9389C59.3856 39.9471 60.1846 39.1757 61.1764 39.1757C61.8927 39.1757 62.4437 39.5338 62.7468 40.1951C62.9672 40.691 63.1049 41.5175 63.1049 43.5012C63.1049 52.4552 56.7682 58.4889 47.8968 58.4889C46.2162 58.4889 44.5356 58.296 42.9377 57.745C42.0285 57.4419 41.1469 56.8358 41.1469 55.7889C41.1469 54.8797 41.9458 54.0807 42.855 54.0807C43.1581 54.0807 43.4887 54.1634 43.7918 54.2736C45.1693 54.7144 46.5468 54.9899 48.007 54.9899C54.8672 54.9899 59.5233 50.4165 59.5233 43.5563C59.5233 43.0328 59.4958 42.5369 59.4407 41.9583C59.4131 41.5726 59.3856 41.1042 59.3856 40.9389ZM83.7681 47.0277C84.3743 44.6583 84.6222 42.2338 84.76 39.7818H73.5192C72.8304 41.9859 72.1141 43.3634 69.9651 45.5399C68.9733 46.5318 67.5406 47.441 66.8794 47.441C65.9151 47.441 65.0886 46.6695 65.0886 45.6777C65.0886 44.8787 65.557 44.4104 66.1631 44.0246C68.0917 42.7573 69.4692 40.7736 70.2406 38.6247C70.6815 37.4124 71.0672 36.4206 72.4723 36.4206H86.3579C87.6804 36.4206 88.3691 37.3022 88.3691 38.542C88.3691 40.1675 88.1487 42.2063 87.9283 43.8318C87.7079 45.2093 87.4049 46.5593 87.0742 47.9093L88.1212 48.1848C88.8926 48.3777 89.4712 49.0389 89.4712 49.8379C89.4712 50.9124 88.4242 51.7664 87.3773 51.5185L85.9171 51.1328C83.6579 55.9817 80.1039 58.4613 74.6763 58.4613C72.2519 58.4613 69.7447 58.0205 67.5682 56.8634C66.8519 56.5052 66.1907 55.8991 66.1907 55.0175C66.1907 54.0807 67.0447 53.2818 67.9815 53.2818C68.3121 53.2818 68.6151 53.392 68.9182 53.5297C70.7366 54.4389 72.8029 54.9348 74.8416 54.9348C78.3406 54.9348 81.013 53.4195 82.5834 50.2511L74.3733 48.1297C73.6018 47.9369 73.0233 47.2756 73.0233 46.4767C73.0233 45.3471 74.0978 44.5481 75.1723 44.8236L83.7681 47.0277ZM94.0722 36.4481L102.778 37.6604C103.632 37.7981 104.294 38.542 104.294 39.3961C104.294 40.4706 103.329 41.2971 102.282 41.1593L93.4385 39.9471C92.5569 39.8094 91.8681 39.093 91.8681 38.1838C91.8681 37.4124 92.4191 36.6961 93.0803 36.5032C93.2732 36.4481 93.4385 36.4206 93.6314 36.4206C93.7691 36.4206 93.9069 36.4206 94.0722 36.4481ZM110.079 40.9389C110.079 39.9471 110.878 39.1757 111.87 39.1757C112.586 39.1757 113.137 39.5338 113.44 40.1951C113.661 40.691 113.799 41.5175 113.799 43.5012C113.799 52.4552 107.462 58.4889 98.5905 58.4889C96.9099 58.4889 95.2293 58.296 93.6314 57.745C92.7222 57.4419 91.8406 56.8358 91.8406 55.7889C91.8406 54.8797 92.6395 54.0807 93.5487 54.0807C93.8518 54.0807 94.1824 54.1634 94.4854 54.2736C95.863 54.7144 97.2405 54.9899 98.7007 54.9899C105.561 54.9899 110.217 50.4165 110.217 43.5563C110.217 43.0328 110.189 42.5369 110.134 41.9583C110.107 41.5726 110.079 41.1042 110.079 40.9389Z" fill="white"/>
<path d="M98.3592 76.8509V89.7999C98.3592 92.9682 97.3398 93.106 94.3918 93.106H93.9786C92.7388 93.106 91.6092 93.0233 91.6092 91.2601C91.6092 90.1029 92.1878 89.6897 93.3173 89.6897H94.1163C94.9704 89.6897 95.1357 89.3866 95.1357 88.5876V76.8509C95.1357 75.6938 95.7143 75.3632 96.8163 75.3632C97.8632 75.3632 98.3316 75.804 98.3592 76.8509ZM86.347 79.1928V82.6091H87.7521C88.8265 82.6091 89.2949 83.1877 89.2949 84.207C89.2949 85.1713 88.7163 85.7223 87.7521 85.7223H86.347V86.1907C87.0357 87.4305 87.8623 88.5876 88.799 89.6621C89.598 90.5437 89.9286 91.0121 89.9286 91.6182C89.9286 92.3346 89.35 93.1335 88.551 93.1335C87.7796 93.1335 87.0908 92.059 86.347 90.654V99.856C86.347 100.986 85.9061 101.537 84.749 101.537C83.6745 101.537 83.2613 100.848 83.2613 99.856V92.6927C82.8755 93.5743 82.4347 94.456 81.9113 95.2825C81.5531 95.8335 81.1398 96.4947 80.396 96.4947C79.4592 96.4947 78.7154 95.6407 78.7154 94.7315C78.7154 94.0703 79.046 93.6019 79.4317 93.106C81.1398 90.7917 82.3245 88.4499 83.2062 85.7223H80.6715C79.5419 85.7223 78.9909 85.254 78.9909 84.0968C78.9909 82.9948 79.6521 82.6091 80.6715 82.6091H83.2613V79.6887C82.5174 79.7989 81.4429 79.9366 80.699 79.9366C79.7072 79.9366 79.1837 79.303 79.1837 78.3387C79.1837 77.154 79.7072 76.9336 80.6439 76.8509C82.9582 76.6305 84.5561 76.4377 86.8704 75.8316C87.0633 75.7765 87.4765 75.6938 87.7521 75.6938C88.6612 75.6938 89.1572 76.4928 89.1572 77.3193C89.1572 78.6142 88.248 78.8071 86.347 79.1928ZM101.39 78.4213C102.464 78.4213 102.74 79.1377 103.098 80.8458C103.318 81.9203 103.952 83.8764 104.42 84.8407C104.916 85.8601 105.109 86.3009 105.109 86.7142C105.109 87.6509 104.145 88.2019 103.291 88.2019C102.933 88.2019 102.602 88.0917 102.354 87.8438C101.803 87.2927 101.307 85.8876 101.059 85.1438C100.701 84.0693 99.7367 80.7632 99.7367 79.7438C99.7367 78.8071 100.591 78.4213 101.39 78.4213ZM91.9673 78.5591C92.8214 78.5591 93.5928 78.8897 93.5928 79.854C93.5928 81.1764 92.6837 84.8683 92.2704 86.2183C91.7469 87.954 91.3337 89.1662 90.2867 89.1662C89.4051 89.1662 88.3582 88.5325 88.3582 87.5682C88.3582 87.3754 88.4133 87.0723 88.7163 86.4111C89.4878 84.5927 90.0112 82.8846 90.3418 80.9285C90.6725 78.9999 90.8929 78.5591 91.9673 78.5591ZM102.079 88.6978C102.85 88.6978 103.924 89.2213 103.924 90.2131C103.924 90.6815 103.594 91.3978 103.153 92.2244C102.271 93.7948 101.224 95.3376 99.9847 96.6325C97.753 98.9468 95.6316 100.021 92.601 100.903C91.6918 101.151 90.6725 101.399 90.2041 101.399C89.1572 101.399 88.6061 100.49 88.6061 99.5253C88.6061 98.6437 89.1847 98.3407 89.9286 98.1478C92.1051 97.5692 93.9235 97.156 95.852 95.8886C97.6704 94.6488 99.1306 92.9407 100.15 90.9846C100.921 89.3591 101.335 88.6978 102.079 88.6978Z" fill="white"/>
<path d="M35.7871 77.5246H30.126C28.8065 77.5246 28.0404 76.4605 28.0404 75.2262C28.0404 73.3533 29.2747 73.1405 31.5732 72.7574C34.1696 72.3318 35.8722 70.5867 36.6809 68.1179C37.064 66.9261 37.4896 65.9472 39.2773 65.9472C40.4266 65.9472 41.7461 66.6282 41.7461 67.9051V99.3175C41.7461 101.403 40.6394 102.169 38.6814 102.169C36.8086 102.169 35.7871 101.233 35.7871 99.3175V77.5246ZM61.0652 65.9472C64.1724 65.9472 67.4924 67.3092 69.3227 69.9056C72.0042 73.6939 72.6427 79.4826 72.6427 84.037C72.6427 88.5488 72.0042 94.4652 69.3227 98.2109C67.4499 100.765 64.1724 102.169 61.0652 102.169C57.9155 102.169 54.6806 100.765 52.8078 98.2109C50.1262 94.5078 49.4452 88.5062 49.4452 84.037C49.4452 79.4826 50.0836 73.6939 52.8078 69.9056C54.638 67.3092 57.958 65.9472 61.0652 65.9472ZM61.0652 70.9698C55.4893 70.9698 55.4467 80.1636 55.4467 84.037C55.4467 87.9103 55.5319 97.1042 61.0652 97.1042C66.5986 97.1042 66.6837 87.9103 66.6837 84.037C66.6837 80.1636 66.5986 70.9698 61.0652 70.9698Z" fill="#F7DF7F"/>
</svg>
