<svg width="257" height="46" viewBox="0 0 257 46" fill="none" xmlns="http://www.w3.org/2000/svg">
<g filter="url(#filter0_d_94_483)">
<mask id="path-1-inside-1_94_483" fill="white">
<path fill-rule="evenodd" clip-rule="evenodd" d="M11 0C7.13401 0 4 3.13401 4 7V23C4 26.866 7.13401 30 11 30H125.042L129.695 38L134.348 30H246C249.866 30 253 26.866 253 23V7C253 3.13401 249.866 0 246 0H11Z"/>
</mask>
<path fill-rule="evenodd" clip-rule="evenodd" d="M11 0C7.13401 0 4 3.13401 4 7V23C4 26.866 7.13401 30 11 30H125.042L129.695 38L134.348 30H246C249.866 30 253 26.866 253 23V7C253 3.13401 249.866 0 246 0H11Z" fill="white"/>
<path d="M125.042 30L126.771 28.9945L126.193 28H125.042V30ZM129.695 38L127.966 39.0056L129.695 41.9781L131.424 39.0056L129.695 38ZM134.348 30V28H133.198L132.619 28.9945L134.348 30ZM6 7C6 4.23858 8.23858 2 11 2V-2C6.02944 -2 2 2.02944 2 7H6ZM6 23V7H2V23H6ZM11 28C8.23858 28 6 25.7614 6 23H2C2 27.9706 6.02944 32 11 32V28ZM125.042 28H11V32H125.042V28ZM131.424 36.9945L126.771 28.9945L123.314 31.0055L127.966 39.0056L131.424 36.9945ZM132.619 28.9945L127.966 36.9945L131.424 39.0056L136.077 31.0055L132.619 28.9945ZM246 28H134.348V32H246V28ZM251 23C251 25.7614 248.761 28 246 28V32C250.971 32 255 27.9706 255 23H251ZM251 7V23H255V7H251ZM246 2C248.761 2 251 4.23858 251 7H255C255 2.02944 250.971 -2 246 -2V2ZM11 2H246V-2H11V2Z" fill="#CF2CA0" mask="url(#path-1-inside-1_94_483)"/>
</g>
<path d="M25.1141 13.07H37.5041V14.638H25.1141V13.07ZM27.4521 9.934H36.6361V11.46H27.4521V9.934ZM27.5921 19.076H35.1801V20.63H27.5921V19.076ZM30.7561 8.114H32.5481V14.022H30.7561V8.114ZM26.7101 15.646H36.1461V21.26H34.3401V17.186H28.4321V21.302H26.7101V15.646ZM27.3961 8.142L29.0761 8.562C28.4881 10.27 27.4941 11.978 26.5421 13.056C26.1921 12.79 25.4221 12.356 25.0161 12.16C26.0241 11.222 26.9061 9.668 27.3961 8.142ZM47.2481 18.264H51.0841V19.832H47.2481V18.264ZM46.4921 9.318H51.8681V20.658H50.1601V10.9H48.1161V20.854H46.4921V9.318ZM42.1241 10.634H43.8181V13.336C43.8181 15.716 43.3141 19.174 40.5001 21.218C40.2901 20.868 39.6461 20.196 39.3101 19.958C41.8721 18.11 42.1241 15.366 42.1241 13.308V10.634ZM40.9761 9.892H45.7781V11.446H40.9761V9.892ZM39.5201 13.658H46.1281V15.254H39.5201V13.658ZM43.3981 15.632C43.9721 16.136 45.8201 18.25 46.2541 18.768L45.1201 20.182C44.4621 19.146 43.0901 17.41 42.3761 16.584L43.3981 15.632ZM40.8221 8.114L42.4321 8.436C42.0681 10.284 41.3961 12.132 40.5981 13.308C40.3041 13.042 39.6181 12.566 39.2541 12.342C40.0101 11.334 40.5421 9.724 40.8221 8.114ZM59.9601 10.214C61.6821 10.452 64.4821 10.382 65.9801 10.2V12.006C64.2721 12.174 61.7241 12.174 59.9741 12.006L59.9601 10.214ZM61.0801 16.192C60.9681 16.668 60.9121 17.004 60.9121 17.368C60.9121 17.998 61.4581 18.376 62.8861 18.376C64.1321 18.376 65.1681 18.264 66.3861 17.998L66.4281 19.888C65.5181 20.07 64.3841 20.168 62.8021 20.168C60.3941 20.168 59.2321 19.3 59.2321 17.872C59.2321 17.312 59.3161 16.766 59.4841 16.052L61.0801 16.192ZM57.8041 9.276C57.7061 9.57 57.5241 10.284 57.4681 10.536C57.2721 11.46 56.7821 14.26 56.7821 15.66C56.7821 15.94 56.7961 16.29 56.8381 16.57C57.0481 16.094 57.2721 15.618 57.4821 15.142L58.3501 15.828C57.9441 17.004 57.4821 18.516 57.3421 19.258C57.3001 19.468 57.2581 19.776 57.2581 19.916C57.2721 20.07 57.2721 20.308 57.2861 20.504L55.6761 20.602C55.3961 19.65 55.1301 17.942 55.1301 16.038C55.1301 13.924 55.5501 11.572 55.7041 10.48C55.7601 10.102 55.8301 9.57 55.8441 9.122L57.8041 9.276ZM74.1281 9.85H81.9961V11.376H74.1281V9.85ZM77.1801 8.114H78.8881V10.564H77.1801V8.114ZM79.6301 11.838L81.1281 12.496C79.6721 14.848 77.4321 16.766 75.0241 18.026C74.7861 17.62 74.3241 17.074 73.9181 16.738C76.1721 15.702 78.4121 13.924 79.6301 11.838ZM80.3301 14.764L81.8841 15.45C80.2461 18.124 77.6841 20.056 74.7021 21.26C74.4781 20.854 74.0301 20.266 73.6101 19.888C76.4241 18.908 78.9861 17.13 80.3301 14.764ZM76.9561 10.844L78.6361 11.39C77.9221 12.412 77.0821 13.476 76.4101 14.19L75.0941 13.672C75.7381 12.916 76.5221 11.74 76.9561 10.844ZM74.0581 13.378L75.0941 12.3C76.1021 12.958 77.4741 13.952 78.1181 14.638L76.9981 15.856C76.3961 15.156 75.0801 14.092 74.0581 13.378ZM77.8241 18.614L79.0281 17.578C80.0221 18.32 81.4361 19.398 82.1221 20.126L80.8061 21.288C80.2041 20.56 78.8321 19.412 77.8241 18.614ZM69.4521 12.412H73.5541V13.672H69.4521V12.412ZM69.4941 8.548H73.5121V9.822H69.4941V8.548ZM69.4521 14.316H73.5541V15.59H69.4521V14.316ZM68.8081 10.438H73.9181V11.768H68.8081V10.438ZM70.1801 16.262H73.5681V20.518H70.1801V19.188H72.1681V17.592H70.1801V16.262ZM69.4241 16.262H70.7961V21.078H69.4241V16.262ZM89.1641 8.114H91.0261V13.854H89.1641V8.114ZM84.5721 9.262L86.1121 8.66C86.8401 9.64 87.5401 10.942 87.8341 11.824L86.2101 12.524C85.9581 11.614 85.2581 10.256 84.5721 9.262ZM93.8681 8.534L95.7441 9.08C95.1421 10.34 94.4001 11.684 93.8121 12.566L92.3141 12.048C92.8741 11.096 93.5321 9.64 93.8681 8.534ZM84.9081 12.972H95.5061V21.26H93.7141V14.652H84.9081V12.972ZM85.3841 15.94H94.3581V17.564H85.3841V15.94ZM84.5861 19.006H94.6521V20.686H84.5861V19.006ZM102.996 8.898C102.912 9.486 102.842 10.214 102.814 10.774C102.744 12.286 102.646 15.408 102.646 17.144C102.646 18.558 103.486 19.02 104.578 19.02C106.888 19.02 108.344 17.69 109.366 16.164L110.64 17.718C109.73 19.062 107.742 20.924 104.55 20.924C102.254 20.924 100.784 19.916 100.784 17.522C100.784 15.646 100.91 11.978 100.91 10.774C100.91 10.102 100.854 9.43 100.742 8.884L102.996 8.898ZM113.65 10.83C114.252 10.9 115.008 10.928 115.512 10.928C117.248 10.928 119.138 10.634 120.496 10.2L120.538 11.824C119.334 12.16 117.318 12.524 115.526 12.51C114.966 12.51 114.378 12.496 113.776 12.468L113.65 10.83ZM119.096 8.73C118.914 9.472 118.578 10.844 118.2 12.034C117.556 14.05 116.296 16.654 115.106 18.306L113.412 17.438C114.672 15.898 115.932 13.448 116.478 11.936C116.814 10.928 117.122 9.626 117.164 8.548L119.096 8.73ZM122.386 13.098C122.344 13.686 122.358 14.274 122.372 14.89C122.4 15.716 122.526 17.802 122.526 18.586C122.526 19.888 121.826 20.91 119.824 20.91C118.088 20.91 116.716 20.126 116.716 18.586C116.716 17.228 117.864 16.164 119.81 16.164C122.26 16.164 124.192 17.396 125.354 18.446L124.43 19.958C123.422 19.02 121.826 17.578 119.712 17.578C118.9 17.578 118.368 17.928 118.368 18.418C118.368 18.936 118.816 19.3 119.586 19.3C120.538 19.3 120.846 18.768 120.846 17.984C120.846 17.144 120.692 14.568 120.622 13.098H122.386ZM124.794 13.84C123.982 13.182 122.386 12.272 121.42 11.838L122.33 10.466C123.338 10.9 125.06 11.838 125.788 12.356L124.794 13.84ZM130.828 10.004C130.73 10.494 130.66 11.32 130.66 11.712C130.66 12.622 130.66 13.658 130.744 14.68C130.94 16.696 131.36 18.082 132.242 18.082C132.914 18.082 133.46 16.43 133.726 15.324L135.14 17.018C134.202 19.468 133.334 20.308 132.214 20.308C130.66 20.308 129.33 18.936 128.938 15.184C128.798 13.896 128.784 12.244 128.784 11.39C128.784 11.012 128.77 10.41 128.672 9.976L130.828 10.004ZM137.828 10.312C139.158 11.922 140.236 15.422 140.39 17.564L138.542 18.292C138.332 16.024 137.576 12.636 136.05 10.9L137.828 10.312ZM148.832 9.682C147.684 11.348 145.57 13.322 143.288 14.68C143.064 14.288 142.588 13.686 142.224 13.35C144.604 12.034 146.872 9.78 147.908 8.016H149.616C151.114 10.186 153.41 12.16 155.622 13.196C155.188 13.602 154.81 14.162 154.502 14.666C152.374 13.406 150.036 11.348 148.832 9.682ZM145.878 12.398H151.842V13.952H145.878V12.398ZM143.96 15.296H152.066V16.878H143.96V15.296ZM151.786 15.296H152.024L152.318 15.212L153.662 15.604C152.976 17.326 151.954 19.524 151.1 21.302L149.308 20.826C150.204 19.062 151.282 16.738 151.786 15.478V15.296ZM162.958 9.052C162.874 9.416 162.79 9.864 162.72 10.214C162.58 10.844 162.412 11.712 162.258 12.426C161.796 14.4 160.676 18.39 159.206 20.756L157.372 20.028C159.038 17.788 160.088 14.092 160.48 12.328C160.746 11.068 160.9 9.878 160.886 8.828L162.958 9.052ZM167.788 10.452C168.642 11.67 169.818 14.274 170.252 15.604L168.474 16.43C168.11 14.876 167.116 12.412 166.108 11.166L167.788 10.452ZM157.288 11.922C157.792 11.95 158.268 11.936 158.786 11.922C159.906 11.894 162.566 11.586 163.602 11.586C165.086 11.586 166.136 12.244 166.136 14.274C166.136 15.926 165.926 18.194 165.338 19.398C164.876 20.378 164.092 20.686 163.042 20.686C162.496 20.686 161.838 20.602 161.362 20.49L161.054 18.642C161.6 18.796 162.398 18.936 162.762 18.936C163.238 18.936 163.602 18.796 163.812 18.334C164.204 17.55 164.386 15.842 164.386 14.47C164.386 13.35 163.91 13.182 163.028 13.182C162.202 13.182 159.78 13.49 159.01 13.588C158.604 13.644 157.876 13.742 157.456 13.812L157.288 11.922ZM167.536 8.52C167.886 9.024 168.376 9.92 168.642 10.438L167.522 10.914C167.228 10.34 166.794 9.514 166.416 8.968L167.536 8.52ZM169.188 7.876C169.552 8.408 170.07 9.304 170.322 9.794L169.202 10.27C168.922 9.682 168.46 8.87 168.082 8.338L169.188 7.876ZM173.43 9.948C174.508 9.976 176.664 9.962 178.204 9.738C179.618 9.528 181.032 9.22 181.732 8.884L182.894 10.424C182.418 10.55 182.04 10.648 181.816 10.704C180.948 10.928 179.828 11.11 178.75 11.264C177.154 11.488 175.096 11.544 173.878 11.572L173.43 9.948ZM174.032 19.608C176.51 18.474 177.616 16.626 177.616 14.008C177.616 14.008 177.616 13.098 177.616 11.11L179.45 10.9C179.45 12.104 179.45 13.966 179.45 13.966C179.45 16.794 178.526 19.188 175.824 20.812L174.032 19.608ZM172.38 13.308C172.772 13.336 173.234 13.378 173.682 13.378C174.564 13.378 182.054 13.378 182.992 13.378C183.286 13.378 183.944 13.336 184.252 13.308V15.114C183.874 15.086 183.412 15.058 183.02 15.058C182.138 15.058 174.522 15.058 173.696 15.058C173.262 15.058 172.744 15.086 172.38 15.114V13.308ZM191.465 11.11C191.507 11.446 191.605 11.81 191.689 12.174C192.165 13.854 193.481 18.67 193.831 19.832C193.901 20.084 194.097 20.7 194.195 20.98L192.305 21.456C192.249 21.078 192.165 20.616 192.053 20.224C191.703 19.006 190.429 14.008 189.981 12.552C189.883 12.202 189.729 11.852 189.575 11.558L191.465 11.11ZM198.185 13.28C197.583 14.498 196.183 16.612 195.203 17.648L193.649 16.878C194.377 16.234 195.343 15.058 195.721 14.372C194.993 14.498 189.295 15.688 188.147 15.94L187.713 14.274C188.147 14.232 188.539 14.19 189.001 14.106C189.757 13.994 195.357 12.93 196.351 12.706C196.589 12.65 196.869 12.566 197.051 12.482L198.185 13.28ZM203.939 9.36C204.905 10.018 206.725 11.474 207.551 12.328L206.123 13.784C205.395 13 203.631 11.474 202.609 10.774L203.939 9.36ZM202.175 18.684C204.373 18.376 206.179 17.662 207.537 16.864C209.931 15.436 211.751 13.308 212.647 11.418L213.725 13.378C212.675 15.282 210.813 17.214 208.559 18.572C207.131 19.426 205.325 20.196 203.365 20.532L202.175 18.684ZM226.654 10.522C226.542 10.676 226.29 11.096 226.164 11.39C225.59 12.72 224.554 14.624 223.35 16.024C221.782 17.83 219.668 19.566 217.498 20.588L216.042 19.076C218.31 18.236 220.466 16.528 221.782 15.072C222.706 14.022 223.56 12.636 223.882 11.642C223.294 11.642 219.724 11.642 219.122 11.642C218.548 11.642 217.778 11.712 217.47 11.74V9.738C217.848 9.794 218.716 9.836 219.122 9.836C219.864 9.836 223.448 9.836 224.064 9.836C224.68 9.836 225.226 9.766 225.52 9.668L226.654 10.522ZM223.532 14.862C224.974 16.038 226.962 18.124 227.872 19.244L226.276 20.63C225.24 19.188 223.714 17.522 222.216 16.164L223.532 14.862ZM232.534 16.682H230.868L230.518 10.004H232.884L232.534 16.682ZM230.49 19.02C230.49 18.5907 230.607 18.292 230.84 18.124C231.073 17.9467 231.358 17.858 231.694 17.858C232.021 17.858 232.301 17.9467 232.534 18.124C232.767 18.292 232.884 18.5907 232.884 19.02C232.884 19.4307 232.767 19.7293 232.534 19.916C232.301 20.0933 232.021 20.182 231.694 20.182C231.358 20.182 231.073 20.0933 230.84 19.916C230.607 19.7293 230.49 19.4307 230.49 19.02Z" fill="#CF2CA0"/>
<defs>
<filter id="filter0_d_94_483" x="0" y="0" width="257" height="46" filterUnits="userSpaceOnUse" color-interpolation-filters="sRGB">
<feFlood flood-opacity="0" result="BackgroundImageFix"/>
<feColorMatrix in="SourceAlpha" type="matrix" values="0 0 0 0 0 0 0 0 0 0 0 0 0 0 0 0 0 0 127 0" result="hardAlpha"/>
<feOffset dy="4"/>
<feGaussianBlur stdDeviation="2"/>
<feComposite in2="hardAlpha" operator="out"/>
<feColorMatrix type="matrix" values="0 0 0 0 0 0 0 0 0 0 0 0 0 0 0 0 0 0 0.25 0"/>
<feBlend mode="normal" in2="BackgroundImageFix" result="effect1_dropShadow_94_483"/>
<feBlend mode="normal" in="SourceGraphic" in2="effect1_dropShadow_94_483" result="shape"/>
</filter>
</defs>
</svg>
