<svg width="20" height="20" viewBox="0 0 20 20" fill="none" xmlns="http://www.w3.org/2000/svg">
<path fill-rule="evenodd" clip-rule="evenodd" d="M12.2492 3.02055C12.2492 1.69294 11.173 0.616699 9.84535 0.616699C8.51774 0.616699 7.44149 1.69294 7.44149 3.02055L7.44149 7.34749H2.63432C1.30671 7.34749 0.230469 8.42373 0.230469 9.75134C0.230469 11.079 1.30671 12.1552 2.63432 12.1552H7.44149L7.44149 17.4437C7.44149 18.7713 8.51774 19.8475 9.84535 19.8475C11.173 19.8475 12.2492 18.7713 12.2492 17.4437V12.1552H17.0574C18.3851 12.1552 19.4613 11.079 19.4613 9.75134C19.4613 8.42373 18.3851 7.34749 17.0574 7.34749H12.2492V3.02055Z" fill="#494949"/>
</svg>
