<svg width="264" height="37" viewBox="0 0 264 37" fill="none" xmlns="http://www.w3.org/2000/svg">
<rect x="1.5" y="1.5" width="261" height="33.7317" rx="16.8659" fill="white" stroke="#005EA4" stroke-width="3"/>
<path d="M112.642 12.71H119.964V14.222H112.642V12.71ZM112.166 18.086H120.468V19.612H112.166V18.086ZM112.04 15.454H120.58V16.98H112.04V15.454ZM115.512 11.17H117.108V16.238H115.512V11.17ZM117.332 16.714H118.928V22.496C118.928 23.336 118.774 23.756 118.228 23.994C117.71 24.246 116.968 24.26 115.946 24.26C115.89 23.798 115.68 23.126 115.484 22.678C116.114 22.72 116.842 22.72 117.052 22.706C117.276 22.706 117.332 22.65 117.332 22.468V16.714ZM112.936 20.41L114.266 19.668C114.854 20.382 115.554 21.376 115.834 22.048L114.406 22.888C114.168 22.216 113.524 21.166 112.936 20.41ZM107.28 18.212C108.428 17.96 110.122 17.512 111.746 17.064L111.956 18.576C110.486 19.024 108.904 19.472 107.658 19.836L107.28 18.212ZM107.504 13.774H111.83V15.314H107.504V13.774ZM109.086 11.128H110.64V22.398C110.64 23.168 110.5 23.602 110.066 23.868C109.646 24.12 109.03 24.19 108.134 24.176C108.092 23.756 107.896 23.07 107.7 22.608C108.204 22.636 108.694 22.636 108.862 22.636C109.03 22.636 109.086 22.58 109.086 22.384V11.128ZM125.648 15.034H134.412V16.448H125.648V15.034ZM129.302 20.158L130.282 19.318C131.052 19.934 132.088 20.83 132.578 21.404L131.542 22.356C131.08 21.754 130.072 20.816 129.302 20.158ZM125.956 17.456H133.082V18.884H127.454V24.26H125.956V17.456ZM132.424 17.456H134.02V22.622C134.02 23.336 133.88 23.742 133.39 23.994C132.914 24.232 132.256 24.26 131.374 24.246C131.304 23.826 131.052 23.182 130.842 22.79C131.402 22.818 132.018 22.818 132.186 22.804C132.368 22.804 132.424 22.762 132.424 22.594V17.456ZM129.12 15.524H130.59V18.002C130.59 19.542 130.128 21.32 128.084 22.426C127.888 22.104 127.454 21.614 127.118 21.362C128.924 20.564 129.12 19.108 129.12 18.002V15.524ZM124.472 12.612H134.51V14.124H124.472V12.612ZM123.562 12.612H125.158V16.812C125.158 19.052 124.85 22.286 122.89 24.204C122.666 23.896 122.022 23.28 121.686 23.084C123.408 21.334 123.562 18.772 123.562 16.798V12.612ZM127.776 11.114H129.554V13.606H127.776V11.114ZM121.406 14.362L122.624 13.76C123.072 14.572 123.52 15.65 123.66 16.35L122.358 17.036C122.232 16.336 121.826 15.216 121.406 14.362ZM121.28 19.15C121.952 18.87 122.904 18.408 123.87 17.918L124.262 19.234C123.45 19.752 122.582 20.27 121.77 20.732L121.28 19.15ZM141.566 11.786C141.44 12.304 141.384 12.668 141.314 13.032C141.146 14.236 140.488 18.856 140.488 20.27C140.488 21.432 141.188 22.062 142.56 22.062C144.52 22.062 145.598 21.152 145.598 20.004C145.598 19.066 145.066 18.156 144.156 17.302L146.116 16.882C147.054 18.058 147.474 19.038 147.474 20.228C147.474 22.342 145.584 23.868 142.518 23.868C140.306 23.868 138.752 22.916 138.752 20.564C138.752 19.136 139.424 14.88 139.564 12.92C139.62 12.276 139.62 11.996 139.592 11.674L141.566 11.786ZM136.568 13.522C137.786 13.928 139.522 14.11 140.95 14.11C142.028 14.11 143.022 14.04 143.722 13.914L143.666 15.594C142.84 15.678 142.07 15.72 140.894 15.72C139.48 15.72 137.772 15.496 136.484 15.132L136.568 13.522ZM136.26 16.994C137.772 17.512 139.396 17.624 140.81 17.624C141.664 17.624 142.7 17.568 143.61 17.456L143.568 19.122C142.798 19.206 141.972 19.248 141.09 19.248C139.228 19.248 137.45 19.052 136.176 18.688L136.26 16.994ZM154.194 11.898C154.11 12.486 154.04 13.214 154.012 13.774C153.942 15.286 153.844 18.408 153.844 20.144C153.844 21.558 154.684 22.02 155.776 22.02C158.086 22.02 159.542 20.69 160.564 19.164L161.838 20.718C160.928 22.062 158.94 23.924 155.748 23.924C153.452 23.924 151.982 22.916 151.982 20.522C151.982 18.646 152.108 14.978 152.108 13.774C152.108 13.102 152.052 12.43 151.94 11.884L154.194 11.898ZM164.988 17.078C165.408 17.008 166.052 16.84 166.472 16.7C167.438 16.42 169.804 15.608 171.498 15.608C173.724 15.608 175.208 16.924 175.208 19.052C175.208 21.572 172.968 23.308 168.53 23.574L167.788 21.852C170.98 21.768 173.346 20.914 173.346 19.01C173.346 17.974 172.562 17.232 171.33 17.232C169.706 17.232 166.92 18.394 165.716 18.898L164.988 17.078ZM183.454 11.954C183.37 12.318 183.286 12.766 183.202 13.116C183.076 13.746 182.894 14.614 182.754 15.328C182.292 17.302 181.158 21.292 179.702 23.658L177.868 22.93C179.534 20.69 180.584 16.994 180.976 15.23C181.242 13.97 181.396 12.78 181.382 11.73L183.454 11.954ZM188.284 13.256C189.138 14.474 190.314 17.134 190.748 18.478L188.97 19.304C188.606 17.736 187.612 15.216 186.604 13.97L188.284 13.256ZM177.784 14.824C178.288 14.852 178.764 14.838 179.282 14.824C180.402 14.796 183.048 14.488 184.098 14.488C185.568 14.488 186.618 15.146 186.618 17.176C186.618 18.828 186.422 21.096 185.834 22.3C185.358 23.28 184.588 23.588 183.538 23.588C182.992 23.588 182.334 23.504 181.844 23.392L181.55 21.544C182.096 21.698 182.894 21.838 183.258 21.838C183.734 21.838 184.084 21.698 184.308 21.236C184.7 20.452 184.882 18.744 184.882 17.372C184.882 16.252 184.392 16.084 183.524 16.084C182.684 16.084 180.276 16.392 179.506 16.49C179.1 16.546 178.372 16.644 177.952 16.714L177.784 14.824ZM196.054 11.758C195.858 12.444 195.564 13.886 195.48 14.67C196.152 13.592 197.384 12.402 198.952 12.402C200.898 12.402 202.41 14.32 202.41 17.4C202.41 21.362 199.988 23.238 196.278 23.924L195.214 22.3C198.336 21.824 200.52 20.788 200.52 17.4C200.52 15.244 199.792 14.04 198.63 14.04C196.978 14.04 195.522 16.532 195.466 18.366C195.438 18.758 195.452 19.206 195.522 19.85L193.8 19.976C193.716 19.43 193.632 18.576 193.632 17.638C193.632 16.322 193.814 14.6 194.024 13.144C194.08 12.626 194.122 12.066 194.136 11.688L196.054 11.758ZM213.148 16.07H214.842V24.26H213.148V16.07ZM209.466 17.82H218.468V19.346H209.466V17.82ZM215.164 18.492C215.934 20.018 217.418 21.572 218.874 22.412C218.496 22.734 217.964 23.336 217.684 23.756C216.214 22.706 214.772 20.816 213.904 18.954L215.164 18.492ZM212.924 18.366L214.24 18.828C213.33 20.802 211.776 22.664 210.124 23.714C209.858 23.308 209.326 22.706 208.962 22.384C210.558 21.558 212.112 19.962 212.924 18.366ZM211.986 13.2V15.076H216.102V13.2H211.986ZM210.39 11.73H217.782V16.56H210.39V11.73ZM208.556 11.142L210.124 11.646C209.186 14.026 207.688 16.532 206.134 18.114C205.994 17.722 205.532 16.798 205.252 16.392C206.554 15.132 207.814 13.144 208.556 11.142ZM207.212 15.02L208.794 13.424L208.808 13.438V24.218H207.212V15.02ZM226.28 18.618V19.206H230.186V18.618H226.28ZM226.28 17.064V17.652H230.186V17.064H226.28ZM224.782 16.056H231.754V20.228H224.782V16.056ZM227.4 11.114H229.024V12.906H227.4V11.114ZM227.4 20.018H229.024V24.26H227.4V20.018ZM224.502 11.982H232.202V13.284H224.502V11.982ZM224.04 14.18H232.482V15.496H224.04V14.18ZM223.9 20.942H232.538V22.272H223.9V20.942ZM229.486 12.962L231.068 13.27C230.802 13.732 230.592 14.138 230.41 14.446L229.024 14.166C229.178 13.802 229.388 13.312 229.486 12.962ZM225.552 13.284L226.924 13.018C227.12 13.368 227.274 13.872 227.33 14.194L225.888 14.516C225.86 14.18 225.72 13.676 225.552 13.284ZM219.994 11.716H223.298V13.214H221.464V24.274H219.994V11.716ZM222.78 11.716H223.06L223.298 11.66L224.39 12.276C224.026 13.48 223.564 15.006 223.158 16.098C224.026 17.19 224.194 18.128 224.194 18.94C224.194 19.85 224.012 20.438 223.564 20.746C223.34 20.9 223.074 20.998 222.766 21.04C222.514 21.068 222.178 21.082 221.856 21.082C221.842 20.676 221.716 20.046 221.492 19.64C221.744 19.654 221.926 19.668 222.094 19.654C222.248 19.654 222.388 19.626 222.486 19.542C222.654 19.416 222.724 19.136 222.724 18.744C222.724 18.086 222.542 17.218 221.744 16.28C222.136 15.02 222.584 13.088 222.78 12.192V11.716Z" fill="#005EA4"/>
<path d="M28.5187 12.1137C28.5187 12.5937 28.9027 12.9777 29.3827 12.9777C29.8627 12.9777 30.2627 12.5937 30.2627 12.1137C30.2627 11.6337 29.8627 11.2337 29.3827 11.2337C28.9027 11.2337 28.5187 11.6337 28.5187 12.1137ZM27.5427 12.1137C27.5427 11.0897 28.3587 10.2577 29.3827 10.2577C30.4067 10.2577 31.2387 11.0897 31.2387 12.1137C31.2387 13.1377 30.4067 13.9537 29.3827 13.9537C28.3587 13.9537 27.5427 13.1377 27.5427 12.1137ZM25.3347 11.4737C25.2867 11.6977 25.1907 12.4817 25.1907 12.8817C25.1907 13.8257 25.1907 15.1857 25.1907 16.1137C25.1907 17.4097 25.1907 22.1777 25.1907 23.5217C25.1907 24.4497 24.6467 25.0257 23.5107 25.0257C22.6627 25.0257 21.7187 24.9937 20.9187 24.8977L20.7267 22.9137C21.3987 23.0417 22.1027 23.0897 22.5027 23.0897C22.9187 23.0897 23.0627 22.9457 23.0787 22.5297C23.0947 21.9217 23.0947 16.8657 23.0947 16.1137C23.0947 15.5537 23.0947 13.8417 23.0947 12.8657C23.0947 12.4497 23.0147 11.7617 22.9667 11.4737H25.3347ZM17.4947 14.0337C17.9747 14.0977 18.5347 14.1457 19.0307 14.1457C20.0067 14.1457 27.7667 14.1457 28.9187 14.1457C29.3667 14.1457 30.0547 14.0977 30.4867 14.0497V16.1457C29.9907 16.0977 29.3667 16.0817 28.9347 16.0817C27.7827 16.0817 20.0867 16.0817 19.0307 16.0817C18.5507 16.0817 17.9427 16.0977 17.4947 16.1457V14.0337ZM21.5747 18.3697C20.8387 19.7777 19.3507 21.8737 18.4867 22.8177L16.7427 21.6497C17.8147 20.6257 19.0947 18.8657 19.7507 17.5057L21.5747 18.3697ZM28.4387 17.4577C29.2547 18.4817 30.5347 20.4977 31.1747 21.6657L29.3027 22.7057C28.6147 21.3297 27.4787 19.3937 26.6947 18.4017L28.4387 17.4577ZM33.1107 17.8897C35.9747 17.1537 38.3107 16.1137 40.1027 15.0097C41.7347 14.0017 43.5587 12.4017 44.5987 11.1377L46.3267 12.7697C44.8707 14.2417 42.9187 15.7457 41.0307 16.8817C39.2227 17.9537 36.6307 19.1537 34.1027 19.9057L33.1107 17.8897ZM39.7667 16.0497L42.0387 15.5057V22.7217C42.0387 23.4257 42.0707 24.4177 42.1827 24.8177H39.6387C39.7027 24.4337 39.7667 23.4257 39.7667 22.7217V16.0497ZM51.9747 11.9377C53.0787 12.6897 55.1587 14.3537 56.1027 15.3297L54.4707 16.9937C53.6387 16.0977 51.6227 14.3537 50.4547 13.5537L51.9747 11.9377ZM49.9587 22.5937C52.4707 22.2417 54.5347 21.4257 56.0867 20.5137C58.8227 18.8817 60.9027 16.4497 61.9267 14.2897L63.1587 16.5297C61.9587 18.7057 59.8307 20.9137 57.2547 22.4657C55.6227 23.4417 53.5587 24.3217 51.3187 24.7057L49.9587 22.5937ZM69.1267 22.5777C69.1267 21.3457 69.1267 14.7217 69.1267 13.3777C69.1267 12.8017 69.0787 12.0177 68.9667 11.4417H71.4627C71.3987 12.0177 71.3187 12.7057 71.3187 13.3777C71.3187 15.1377 71.3347 21.3937 71.3347 22.5777C71.3347 23.0257 71.3987 24.1457 71.4787 24.8017H68.9667C69.0787 24.1777 69.1267 23.2017 69.1267 22.5777ZM70.8547 15.5857C72.9827 16.1777 76.4387 17.4417 78.0067 18.2097L77.1107 20.4337C75.2867 19.4897 72.5987 18.4657 70.8547 17.8897V15.5857ZM88.7427 24.0977H80.7587V22.4177L83.6227 19.5217C84.1987 18.9243 84.6627 18.4283 85.0147 18.0337C85.3667 17.6283 85.6227 17.2657 85.7827 16.9457C85.9427 16.615 86.0227 16.263 86.0227 15.8897C86.0227 15.431 85.8947 15.0897 85.6387 14.8657C85.3933 14.6417 85.0573 14.5297 84.6307 14.5297C84.1933 14.5297 83.7667 14.631 83.3507 14.8337C82.9347 15.0363 82.4973 15.3243 82.0387 15.6977L80.7267 14.1457C81.0573 13.8577 81.404 13.591 81.7667 13.3457C82.14 13.1003 82.5667 12.903 83.0467 12.7537C83.5373 12.5937 84.124 12.5137 84.8067 12.5137C85.5533 12.5137 86.1933 12.6523 86.7267 12.9297C87.2707 13.1963 87.6867 13.5643 87.9747 14.0337C88.2733 14.4923 88.4227 15.015 88.4227 15.6017C88.4227 16.0817 88.348 16.5243 88.1987 16.9297C88.06 17.335 87.852 17.7297 87.5747 18.1137C87.308 18.487 86.9773 18.8763 86.5827 19.2817C86.188 19.6763 85.74 20.1083 85.2387 20.5777L83.7667 21.9537V22.0657H88.7427V24.0977Z" fill="#005EA4"/>
</svg>
