<svg width="310" height="67" viewBox="0 0 310 67" fill="none" xmlns="http://www.w3.org/2000/svg">
<rect x="3.11538" y="3.11538" width="303.769" height="60.7692" rx="30.3846" fill="white"/>
<rect x="3.11538" y="3.11538" width="303.769" height="60.7692" rx="30.3846" stroke="#005EA4" stroke-width="5.76923"/>
<path d="M35.77 34.146C35.77 35.4073 35.6673 36.5367 35.462 37.534C35.2713 38.5313 34.956 39.382 34.516 40.086C34.0907 40.7753 33.526 41.3033 32.822 41.67C32.1327 42.0367 31.282 42.22 30.27 42.22C29.0087 42.22 27.9747 41.8973 27.168 41.252C26.3613 40.6067 25.76 39.6827 25.364 38.48C24.9827 37.2773 24.792 35.8327 24.792 34.146C24.792 32.4447 24.968 30.9927 25.32 29.79C25.672 28.5873 26.2513 27.6633 27.058 27.018C27.8647 26.3727 28.9353 26.05 30.27 26.05C31.5313 26.05 32.5653 26.3727 33.372 27.018C34.1787 27.6487 34.78 28.5727 35.176 29.79C35.572 30.9927 35.77 32.4447 35.77 34.146ZM28.092 34.146C28.092 35.334 28.158 36.3313 28.29 37.138C28.422 37.93 28.642 38.5313 28.95 38.942C29.2727 39.338 29.7127 39.536 30.27 39.536C30.8273 39.536 31.26 39.338 31.568 38.942C31.8907 38.546 32.118 37.952 32.25 37.16C32.3967 36.3533 32.47 35.3487 32.47 34.146C32.47 32.9433 32.3967 31.946 32.25 31.154C32.118 30.3473 31.8907 29.746 31.568 29.35C31.26 28.9393 30.8273 28.734 30.27 28.734C29.7127 28.734 29.2727 28.9393 28.95 29.35C28.642 29.746 28.422 30.3473 28.29 31.154C28.158 31.946 28.092 32.9433 28.092 34.146ZM47.8318 29.812C47.8318 30.5307 47.6778 31.154 47.3698 31.682C47.0765 32.21 46.6732 32.6427 46.1598 32.98C45.6612 33.3173 45.0892 33.5667 44.4438 33.728V33.794C45.7052 33.9407 46.6585 34.322 47.3038 34.938C47.9638 35.554 48.2938 36.3827 48.2938 37.424C48.2938 38.3333 48.0665 39.1547 47.6118 39.888C47.1718 40.6067 46.4825 41.1787 45.5438 41.604C44.6198 42.0147 43.4245 42.22 41.9578 42.22C41.0925 42.22 40.2858 42.1467 39.5378 42C38.7898 41.8533 38.0858 41.6407 37.4258 41.362V38.546C38.1005 38.8833 38.8045 39.14 39.5378 39.316C40.2858 39.492 40.9752 39.58 41.6058 39.58C42.7938 39.58 43.6225 39.3747 44.0918 38.964C44.5758 38.5533 44.8178 37.974 44.8178 37.226C44.8178 36.786 44.7078 36.4193 44.4878 36.126C44.2678 35.818 43.8792 35.5907 43.3218 35.444C42.7792 35.2827 42.0165 35.202 41.0338 35.202H39.8458V32.65H41.0558C42.0238 32.65 42.7572 32.562 43.2558 32.386C43.7692 32.1953 44.1138 31.946 44.2898 31.638C44.4805 31.3153 44.5758 30.9487 44.5758 30.538C44.5758 29.9807 44.3998 29.548 44.0478 29.24C43.7105 28.9173 43.1385 28.756 42.3318 28.756C41.8332 28.756 41.3785 28.822 40.9678 28.954C40.5572 29.0713 40.1832 29.218 39.8458 29.394C39.5232 29.57 39.2372 29.7387 38.9878 29.9L37.4478 27.612C37.8585 27.3187 38.3132 27.0547 38.8118 26.82C39.3252 26.5853 39.8898 26.402 40.5058 26.27C41.1218 26.138 41.8112 26.072 42.5738 26.072C44.1872 26.072 45.4632 26.402 46.4018 27.062C47.3552 27.7073 47.8318 28.624 47.8318 29.812Z" fill="#005EA4"/>
<path d="M72.388 24.642H87.744V43.672H84.906V27.304H75.094V43.716H72.388V24.642ZM74.236 32.034H86.072V34.63H74.236V32.034ZM74.236 39.602H86.094V42.264H74.236V39.602ZM92.43 26.028H94.542V36.5H92.43V26.028ZM103.738 33.728H106.18V43.98H103.738V33.728ZM95.774 23.366H98.106V32.166C98.106 33.2807 98.062 34.3807 97.974 35.466C97.9007 36.5367 97.732 37.578 97.468 38.59C97.2187 39.602 96.8373 40.5627 96.324 41.472C95.8253 42.3667 95.1507 43.2027 94.3 43.98C94.168 43.804 93.9847 43.606 93.75 43.386C93.53 43.166 93.2953 42.9533 93.046 42.748C92.7967 42.5573 92.5767 42.4033 92.386 42.286C93.398 41.3913 94.1387 40.4087 94.608 39.338C95.092 38.2527 95.4073 37.1087 95.554 35.906C95.7007 34.6887 95.774 33.442 95.774 32.166V23.366ZM99.69 35.378H109.172V37.512H102.044V42.506H99.69V35.378ZM99.932 23.85H110.382V31.044H99.69V29.174H107.94V25.72H99.932V23.85ZM100.57 26.578H109.414V28.338H100.57V26.578ZM108.006 35.378H110.448V40.108C110.448 40.6213 110.397 41.032 110.294 41.34C110.206 41.648 110.001 41.89 109.678 42.066C109.37 42.242 109.003 42.3447 108.578 42.374C108.167 42.418 107.698 42.44 107.17 42.44C107.141 42.1173 107.067 41.758 106.95 41.362C106.847 40.966 106.723 40.614 106.576 40.306C106.84 40.3207 107.082 40.328 107.302 40.328C107.537 40.328 107.698 40.328 107.786 40.328C107.859 40.3133 107.911 40.2913 107.94 40.262C107.984 40.218 108.006 40.152 108.006 40.064V35.378ZM98.48 31.814H111.966V35.576H109.524V33.794H100.834V35.576H98.48V31.814ZM120.942 24.334C120.869 24.598 120.788 24.928 120.7 25.324C120.612 25.72 120.524 26.138 120.436 26.578C120.348 27.0033 120.267 27.4213 120.194 27.832C120.135 28.2427 120.091 28.602 120.062 28.91C120.326 28.47 120.641 28.0447 121.008 27.634C121.375 27.2087 121.785 26.8273 122.24 26.49C122.709 26.138 123.215 25.8593 123.758 25.654C124.315 25.4487 124.902 25.346 125.518 25.346C126.545 25.346 127.469 25.6613 128.29 26.292C129.111 26.9227 129.757 27.8247 130.226 28.998C130.71 30.1713 130.952 31.5647 130.952 33.178C130.952 34.7327 130.725 36.0967 130.27 37.27C129.815 38.4287 129.163 39.4187 128.312 40.24C127.461 41.0613 126.442 41.7287 125.254 42.242C124.081 42.77 122.768 43.166 121.316 43.43L119.644 40.878C120.861 40.6873 121.976 40.4307 122.988 40.108C124.015 39.7707 124.895 39.316 125.628 38.744C126.376 38.172 126.948 37.4387 127.344 36.544C127.755 35.6347 127.96 34.52 127.96 33.2C127.96 32.0707 127.843 31.1173 127.608 30.34C127.373 29.548 127.029 28.9467 126.574 28.536C126.134 28.1253 125.606 27.92 124.99 27.92C124.345 27.92 123.729 28.1327 123.142 28.558C122.555 28.9833 122.027 29.5407 121.558 30.23C121.103 30.9047 120.737 31.638 120.458 32.43C120.194 33.222 120.047 33.9847 120.018 34.718C120.003 35.026 119.996 35.3633 119.996 35.73C120.011 36.0967 120.055 36.5367 120.128 37.05L117.422 37.226C117.363 36.8007 117.297 36.2727 117.224 35.642C117.165 34.9967 117.136 34.3 117.136 33.552C117.136 33.0387 117.151 32.4887 117.18 31.902C117.224 31.3153 117.268 30.7213 117.312 30.12C117.371 29.504 117.437 28.888 117.51 28.272C117.598 27.656 117.679 27.0693 117.752 26.512C117.811 26.0867 117.855 25.6687 117.884 25.258C117.913 24.8473 117.928 24.4953 117.928 24.202L120.942 24.334ZM140.038 24.532H146.286V27.216H140.038V24.532ZM144.988 24.532H147.716C147.716 25.236 147.745 26.0353 147.804 26.93C147.863 27.81 147.987 28.756 148.178 29.768C148.369 30.7653 148.655 31.792 149.036 32.848C149.417 33.904 149.923 34.9527 150.554 35.994C151.199 37.0207 152.006 38.0107 152.974 38.964C153.942 39.9173 155.101 40.7973 156.45 41.604C156.259 41.7507 156.025 41.9633 155.746 42.242C155.467 42.5207 155.196 42.8067 154.932 43.1C154.683 43.408 154.477 43.6793 154.316 43.914C152.937 43.0633 151.742 42.11 150.73 41.054C149.718 39.9833 148.867 38.854 148.178 37.666C147.489 36.4633 146.931 35.2533 146.506 34.036C146.081 32.804 145.758 31.6087 145.538 30.45C145.318 29.2767 145.171 28.184 145.098 27.172C145.025 26.16 144.988 25.28 144.988 24.532ZM144.042 29.372L147.056 29.922C146.557 32.0927 145.89 34.0653 145.054 35.84C144.218 37.6147 143.213 39.1767 142.04 40.526C140.881 41.8753 139.539 43.012 138.014 43.936C137.853 43.7453 137.625 43.5107 137.332 43.232C137.039 42.968 136.731 42.6967 136.408 42.418C136.1 42.154 135.829 41.9413 135.594 41.78C137.897 40.6213 139.73 38.9933 141.094 36.896C142.458 34.784 143.441 32.276 144.042 29.372ZM170.244 23.41H172.818V26.886H170.244V23.41ZM165.338 25.72H178.098V30.076H175.656V27.964H167.67V30.076H165.338V25.72ZM166.966 29.746H176.404V32.012H166.966V29.746ZM165.646 33.618H177.988V35.972H165.646V33.618ZM168.132 34.74H170.64C170.596 35.928 170.493 37.006 170.332 37.974C170.185 38.9273 169.921 39.7853 169.54 40.548C169.173 41.296 168.631 41.9487 167.912 42.506C167.193 43.078 166.247 43.562 165.074 43.958C165.001 43.738 164.883 43.496 164.722 43.232C164.575 42.9827 164.407 42.7333 164.216 42.484C164.025 42.2347 163.842 42.0367 163.666 41.89C164.663 41.5967 165.455 41.2373 166.042 40.812C166.629 40.3867 167.061 39.888 167.34 39.316C167.633 38.7293 167.831 38.062 167.934 37.314C168.037 36.5513 168.103 35.6933 168.132 34.74ZM172.202 34.476H174.666V40.724C174.666 41.0613 174.681 41.2667 174.71 41.34C174.754 41.4133 174.857 41.45 175.018 41.45C175.062 41.45 175.135 41.45 175.238 41.45C175.341 41.45 175.436 41.45 175.524 41.45C175.627 41.45 175.707 41.45 175.766 41.45C175.869 41.45 175.949 41.3913 176.008 41.274C176.081 41.1567 176.133 40.9147 176.162 40.548C176.191 40.1667 176.213 39.602 176.228 38.854C176.389 38.986 176.595 39.118 176.844 39.25C177.108 39.382 177.379 39.4993 177.658 39.602C177.951 39.7047 178.201 39.7853 178.406 39.844C178.347 40.8707 178.223 41.67 178.032 42.242C177.856 42.814 177.607 43.21 177.284 43.43C176.976 43.6647 176.558 43.782 176.03 43.782C175.942 43.782 175.832 43.782 175.7 43.782C175.568 43.782 175.429 43.782 175.282 43.782C175.15 43.782 175.018 43.782 174.886 43.782C174.754 43.782 174.644 43.782 174.556 43.782C173.925 43.782 173.434 43.6867 173.082 43.496C172.745 43.3053 172.51 42.9827 172.378 42.528C172.261 42.088 172.202 41.494 172.202 40.746V34.476ZM158.562 24.246H163.754V26.622H160.872V43.98H158.562V24.246ZM162.962 24.246H163.38L163.754 24.158L165.47 25.148C165.294 25.764 165.096 26.4313 164.876 27.15C164.656 27.8687 164.429 28.5727 164.194 29.262C163.974 29.9513 163.761 30.582 163.556 31.154C164.231 31.99 164.671 32.782 164.876 33.53C165.081 34.278 165.184 34.9747 165.184 35.62C165.184 36.324 165.103 36.9107 164.942 37.38C164.795 37.8493 164.546 38.2087 164.194 38.458C164.018 38.5753 163.82 38.6707 163.6 38.744C163.395 38.8173 163.175 38.876 162.94 38.92C162.529 38.964 162.045 38.9787 161.488 38.964C161.473 38.656 161.415 38.282 161.312 37.842C161.224 37.402 161.092 37.028 160.916 36.72C161.121 36.7347 161.297 36.742 161.444 36.742C161.605 36.742 161.752 36.742 161.884 36.742C162.148 36.7273 162.353 36.6613 162.5 36.544C162.632 36.4413 162.72 36.2873 162.764 36.082C162.823 35.862 162.852 35.598 162.852 35.29C162.852 34.7767 162.749 34.19 162.544 33.53C162.353 32.87 161.95 32.1733 161.334 31.44C161.481 30.9413 161.627 30.3987 161.774 29.812C161.935 29.2107 162.089 28.6093 162.236 28.008C162.397 27.4067 162.537 26.8493 162.654 26.336C162.786 25.808 162.889 25.368 162.962 25.016V24.246ZM180.518 26.908C180.958 26.8933 181.376 26.8787 181.772 26.864C182.168 26.8347 182.469 26.8127 182.674 26.798C183.129 26.7687 183.686 26.7247 184.346 26.666C185.021 26.5927 185.769 26.5193 186.59 26.446C187.426 26.3727 188.313 26.2993 189.252 26.226C190.191 26.1527 191.166 26.072 192.178 25.984C192.941 25.9107 193.696 25.852 194.444 25.808C195.207 25.7493 195.925 25.7053 196.6 25.676C197.289 25.632 197.891 25.6027 198.404 25.588L198.426 28.404C198.03 28.404 197.575 28.4113 197.062 28.426C196.549 28.4407 196.035 28.47 195.522 28.514C195.023 28.5433 194.576 28.6093 194.18 28.712C193.52 28.888 192.904 29.1887 192.332 29.614C191.76 30.0247 191.261 30.516 190.836 31.088C190.425 31.6453 190.103 32.254 189.868 32.914C189.633 33.5593 189.516 34.212 189.516 34.872C189.516 35.5907 189.641 36.2287 189.89 36.786C190.154 37.3287 190.506 37.798 190.946 38.194C191.401 38.5753 191.929 38.898 192.53 39.162C193.131 39.4113 193.777 39.602 194.466 39.734C195.17 39.866 195.896 39.954 196.644 39.998L195.61 43.012C194.686 42.9533 193.784 42.8067 192.904 42.572C192.039 42.3373 191.225 42.0147 190.462 41.604C189.699 41.1933 189.032 40.6947 188.46 40.108C187.903 39.5067 187.455 38.8247 187.118 38.062C186.795 37.2847 186.634 36.4193 186.634 35.466C186.634 34.41 186.803 33.442 187.14 32.562C187.477 31.6673 187.895 30.89 188.394 30.23C188.907 29.5553 189.413 29.0347 189.912 28.668C189.501 28.7267 189.003 28.7853 188.416 28.844C187.844 28.9027 187.221 28.976 186.546 29.064C185.886 29.1373 185.211 29.218 184.522 29.306C183.833 29.394 183.165 29.4967 182.52 29.614C181.889 29.7167 181.317 29.8193 180.804 29.922L180.518 26.908ZM195.28 30.56C195.471 30.824 195.669 31.1393 195.874 31.506C196.094 31.858 196.307 32.2173 196.512 32.584C196.717 32.936 196.893 33.2587 197.04 33.552L195.368 34.3C195.089 33.684 194.818 33.1413 194.554 32.672C194.305 32.2027 194.004 31.726 193.652 31.242L195.28 30.56ZM197.744 29.548C197.935 29.812 198.14 30.12 198.36 30.472C198.595 30.8093 198.822 31.1613 199.042 31.528C199.262 31.88 199.445 32.1953 199.592 32.474L197.942 33.266C197.649 32.6793 197.363 32.1587 197.084 31.704C196.82 31.2493 196.505 30.78 196.138 30.296L197.744 29.548ZM211.318 24.378C211.23 24.774 211.157 25.126 211.098 25.434C211.039 25.742 210.988 26.0427 210.944 26.336C210.885 26.644 210.812 27.0913 210.724 27.678C210.651 28.25 210.563 28.9027 210.46 29.636C210.372 30.3547 210.277 31.11 210.174 31.902C210.086 32.6793 209.998 33.442 209.91 34.19C209.822 34.938 209.749 35.62 209.69 36.236C209.646 36.852 209.624 37.3433 209.624 37.71C209.624 38.6193 209.895 39.316 210.438 39.8C210.995 40.2693 211.817 40.504 212.902 40.504C213.929 40.504 214.794 40.3647 215.498 40.086C216.202 39.7927 216.737 39.404 217.104 38.92C217.471 38.436 217.654 37.8933 217.654 37.292C217.654 36.544 217.456 35.818 217.06 35.114C216.679 34.3953 216.121 33.6987 215.388 33.024L218.49 32.364C219.223 33.288 219.759 34.168 220.096 35.004C220.448 35.8253 220.624 36.7053 220.624 37.644C220.624 38.744 220.309 39.7267 219.678 40.592C219.047 41.4573 218.145 42.132 216.972 42.616C215.813 43.1 214.427 43.342 212.814 43.342C211.67 43.342 210.651 43.166 209.756 42.814C208.861 42.462 208.165 41.9047 207.666 41.142C207.167 40.3793 206.918 39.3893 206.918 38.172C206.918 37.7173 206.955 37.116 207.028 36.368C207.101 35.6053 207.189 34.7693 207.292 33.86C207.409 32.936 207.527 32.0047 207.644 31.066C207.761 30.1127 207.864 29.2107 207.952 28.36C208.055 27.5093 208.135 26.776 208.194 26.16C208.223 25.6467 208.238 25.258 208.238 24.994C208.253 24.7153 208.245 24.4513 208.216 24.202L211.318 24.378ZM203.464 27.106C204.124 27.3113 204.843 27.4873 205.62 27.634C206.397 27.766 207.197 27.8687 208.018 27.942C208.839 28.0007 209.617 28.03 210.35 28.03C211.215 28.03 212.022 28.0007 212.77 27.942C213.518 27.8833 214.171 27.81 214.728 27.722L214.64 30.34C213.98 30.3987 213.32 30.45 212.66 30.494C212 30.538 211.208 30.56 210.284 30.56C209.536 30.56 208.759 30.5233 207.952 30.45C207.145 30.362 206.346 30.252 205.554 30.12C204.762 29.9733 204.021 29.812 203.332 29.636L203.464 27.106ZM203.002 32.562C203.794 32.826 204.593 33.0313 205.4 33.178C206.221 33.3247 207.028 33.4273 207.82 33.486C208.627 33.53 209.397 33.552 210.13 33.552C210.805 33.552 211.531 33.53 212.308 33.486C213.1 33.442 213.848 33.376 214.552 33.288L214.486 35.906C213.87 35.9647 213.239 36.016 212.594 36.06C211.949 36.0893 211.281 36.104 210.592 36.104C209.125 36.104 207.717 36.0307 206.368 35.884C205.019 35.7227 203.845 35.5027 202.848 35.224L203.002 32.562ZM223.836 31.99H244.208V34.872H223.836V31.99ZM254.416 25.654H265.68V27.942H254.416V25.654ZM253.69 29.878H266.318V32.188H253.69V29.878ZM253.734 34.058H266.164V36.368H253.734V34.058ZM258.662 23.278H261.28V31.374H258.662V23.278ZM261.456 32.078H264.052V41.186C264.052 41.8167 263.971 42.308 263.81 42.66C263.649 43.0267 263.355 43.3127 262.93 43.518C262.505 43.7087 261.984 43.826 261.368 43.87C260.767 43.9287 260.055 43.958 259.234 43.958C259.175 43.5913 259.065 43.166 258.904 42.682C258.743 42.2127 258.574 41.8093 258.398 41.472C258.941 41.4867 259.469 41.5013 259.982 41.516C260.495 41.516 260.84 41.516 261.016 41.516C261.177 41.516 261.287 41.494 261.346 41.45C261.419 41.3913 261.456 41.2813 261.456 41.12V32.078ZM254.614 37.864L256.704 36.654C257.056 36.9913 257.408 37.3727 257.76 37.798C258.112 38.2233 258.435 38.6487 258.728 39.074C259.021 39.4993 259.249 39.888 259.41 40.24L257.122 41.582C257.005 41.23 256.807 40.8413 256.528 40.416C256.249 39.976 255.941 39.536 255.604 39.096C255.281 38.6413 254.951 38.2307 254.614 37.864ZM247.64 24.664H253.294V39.712H247.64V37.358H250.852V27.018H247.64V24.664ZM247.772 30.912H252.04V33.222H247.772V30.912ZM246.386 24.664H248.828V41.67H246.386V24.664ZM277.912 25.83C277.311 26.666 276.548 27.5313 275.624 28.426C274.715 29.3207 273.703 30.1787 272.588 31C271.488 31.8213 270.337 32.5547 269.134 33.2C269.017 32.98 268.863 32.738 268.672 32.474C268.496 32.21 268.298 31.9533 268.078 31.704C267.873 31.4547 267.675 31.2347 267.484 31.044C268.745 30.4427 269.955 29.702 271.114 28.822C272.273 27.9273 273.307 26.996 274.216 26.028C275.14 25.06 275.873 24.1287 276.416 23.234H279.166C279.767 24.07 280.427 24.8693 281.146 25.632C281.865 26.3947 282.635 27.0987 283.456 27.744C284.277 28.3893 285.121 28.9687 285.986 29.482C286.851 29.9953 287.724 30.428 288.604 30.78C288.267 31.1173 287.951 31.4987 287.658 31.924C287.365 32.3493 287.093 32.76 286.844 33.156C286.008 32.716 285.157 32.21 284.292 31.638C283.441 31.066 282.62 30.4573 281.828 29.812C281.036 29.152 280.303 28.4847 279.628 27.81C278.953 27.1353 278.381 26.4753 277.912 25.83ZM272.412 29.9H283.478V32.21H272.412V29.9ZM269.772 34.388H286.074V36.676H269.772V34.388ZM268.672 41.076H287.372V43.342H268.672V41.076ZM276.482 30.824H279.276V42.22H276.482V30.824ZM271.158 37.512L273.27 36.632C273.549 36.9987 273.82 37.402 274.084 37.842C274.363 38.282 274.612 38.7147 274.832 39.14C275.052 39.5653 275.213 39.9467 275.316 40.284L273.05 41.296C272.962 40.9587 272.815 40.57 272.61 40.13C272.405 39.6753 272.177 39.2207 271.928 38.766C271.679 38.3113 271.422 37.8933 271.158 37.512ZM282.334 36.654L284.864 37.578C284.424 38.2527 283.969 38.9273 283.5 39.602C283.031 40.262 282.598 40.8267 282.202 41.296L280.222 40.46C280.471 40.108 280.728 39.7193 280.992 39.294C281.256 38.854 281.505 38.4067 281.74 37.952C281.975 37.4827 282.173 37.05 282.334 36.654Z" fill="#005EA4"/>
</svg>
