<svg width="310" height="67" viewBox="0 0 310 67" fill="none" xmlns="http://www.w3.org/2000/svg">
<rect x="3.11538" y="3.11538" width="303.769" height="60.7692" rx="30.3846" fill="white"/>
<rect x="3.11538" y="3.11538" width="303.769" height="60.7692" rx="30.3846" stroke="#005EA4" stroke-width="5.76923"/>
<path d="M35.77 34.146C35.77 35.4073 35.6673 36.5367 35.462 37.534C35.2713 38.5313 34.956 39.382 34.516 40.086C34.0907 40.7753 33.526 41.3033 32.822 41.67C32.1327 42.0367 31.282 42.22 30.27 42.22C29.0087 42.22 27.9747 41.8973 27.168 41.252C26.3613 40.6067 25.76 39.6827 25.364 38.48C24.9827 37.2773 24.792 35.8327 24.792 34.146C24.792 32.4447 24.968 30.9927 25.32 29.79C25.672 28.5873 26.2513 27.6633 27.058 27.018C27.8647 26.3727 28.9353 26.05 30.27 26.05C31.5313 26.05 32.5653 26.3727 33.372 27.018C34.1787 27.6487 34.78 28.5727 35.176 29.79C35.572 30.9927 35.77 32.4447 35.77 34.146ZM28.092 34.146C28.092 35.334 28.158 36.3313 28.29 37.138C28.422 37.93 28.642 38.5313 28.95 38.942C29.2727 39.338 29.7127 39.536 30.27 39.536C30.8273 39.536 31.26 39.338 31.568 38.942C31.8907 38.546 32.118 37.952 32.25 37.16C32.3967 36.3533 32.47 35.3487 32.47 34.146C32.47 32.9433 32.3967 31.946 32.25 31.154C32.118 30.3473 31.8907 29.746 31.568 29.35C31.26 28.9393 30.8273 28.734 30.27 28.734C29.7127 28.734 29.2727 28.9393 28.95 29.35C28.642 29.746 28.422 30.3473 28.29 31.154C28.158 31.946 28.092 32.9433 28.092 34.146ZM48.4478 42H37.4698V39.69L41.4078 35.708C42.1998 34.8867 42.8378 34.2047 43.3218 33.662C43.8058 33.1047 44.1578 32.606 44.3778 32.166C44.5978 31.7113 44.7078 31.2273 44.7078 30.714C44.7078 30.0833 44.5318 29.614 44.1798 29.306C43.8425 28.998 43.3805 28.844 42.7938 28.844C42.1925 28.844 41.6058 28.9833 41.0338 29.262C40.4618 29.5407 39.8605 29.9367 39.2298 30.45L37.4258 28.316C37.8805 27.92 38.3572 27.5533 38.8558 27.216C39.3692 26.8787 39.9558 26.6073 40.6158 26.402C41.2905 26.182 42.0972 26.072 43.0358 26.072C44.0625 26.072 44.9425 26.2627 45.6758 26.644C46.4238 27.0107 46.9958 27.5167 47.3918 28.162C47.8025 28.7927 48.0078 29.5113 48.0078 30.318C48.0078 30.978 47.9052 31.5867 47.6998 32.144C47.5092 32.7013 47.2232 33.244 46.8418 33.772C46.4752 34.2853 46.0205 34.8207 45.4778 35.378C44.9352 35.9207 44.3192 36.5147 43.6298 37.16L41.6058 39.052V39.206H48.4478V42Z" fill="#005EA4"/>
<path d="M77.866 25.808H89.372V28.206H77.866V25.808ZM77.14 34.278H90.186V36.654H77.14V34.278ZM76.942 30.12H90.34V32.518H76.942V30.12ZM82.398 23.41H84.906V31.374H82.398V23.41ZM85.236 32.122H87.744V41.208C87.744 41.8533 87.6707 42.352 87.524 42.704C87.3773 43.0707 87.0913 43.3567 86.666 43.562C86.2553 43.7527 85.7493 43.87 85.148 43.914C84.5613 43.958 83.872 43.98 83.08 43.98C83.036 43.6133 82.9407 43.188 82.794 42.704C82.6473 42.2347 82.4933 41.8313 82.332 41.494C82.8307 41.5087 83.3293 41.5233 83.828 41.538C84.3267 41.538 84.6493 41.5307 84.796 41.516C84.972 41.516 85.0893 41.494 85.148 41.45C85.2067 41.3913 85.236 41.2887 85.236 41.142V32.122ZM78.328 37.93L80.418 36.764C80.7407 37.1307 81.0633 37.5413 81.386 37.996C81.7087 38.436 82.002 38.876 82.266 39.316C82.53 39.7413 82.7427 40.1373 82.904 40.504L80.638 41.802C80.5207 41.45 80.3373 41.054 80.088 40.614C79.8387 40.1593 79.56 39.6973 79.252 39.228C78.9587 38.7587 78.6507 38.326 78.328 37.93ZM69.462 34.476C70.3567 34.2707 71.4273 34.0067 72.674 33.684C73.9353 33.3613 75.1967 33.024 76.458 32.672L76.788 35.048C75.6293 35.3853 74.456 35.73 73.268 36.082C72.0947 36.4193 71.0167 36.7273 70.034 37.006L69.462 34.476ZM69.814 27.48H76.612V29.9H69.814V27.48ZM72.3 23.322H74.72V41.054C74.72 41.6553 74.654 42.132 74.522 42.484C74.4047 42.8507 74.1773 43.1367 73.84 43.342C73.5027 43.5327 73.0847 43.6647 72.586 43.738C72.102 43.8113 71.5007 43.8407 70.782 43.826C70.7527 43.5033 70.672 43.1 70.54 42.616C70.408 42.1467 70.2613 41.736 70.1 41.384C70.496 41.3987 70.8627 41.4133 71.2 41.428C71.552 41.428 71.794 41.4207 71.926 41.406C72.058 41.406 72.1533 41.384 72.212 41.34C72.2707 41.2813 72.3 41.1787 72.3 41.032V23.322ZM98.326 29.482H112.098V31.704H98.326V29.482ZM104.068 37.512L105.608 36.192C106.019 36.5147 106.444 36.874 106.884 37.27C107.339 37.666 107.771 38.062 108.182 38.458C108.607 38.8393 108.945 39.1767 109.194 39.47L107.588 40.966C107.339 40.658 107.016 40.2987 106.62 39.888C106.224 39.4773 105.799 39.0667 105.344 38.656C104.904 38.2453 104.479 37.864 104.068 37.512ZM98.788 33.288H109.986V35.51H101.164V43.98H98.788V33.288ZM108.974 33.288H111.482V41.406C111.482 41.9633 111.409 42.4107 111.262 42.748C111.13 43.0853 110.873 43.3493 110.492 43.54C110.111 43.7307 109.656 43.848 109.128 43.892C108.615 43.9507 108.006 43.9727 107.302 43.958C107.258 43.6207 107.148 43.232 106.972 42.792C106.811 42.352 106.642 41.978 106.466 41.67C106.906 41.6847 107.331 41.6993 107.742 41.714C108.167 41.714 108.446 41.7067 108.578 41.692C108.725 41.692 108.827 41.67 108.886 41.626C108.945 41.5673 108.974 41.4793 108.974 41.362V33.288ZM103.782 30.23H106.07V34.146C106.07 34.7473 106.011 35.3633 105.894 35.994C105.791 36.6247 105.593 37.248 105.3 37.864C105.021 38.48 104.625 39.0667 104.112 39.624C103.599 40.1667 102.939 40.658 102.132 41.098C101.985 40.8487 101.758 40.5553 101.45 40.218C101.157 39.8807 100.885 39.6093 100.636 39.404C101.34 39.096 101.897 38.7293 102.308 38.304C102.733 37.8787 103.049 37.4313 103.254 36.962C103.474 36.478 103.613 35.994 103.672 35.51C103.745 35.026 103.782 34.564 103.782 34.124V30.23ZM96.478 25.676H112.23V28.03H96.478V25.676ZM95.048 25.676H97.556V32.254C97.556 33.134 97.512 34.0947 97.424 35.136C97.336 36.1773 97.1673 37.226 96.918 38.282C96.6687 39.3233 96.3093 40.328 95.84 41.296C95.3707 42.264 94.7547 43.1293 93.992 43.892C93.8747 43.716 93.6913 43.5107 93.442 43.276C93.2073 43.0413 92.9653 42.814 92.716 42.594C92.4813 42.374 92.276 42.22 92.1 42.132C92.7747 41.4427 93.3027 40.6873 93.684 39.866C94.08 39.0447 94.3733 38.2013 94.564 37.336C94.7693 36.456 94.9013 35.5833 94.96 34.718C95.0187 33.838 95.048 33.0093 95.048 32.232V25.676ZM101.67 23.3H104.442V27.238H101.67V23.3ZM91.638 28.404L93.552 27.48C93.9187 28.1107 94.256 28.8073 94.564 29.57C94.872 30.318 95.0773 30.9707 95.18 31.528L93.134 32.628C93.0753 32.2467 92.9653 31.814 92.804 31.33C92.6573 30.846 92.4813 30.3547 92.276 29.856C92.0853 29.3427 91.8727 28.8587 91.638 28.404ZM91.462 35.928C91.99 35.7227 92.606 35.444 93.31 35.092C94.0287 34.74 94.7693 34.3807 95.532 34.014L96.148 36.082C95.5027 36.478 94.8427 36.874 94.168 37.27C93.508 37.666 92.8627 38.0473 92.232 38.414L91.462 35.928ZM123.318 24.378C123.23 24.774 123.157 25.126 123.098 25.434C123.039 25.742 122.988 26.0427 122.944 26.336C122.885 26.644 122.812 27.0913 122.724 27.678C122.651 28.25 122.563 28.9027 122.46 29.636C122.372 30.3547 122.277 31.11 122.174 31.902C122.086 32.6793 121.998 33.442 121.91 34.19C121.822 34.938 121.749 35.62 121.69 36.236C121.646 36.852 121.624 37.3433 121.624 37.71C121.624 38.6193 121.895 39.316 122.438 39.8C122.995 40.2693 123.817 40.504 124.902 40.504C125.929 40.504 126.794 40.3647 127.498 40.086C128.202 39.7927 128.737 39.404 129.104 38.92C129.471 38.436 129.654 37.8933 129.654 37.292C129.654 36.544 129.456 35.818 129.06 35.114C128.679 34.3953 128.121 33.6987 127.388 33.024L130.49 32.364C131.223 33.288 131.759 34.168 132.096 35.004C132.448 35.8253 132.624 36.7053 132.624 37.644C132.624 38.744 132.309 39.7267 131.678 40.592C131.047 41.4573 130.145 42.132 128.972 42.616C127.813 43.1 126.427 43.342 124.814 43.342C123.67 43.342 122.651 43.166 121.756 42.814C120.861 42.462 120.165 41.9047 119.666 41.142C119.167 40.3793 118.918 39.3893 118.918 38.172C118.918 37.7173 118.955 37.116 119.028 36.368C119.101 35.6053 119.189 34.7693 119.292 33.86C119.409 32.936 119.527 32.0047 119.644 31.066C119.761 30.1127 119.864 29.2107 119.952 28.36C120.055 27.5093 120.135 26.776 120.194 26.16C120.223 25.6467 120.238 25.258 120.238 24.994C120.253 24.7153 120.245 24.4513 120.216 24.202L123.318 24.378ZM115.464 27.106C116.124 27.3113 116.843 27.4873 117.62 27.634C118.397 27.766 119.197 27.8687 120.018 27.942C120.839 28.0007 121.617 28.03 122.35 28.03C123.215 28.03 124.022 28.0007 124.77 27.942C125.518 27.8833 126.171 27.81 126.728 27.722L126.64 30.34C125.98 30.3987 125.32 30.45 124.66 30.494C124 30.538 123.208 30.56 122.284 30.56C121.536 30.56 120.759 30.5233 119.952 30.45C119.145 30.362 118.346 30.252 117.554 30.12C116.762 29.9733 116.021 29.812 115.332 29.636L115.464 27.106ZM115.002 32.562C115.794 32.826 116.593 33.0313 117.4 33.178C118.221 33.3247 119.028 33.4273 119.82 33.486C120.627 33.53 121.397 33.552 122.13 33.552C122.805 33.552 123.531 33.53 124.308 33.486C125.1 33.442 125.848 33.376 126.552 33.288L126.486 35.906C125.87 35.9647 125.239 36.016 124.594 36.06C123.949 36.0893 123.281 36.104 122.592 36.104C121.125 36.104 119.717 36.0307 118.368 35.884C117.019 35.7227 115.845 35.5027 114.848 35.224L115.002 32.562ZM143.162 24.554C143.103 25.0087 143.045 25.5 142.986 26.028C142.942 26.556 142.905 27.04 142.876 27.48C142.861 28.0813 142.832 28.8147 142.788 29.68C142.759 30.5307 142.729 31.4253 142.7 32.364C142.685 33.3027 142.663 34.2267 142.634 35.136C142.619 36.0453 142.612 36.8373 142.612 37.512C142.612 38.2453 142.744 38.832 143.008 39.272C143.287 39.6973 143.653 40.0053 144.108 40.196C144.563 40.372 145.076 40.46 145.648 40.46C146.557 40.46 147.386 40.3427 148.134 40.108C148.882 39.8587 149.564 39.5287 150.18 39.118C150.796 38.7073 151.346 38.2307 151.83 37.688C152.329 37.1453 152.776 36.5733 153.172 35.972L155.174 38.392C154.822 38.92 154.36 39.4773 153.788 40.064C153.216 40.6507 152.534 41.2007 151.742 41.714C150.965 42.2273 150.063 42.6453 149.036 42.968C148.009 43.2907 146.873 43.452 145.626 43.452C144.423 43.452 143.375 43.2613 142.48 42.88C141.6 42.5133 140.911 41.9413 140.412 41.164C139.928 40.372 139.686 39.3527 139.686 38.106C139.686 37.5047 139.693 36.8227 139.708 36.06C139.723 35.2827 139.745 34.476 139.774 33.64C139.803 32.804 139.825 31.99 139.84 31.198C139.855 30.3913 139.869 29.6653 139.884 29.02C139.899 28.3747 139.906 27.8613 139.906 27.48C139.906 26.952 139.884 26.4387 139.84 25.94C139.796 25.4267 139.723 24.95 139.62 24.51L143.162 24.554ZM160.146 32.694C160.483 32.6207 160.872 32.5327 161.312 32.43C161.752 32.3127 162.141 32.2027 162.478 32.1C162.845 31.9827 163.336 31.8287 163.952 31.638C164.568 31.4473 165.243 31.2567 165.976 31.066C166.724 30.8753 167.472 30.714 168.22 30.582C168.983 30.45 169.701 30.384 170.376 30.384C171.535 30.384 172.547 30.604 173.412 31.044C174.292 31.4693 174.974 32.0853 175.458 32.892C175.942 33.6987 176.184 34.6593 176.184 35.774C176.184 36.7713 175.964 37.6807 175.524 38.502C175.099 39.3233 174.446 40.042 173.566 40.658C172.686 41.274 171.586 41.7727 170.266 42.154C168.961 42.55 167.435 42.7993 165.69 42.902L164.524 40.196C165.785 40.1667 166.944 40.0567 168 39.866C169.071 39.6753 169.995 39.404 170.772 39.052C171.564 38.6853 172.173 38.2233 172.598 37.666C173.038 37.1087 173.258 36.4633 173.258 35.73C173.258 35.1727 173.126 34.6887 172.862 34.278C172.613 33.8527 172.253 33.5227 171.784 33.288C171.315 33.0533 170.757 32.936 170.112 32.936C169.599 32.936 169.027 33.002 168.396 33.134C167.765 33.266 167.113 33.4347 166.438 33.64C165.778 33.8453 165.125 34.0653 164.48 34.3C163.835 34.5347 163.233 34.762 162.676 34.982C162.119 35.202 161.657 35.3927 161.29 35.554L160.146 32.694ZM189.164 24.62C189.091 24.8987 189.017 25.2067 188.944 25.544C188.885 25.8667 188.827 26.1673 188.768 26.446C188.709 26.7687 188.636 27.1353 188.548 27.546C188.46 27.942 188.372 28.3453 188.284 28.756C188.211 29.152 188.13 29.5407 188.042 29.922C187.895 30.5527 187.712 31.286 187.492 32.122C187.272 32.958 187.015 33.86 186.722 34.828C186.429 35.7813 186.099 36.742 185.732 37.71C185.365 38.678 184.977 39.624 184.566 40.548C184.155 41.4573 183.715 42.2787 183.246 43.012L180.386 41.868C180.899 41.1787 181.376 40.4087 181.816 39.558C182.271 38.6927 182.681 37.8053 183.048 36.896C183.415 35.9867 183.737 35.092 184.016 34.212C184.309 33.332 184.559 32.5107 184.764 31.748C184.969 30.9853 185.131 30.3327 185.248 29.79C185.453 28.7927 185.615 27.832 185.732 26.908C185.849 25.984 185.901 25.1113 185.886 24.29L189.164 24.62ZM196.732 26.688C197.084 27.1573 197.443 27.7513 197.81 28.47C198.191 29.174 198.558 29.922 198.91 30.714C199.277 31.506 199.607 32.2687 199.9 33.002C200.208 33.7353 200.443 34.3587 200.604 34.872L197.81 36.17C197.663 35.554 197.458 34.872 197.194 34.124C196.945 33.3613 196.651 32.5913 196.314 31.814C195.991 31.022 195.639 30.274 195.258 29.57C194.891 28.866 194.51 28.2793 194.114 27.81L196.732 26.688ZM180.232 29.13C180.628 29.1593 181.017 29.174 181.398 29.174C181.779 29.1593 182.175 29.1447 182.586 29.13C182.938 29.1153 183.371 29.0933 183.884 29.064C184.412 29.02 184.962 28.976 185.534 28.932C186.121 28.888 186.707 28.844 187.294 28.8C187.881 28.7413 188.423 28.6973 188.922 28.668C189.421 28.6387 189.831 28.624 190.154 28.624C190.931 28.624 191.613 28.756 192.2 29.02C192.801 29.2693 193.271 29.702 193.608 30.318C193.96 30.934 194.136 31.77 194.136 32.826C194.136 33.6913 194.092 34.63 194.004 35.642C193.931 36.654 193.806 37.622 193.63 38.546C193.454 39.47 193.205 40.2547 192.882 40.9C192.53 41.6627 192.046 42.1907 191.43 42.484C190.829 42.7773 190.11 42.924 189.274 42.924C188.849 42.924 188.394 42.8873 187.91 42.814C187.441 42.7553 187.015 42.6893 186.634 42.616L186.15 39.712C186.443 39.7853 186.759 39.8587 187.096 39.932C187.448 40.0053 187.778 40.064 188.086 40.108C188.409 40.152 188.665 40.174 188.856 40.174C189.223 40.174 189.545 40.108 189.824 39.976C190.103 39.8293 190.33 39.58 190.506 39.228C190.711 38.8027 190.873 38.2527 190.99 37.578C191.122 36.9033 191.217 36.1773 191.276 35.4C191.349 34.608 191.386 33.8527 191.386 33.134C191.386 32.5473 191.305 32.1147 191.144 31.836C190.983 31.5573 190.741 31.374 190.418 31.286C190.11 31.1833 189.721 31.132 189.252 31.132C188.929 31.132 188.475 31.1613 187.888 31.22C187.316 31.264 186.707 31.3227 186.062 31.396C185.417 31.4547 184.808 31.5207 184.236 31.594C183.679 31.6673 183.246 31.7187 182.938 31.748C182.63 31.8067 182.227 31.8727 181.728 31.946C181.244 32.0047 180.833 32.0633 180.496 32.122L180.232 29.13ZM208.942 24.334C208.869 24.598 208.788 24.928 208.7 25.324C208.612 25.72 208.524 26.138 208.436 26.578C208.348 27.0033 208.267 27.4213 208.194 27.832C208.135 28.2427 208.091 28.602 208.062 28.91C208.326 28.47 208.641 28.0447 209.008 27.634C209.375 27.2087 209.785 26.8273 210.24 26.49C210.709 26.138 211.215 25.8593 211.758 25.654C212.315 25.4487 212.902 25.346 213.518 25.346C214.545 25.346 215.469 25.6613 216.29 26.292C217.111 26.9227 217.757 27.8247 218.226 28.998C218.71 30.1713 218.952 31.5647 218.952 33.178C218.952 34.7327 218.725 36.0967 218.27 37.27C217.815 38.4287 217.163 39.4187 216.312 40.24C215.461 41.0613 214.442 41.7287 213.254 42.242C212.081 42.77 210.768 43.166 209.316 43.43L207.644 40.878C208.861 40.6873 209.976 40.4307 210.988 40.108C212.015 39.7707 212.895 39.316 213.628 38.744C214.376 38.172 214.948 37.4387 215.344 36.544C215.755 35.6347 215.96 34.52 215.96 33.2C215.96 32.0707 215.843 31.1173 215.608 30.34C215.373 29.548 215.029 28.9467 214.574 28.536C214.134 28.1253 213.606 27.92 212.99 27.92C212.345 27.92 211.729 28.1327 211.142 28.558C210.555 28.9833 210.027 29.5407 209.558 30.23C209.103 30.9047 208.737 31.638 208.458 32.43C208.194 33.222 208.047 33.9847 208.018 34.718C208.003 35.026 207.996 35.3633 207.996 35.73C208.011 36.0967 208.055 36.5367 208.128 37.05L205.422 37.226C205.363 36.8007 205.297 36.2727 205.224 35.642C205.165 34.9967 205.136 34.3 205.136 33.552C205.136 33.0387 205.151 32.4887 205.18 31.902C205.224 31.3153 205.268 30.7213 205.312 30.12C205.371 29.504 205.437 28.888 205.51 28.272C205.598 27.656 205.679 27.0693 205.752 26.512C205.811 26.0867 205.855 25.6687 205.884 25.258C205.913 24.8473 205.928 24.4953 205.928 24.202L208.942 24.334ZM235.826 31.088H238.466V43.98H235.826V31.088ZM230.018 33.86H244.164V36.236H230.018V33.86ZM238.972 34.916C239.383 35.708 239.896 36.4927 240.512 37.27C241.143 38.0473 241.825 38.766 242.558 39.426C243.306 40.086 244.061 40.636 244.824 41.076C244.633 41.2227 244.413 41.4207 244.164 41.67C243.929 41.9193 243.702 42.176 243.482 42.44C243.277 42.704 243.101 42.946 242.954 43.166C242.191 42.6233 241.436 41.9487 240.688 41.142C239.955 40.3353 239.265 39.4627 238.62 38.524C237.989 37.5707 237.447 36.6027 236.992 35.62L238.972 34.916ZM235.452 34.696L237.52 35.422C237.051 36.4487 236.479 37.4533 235.804 38.436C235.129 39.404 234.389 40.2913 233.582 41.098C232.775 41.89 231.932 42.5647 231.052 43.122C230.92 42.902 230.744 42.66 230.524 42.396C230.319 42.132 230.099 41.8827 229.864 41.648C229.644 41.3987 229.431 41.186 229.226 41.01C230.077 40.57 230.898 40.02 231.69 39.36C232.482 38.6853 233.201 37.952 233.846 37.16C234.506 36.3533 235.041 35.532 235.452 34.696ZM233.978 26.6V29.548H240.446V26.6H233.978ZM231.492 24.268H243.108V31.858H231.492V24.268ZM228.61 23.366L231.052 24.158C230.568 25.4047 229.989 26.6513 229.314 27.898C228.654 29.13 227.935 30.3033 227.158 31.418C226.395 32.518 225.611 33.486 224.804 34.322C224.731 34.102 224.613 33.8233 224.452 33.486C224.291 33.1487 224.115 32.804 223.924 32.452C223.733 32.1 223.557 31.8213 223.396 31.616C224.085 30.9413 224.753 30.164 225.398 29.284C226.043 28.404 226.637 27.458 227.18 26.446C227.737 25.434 228.214 24.4073 228.61 23.366ZM226.476 29.438L228.984 26.93V26.952V43.914H226.476V29.438ZM256.462 35.114V36.038H262.6V35.114H256.462ZM256.462 32.672V33.596H262.6V32.672H256.462ZM254.108 31.066H265.064V37.622H254.108V31.066ZM258.2 23.3H260.774V26.138H258.2V23.3ZM258.2 37.292H260.774V43.98H258.2V37.292ZM253.646 24.664H265.768V26.732H253.646V24.664ZM252.92 28.118H266.186V30.186H252.92V28.118ZM252.722 38.766H266.296V40.834H252.722V38.766ZM261.478 26.226L263.964 26.688C263.759 27.0547 263.575 27.3993 263.414 27.722C263.253 28.03 263.099 28.3013 262.952 28.536L260.752 28.096C260.884 27.8173 261.016 27.502 261.148 27.15C261.295 26.798 261.405 26.49 261.478 26.226ZM255.296 26.732L257.474 26.314C257.621 26.5927 257.753 26.908 257.87 27.26C257.987 27.5973 258.068 27.8907 258.112 28.14L255.846 28.668C255.817 28.3893 255.751 28.074 255.648 27.722C255.545 27.3553 255.428 27.0253 255.296 26.732ZM246.562 24.246H251.754V26.622H248.872V43.98H246.562V24.246ZM250.962 24.246H251.38L251.754 24.158L253.47 25.148C253.294 25.764 253.096 26.4313 252.876 27.15C252.656 27.8687 252.429 28.5727 252.194 29.262C251.974 29.9513 251.761 30.582 251.556 31.154C252.231 31.99 252.671 32.782 252.876 33.53C253.081 34.278 253.184 34.9747 253.184 35.62C253.184 36.324 253.103 36.9107 252.942 37.38C252.795 37.8493 252.546 38.2087 252.194 38.458C252.018 38.5753 251.82 38.6707 251.6 38.744C251.395 38.8173 251.175 38.876 250.94 38.92C250.529 38.964 250.045 38.9787 249.488 38.964C249.473 38.656 249.415 38.282 249.312 37.842C249.224 37.402 249.092 37.028 248.916 36.72C249.121 36.7347 249.297 36.742 249.444 36.742C249.605 36.742 249.752 36.742 249.884 36.742C250.148 36.7273 250.353 36.6613 250.5 36.544C250.632 36.4413 250.72 36.2873 250.764 36.082C250.823 35.862 250.852 35.598 250.852 35.29C250.852 34.7767 250.749 34.19 250.544 33.53C250.353 32.87 249.95 32.1733 249.334 31.44C249.481 30.9413 249.627 30.3987 249.774 29.812C249.935 29.2107 250.089 28.6093 250.236 28.008C250.397 27.4067 250.537 26.8493 250.654 26.336C250.786 25.808 250.889 25.368 250.962 25.016V24.246Z" fill="#005EA4"/>
</svg>
