<svg width="264" height="36" viewBox="0 0 264 36" fill="none" xmlns="http://www.w3.org/2000/svg">
<rect x="1.5" y="1.5" width="261" height="33" rx="16.5" fill="white" stroke="#005EA4" stroke-width="3"/>
<path d="M112.642 12.71H119.964V14.222H112.642V12.71ZM112.166 18.086H120.468V19.612H112.166V18.086ZM112.04 15.454H120.58V16.98H112.04V15.454ZM115.512 11.17H117.108V16.238H115.512V11.17ZM117.332 16.714H118.928V22.496C118.928 23.336 118.774 23.756 118.228 23.994C117.71 24.246 116.968 24.26 115.946 24.26C115.89 23.798 115.68 23.126 115.484 22.678C116.114 22.72 116.842 22.72 117.052 22.706C117.276 22.706 117.332 22.65 117.332 22.468V16.714ZM112.936 20.41L114.266 19.668C114.854 20.382 115.554 21.376 115.834 22.048L114.406 22.888C114.168 22.216 113.524 21.166 112.936 20.41ZM107.28 18.212C108.428 17.96 110.122 17.512 111.746 17.064L111.956 18.576C110.486 19.024 108.904 19.472 107.658 19.836L107.28 18.212ZM107.504 13.774H111.83V15.314H107.504V13.774ZM109.086 11.128H110.64V22.398C110.64 23.168 110.5 23.602 110.066 23.868C109.646 24.12 109.03 24.19 108.134 24.176C108.092 23.756 107.896 23.07 107.7 22.608C108.204 22.636 108.694 22.636 108.862 22.636C109.03 22.636 109.086 22.58 109.086 22.384V11.128ZM125.648 15.034H134.412V16.448H125.648V15.034ZM129.302 20.158L130.282 19.318C131.052 19.934 132.088 20.83 132.578 21.404L131.542 22.356C131.08 21.754 130.072 20.816 129.302 20.158ZM125.956 17.456H133.082V18.884H127.454V24.26H125.956V17.456ZM132.424 17.456H134.02V22.622C134.02 23.336 133.88 23.742 133.39 23.994C132.914 24.232 132.256 24.26 131.374 24.246C131.304 23.826 131.052 23.182 130.842 22.79C131.402 22.818 132.018 22.818 132.186 22.804C132.368 22.804 132.424 22.762 132.424 22.594V17.456ZM129.12 15.524H130.59V18.002C130.59 19.542 130.128 21.32 128.084 22.426C127.888 22.104 127.454 21.614 127.118 21.362C128.924 20.564 129.12 19.108 129.12 18.002V15.524ZM124.472 12.612H134.51V14.124H124.472V12.612ZM123.562 12.612H125.158V16.812C125.158 19.052 124.85 22.286 122.89 24.204C122.666 23.896 122.022 23.28 121.686 23.084C123.408 21.334 123.562 18.772 123.562 16.798V12.612ZM127.776 11.114H129.554V13.606H127.776V11.114ZM121.406 14.362L122.624 13.76C123.072 14.572 123.52 15.65 123.66 16.35L122.358 17.036C122.232 16.336 121.826 15.216 121.406 14.362ZM121.28 19.15C121.952 18.87 122.904 18.408 123.87 17.918L124.262 19.234C123.45 19.752 122.582 20.27 121.77 20.732L121.28 19.15ZM141.356 12.052C141.272 12.416 141.188 12.864 141.118 13.214C140.978 13.844 140.81 14.712 140.656 15.426C140.194 17.4 139.074 21.39 137.604 23.756L135.77 23.028C137.436 20.788 138.486 17.092 138.878 15.328C139.144 14.068 139.298 12.878 139.284 11.828L141.356 12.052ZM146.186 13.452C147.04 14.67 148.216 17.274 148.65 18.604L146.872 19.43C146.508 17.876 145.514 15.412 144.506 14.166L146.186 13.452ZM135.686 14.922C136.19 14.95 136.666 14.936 137.184 14.922C138.304 14.894 140.964 14.586 142 14.586C143.484 14.586 144.534 15.244 144.534 17.274C144.534 18.926 144.324 21.194 143.736 22.398C143.274 23.378 142.49 23.686 141.44 23.686C140.894 23.686 140.236 23.602 139.76 23.49L139.452 21.642C139.998 21.796 140.796 21.936 141.16 21.936C141.636 21.936 142 21.796 142.21 21.334C142.602 20.55 142.784 18.842 142.784 17.47C142.784 16.35 142.308 16.182 141.426 16.182C140.6 16.182 138.178 16.49 137.408 16.588C137.002 16.644 136.274 16.742 135.854 16.812L135.686 14.922ZM145.934 11.52C146.284 12.024 146.774 12.92 147.04 13.438L145.92 13.914C145.626 13.34 145.192 12.514 144.814 11.968L145.934 11.52ZM147.586 10.876C147.95 11.408 148.468 12.304 148.72 12.794L147.6 13.27C147.32 12.682 146.858 11.87 146.48 11.338L147.586 10.876ZM155.944 11.744C155.86 12.01 155.804 12.262 155.748 12.486C155.482 13.788 155.244 15.804 155.244 17.54C155.244 19.752 155.65 21.32 156.112 22.734L154.502 23.21C154.082 21.95 153.676 19.878 153.676 17.82C153.676 15.986 153.928 13.928 154.082 12.542C154.11 12.262 154.138 11.94 154.124 11.688L155.944 11.744ZM153.438 13.284C156.098 13.284 158.212 13.158 160.354 12.64L160.368 14.25C158.45 14.6 155.51 14.81 153.396 14.81C152.654 14.81 151.562 14.74 150.904 14.712L150.862 13.102C151.366 13.172 152.584 13.284 153.438 13.284ZM159.486 15.342C159.374 15.594 159.164 16.238 159.066 16.532C158.268 19.052 156.826 20.942 155.496 21.922C154.586 22.594 153.368 23.21 152.15 23.21C151.128 23.21 150.274 22.594 150.274 21.166C150.274 19.192 152.038 17.134 154.264 16.322C155.188 15.986 156.336 15.776 157.386 15.776C160.004 15.776 161.936 17.288 161.936 19.472C161.936 21.46 160.76 23.378 157.33 23.91L156.392 22.426C159.094 22.132 160.2 20.774 160.2 19.388C160.2 18.198 159.178 17.19 157.288 17.19C156.014 17.19 155.006 17.554 154.32 17.862C152.92 18.52 151.926 19.864 151.926 20.802C151.926 21.264 152.108 21.502 152.57 21.502C153.228 21.502 154.166 21.04 155.02 20.242C156.042 19.304 156.994 18.058 157.554 16.126C157.652 15.832 157.75 15.23 157.764 14.922L159.486 15.342ZM164.988 17.078C165.408 17.008 166.052 16.84 166.472 16.7C167.438 16.42 169.804 15.608 171.498 15.608C173.724 15.608 175.208 16.924 175.208 19.052C175.208 21.572 172.968 23.308 168.53 23.574L167.788 21.852C170.98 21.768 173.346 20.914 173.346 19.01C173.346 17.974 172.562 17.232 171.33 17.232C169.706 17.232 166.92 18.394 165.716 18.898L164.988 17.078ZM177.297 13.382C177.843 13.368 178.403 13.34 178.669 13.312C179.845 13.2 182.141 13.004 184.717 12.78C186.159 12.654 187.685 12.57 188.679 12.528L188.693 14.334C187.937 14.334 186.733 14.348 185.977 14.516C184.297 14.964 183.023 16.784 183.023 18.436C183.023 20.746 185.179 21.572 187.545 21.698L186.901 23.616C183.961 23.434 181.189 21.852 181.189 18.814C181.189 16.798 182.323 15.216 183.275 14.502C181.959 14.642 179.103 14.936 177.479 15.3L177.297 13.382ZM196.171 11.786C196.045 12.304 195.989 12.668 195.919 13.032C195.751 14.236 195.093 18.856 195.093 20.27C195.093 21.432 195.793 22.062 197.165 22.062C199.125 22.062 200.203 21.152 200.203 20.004C200.203 19.066 199.671 18.156 198.761 17.302L200.721 16.882C201.659 18.058 202.079 19.038 202.079 20.228C202.079 22.342 200.189 23.868 197.123 23.868C194.911 23.868 193.357 22.916 193.357 20.564C193.357 19.136 194.029 14.88 194.169 12.92C194.225 12.276 194.225 11.996 194.197 11.674L196.171 11.786ZM191.173 13.522C192.391 13.928 194.127 14.11 195.555 14.11C196.633 14.11 197.627 14.04 198.327 13.914L198.271 15.594C197.445 15.678 196.675 15.72 195.499 15.72C194.085 15.72 192.377 15.496 191.089 15.132L191.173 13.522ZM190.865 16.994C192.377 17.512 194.001 17.624 195.415 17.624C196.269 17.624 197.305 17.568 198.215 17.456L198.173 19.122C197.403 19.206 196.577 19.248 195.695 19.248C193.833 19.248 192.055 19.052 190.781 18.688L190.865 16.994ZM204.389 14.88H216.849V16.616H204.389V14.88ZM211.571 15.58C212.411 18.786 214.189 21.446 217.157 22.622C216.737 23 216.177 23.728 215.897 24.218C212.691 22.72 210.941 19.822 209.877 15.972L211.571 15.58ZM209.639 11.114H211.487C211.417 15.384 211.389 21.32 205.383 24.218C205.117 23.756 204.599 23.154 204.109 22.79C209.849 20.228 209.597 14.908 209.639 11.114ZM218.389 13.634H230.835V15.272H218.389V13.634ZM221.553 15.72C222.701 19.906 225.361 22.048 230.975 22.622C230.625 23 230.163 23.756 229.967 24.232C224.031 23.476 221.441 20.998 219.943 16.112L221.553 15.72ZM225.179 11.338H227.027C226.985 18.044 227.027 22.37 219.299 24.12C219.131 23.672 218.697 23 218.333 22.636C225.487 21.138 225.123 17.68 225.179 11.338ZM232.375 16.952H244.835V18.688H232.375V16.952ZM233.341 12.976H244.079V14.698H233.341V12.976ZM239.249 17.428C240.103 20.158 241.965 21.95 245.297 22.594C244.905 22.958 244.429 23.7 244.191 24.176C240.593 23.28 238.759 21.194 237.667 17.764L239.249 17.428ZM237.653 11.114H239.459V15.678C239.459 18.982 238.717 22.608 233.103 24.288C232.907 23.854 232.403 23.098 232.053 22.748C237.051 21.334 237.653 18.31 237.653 15.678V11.114Z" fill="#005EA4"/>
<path d="M27.4 13.016C27.4 13.496 27.784 13.88 28.264 13.88C28.744 13.88 29.144 13.496 29.144 13.016C29.144 12.536 28.744 12.136 28.264 12.136C27.784 12.136 27.4 12.536 27.4 13.016ZM26.424 13.016C26.424 11.992 27.24 11.16 28.264 11.16C29.288 11.16 30.12 11.992 30.12 13.016C30.12 14.04 29.288 14.856 28.264 14.856C27.24 14.856 26.424 14.04 26.424 13.016ZM24.216 12.376C24.168 12.6 24.072 13.384 24.072 13.784C24.072 14.728 24.072 16.088 24.072 17.016C24.072 18.312 24.072 23.08 24.072 24.424C24.072 25.352 23.528 25.928 22.392 25.928C21.544 25.928 20.6 25.896 19.8 25.8L19.608 23.816C20.28 23.944 20.984 23.992 21.384 23.992C21.8 23.992 21.944 23.848 21.96 23.432C21.976 22.824 21.976 17.768 21.976 17.016C21.976 16.456 21.976 14.744 21.976 13.768C21.976 13.352 21.896 12.664 21.848 12.376H24.216ZM16.376 14.936C16.856 15 17.416 15.048 17.912 15.048C18.888 15.048 26.648 15.048 27.8 15.048C28.248 15.048 28.936 15 29.368 14.952V17.048C28.872 17 28.248 16.984 27.816 16.984C26.664 16.984 18.968 16.984 17.912 16.984C17.432 16.984 16.824 17 16.376 17.048V14.936ZM20.456 19.272C19.72 20.68 18.232 22.776 17.368 23.72L15.624 22.552C16.696 21.528 17.976 19.768 18.632 18.408L20.456 19.272ZM27.32 18.36C28.136 19.384 29.416 21.4 30.056 22.568L28.184 23.608C27.496 22.232 26.36 20.296 25.576 19.304L27.32 18.36ZM31.992 18.792C34.856 18.056 37.192 17.016 38.984 15.912C40.616 14.904 42.44 13.304 43.48 12.04L45.208 13.672C43.752 15.144 41.8 16.648 39.912 17.784C38.104 18.856 35.512 20.056 32.984 20.808L31.992 18.792ZM38.648 16.952L40.92 16.408V23.624C40.92 24.328 40.952 25.32 41.064 25.72H38.52C38.584 25.336 38.648 24.328 38.648 23.624V16.952ZM50.856 12.84C51.96 13.592 54.04 15.256 54.984 16.232L53.352 17.896C52.52 17 50.504 15.256 49.336 14.456L50.856 12.84ZM48.84 23.496C51.352 23.144 53.416 22.328 54.968 21.416C57.704 19.784 59.784 17.352 60.808 15.192L62.04 17.432C60.84 19.608 58.712 21.816 56.136 23.368C54.504 24.344 52.44 25.224 50.2 25.608L48.84 23.496ZM68.008 23.48C68.008 22.248 68.008 15.624 68.008 14.28C68.008 13.704 67.96 12.92 67.848 12.344H70.344C70.28 12.92 70.2 13.608 70.2 14.28C70.2 16.04 70.216 22.296 70.216 23.48C70.216 23.928 70.28 25.048 70.36 25.704H67.848C67.96 25.08 68.008 24.104 68.008 23.48ZM69.736 16.488C71.864 17.08 75.32 18.344 76.888 19.112L75.992 21.336C74.168 20.392 71.48 19.368 69.736 18.792V16.488ZM82.552 25V23.096H86.056V15.576H83.288V14.12C84.76 13.848 85.8 13.72 86.68 13.112H88.408V23.096H91.624V25H82.552Z" fill="#005EA4"/>
</svg>
