<svg width="264" height="36" viewBox="0 0 264 36" fill="none" xmlns="http://www.w3.org/2000/svg">
<rect x="1.5" y="1.5" width="261" height="33" rx="16.5" fill="white" stroke="#005EA4" stroke-width="3"/>
<path d="M109.142 11.954H118.914V24.078H117.108V13.648H110.878V24.092H109.142V11.954ZM110.332 16.658H117.864V18.324H110.332V16.658ZM110.318 21.488H117.864V23.182H110.318V21.488ZM121.896 12.85H123.254V19.5H121.896V12.85ZM129.106 17.75H130.66V24.274H129.106V17.75ZM124.024 11.142H125.508V16.756C125.508 19.556 125.256 22.328 123.1 24.26C122.834 23.938 122.246 23.42 121.882 23.196C123.8 21.502 124.024 19.178 124.024 16.756V11.142ZM126.53 18.786H132.55V20.158H128.014V23.336H126.53V18.786ZM126.67 11.464H133.334V16.028H126.516V14.852H131.766V12.64H126.67V11.464ZM127.076 13.186H132.718V14.32H127.076V13.186ZM131.822 18.786H133.362V21.81C133.362 22.454 133.292 22.832 132.872 23.056C132.48 23.28 131.962 23.294 131.29 23.294C131.248 22.874 131.08 22.314 130.912 21.922C131.234 21.936 131.556 21.936 131.668 21.936C131.78 21.936 131.822 21.894 131.822 21.782V18.786ZM125.76 16.518H134.342V18.926H132.788V17.792H127.244V18.926H125.76V16.518ZM140.054 11.758C139.858 12.444 139.564 13.886 139.48 14.67C140.152 13.592 141.384 12.402 142.952 12.402C144.898 12.402 146.41 14.32 146.41 17.4C146.41 21.362 143.988 23.238 140.278 23.924L139.214 22.3C142.336 21.824 144.52 20.788 144.52 17.4C144.52 15.244 143.792 14.04 142.63 14.04C140.978 14.04 139.522 16.532 139.466 18.366C139.438 18.758 139.452 19.206 139.522 19.85L137.8 19.976C137.716 19.43 137.632 18.576 137.632 17.638C137.632 16.322 137.814 14.6 138.024 13.144C138.08 12.626 138.122 12.066 138.136 11.688L140.054 11.758ZM152.206 11.898H156.168V13.606H152.206V11.898ZM155.342 11.898H157.078C157.078 14.558 157.456 19.71 162.65 22.748C162.258 23.056 161.586 23.798 161.292 24.218C155.958 21.012 155.342 14.754 155.342 11.898ZM154.74 14.964L156.672 15.314C155.692 19.472 153.83 22.482 150.904 24.246C150.596 23.882 149.812 23.182 149.378 22.874C152.304 21.39 153.984 18.674 154.74 14.964ZM171.414 11.184H173.052V13.382H171.414V11.184ZM168.306 12.654H176.412V15.412H174.858V14.082H169.79V15.426H168.306V12.654ZM169.342 15.216H175.334V16.658H169.342V15.216ZM168.502 17.666H176.356V19.164H168.502V17.666ZM170.084 18.394H171.68C171.554 21.404 171.134 23.252 168.124 24.26C167.984 23.854 167.564 23.238 167.242 22.93C169.776 22.174 170 20.83 170.084 18.394ZM172.66 18.226H174.242V22.202C174.242 22.608 174.27 22.664 174.452 22.664C174.536 22.664 174.83 22.664 174.928 22.664C175.152 22.664 175.194 22.44 175.222 21.012C175.53 21.264 176.202 21.53 176.622 21.628C176.482 23.602 176.09 24.134 175.11 24.134C174.858 24.134 174.396 24.134 174.172 24.134C172.94 24.134 172.66 23.658 172.66 22.216V18.226ZM163.994 11.716H167.298V13.214H165.464V24.274H163.994V11.716ZM166.78 11.716H167.06L167.298 11.66L168.39 12.276C168.026 13.48 167.564 15.006 167.158 16.098C168.026 17.19 168.194 18.128 168.194 18.94C168.194 19.85 168.012 20.438 167.564 20.746C167.34 20.9 167.074 20.998 166.766 21.04C166.514 21.068 166.178 21.082 165.856 21.082C165.842 20.676 165.716 20.046 165.492 19.64C165.744 19.654 165.926 19.668 166.094 19.654C166.248 19.654 166.388 19.626 166.486 19.542C166.654 19.416 166.724 19.136 166.724 18.744C166.724 18.086 166.542 17.218 165.744 16.28C166.136 15.02 166.584 13.088 166.78 12.192V11.716ZM177.966 13.41C178.512 13.396 179.072 13.368 179.338 13.34C180.5 13.228 182.81 13.032 185.372 12.808C186.828 12.696 188.354 12.598 189.348 12.556L189.362 14.362C188.606 14.362 187.402 14.376 186.646 14.544C184.966 14.992 183.692 16.812 183.692 18.478C183.692 20.774 185.848 21.614 188.214 21.726L187.556 23.644C184.63 23.462 181.858 21.88 181.858 18.842C181.858 16.84 182.992 15.244 183.93 14.53C182.628 14.67 179.758 14.978 178.148 15.328L177.966 13.41ZM187.36 15.734C187.696 16.224 188.2 17.078 188.466 17.638L187.416 18.1C187.052 17.344 186.758 16.784 186.324 16.168L187.36 15.734ZM188.914 15.09C189.278 15.58 189.81 16.406 190.104 16.952L189.054 17.456C188.676 16.7 188.354 16.168 187.906 15.552L188.914 15.09ZM197.566 11.786C197.44 12.304 197.384 12.668 197.314 13.032C197.146 14.236 196.488 18.856 196.488 20.27C196.488 21.432 197.188 22.062 198.56 22.062C200.52 22.062 201.598 21.152 201.598 20.004C201.598 19.066 201.066 18.156 200.156 17.302L202.116 16.882C203.054 18.058 203.474 19.038 203.474 20.228C203.474 22.342 201.584 23.868 198.518 23.868C196.306 23.868 194.752 22.916 194.752 20.564C194.752 19.136 195.424 14.88 195.564 12.92C195.62 12.276 195.62 11.996 195.592 11.674L197.566 11.786ZM192.568 13.522C193.786 13.928 195.522 14.11 196.95 14.11C198.028 14.11 199.022 14.04 199.722 13.914L199.666 15.594C198.84 15.678 198.07 15.72 196.894 15.72C195.48 15.72 193.772 15.496 192.484 15.132L192.568 13.522ZM192.26 16.994C193.772 17.512 195.396 17.624 196.81 17.624C197.664 17.624 198.7 17.568 199.61 17.456L199.568 19.122C198.798 19.206 197.972 19.248 197.09 19.248C195.228 19.248 193.45 19.052 192.176 18.688L192.26 16.994ZM205.532 16.63H218.496V18.464H205.532V16.63ZM224.992 12.598H232.146V14.054H224.992V12.598ZM224.516 15.286H232.566V16.77H224.516V15.286ZM224.544 17.96H232.468V19.43H224.544V17.96ZM227.694 11.1H229.346V16.238H227.694V11.1ZM229.472 16.686H231.11V22.482C231.11 23.294 230.956 23.728 230.41 23.966C229.85 24.218 229.094 24.246 228.044 24.246C227.988 23.784 227.736 23.112 227.512 22.678C228.198 22.706 228.968 22.706 229.178 22.692C229.402 22.692 229.472 22.65 229.472 22.454V16.686ZM225.104 20.368L226.448 19.598C227.106 20.284 227.848 21.208 228.156 21.894L226.714 22.734C226.448 22.076 225.748 21.082 225.104 20.368ZM220.666 11.968H224.278V21.544H220.666V20.046H222.71V13.466H220.666V11.968ZM220.75 15.944H223.466V17.414H220.75V15.944ZM219.882 11.968H221.436V22.79H219.882V11.968ZM239.944 12.71C238.782 14.348 236.64 16.182 234.344 17.4C234.134 17.008 233.658 16.392 233.294 16.042C235.702 14.866 237.956 12.766 238.992 11.072H240.742C242.254 13.2 244.508 14.964 246.734 15.874C246.328 16.294 245.936 16.868 245.628 17.386C243.486 16.252 241.148 14.362 239.944 12.71ZM236.43 15.314H243.486V16.784H236.43V15.314ZM234.764 18.17H245.138V19.612H234.764V18.17ZM234.05 22.426H245.95V23.868H234.05V22.426ZM239.02 15.902H240.812V23.14H239.02V15.902ZM235.632 20.144L236.99 19.584C237.522 20.298 238.082 21.264 238.292 21.922L236.836 22.552C236.654 21.908 236.136 20.886 235.632 20.144ZM242.758 19.598L244.354 20.2C243.78 21.054 243.164 21.964 242.674 22.552L241.414 22.034C241.862 21.376 242.45 20.354 242.758 19.598Z" fill="#005EA4"/>
<path d="M27.4 12.016C27.4 12.496 27.784 12.88 28.264 12.88C28.744 12.88 29.144 12.496 29.144 12.016C29.144 11.536 28.744 11.136 28.264 11.136C27.784 11.136 27.4 11.536 27.4 12.016ZM26.424 12.016C26.424 10.992 27.24 10.16 28.264 10.16C29.288 10.16 30.12 10.992 30.12 12.016C30.12 13.04 29.288 13.856 28.264 13.856C27.24 13.856 26.424 13.04 26.424 12.016ZM24.216 11.376C24.168 11.6 24.072 12.384 24.072 12.784C24.072 13.728 24.072 15.088 24.072 16.016C24.072 17.312 24.072 22.08 24.072 23.424C24.072 24.352 23.528 24.928 22.392 24.928C21.544 24.928 20.6 24.896 19.8 24.8L19.608 22.816C20.28 22.944 20.984 22.992 21.384 22.992C21.8 22.992 21.944 22.848 21.96 22.432C21.976 21.824 21.976 16.768 21.976 16.016C21.976 15.456 21.976 13.744 21.976 12.768C21.976 12.352 21.896 11.664 21.848 11.376H24.216ZM16.376 13.936C16.856 14 17.416 14.048 17.912 14.048C18.888 14.048 26.648 14.048 27.8 14.048C28.248 14.048 28.936 14 29.368 13.952V16.048C28.872 16 28.248 15.984 27.816 15.984C26.664 15.984 18.968 15.984 17.912 15.984C17.432 15.984 16.824 16 16.376 16.048V13.936ZM20.456 18.272C19.72 19.68 18.232 21.776 17.368 22.72L15.624 21.552C16.696 20.528 17.976 18.768 18.632 17.408L20.456 18.272ZM27.32 17.36C28.136 18.384 29.416 20.4 30.056 21.568L28.184 22.608C27.496 21.232 26.36 19.296 25.576 18.304L27.32 17.36ZM31.992 17.792C34.856 17.056 37.192 16.016 38.984 14.912C40.616 13.904 42.44 12.304 43.48 11.04L45.208 12.672C43.752 14.144 41.8 15.648 39.912 16.784C38.104 17.856 35.512 19.056 32.984 19.808L31.992 17.792ZM38.648 15.952L40.92 15.408V22.624C40.92 23.328 40.952 24.32 41.064 24.72H38.52C38.584 24.336 38.648 23.328 38.648 22.624V15.952ZM50.856 11.84C51.96 12.592 54.04 14.256 54.984 15.232L53.352 16.896C52.52 16 50.504 14.256 49.336 13.456L50.856 11.84ZM48.84 22.496C51.352 22.144 53.416 21.328 54.968 20.416C57.704 18.784 59.784 16.352 60.808 14.192L62.04 16.432C60.84 18.608 58.712 20.816 56.136 22.368C54.504 23.344 52.44 24.224 50.2 24.608L48.84 22.496ZM68.008 22.48C68.008 21.248 68.008 14.624 68.008 13.28C68.008 12.704 67.96 11.92 67.848 11.344H70.344C70.28 11.92 70.2 12.608 70.2 13.28C70.2 15.04 70.216 21.296 70.216 22.48C70.216 22.928 70.28 24.048 70.36 24.704H67.848C67.96 24.08 68.008 23.104 68.008 22.48ZM69.736 15.488C71.864 16.08 75.32 17.344 76.888 18.112L75.992 20.336C74.168 19.392 71.48 18.368 69.736 17.792V15.488ZM86.92 24.208C84.664 24.208 83.128 23.248 82.168 22.16L83.336 20.672C84.216 21.648 85.496 22.304 86.76 22.304C88.088 22.304 89.016 21.664 89.016 20.672C89.016 19.52 88.104 18.784 85.24 18.784V17.088C87.752 17.088 88.728 16.272 88.728 15.28C88.728 14.432 88.056 13.792 86.712 13.792C85.672 13.792 84.632 14.224 83.64 15.232L82.408 13.808C83.656 12.64 85.16 11.92 86.808 11.92C89.352 11.92 90.936 13.184 90.936 15.04C90.936 16.4 90.216 17.376 88.888 17.808V17.872C90.248 18.192 91.24 19.248 91.24 20.864C91.24 22.928 89.272 24.208 86.92 24.208Z" fill="#005EA4"/>
</svg>
