<svg width="222" height="63" viewBox="0 0 222 63" fill="none" xmlns="http://www.w3.org/2000/svg">
<g filter="url(#filter0_d_94_10)">
<mask id="path-1-inside-1_94_10" fill="white">
<path fill-rule="evenodd" clip-rule="evenodd" d="M16.119 0C10.5305 0 6 4.53045 6 10.119V28.9116C6 34.5002 10.5305 39.0306 16.1191 39.0306H104.245L111.087 50.8811L117.929 39.0306H205.49C211.078 39.0306 215.609 34.5002 215.609 28.9116V10.119C215.609 4.53045 211.078 0 205.49 0H16.119Z"/>
</mask>
<path fill-rule="evenodd" clip-rule="evenodd" d="M16.119 0C10.5305 0 6 4.53045 6 10.119V28.9116C6 34.5002 10.5305 39.0306 16.1191 39.0306H104.245L111.087 50.8811L117.929 39.0306H205.49C211.078 39.0306 215.609 34.5002 215.609 28.9116V10.119C215.609 4.53045 211.078 0 205.49 0H16.119Z" fill="white"/>
<path d="M104.245 39.0306L106.749 37.585L105.915 36.1395H104.245V39.0306ZM111.087 50.8811L108.583 52.3267L111.087 56.6634L113.591 52.3267L111.087 50.8811ZM117.929 39.0306V36.1395H116.26L115.425 37.585L117.929 39.0306ZM8.89116 10.119C8.89116 6.12719 12.1272 2.89116 16.119 2.89116V-2.89116C8.93371 -2.89116 3.10884 2.9337 3.10884 10.119H8.89116ZM8.89116 28.9116V10.119H3.10884V28.9116H8.89116ZM16.1191 36.1395C12.1272 36.1395 8.89116 32.9034 8.89116 28.9116H3.10884C3.10884 36.0969 8.93372 41.9218 16.1191 41.9218V36.1395ZM104.245 36.1395H16.1191V41.9218H104.245V36.1395ZM113.591 49.4355L106.749 37.585L101.742 40.4762L108.583 52.3267L113.591 49.4355ZM115.425 37.585L108.583 49.4355L113.591 52.3267L120.433 40.4762L115.425 37.585ZM205.49 36.1395H117.929V41.9218H205.49V36.1395ZM212.718 28.9116C212.718 32.9034 209.482 36.1395 205.49 36.1395V41.9218C212.675 41.9218 218.5 36.0969 218.5 28.9116H212.718ZM212.718 10.119V28.9116H218.5V10.119H212.718ZM205.49 2.89116C209.482 2.89116 212.718 6.1272 212.718 10.119H218.5C218.5 2.93371 212.675 -2.89116 205.49 -2.89116V2.89116ZM16.119 2.89116H205.49V-2.89116H16.119V2.89116Z" fill="#005EA4" mask="url(#path-1-inside-1_94_10)"/>
</g>
<path d="M64.79 18.568V21.61C65.636 21.916 66.446 22.276 67.238 22.708C67.814 23.032 68.84 23.662 69.236 24.184C69.434 24.436 69.56 24.706 69.56 25.048C69.56 25.804 68.912 26.416 68.174 26.416C67.742 26.416 67.4 26.2 67.076 25.966C66.356 25.444 65.6 24.958 64.772 24.616V24.778C64.772 28.018 62.468 28.936 59.624 28.936C57.122 28.936 54.422 27.532 54.422 24.724C54.422 22.96 55.52 21.628 57.14 21.052C57.95 20.764 58.814 20.674 59.66 20.674C60.434 20.674 61.208 20.764 61.964 20.89V14.68C61.964 13.924 62.594 13.258 63.368 13.258C64.142 13.258 64.79 13.906 64.79 14.68V15.868H68.372C69.11 15.868 69.74 16.462 69.74 17.2C69.74 17.938 69.128 18.568 68.39 18.568H64.79ZM61.982 23.5C61.172 23.302 60.344 23.194 59.516 23.194C58.526 23.194 57.248 23.518 57.248 24.742C57.248 26.074 58.652 26.434 59.732 26.434C60.308 26.434 61.046 26.308 61.478 25.894C61.874 25.516 61.982 24.922 61.982 24.4V23.5ZM78.686 20.386C81.584 21.646 84.032 23.194 86.246 25.444C86.948 26.146 87.83 27.028 87.83 27.856C87.83 28.648 87.218 29.242 86.444 29.242C85.742 29.242 85.31 28.756 84.788 28.126C82.754 25.642 79.172 23.23 76.202 22.024C75.338 21.7 74.492 21.394 74.492 20.44C74.492 19.864 74.816 19.36 75.338 19.108L85.526 13.906C85.742 13.798 85.958 13.744 86.174 13.744C86.93 13.744 87.596 14.356 87.596 15.166C87.596 15.796 87.2 16.264 86.66 16.516L78.686 20.386ZM97.5923 18.118V16.732H94.0283C93.3443 16.732 92.7323 16.228 92.7323 15.526C92.7323 14.806 93.3443 14.302 94.0283 14.302H97.5923C97.5923 13.546 98.2043 12.898 98.9603 12.898C99.7163 12.898 100.256 13.528 100.256 14.266V14.302H106.358C107.042 14.302 107.636 14.806 107.636 15.49C107.636 16.138 107.204 16.696 106.358 16.696H100.256V17.758C100.976 17.758 101.696 17.812 102.416 17.902C102.668 17.668 103.01 17.542 103.352 17.542C103.892 17.542 104.324 17.866 104.522 18.352C106.88 19.144 108.428 20.818 108.428 23.374C108.428 25.444 107.366 27.46 105.476 28.396C104.774 28.756 103.694 28.99 102.92 28.99C102.164 28.99 101.498 28.432 101.498 27.64C101.498 27.208 101.732 26.794 102.074 26.56C102.308 26.398 102.632 26.344 102.938 26.308C103.568 26.254 104.144 26.128 104.666 25.786C105.494 25.264 105.89 24.274 105.89 23.338C105.89 21.988 105.08 21.16 103.892 20.674L101.39 25.858C100.886 26.902 100.148 28.09 99.0143 28.504C98.4923 28.684 97.9343 28.756 97.3943 28.756C94.6223 28.756 92.7863 26.326 92.7863 23.698C92.7863 20.782 94.8383 18.73 97.5923 18.118ZM99.9683 23.698L101.588 20.044C101.282 20.026 100.976 20.008 100.67 20.008C100.436 20.008 100.202 20.026 99.9683 20.026V23.698ZM97.5923 20.53C96.1703 21.088 95.3063 22.168 95.3063 23.716C95.3063 24.94 96.0083 26.416 97.3943 26.416C98.1863 26.416 98.7443 25.822 99.1043 25.192H98.9423C98.2043 25.192 97.5923 24.562 97.5923 23.824V20.53ZM123.332 25.804C124.196 25.246 124.916 24.49 124.916 23.41C124.916 21.016 121.748 20.71 119.966 20.71C118.058 20.71 116.78 21.088 115.142 22.024L114.026 22.672C113.198 23.14 112.154 22.51 112.154 21.556C112.154 20.98 112.55 20.584 113.054 20.35L120.974 16.48L114.944 16.534C114.26 16.534 113.648 15.958 113.648 15.274C113.648 14.572 114.242 13.996 114.926 13.996H125.204C125.906 13.996 126.464 14.554 126.464 15.256C126.464 15.904 126.086 16.246 125.546 16.498L121.19 18.604C121.406 18.586 121.604 18.568 121.82 18.568C124.754 18.568 127.616 20.044 127.616 23.302C127.616 25.228 126.536 26.938 124.88 27.892C123.476 28.72 121.766 29.008 120.164 29.008C118.868 29.008 117.518 28.81 116.384 28.162C115.304 27.532 114.494 26.488 114.494 25.21C114.494 24.256 114.998 23.392 115.772 22.834C116.636 22.204 117.932 22.042 118.976 22.042C120.992 22.042 123.368 22.888 123.368 25.282C123.368 25.462 123.35 25.624 123.332 25.804ZM120.776 26.65C120.794 26.488 120.848 26.326 120.902 26.164C120.974 25.966 120.992 25.786 120.992 25.588C120.992 24.508 119.606 24.292 118.778 24.292C118.112 24.292 117.014 24.418 117.014 25.318C117.014 26.524 119.03 26.686 119.894 26.686C120.182 26.686 120.47 26.686 120.776 26.65ZM137.66 18.856H139.46C139.298 18.658 139.19 18.46 139.19 18.19C139.19 17.812 139.37 17.506 139.55 17.2C139.892 16.588 140 16.03 140 15.346V14.824C140 13.096 140.774 13.06 142.25 12.988C143.852 12.916 144.68 12.844 145.796 12.682C146.012 12.646 146.372 12.61 146.48 12.61C147.128 12.61 147.488 13.024 147.488 13.672C147.488 14.41 147.02 14.572 146.39 14.644C145.22 14.788 144.05 14.824 142.844 14.86C142.484 14.878 142.358 14.914 142.358 15.274V15.4H146.984C147.668 15.4 148.046 15.67 148.046 16.39C148.046 17.056 147.596 17.29 146.984 17.29H145.796V18.28C145.796 18.586 145.778 18.784 145.544 19.018C146.39 19.36 146.57 20.134 146.57 20.962V24.49C146.57 26.002 145.94 26.596 144.428 26.596H143.366C144.266 26.92 144.968 27.1 145.904 27.262C147.218 27.478 147.794 27.586 147.794 28.45C147.794 29.188 147.308 29.674 146.57 29.674C145.544 29.674 143.708 29.134 142.718 28.792C141.602 28.396 141.098 28.216 141.098 27.532C141.098 27.154 141.224 26.848 141.494 26.596H137.498C137.75 26.866 137.912 27.19 137.912 27.568C137.912 28.288 136.958 28.594 135.716 28.972C134.834 29.242 133.286 29.692 132.368 29.692C131.54 29.692 131.18 29.044 131.18 28.45C131.18 27.64 131.684 27.496 132.656 27.352C133.538 27.226 134.816 26.884 135.644 26.596H134.546C133.034 26.596 132.404 26.002 132.404 24.49V20.962C132.404 20.566 132.44 20.224 132.584 19.828C132.548 19.846 132.494 19.846 132.44 19.846C131.792 19.846 131.036 19.306 131.036 18.604C131.036 18.316 131.216 17.956 131.504 17.488C131.882 16.876 132.098 16.102 132.098 15.346V14.86C132.098 13.204 132.602 13.024 134.114 12.97C135.482 12.916 136.382 12.862 137.786 12.628C137.93 12.61 138.074 12.592 138.2 12.592C138.794 12.592 139.154 13.078 139.154 13.636C139.154 14.5 138.596 14.608 137.876 14.68C137.084 14.752 135.68 14.86 134.888 14.86C134.582 14.86 134.42 14.896 134.42 15.238V15.4H138.416C139.064 15.4 139.478 15.652 139.478 16.354C139.478 17.02 139.082 17.29 138.434 17.29H137.768V18.28C137.768 18.478 137.75 18.676 137.66 18.856ZM135.356 18.856C135.266 18.676 135.248 18.478 135.248 18.28V17.29H134.204C134.078 17.938 133.952 18.37 133.628 18.946C133.934 18.874 134.24 18.856 134.546 18.856H135.356ZM143.348 18.856C143.258 18.676 143.24 18.478 143.24 18.28V17.29H142.142C141.98 17.902 141.872 18.316 141.512 18.856H143.348ZM143.816 21.088V20.8C143.816 20.566 143.708 20.458 143.474 20.458H135.482C135.248 20.458 135.14 20.566 135.14 20.8V21.088H143.816ZM143.816 22.348H135.14V22.996H143.816V22.348ZM143.816 24.274H135.14V24.562C135.14 24.796 135.248 24.904 135.482 24.904H143.474C143.69 24.904 143.816 24.796 143.816 24.562V24.274ZM161.15 27.82C160.898 27.856 160.646 27.856 160.412 27.856H157.442C155.534 27.856 155.174 27.478 155.174 25.57V23.68C155.174 21.79 155.534 21.412 157.442 21.412H160.412C162.32 21.412 162.68 21.79 162.68 23.68V25.57C162.68 26.002 162.68 26.38 162.59 26.812C163.022 26.812 163.634 26.848 163.832 26.848C164.246 26.848 164.246 26.506 164.246 26.254V20.692H161.51C159.998 20.692 159.368 20.062 159.368 18.55V15.238C159.368 13.708 159.998 13.096 161.51 13.096H164.768C166.298 13.096 166.91 13.708 166.91 15.238V27.676C166.91 28.36 166.73 29.098 166.028 29.458C165.65 29.656 164.426 29.674 163.724 29.674H163.292C162.194 29.674 161.114 29.638 161.114 28.18C161.114 28.072 161.132 27.946 161.15 27.82ZM153.59 20.692V28.396C153.59 29.332 153.14 29.728 152.204 29.728C151.322 29.728 150.944 29.242 150.944 28.396V15.238C150.944 13.708 151.556 13.096 153.068 13.096H156.344C157.856 13.096 158.468 13.708 158.468 15.238V18.55C158.468 20.062 157.856 20.692 156.344 20.692H153.59ZM164.246 16.12V15.67C164.246 15.436 164.12 15.328 163.904 15.328H162.284C162.068 15.328 161.942 15.436 161.942 15.67V16.12H164.246ZM155.894 16.12V15.67C155.894 15.436 155.768 15.328 155.552 15.328H153.932C153.698 15.328 153.59 15.436 153.59 15.67V16.12H155.894ZM164.246 18.694V17.866H161.942V18.352C161.942 18.586 162.068 18.694 162.284 18.694H164.246ZM153.59 18.694H155.552C155.768 18.694 155.894 18.586 155.894 18.352V17.866H153.59V18.694ZM159.836 23.608H158.018C157.766 23.608 157.658 23.734 157.658 23.986V25.174C157.658 25.408 157.766 25.534 158.018 25.534H159.836C160.07 25.534 160.196 25.408 160.196 25.174V23.986C160.196 23.734 160.07 23.608 159.836 23.608Z" fill="#005EA4"/>
<defs>
<filter id="filter0_d_94_10" x="0.217687" y="0" width="221.174" height="62.4455" filterUnits="userSpaceOnUse" color-interpolation-filters="sRGB">
<feFlood flood-opacity="0" result="BackgroundImageFix"/>
<feColorMatrix in="SourceAlpha" type="matrix" values="0 0 0 0 0 0 0 0 0 0 0 0 0 0 0 0 0 0 127 0" result="hardAlpha"/>
<feOffset dy="5.78231"/>
<feGaussianBlur stdDeviation="2.89116"/>
<feComposite in2="hardAlpha" operator="out"/>
<feColorMatrix type="matrix" values="0 0 0 0 0 0 0 0 0 0 0 0 0 0 0 0 0 0 0.25 0"/>
<feBlend mode="normal" in2="BackgroundImageFix" result="effect1_dropShadow_94_10"/>
<feBlend mode="normal" in="SourceGraphic" in2="effect1_dropShadow_94_10" result="shape"/>
</filter>
</defs>
</svg>
