<svg width="14" height="14" viewBox="0 0 14 14" fill="none" xmlns="http://www.w3.org/2000/svg">
<path d="M13.7188 13.2188H11.4297L10.4844 12.25C9.47917 12.8958 8.35938 13.2188 7.125 13.2188C5.52604 13.2188 4.10677 12.6771 2.86719 11.5938C1.51823 10.401 0.84375 8.8776 0.84375 7.02344C0.84375 5.20573 1.48177 3.6901 2.75781 2.47656C3.9974 1.29948 5.46094 0.710938 7.14844 0.710938C8.67969 0.710938 10.0521 1.22656 11.2656 2.25781C12.724 3.4974 13.4531 5.11458 13.4531 7.10938C13.4531 8.67188 12.8776 10.0599 11.7266 11.2734L13.7188 13.2188ZM8.71094 8.22656L10.4609 9.96875C11.2318 9.16667 11.6172 8.17448 11.6172 6.99219C11.6172 5.69531 11.1875 4.60938 10.3281 3.73438C9.46875 2.85938 8.40104 2.42188 7.125 2.42188C5.83333 2.42188 4.77083 2.85938 3.9375 3.73438C3.09896 4.60417 2.67969 5.70573 2.67969 7.03906C2.67969 8.34115 3.11198 9.40625 3.97656 10.2344C4.8776 11.0885 5.90625 11.5156 7.0625 11.5156C7.84896 11.5156 8.5599 11.3359 9.19531 10.9766L6.35938 8.22656H8.71094Z" fill="#353535"/>
</svg>
