<svg width="31" height="32" viewBox="0 0 31 32" fill="none" xmlns="http://www.w3.org/2000/svg">
<path fill-rule="evenodd" clip-rule="evenodd" d="M19.4602 4.69235C19.4602 2.56817 17.7382 0.846191 15.6141 0.846191C13.4899 0.846191 11.7679 2.56817 11.7679 4.69234L11.7679 11.616H4.07662C1.95245 11.616 0.230469 13.338 0.230469 15.4622C0.230469 17.5863 1.95245 19.3083 4.07662 19.3083H11.7679L11.7679 27.7693C11.7679 29.8934 13.4899 31.6154 15.6141 31.6154C17.7382 31.6154 19.4602 29.8934 19.4602 27.7693V19.3083H27.1535C29.2777 19.3083 30.9997 17.5863 30.9997 15.4622C30.9997 13.338 29.2777 11.616 27.1535 11.616H19.4602V4.69235Z" fill="#005EA4"/>
</svg>
